<?xml version="1.0" encoding="utf-8" standalone="no"?>
<!DOCTYPE svg PUBLIC "-//W3C//DTD SVG 1.1//EN"
  "http://www.w3.org/Graphics/SVG/1.1/DTD/svg11.dtd">
<svg xmlns:xlink="http://www.w3.org/1999/xlink" width="789.3pt" height="383.4pt" viewBox="0 0 789.3 383.4" xmlns="http://www.w3.org/2000/svg" version="1.1">
 <metadata>
  <rdf:RDF xmlns:dc="http://purl.org/dc/elements/1.1/" xmlns:cc="http://creativecommons.org/ns#" xmlns:rdf="http://www.w3.org/1999/02/22-rdf-syntax-ns#">
   <cc:Work>
    <dc:type rdf:resource="http://purl.org/dc/dcmitype/StillImage"/>
    <dc:date>2023-12-18T08:43:37.959913</dc:date>
    <dc:format>image/svg+xml</dc:format>
    <dc:creator>
     <cc:Agent>
      <dc:title>Matplotlib v3.8.2, https://matplotlib.org/</dc:title>
     </cc:Agent>
    </dc:creator>
   </cc:Work>
  </rdf:RDF>
 </metadata>
 <defs>
  <style type="text/css">*{stroke-linejoin: round; stroke-linecap: butt}</style>
 </defs>
 <g id="figure_1">
  <g id="patch_1">
   <path d="M 0 383.4 
L 789.3 383.4 
L 789.3 0 
L 0 0 
L 0 383.4 
z
" style="fill: none"/>
  </g>
  <g id="axes_1">
   <g id="patch_2">
    <path d="M 291.15 218.7 
L 291.15 200.7 
L 489.15 200.7 
L 489.15 236.7 
L 291.15 236.7 
z
" clip-path="url(#pa2d308d076)" style="fill: #d3d3d3; stroke: #d3d3d3; stroke-linejoin: miter"/>
   </g>
   <g id="patch_3">
    <path d="M 291.15 299.7 
L 291.15 236.7 
L 489.15 236.7 
L 489.15 362.7 
L 291.15 362.7 
L 291.15 299.7 
z
" clip-path="url(#pa2d308d076)" style="fill: none"/>
   </g>
   <g id="patch_4">
    <path d="M 39.15 227.7 
L 39.15 209.7 
L 237.15 209.7 
L 237.15 245.7 
L 39.15 245.7 
z
" clip-path="url(#pa2d308d076)" style="fill: #d3d3d3; stroke: #d3d3d3; stroke-linejoin: miter"/>
   </g>
   <g id="patch_5">
    <path d="M 39.15 299.7 
L 39.15 245.7 
L 237.15 245.7 
L 237.15 353.7 
L 39.15 353.7 
L 39.15 299.7 
z
" clip-path="url(#pa2d308d076)" style="fill: none"/>
   </g>
   <g id="patch_6">
    <path d="M 291.15 47.7 
L 291.15 29.7 
L 489.15 29.7 
L 489.15 65.7 
L 291.15 65.7 
z
" clip-path="url(#pa2d308d076)" style="fill: #d3d3d3; stroke: #d3d3d3; stroke-linejoin: miter"/>
   </g>
   <g id="patch_7">
    <path d="M 291.15 119.7 
L 291.15 65.7 
L 489.15 65.7 
L 489.15 173.7 
L 291.15 173.7 
L 291.15 119.7 
z
" clip-path="url(#pa2d308d076)" style="fill: none"/>
   </g>
   <g id="patch_8">
    <path d="M 39.15 38.7 
L 39.15 20.7 
L 237.15 20.7 
L 237.15 56.7 
L 39.15 56.7 
z
" clip-path="url(#pa2d308d076)" style="fill: #d3d3d3; stroke: #d3d3d3; stroke-linejoin: miter"/>
   </g>
   <g id="patch_9">
    <path d="M 39.15 119.7 
L 39.15 56.7 
L 237.15 56.7 
L 237.15 182.7 
L 39.15 182.7 
L 39.15 119.7 
z
" clip-path="url(#pa2d308d076)" style="fill: none"/>
   </g>
   <g id="patch_10">
    <path d="M 543.15 245.7 
L 543.15 227.7 
L 741.15 227.7 
L 741.15 263.7 
L 543.15 263.7 
z
" clip-path="url(#pa2d308d076)" style="fill: #d3d3d3; stroke: #d3d3d3; stroke-linejoin: miter"/>
   </g>
   <g id="patch_11">
    <path d="M 543.15 299.7 
L 543.15 263.7 
L 741.15 263.7 
L 741.15 335.7 
L 543.15 335.7 
L 543.15 299.7 
z
" clip-path="url(#pa2d308d076)" style="fill: none"/>
   </g>
   <g id="patch_12">
    <path d="M 534.15 65.7 
L 534.15 47.7 
L 750.15 47.7 
L 750.15 83.7 
L 534.15 83.7 
z
" clip-path="url(#pa2d308d076)" style="fill: #d3d3d3; stroke: #d3d3d3; stroke-linejoin: miter"/>
   </g>
   <g id="patch_13">
    <path d="M 534.15 119.7 
L 534.15 83.7 
L 750.15 83.7 
L 750.15 155.7 
L 534.15 155.7 
L 534.15 119.7 
z
" clip-path="url(#pa2d308d076)" style="fill: none"/>
   </g>
   <g id="line2d_1">
    <path d="M 291.15 218.7 
L 291.15 200.7 
L 489.15 200.7 
L 489.15 236.7 
L 291.15 236.7 
L 291.15 218.7 
" clip-path="url(#pa2d308d076)" style="fill: none; stroke: #000000; stroke-width: 2; stroke-linecap: round"/>
   </g>
   <g id="line2d_2">
    <path d="M 291.15 299.7 
L 291.15 236.7 
L 489.15 236.7 
L 489.15 362.7 
L 291.15 362.7 
L 291.15 299.7 
" clip-path="url(#pa2d308d076)" style="fill: none; stroke: #000000; stroke-width: 2; stroke-linecap: round"/>
   </g>
   <g id="line2d_3">
    <path d="M 39.15 227.7 
L 39.15 209.7 
L 237.15 209.7 
L 237.15 245.7 
L 39.15 245.7 
L 39.15 227.7 
" clip-path="url(#pa2d308d076)" style="fill: none; stroke: #000000; stroke-width: 2; stroke-linecap: round"/>
   </g>
   <g id="line2d_4">
    <path d="M 39.15 299.7 
L 39.15 245.7 
L 237.15 245.7 
L 237.15 353.7 
L 39.15 353.7 
L 39.15 299.7 
" clip-path="url(#pa2d308d076)" style="fill: none; stroke: #000000; stroke-width: 2; stroke-linecap: round"/>
   </g>
   <g id="line2d_5">
    <path d="M 291.15 47.7 
L 291.15 29.7 
L 489.15 29.7 
L 489.15 65.7 
L 291.15 65.7 
L 291.15 47.7 
" clip-path="url(#pa2d308d076)" style="fill: none; stroke: #000000; stroke-width: 2; stroke-linecap: round"/>
   </g>
   <g id="line2d_6">
    <path d="M 291.15 119.7 
L 291.15 65.7 
L 489.15 65.7 
L 489.15 173.7 
L 291.15 173.7 
L 291.15 119.7 
" clip-path="url(#pa2d308d076)" style="fill: none; stroke: #000000; stroke-width: 2; stroke-linecap: round"/>
   </g>
   <g id="line2d_7">
    <path d="M 39.15 38.7 
L 39.15 20.7 
L 237.15 20.7 
L 237.15 56.7 
L 39.15 56.7 
L 39.15 38.7 
" clip-path="url(#pa2d308d076)" style="fill: none; stroke: #000000; stroke-width: 2; stroke-linecap: round"/>
   </g>
   <g id="line2d_8">
    <path d="M 39.15 119.7 
L 39.15 56.7 
L 237.15 56.7 
L 237.15 182.7 
L 39.15 182.7 
L 39.15 119.7 
" clip-path="url(#pa2d308d076)" style="fill: none; stroke: #000000; stroke-width: 2; stroke-linecap: round"/>
   </g>
   <g id="line2d_9">
    <path d="M 543.15 245.7 
L 543.15 227.7 
L 741.15 227.7 
L 741.15 263.7 
L 543.15 263.7 
L 543.15 245.7 
" clip-path="url(#pa2d308d076)" style="fill: none; stroke: #000000; stroke-width: 2; stroke-linecap: round"/>
   </g>
   <g id="line2d_10">
    <path d="M 543.15 299.7 
L 543.15 263.7 
L 741.15 263.7 
L 741.15 335.7 
L 543.15 335.7 
L 543.15 299.7 
" clip-path="url(#pa2d308d076)" style="fill: none; stroke: #000000; stroke-width: 2; stroke-linecap: round"/>
   </g>
   <g id="line2d_11">
    <path d="M 534.15 65.7 
L 534.15 47.7 
L 750.15 47.7 
L 750.15 83.7 
L 534.15 83.7 
L 534.15 65.7 
" clip-path="url(#pa2d308d076)" style="fill: none; stroke: #000000; stroke-width: 2; stroke-linecap: round"/>
   </g>
   <g id="line2d_12">
    <path d="M 534.15 119.7 
L 534.15 83.7 
L 750.15 83.7 
L 750.15 155.7 
L 534.15 155.7 
L 534.15 119.7 
" clip-path="url(#pa2d308d076)" style="fill: none; stroke: #000000; stroke-width: 2; stroke-linecap: round"/>
   </g>
   <g id="line2d_13">
    <path d="M 246.15 280.7 
L 264.15 280.7 
L 282.15 280.7 
" clip-path="url(#pa2d308d076)" style="fill: none; stroke: #000000; stroke-width: 2; stroke-linecap: round"/>
   </g>
   <g id="patch_14">
    <path d="M 246.15 283.4 
L 237.15 280.7 
L 246.15 278 
z
" clip-path="url(#pa2d308d076)"/>
   </g>
   <g id="patch_15">
    <path d="M 282.15 278 
L 291.15 280.7 
L 282.15 283.4 
z
" clip-path="url(#pa2d308d076)"/>
   </g>
   <g id="line2d_14">
    <path d="M 246.15 100.7 
L 264.15 100.7 
L 282.15 100.7 
" clip-path="url(#pa2d308d076)" style="fill: none; stroke: #000000; stroke-width: 2; stroke-linecap: round"/>
   </g>
   <g id="patch_16">
    <path d="M 246.15 103.4 
L 237.15 100.7 
L 246.15 98 
z
" clip-path="url(#pa2d308d076)"/>
   </g>
   <g id="patch_17">
    <path d="M 282.15 98 
L 291.15 100.7 
L 282.15 103.4 
z
" clip-path="url(#pa2d308d076)"/>
   </g>
   <g id="line2d_15">
    <path d="M 390.15 182.7 
L 390.15 187.2 
L 390.15 191.7 
" clip-path="url(#pa2d308d076)" style="fill: none; stroke: #000000; stroke-width: 2; stroke-linecap: round"/>
   </g>
   <g id="patch_18">
    <path d="M 387.45 182.7 
L 390.15 173.7 
L 392.85 182.7 
z
" clip-path="url(#pa2d308d076)"/>
   </g>
   <g id="patch_19">
    <path d="M 392.85 191.7 
L 390.15 200.7 
L 387.45 191.7 
z
" clip-path="url(#pa2d308d076)"/>
   </g>
   <g id="line2d_16">
    <path d="M 498.15 100.7 
L 511.65 100.7 
L 525.15 100.7 
" clip-path="url(#pa2d308d076)" style="fill: none; stroke: #000000; stroke-width: 2; stroke-linecap: round"/>
   </g>
   <g id="patch_20">
    <path d="M 498.15 103.4 
L 489.15 100.7 
L 498.15 98 
z
" clip-path="url(#pa2d308d076)"/>
   </g>
   <g id="patch_21">
    <path d="M 525.15 98 
L 534.15 100.7 
L 525.15 103.4 
z
" clip-path="url(#pa2d308d076)"/>
   </g>
   <g id="line2d_17">
    <path d="M 489.15 173.7 
L 516.15 199.7 
L 536.667118 219.457225 
" clip-path="url(#pa2d308d076)" style="fill: none; stroke: #000000; stroke-width: 2; stroke-linecap: round"/>
   </g>
   <g id="patch_22">
    <path d="M 538.539951 217.51236 
L 543.15 225.7 
L 534.794286 221.402089 
z
" clip-path="url(#pa2d308d076)"/>
   </g>
   <g id="line2d_18">
    <path d="M 489.15 280.7 
L 516.15 280.7 
L 534.15 280.7 
" clip-path="url(#pa2d308d076)" style="fill: none; stroke: #000000; stroke-width: 2; stroke-linecap: round"/>
   </g>
   <g id="patch_23">
    <path d="M 534.15 278 
L 543.15 280.7 
L 534.15 283.4 
z
" clip-path="url(#pa2d308d076)"/>
   </g>
   <g id="line2d_19">
    <path d="M 642.15 227.7 
L 642.15 191.7 
L 642.15 164.7 
" clip-path="url(#pa2d308d076)" style="fill: none; stroke: #000000; stroke-width: 2; stroke-linecap: round"/>
   </g>
   <g id="patch_24">
    <path d="M 639.45 164.7 
L 642.15 155.7 
L 644.85 164.7 
z
" clip-path="url(#pa2d308d076)"/>
   </g>
   <g id="line2d_20">
    <path d="M 291.15 173.7 
L 264.15 190.7 
L 244.766096 202.904681 
" clip-path="url(#pa2d308d076)" style="fill: none; stroke: #000000; stroke-width: 2; stroke-linecap: round"/>
   </g>
   <g id="patch_25">
    <path d="M 246.204691 205.189509 
L 237.15 207.7 
L 243.3275 200.619852 
z
" clip-path="url(#pa2d308d076)"/>
   </g>
   <g id="text_1">
    <!-- Material Properties -->
    <g transform="translate(331.190039 222.149219) scale(0.125 -0.125)">
     <defs>
      <path id="DejaVuSans-4d" d="M 628 4666 
L 1569 4666 
L 2759 1491 
L 3956 4666 
L 4897 4666 
L 4897 0 
L 4281 0 
L 4281 4097 
L 3078 897 
L 2444 897 
L 1241 4097 
L 1241 0 
L 628 0 
L 628 4666 
z
" transform="scale(0.015625)"/>
      <path id="DejaVuSans-61" d="M 2194 1759 
Q 1497 1759 1228 1600 
Q 959 1441 959 1056 
Q 959 750 1161 570 
Q 1363 391 1709 391 
Q 2188 391 2477 730 
Q 2766 1069 2766 1631 
L 2766 1759 
L 2194 1759 
z
M 3341 1997 
L 3341 0 
L 2766 0 
L 2766 531 
Q 2569 213 2275 61 
Q 1981 -91 1556 -91 
Q 1019 -91 701 211 
Q 384 513 384 1019 
Q 384 1609 779 1909 
Q 1175 2209 1959 2209 
L 2766 2209 
L 2766 2266 
Q 2766 2663 2505 2880 
Q 2244 3097 1772 3097 
Q 1472 3097 1187 3025 
Q 903 2953 641 2809 
L 641 3341 
Q 956 3463 1253 3523 
Q 1550 3584 1831 3584 
Q 2591 3584 2966 3190 
Q 3341 2797 3341 1997 
z
" transform="scale(0.015625)"/>
      <path id="DejaVuSans-74" d="M 1172 4494 
L 1172 3500 
L 2356 3500 
L 2356 3053 
L 1172 3053 
L 1172 1153 
Q 1172 725 1289 603 
Q 1406 481 1766 481 
L 2356 481 
L 2356 0 
L 1766 0 
Q 1100 0 847 248 
Q 594 497 594 1153 
L 594 3053 
L 172 3053 
L 172 3500 
L 594 3500 
L 594 4494 
L 1172 4494 
z
" transform="scale(0.015625)"/>
      <path id="DejaVuSans-65" d="M 3597 1894 
L 3597 1613 
L 953 1613 
Q 991 1019 1311 708 
Q 1631 397 2203 397 
Q 2534 397 2845 478 
Q 3156 559 3463 722 
L 3463 178 
Q 3153 47 2828 -22 
Q 2503 -91 2169 -91 
Q 1331 -91 842 396 
Q 353 884 353 1716 
Q 353 2575 817 3079 
Q 1281 3584 2069 3584 
Q 2775 3584 3186 3129 
Q 3597 2675 3597 1894 
z
M 3022 2063 
Q 3016 2534 2758 2815 
Q 2500 3097 2075 3097 
Q 1594 3097 1305 2825 
Q 1016 2553 972 2059 
L 3022 2063 
z
" transform="scale(0.015625)"/>
      <path id="DejaVuSans-72" d="M 2631 2963 
Q 2534 3019 2420 3045 
Q 2306 3072 2169 3072 
Q 1681 3072 1420 2755 
Q 1159 2438 1159 1844 
L 1159 0 
L 581 0 
L 581 3500 
L 1159 3500 
L 1159 2956 
Q 1341 3275 1631 3429 
Q 1922 3584 2338 3584 
Q 2397 3584 2469 3576 
Q 2541 3569 2628 3553 
L 2631 2963 
z
" transform="scale(0.015625)"/>
      <path id="DejaVuSans-69" d="M 603 3500 
L 1178 3500 
L 1178 0 
L 603 0 
L 603 3500 
z
M 603 4863 
L 1178 4863 
L 1178 4134 
L 603 4134 
L 603 4863 
z
" transform="scale(0.015625)"/>
      <path id="DejaVuSans-6c" d="M 603 4863 
L 1178 4863 
L 1178 0 
L 603 0 
L 603 4863 
z
" transform="scale(0.015625)"/>
      <path id="DejaVuSans-20" transform="scale(0.015625)"/>
      <path id="DejaVuSans-50" d="M 1259 4147 
L 1259 2394 
L 2053 2394 
Q 2494 2394 2734 2622 
Q 2975 2850 2975 3272 
Q 2975 3691 2734 3919 
Q 2494 4147 2053 4147 
L 1259 4147 
z
M 628 4666 
L 2053 4666 
Q 2838 4666 3239 4311 
Q 3641 3956 3641 3272 
Q 3641 2581 3239 2228 
Q 2838 1875 2053 1875 
L 1259 1875 
L 1259 0 
L 628 0 
L 628 4666 
z
" transform="scale(0.015625)"/>
      <path id="DejaVuSans-6f" d="M 1959 3097 
Q 1497 3097 1228 2736 
Q 959 2375 959 1747 
Q 959 1119 1226 758 
Q 1494 397 1959 397 
Q 2419 397 2687 759 
Q 2956 1122 2956 1747 
Q 2956 2369 2687 2733 
Q 2419 3097 1959 3097 
z
M 1959 3584 
Q 2709 3584 3137 3096 
Q 3566 2609 3566 1747 
Q 3566 888 3137 398 
Q 2709 -91 1959 -91 
Q 1206 -91 779 398 
Q 353 888 353 1747 
Q 353 2609 779 3096 
Q 1206 3584 1959 3584 
z
" transform="scale(0.015625)"/>
      <path id="DejaVuSans-70" d="M 1159 525 
L 1159 -1331 
L 581 -1331 
L 581 3500 
L 1159 3500 
L 1159 2969 
Q 1341 3281 1617 3432 
Q 1894 3584 2278 3584 
Q 2916 3584 3314 3078 
Q 3713 2572 3713 1747 
Q 3713 922 3314 415 
Q 2916 -91 2278 -91 
Q 1894 -91 1617 61 
Q 1341 213 1159 525 
z
M 3116 1747 
Q 3116 2381 2855 2742 
Q 2594 3103 2138 3103 
Q 1681 3103 1420 2742 
Q 1159 2381 1159 1747 
Q 1159 1113 1420 752 
Q 1681 391 2138 391 
Q 2594 391 2855 752 
Q 3116 1113 3116 1747 
z
" transform="scale(0.015625)"/>
      <path id="DejaVuSans-73" d="M 2834 3397 
L 2834 2853 
Q 2591 2978 2328 3040 
Q 2066 3103 1784 3103 
Q 1356 3103 1142 2972 
Q 928 2841 928 2578 
Q 928 2378 1081 2264 
Q 1234 2150 1697 2047 
L 1894 2003 
Q 2506 1872 2764 1633 
Q 3022 1394 3022 966 
Q 3022 478 2636 193 
Q 2250 -91 1575 -91 
Q 1294 -91 989 -36 
Q 684 19 347 128 
L 347 722 
Q 666 556 975 473 
Q 1284 391 1588 391 
Q 1994 391 2212 530 
Q 2431 669 2431 922 
Q 2431 1156 2273 1281 
Q 2116 1406 1581 1522 
L 1381 1569 
Q 847 1681 609 1914 
Q 372 2147 372 2553 
Q 372 3047 722 3315 
Q 1072 3584 1716 3584 
Q 2034 3584 2315 3537 
Q 2597 3491 2834 3397 
z
" transform="scale(0.015625)"/>
     </defs>
     <use xlink:href="#DejaVuSans-4d"/>
     <use xlink:href="#DejaVuSans-61" x="86.279297"/>
     <use xlink:href="#DejaVuSans-74" x="147.558594"/>
     <use xlink:href="#DejaVuSans-65" x="186.767578"/>
     <use xlink:href="#DejaVuSans-72" x="248.291016"/>
     <use xlink:href="#DejaVuSans-69" x="289.404297"/>
     <use xlink:href="#DejaVuSans-61" x="317.1875"/>
     <use xlink:href="#DejaVuSans-6c" x="378.466797"/>
     <use xlink:href="#DejaVuSans-20" x="406.25"/>
     <use xlink:href="#DejaVuSans-50" x="438.037109"/>
     <use xlink:href="#DejaVuSans-72" x="496.589844"/>
     <use xlink:href="#DejaVuSans-6f" x="535.453125"/>
     <use xlink:href="#DejaVuSans-70" x="596.634766"/>
     <use xlink:href="#DejaVuSans-65" x="660.111328"/>
     <use xlink:href="#DejaVuSans-72" x="721.634766"/>
     <use xlink:href="#DejaVuSans-74" x="762.748047"/>
     <use xlink:href="#DejaVuSans-69" x="801.957031"/>
     <use xlink:href="#DejaVuSans-65" x="829.740234"/>
     <use xlink:href="#DejaVuSans-73" x="891.263672"/>
    </g>
   </g>
   <g id="text_2">
    <!-- Flow Stress -->
    <g transform="translate(354.692969 268.156055) scale(0.125 -0.125)">
     <defs>
      <path id="DejaVuSans-46" d="M 628 4666 
L 3309 4666 
L 3309 4134 
L 1259 4134 
L 1259 2759 
L 3109 2759 
L 3109 2228 
L 1259 2228 
L 1259 0 
L 628 0 
L 628 4666 
z
" transform="scale(0.015625)"/>
      <path id="DejaVuSans-77" d="M 269 3500 
L 844 3500 
L 1563 769 
L 2278 3500 
L 2956 3500 
L 3675 769 
L 4391 3500 
L 4966 3500 
L 4050 0 
L 3372 0 
L 2619 2869 
L 1863 0 
L 1184 0 
L 269 3500 
z
" transform="scale(0.015625)"/>
      <path id="DejaVuSans-53" d="M 3425 4513 
L 3425 3897 
Q 3066 4069 2747 4153 
Q 2428 4238 2131 4238 
Q 1616 4238 1336 4038 
Q 1056 3838 1056 3469 
Q 1056 3159 1242 3001 
Q 1428 2844 1947 2747 
L 2328 2669 
Q 3034 2534 3370 2195 
Q 3706 1856 3706 1288 
Q 3706 609 3251 259 
Q 2797 -91 1919 -91 
Q 1588 -91 1214 -16 
Q 841 59 441 206 
L 441 856 
Q 825 641 1194 531 
Q 1563 422 1919 422 
Q 2459 422 2753 634 
Q 3047 847 3047 1241 
Q 3047 1584 2836 1778 
Q 2625 1972 2144 2069 
L 1759 2144 
Q 1053 2284 737 2584 
Q 422 2884 422 3419 
Q 422 4038 858 4394 
Q 1294 4750 2059 4750 
Q 2388 4750 2728 4690 
Q 3069 4631 3425 4513 
z
" transform="scale(0.015625)"/>
     </defs>
     <use xlink:href="#DejaVuSans-46"/>
     <use xlink:href="#DejaVuSans-6c" x="57.519531"/>
     <use xlink:href="#DejaVuSans-6f" x="85.302734"/>
     <use xlink:href="#DejaVuSans-77" x="146.484375"/>
     <use xlink:href="#DejaVuSans-20" x="228.271484"/>
     <use xlink:href="#DejaVuSans-53" x="260.058594"/>
     <use xlink:href="#DejaVuSans-74" x="323.535156"/>
     <use xlink:href="#DejaVuSans-72" x="362.744141"/>
     <use xlink:href="#DejaVuSans-65" x="401.607422"/>
     <use xlink:href="#DejaVuSans-73" x="463.130859"/>
     <use xlink:href="#DejaVuSans-73" x="515.230469"/>
    </g>
    <!-- Hardening -->
    <g transform="translate(357.720313 282.15332) scale(0.125 -0.125)">
     <defs>
      <path id="DejaVuSans-48" d="M 628 4666 
L 1259 4666 
L 1259 2753 
L 3553 2753 
L 3553 4666 
L 4184 4666 
L 4184 0 
L 3553 0 
L 3553 2222 
L 1259 2222 
L 1259 0 
L 628 0 
L 628 4666 
z
" transform="scale(0.015625)"/>
      <path id="DejaVuSans-64" d="M 2906 2969 
L 2906 4863 
L 3481 4863 
L 3481 0 
L 2906 0 
L 2906 525 
Q 2725 213 2448 61 
Q 2172 -91 1784 -91 
Q 1150 -91 751 415 
Q 353 922 353 1747 
Q 353 2572 751 3078 
Q 1150 3584 1784 3584 
Q 2172 3584 2448 3432 
Q 2725 3281 2906 2969 
z
M 947 1747 
Q 947 1113 1208 752 
Q 1469 391 1925 391 
Q 2381 391 2643 752 
Q 2906 1113 2906 1747 
Q 2906 2381 2643 2742 
Q 2381 3103 1925 3103 
Q 1469 3103 1208 2742 
Q 947 2381 947 1747 
z
" transform="scale(0.015625)"/>
      <path id="DejaVuSans-6e" d="M 3513 2113 
L 3513 0 
L 2938 0 
L 2938 2094 
Q 2938 2591 2744 2837 
Q 2550 3084 2163 3084 
Q 1697 3084 1428 2787 
Q 1159 2491 1159 1978 
L 1159 0 
L 581 0 
L 581 3500 
L 1159 3500 
L 1159 2956 
Q 1366 3272 1645 3428 
Q 1925 3584 2291 3584 
Q 2894 3584 3203 3211 
Q 3513 2838 3513 2113 
z
" transform="scale(0.015625)"/>
      <path id="DejaVuSans-67" d="M 2906 1791 
Q 2906 2416 2648 2759 
Q 2391 3103 1925 3103 
Q 1463 3103 1205 2759 
Q 947 2416 947 1791 
Q 947 1169 1205 825 
Q 1463 481 1925 481 
Q 2391 481 2648 825 
Q 2906 1169 2906 1791 
z
M 3481 434 
Q 3481 -459 3084 -895 
Q 2688 -1331 1869 -1331 
Q 1566 -1331 1297 -1286 
Q 1028 -1241 775 -1147 
L 775 -588 
Q 1028 -725 1275 -790 
Q 1522 -856 1778 -856 
Q 2344 -856 2625 -561 
Q 2906 -266 2906 331 
L 2906 616 
Q 2728 306 2450 153 
Q 2172 0 1784 0 
Q 1141 0 747 490 
Q 353 981 353 1791 
Q 353 2603 747 3093 
Q 1141 3584 1784 3584 
Q 2172 3584 2450 3431 
Q 2728 3278 2906 2969 
L 2906 3500 
L 3481 3500 
L 3481 434 
z
" transform="scale(0.015625)"/>
     </defs>
     <use xlink:href="#DejaVuSans-48"/>
     <use xlink:href="#DejaVuSans-61" x="75.195312"/>
     <use xlink:href="#DejaVuSans-72" x="136.474609"/>
     <use xlink:href="#DejaVuSans-64" x="175.837891"/>
     <use xlink:href="#DejaVuSans-65" x="239.314453"/>
     <use xlink:href="#DejaVuSans-6e" x="300.837891"/>
     <use xlink:href="#DejaVuSans-69" x="364.216797"/>
     <use xlink:href="#DejaVuSans-6e" x="392"/>
     <use xlink:href="#DejaVuSans-67" x="455.378906"/>
    </g>
    <!-- Softening -->
    <g transform="translate(360.345313 296.150586) scale(0.125 -0.125)">
     <defs>
      <path id="DejaVuSans-66" d="M 2375 4863 
L 2375 4384 
L 1825 4384 
Q 1516 4384 1395 4259 
Q 1275 4134 1275 3809 
L 1275 3500 
L 2222 3500 
L 2222 3053 
L 1275 3053 
L 1275 0 
L 697 0 
L 697 3053 
L 147 3053 
L 147 3500 
L 697 3500 
L 697 3744 
Q 697 4328 969 4595 
Q 1241 4863 1831 4863 
L 2375 4863 
z
" transform="scale(0.015625)"/>
     </defs>
     <use xlink:href="#DejaVuSans-53"/>
     <use xlink:href="#DejaVuSans-6f" x="63.476562"/>
     <use xlink:href="#DejaVuSans-66" x="124.658203"/>
     <use xlink:href="#DejaVuSans-74" x="158.113281"/>
     <use xlink:href="#DejaVuSans-65" x="197.322266"/>
     <use xlink:href="#DejaVuSans-6e" x="258.845703"/>
     <use xlink:href="#DejaVuSans-69" x="322.224609"/>
     <use xlink:href="#DejaVuSans-6e" x="350.007812"/>
     <use xlink:href="#DejaVuSans-67" x="413.386719"/>
    </g>
    <!-- Precipitation -->
    <g transform="translate(351.0875 310.147852) scale(0.125 -0.125)">
     <defs>
      <path id="DejaVuSans-63" d="M 3122 3366 
L 3122 2828 
Q 2878 2963 2633 3030 
Q 2388 3097 2138 3097 
Q 1578 3097 1268 2742 
Q 959 2388 959 1747 
Q 959 1106 1268 751 
Q 1578 397 2138 397 
Q 2388 397 2633 464 
Q 2878 531 3122 666 
L 3122 134 
Q 2881 22 2623 -34 
Q 2366 -91 2075 -91 
Q 1284 -91 818 406 
Q 353 903 353 1747 
Q 353 2603 823 3093 
Q 1294 3584 2113 3584 
Q 2378 3584 2631 3529 
Q 2884 3475 3122 3366 
z
" transform="scale(0.015625)"/>
     </defs>
     <use xlink:href="#DejaVuSans-50"/>
     <use xlink:href="#DejaVuSans-72" x="58.552734"/>
     <use xlink:href="#DejaVuSans-65" x="97.416016"/>
     <use xlink:href="#DejaVuSans-63" x="158.939453"/>
     <use xlink:href="#DejaVuSans-69" x="213.919922"/>
     <use xlink:href="#DejaVuSans-70" x="241.703125"/>
     <use xlink:href="#DejaVuSans-69" x="305.179688"/>
     <use xlink:href="#DejaVuSans-74" x="332.962891"/>
     <use xlink:href="#DejaVuSans-61" x="372.171875"/>
     <use xlink:href="#DejaVuSans-74" x="433.451172"/>
     <use xlink:href="#DejaVuSans-69" x="472.660156"/>
     <use xlink:href="#DejaVuSans-6f" x="500.443359"/>
     <use xlink:href="#DejaVuSans-6e" x="561.625"/>
    </g>
    <!-- Phase Transition -->
    <g transform="translate(339.282813 324.145117) scale(0.125 -0.125)">
     <defs>
      <path id="DejaVuSans-68" d="M 3513 2113 
L 3513 0 
L 2938 0 
L 2938 2094 
Q 2938 2591 2744 2837 
Q 2550 3084 2163 3084 
Q 1697 3084 1428 2787 
Q 1159 2491 1159 1978 
L 1159 0 
L 581 0 
L 581 4863 
L 1159 4863 
L 1159 2956 
Q 1366 3272 1645 3428 
Q 1925 3584 2291 3584 
Q 2894 3584 3203 3211 
Q 3513 2838 3513 2113 
z
" transform="scale(0.015625)"/>
      <path id="DejaVuSans-54" d="M -19 4666 
L 3928 4666 
L 3928 4134 
L 2272 4134 
L 2272 0 
L 1638 0 
L 1638 4134 
L -19 4134 
L -19 4666 
z
" transform="scale(0.015625)"/>
     </defs>
     <use xlink:href="#DejaVuSans-50"/>
     <use xlink:href="#DejaVuSans-68" x="60.302734"/>
     <use xlink:href="#DejaVuSans-61" x="123.681641"/>
     <use xlink:href="#DejaVuSans-73" x="184.960938"/>
     <use xlink:href="#DejaVuSans-65" x="237.060547"/>
     <use xlink:href="#DejaVuSans-20" x="298.583984"/>
     <use xlink:href="#DejaVuSans-54" x="330.371094"/>
     <use xlink:href="#DejaVuSans-72" x="376.705078"/>
     <use xlink:href="#DejaVuSans-61" x="417.818359"/>
     <use xlink:href="#DejaVuSans-6e" x="479.097656"/>
     <use xlink:href="#DejaVuSans-73" x="542.476562"/>
     <use xlink:href="#DejaVuSans-69" x="594.576172"/>
     <use xlink:href="#DejaVuSans-74" x="622.359375"/>
     <use xlink:href="#DejaVuSans-69" x="661.568359"/>
     <use xlink:href="#DejaVuSans-6f" x="689.351562"/>
     <use xlink:href="#DejaVuSans-6e" x="750.533203"/>
    </g>
    <!-- Anisotropy -->
    <g transform="translate(356.727148 338.142383) scale(0.125 -0.125)">
     <defs>
      <path id="DejaVuSans-41" d="M 2188 4044 
L 1331 1722 
L 3047 1722 
L 2188 4044 
z
M 1831 4666 
L 2547 4666 
L 4325 0 
L 3669 0 
L 3244 1197 
L 1141 1197 
L 716 0 
L 50 0 
L 1831 4666 
z
" transform="scale(0.015625)"/>
      <path id="DejaVuSans-79" d="M 2059 -325 
Q 1816 -950 1584 -1140 
Q 1353 -1331 966 -1331 
L 506 -1331 
L 506 -850 
L 844 -850 
Q 1081 -850 1212 -737 
Q 1344 -625 1503 -206 
L 1606 56 
L 191 3500 
L 800 3500 
L 1894 763 
L 2988 3500 
L 3597 3500 
L 2059 -325 
z
" transform="scale(0.015625)"/>
     </defs>
     <use xlink:href="#DejaVuSans-41"/>
     <use xlink:href="#DejaVuSans-6e" x="68.408203"/>
     <use xlink:href="#DejaVuSans-69" x="131.787109"/>
     <use xlink:href="#DejaVuSans-73" x="159.570312"/>
     <use xlink:href="#DejaVuSans-6f" x="211.669922"/>
     <use xlink:href="#DejaVuSans-74" x="272.851562"/>
     <use xlink:href="#DejaVuSans-72" x="312.060547"/>
     <use xlink:href="#DejaVuSans-6f" x="350.923828"/>
     <use xlink:href="#DejaVuSans-70" x="412.105469"/>
     <use xlink:href="#DejaVuSans-79" x="475.582031"/>
    </g>
   </g>
   <g id="text_3">
    <!-- Thermal Evolution -->
    <g transform="translate(81.283789 231.149219) scale(0.125 -0.125)">
     <defs>
      <path id="DejaVuSans-6d" d="M 3328 2828 
Q 3544 3216 3844 3400 
Q 4144 3584 4550 3584 
Q 5097 3584 5394 3201 
Q 5691 2819 5691 2113 
L 5691 0 
L 5113 0 
L 5113 2094 
Q 5113 2597 4934 2840 
Q 4756 3084 4391 3084 
Q 3944 3084 3684 2787 
Q 3425 2491 3425 1978 
L 3425 0 
L 2847 0 
L 2847 2094 
Q 2847 2600 2669 2842 
Q 2491 3084 2119 3084 
Q 1678 3084 1418 2786 
Q 1159 2488 1159 1978 
L 1159 0 
L 581 0 
L 581 3500 
L 1159 3500 
L 1159 2956 
Q 1356 3278 1631 3431 
Q 1906 3584 2284 3584 
Q 2666 3584 2933 3390 
Q 3200 3197 3328 2828 
z
" transform="scale(0.015625)"/>
      <path id="DejaVuSans-45" d="M 628 4666 
L 3578 4666 
L 3578 4134 
L 1259 4134 
L 1259 2753 
L 3481 2753 
L 3481 2222 
L 1259 2222 
L 1259 531 
L 3634 531 
L 3634 0 
L 628 0 
L 628 4666 
z
" transform="scale(0.015625)"/>
      <path id="DejaVuSans-76" d="M 191 3500 
L 800 3500 
L 1894 563 
L 2988 3500 
L 3597 3500 
L 2284 0 
L 1503 0 
L 191 3500 
z
" transform="scale(0.015625)"/>
      <path id="DejaVuSans-75" d="M 544 1381 
L 544 3500 
L 1119 3500 
L 1119 1403 
Q 1119 906 1312 657 
Q 1506 409 1894 409 
Q 2359 409 2629 706 
Q 2900 1003 2900 1516 
L 2900 3500 
L 3475 3500 
L 3475 0 
L 2900 0 
L 2900 538 
Q 2691 219 2414 64 
Q 2138 -91 1772 -91 
Q 1169 -91 856 284 
Q 544 659 544 1381 
z
M 1991 3584 
L 1991 3584 
z
" transform="scale(0.015625)"/>
     </defs>
     <use xlink:href="#DejaVuSans-54"/>
     <use xlink:href="#DejaVuSans-68" x="61.083984"/>
     <use xlink:href="#DejaVuSans-65" x="124.462891"/>
     <use xlink:href="#DejaVuSans-72" x="185.986328"/>
     <use xlink:href="#DejaVuSans-6d" x="225.349609"/>
     <use xlink:href="#DejaVuSans-61" x="322.761719"/>
     <use xlink:href="#DejaVuSans-6c" x="384.041016"/>
     <use xlink:href="#DejaVuSans-20" x="411.824219"/>
     <use xlink:href="#DejaVuSans-45" x="443.611328"/>
     <use xlink:href="#DejaVuSans-76" x="506.794922"/>
     <use xlink:href="#DejaVuSans-6f" x="565.974609"/>
     <use xlink:href="#DejaVuSans-6c" x="627.15625"/>
     <use xlink:href="#DejaVuSans-75" x="654.939453"/>
     <use xlink:href="#DejaVuSans-74" x="718.318359"/>
     <use xlink:href="#DejaVuSans-69" x="757.527344"/>
     <use xlink:href="#DejaVuSans-6f" x="785.310547"/>
     <use xlink:href="#DejaVuSans-6e" x="846.492188"/>
    </g>
   </g>
   <g id="text_4">
    <!-- Heating -->
    <g transform="translate(113.658789 275.154688) scale(0.125 -0.125)">
     <use xlink:href="#DejaVuSans-48"/>
     <use xlink:href="#DejaVuSans-65" x="75.195312"/>
     <use xlink:href="#DejaVuSans-61" x="136.71875"/>
     <use xlink:href="#DejaVuSans-74" x="197.998047"/>
     <use xlink:href="#DejaVuSans-69" x="237.207031"/>
     <use xlink:href="#DejaVuSans-6e" x="264.990234"/>
     <use xlink:href="#DejaVuSans-67" x="328.369141"/>
    </g>
    <!-- Cooling -->
    <g transform="translate(114.735938 289.151953) scale(0.125 -0.125)">
     <defs>
      <path id="DejaVuSans-43" d="M 4122 4306 
L 4122 3641 
Q 3803 3938 3442 4084 
Q 3081 4231 2675 4231 
Q 1875 4231 1450 3742 
Q 1025 3253 1025 2328 
Q 1025 1406 1450 917 
Q 1875 428 2675 428 
Q 3081 428 3442 575 
Q 3803 722 4122 1019 
L 4122 359 
Q 3791 134 3420 21 
Q 3050 -91 2638 -91 
Q 1578 -91 968 557 
Q 359 1206 359 2328 
Q 359 3453 968 4101 
Q 1578 4750 2638 4750 
Q 3056 4750 3426 4639 
Q 3797 4528 4122 4306 
z
" transform="scale(0.015625)"/>
     </defs>
     <use xlink:href="#DejaVuSans-43"/>
     <use xlink:href="#DejaVuSans-6f" x="69.824219"/>
     <use xlink:href="#DejaVuSans-6f" x="131.005859"/>
     <use xlink:href="#DejaVuSans-6c" x="192.1875"/>
     <use xlink:href="#DejaVuSans-69" x="219.970703"/>
     <use xlink:href="#DejaVuSans-6e" x="247.753906"/>
     <use xlink:href="#DejaVuSans-67" x="311.132812"/>
    </g>
    <!-- Roll Contact -->
    <g transform="translate(100.488867 303.149219) scale(0.125 -0.125)">
     <defs>
      <path id="DejaVuSans-52" d="M 2841 2188 
Q 3044 2119 3236 1894 
Q 3428 1669 3622 1275 
L 4263 0 
L 3584 0 
L 2988 1197 
Q 2756 1666 2539 1819 
Q 2322 1972 1947 1972 
L 1259 1972 
L 1259 0 
L 628 0 
L 628 4666 
L 2053 4666 
Q 2853 4666 3247 4331 
Q 3641 3997 3641 3322 
Q 3641 2881 3436 2590 
Q 3231 2300 2841 2188 
z
M 1259 4147 
L 1259 2491 
L 2053 2491 
Q 2509 2491 2742 2702 
Q 2975 2913 2975 3322 
Q 2975 3731 2742 3939 
Q 2509 4147 2053 4147 
L 1259 4147 
z
" transform="scale(0.015625)"/>
     </defs>
     <use xlink:href="#DejaVuSans-52"/>
     <use xlink:href="#DejaVuSans-6f" x="64.982422"/>
     <use xlink:href="#DejaVuSans-6c" x="126.164062"/>
     <use xlink:href="#DejaVuSans-6c" x="153.947266"/>
     <use xlink:href="#DejaVuSans-20" x="181.730469"/>
     <use xlink:href="#DejaVuSans-43" x="213.517578"/>
     <use xlink:href="#DejaVuSans-6f" x="283.341797"/>
     <use xlink:href="#DejaVuSans-6e" x="344.523438"/>
     <use xlink:href="#DejaVuSans-74" x="407.902344"/>
     <use xlink:href="#DejaVuSans-61" x="447.111328"/>
     <use xlink:href="#DejaVuSans-63" x="508.390625"/>
     <use xlink:href="#DejaVuSans-74" x="563.371094"/>
    </g>
    <!-- Radiation -->
    <g transform="translate(108.611914 317.146484) scale(0.125 -0.125)">
     <use xlink:href="#DejaVuSans-52"/>
     <use xlink:href="#DejaVuSans-61" x="67.232422"/>
     <use xlink:href="#DejaVuSans-64" x="128.511719"/>
     <use xlink:href="#DejaVuSans-69" x="191.988281"/>
     <use xlink:href="#DejaVuSans-61" x="219.771484"/>
     <use xlink:href="#DejaVuSans-74" x="281.050781"/>
     <use xlink:href="#DejaVuSans-69" x="320.259766"/>
     <use xlink:href="#DejaVuSans-6f" x="348.042969"/>
     <use xlink:href="#DejaVuSans-6e" x="409.224609"/>
    </g>
    <!-- Deformation Heat -->
    <g transform="translate(82.305273 331.14375) scale(0.125 -0.125)">
     <defs>
      <path id="DejaVuSans-44" d="M 1259 4147 
L 1259 519 
L 2022 519 
Q 2988 519 3436 956 
Q 3884 1394 3884 2338 
Q 3884 3275 3436 3711 
Q 2988 4147 2022 4147 
L 1259 4147 
z
M 628 4666 
L 1925 4666 
Q 3281 4666 3915 4102 
Q 4550 3538 4550 2338 
Q 4550 1131 3912 565 
Q 3275 0 1925 0 
L 628 0 
L 628 4666 
z
" transform="scale(0.015625)"/>
     </defs>
     <use xlink:href="#DejaVuSans-44"/>
     <use xlink:href="#DejaVuSans-65" x="77.001953"/>
     <use xlink:href="#DejaVuSans-66" x="138.525391"/>
     <use xlink:href="#DejaVuSans-6f" x="173.730469"/>
     <use xlink:href="#DejaVuSans-72" x="234.912109"/>
     <use xlink:href="#DejaVuSans-6d" x="274.275391"/>
     <use xlink:href="#DejaVuSans-61" x="371.6875"/>
     <use xlink:href="#DejaVuSans-74" x="432.966797"/>
     <use xlink:href="#DejaVuSans-69" x="472.175781"/>
     <use xlink:href="#DejaVuSans-6f" x="499.958984"/>
     <use xlink:href="#DejaVuSans-6e" x="561.140625"/>
     <use xlink:href="#DejaVuSans-20" x="624.519531"/>
     <use xlink:href="#DejaVuSans-48" x="656.306641"/>
     <use xlink:href="#DejaVuSans-65" x="731.501953"/>
     <use xlink:href="#DejaVuSans-61" x="793.025391"/>
     <use xlink:href="#DejaVuSans-74" x="854.304688"/>
    </g>
   </g>
   <g id="text_5">
    <!-- Material Flow -->
    <g transform="translate(348.506445 51.149219) scale(0.125 -0.125)">
     <use xlink:href="#DejaVuSans-4d"/>
     <use xlink:href="#DejaVuSans-61" x="86.279297"/>
     <use xlink:href="#DejaVuSans-74" x="147.558594"/>
     <use xlink:href="#DejaVuSans-65" x="186.767578"/>
     <use xlink:href="#DejaVuSans-72" x="248.291016"/>
     <use xlink:href="#DejaVuSans-69" x="289.404297"/>
     <use xlink:href="#DejaVuSans-61" x="317.1875"/>
     <use xlink:href="#DejaVuSans-6c" x="378.466797"/>
     <use xlink:href="#DejaVuSans-20" x="406.25"/>
     <use xlink:href="#DejaVuSans-46" x="438.037109"/>
     <use xlink:href="#DejaVuSans-6c" x="495.556641"/>
     <use xlink:href="#DejaVuSans-6f" x="523.339844"/>
     <use xlink:href="#DejaVuSans-77" x="584.521484"/>
    </g>
   </g>
   <g id="text_6">
    <!-- Spreading -->
    <g transform="translate(358.477148 95.154688) scale(0.125 -0.125)">
     <use xlink:href="#DejaVuSans-53"/>
     <use xlink:href="#DejaVuSans-70" x="63.476562"/>
     <use xlink:href="#DejaVuSans-72" x="126.953125"/>
     <use xlink:href="#DejaVuSans-65" x="165.816406"/>
     <use xlink:href="#DejaVuSans-61" x="227.339844"/>
     <use xlink:href="#DejaVuSans-64" x="288.619141"/>
     <use xlink:href="#DejaVuSans-69" x="352.095703"/>
     <use xlink:href="#DejaVuSans-6e" x="379.878906"/>
     <use xlink:href="#DejaVuSans-67" x="443.257812"/>
    </g>
    <!-- Elongation -->
    <g transform="translate(356.909766 109.151953) scale(0.125 -0.125)">
     <use xlink:href="#DejaVuSans-45"/>
     <use xlink:href="#DejaVuSans-6c" x="63.183594"/>
     <use xlink:href="#DejaVuSans-6f" x="90.966797"/>
     <use xlink:href="#DejaVuSans-6e" x="152.148438"/>
     <use xlink:href="#DejaVuSans-67" x="215.527344"/>
     <use xlink:href="#DejaVuSans-61" x="279.003906"/>
     <use xlink:href="#DejaVuSans-74" x="340.283203"/>
     <use xlink:href="#DejaVuSans-69" x="379.492188"/>
     <use xlink:href="#DejaVuSans-6f" x="407.275391"/>
     <use xlink:href="#DejaVuSans-6e" x="468.457031"/>
    </g>
    <!-- Velocity -->
    <g transform="translate(365.630469 123.149219) scale(0.125 -0.125)">
     <defs>
      <path id="DejaVuSans-56" d="M 1831 0 
L 50 4666 
L 709 4666 
L 2188 738 
L 3669 4666 
L 4325 4666 
L 2547 0 
L 1831 0 
z
" transform="scale(0.015625)"/>
     </defs>
     <use xlink:href="#DejaVuSans-56"/>
     <use xlink:href="#DejaVuSans-65" x="60.658203"/>
     <use xlink:href="#DejaVuSans-6c" x="122.181641"/>
     <use xlink:href="#DejaVuSans-6f" x="149.964844"/>
     <use xlink:href="#DejaVuSans-63" x="211.146484"/>
     <use xlink:href="#DejaVuSans-69" x="266.126953"/>
     <use xlink:href="#DejaVuSans-74" x="293.910156"/>
     <use xlink:href="#DejaVuSans-79" x="333.119141"/>
    </g>
    <!-- Strain -->
    <g transform="translate(371.635352 137.146484) scale(0.125 -0.125)">
     <use xlink:href="#DejaVuSans-53"/>
     <use xlink:href="#DejaVuSans-74" x="63.476562"/>
     <use xlink:href="#DejaVuSans-72" x="102.685547"/>
     <use xlink:href="#DejaVuSans-61" x="143.798828"/>
     <use xlink:href="#DejaVuSans-69" x="205.078125"/>
     <use xlink:href="#DejaVuSans-6e" x="232.861328"/>
    </g>
    <!-- Strain Rate -->
    <g transform="translate(355.320898 151.14375) scale(0.125 -0.125)">
     <use xlink:href="#DejaVuSans-53"/>
     <use xlink:href="#DejaVuSans-74" x="63.476562"/>
     <use xlink:href="#DejaVuSans-72" x="102.685547"/>
     <use xlink:href="#DejaVuSans-61" x="143.798828"/>
     <use xlink:href="#DejaVuSans-69" x="205.078125"/>
     <use xlink:href="#DejaVuSans-6e" x="232.861328"/>
     <use xlink:href="#DejaVuSans-20" x="296.240234"/>
     <use xlink:href="#DejaVuSans-52" x="328.027344"/>
     <use xlink:href="#DejaVuSans-61" x="395.259766"/>
     <use xlink:href="#DejaVuSans-74" x="456.539062"/>
     <use xlink:href="#DejaVuSans-65" x="495.748047"/>
    </g>
   </g>
   <g id="text_7">
    <!-- Groove Pass Design -->
    <g transform="translate(76.304297 42.149219) scale(0.125 -0.125)">
     <defs>
      <path id="DejaVuSans-47" d="M 3809 666 
L 3809 1919 
L 2778 1919 
L 2778 2438 
L 4434 2438 
L 4434 434 
Q 4069 175 3628 42 
Q 3188 -91 2688 -91 
Q 1594 -91 976 548 
Q 359 1188 359 2328 
Q 359 3472 976 4111 
Q 1594 4750 2688 4750 
Q 3144 4750 3555 4637 
Q 3966 4525 4313 4306 
L 4313 3634 
Q 3963 3931 3569 4081 
Q 3175 4231 2741 4231 
Q 1884 4231 1454 3753 
Q 1025 3275 1025 2328 
Q 1025 1384 1454 906 
Q 1884 428 2741 428 
Q 3075 428 3337 486 
Q 3600 544 3809 666 
z
" transform="scale(0.015625)"/>
     </defs>
     <use xlink:href="#DejaVuSans-47"/>
     <use xlink:href="#DejaVuSans-72" x="77.490234"/>
     <use xlink:href="#DejaVuSans-6f" x="116.353516"/>
     <use xlink:href="#DejaVuSans-6f" x="177.535156"/>
     <use xlink:href="#DejaVuSans-76" x="238.716797"/>
     <use xlink:href="#DejaVuSans-65" x="297.896484"/>
     <use xlink:href="#DejaVuSans-20" x="359.419922"/>
     <use xlink:href="#DejaVuSans-50" x="391.207031"/>
     <use xlink:href="#DejaVuSans-61" x="447.009766"/>
     <use xlink:href="#DejaVuSans-73" x="508.289062"/>
     <use xlink:href="#DejaVuSans-73" x="560.388672"/>
     <use xlink:href="#DejaVuSans-20" x="612.488281"/>
     <use xlink:href="#DejaVuSans-44" x="644.275391"/>
     <use xlink:href="#DejaVuSans-65" x="721.277344"/>
     <use xlink:href="#DejaVuSans-73" x="782.800781"/>
     <use xlink:href="#DejaVuSans-69" x="834.900391"/>
     <use xlink:href="#DejaVuSans-67" x="862.683594"/>
     <use xlink:href="#DejaVuSans-6e" x="926.160156"/>
    </g>
   </g>
   <g id="text_8">
    <!-- Groove Sequence -->
    <g transform="translate(82.867773 88.156055) scale(0.125 -0.125)">
     <defs>
      <path id="DejaVuSans-71" d="M 947 1747 
Q 947 1113 1208 752 
Q 1469 391 1925 391 
Q 2381 391 2643 752 
Q 2906 1113 2906 1747 
Q 2906 2381 2643 2742 
Q 2381 3103 1925 3103 
Q 1469 3103 1208 2742 
Q 947 2381 947 1747 
z
M 2906 525 
Q 2725 213 2448 61 
Q 2172 -91 1784 -91 
Q 1150 -91 751 415 
Q 353 922 353 1747 
Q 353 2572 751 3078 
Q 1150 3584 1784 3584 
Q 2172 3584 2448 3432 
Q 2725 3281 2906 2969 
L 2906 3500 
L 3481 3500 
L 3481 -1331 
L 2906 -1331 
L 2906 525 
z
" transform="scale(0.015625)"/>
     </defs>
     <use xlink:href="#DejaVuSans-47"/>
     <use xlink:href="#DejaVuSans-72" x="77.490234"/>
     <use xlink:href="#DejaVuSans-6f" x="116.353516"/>
     <use xlink:href="#DejaVuSans-6f" x="177.535156"/>
     <use xlink:href="#DejaVuSans-76" x="238.716797"/>
     <use xlink:href="#DejaVuSans-65" x="297.896484"/>
     <use xlink:href="#DejaVuSans-20" x="359.419922"/>
     <use xlink:href="#DejaVuSans-53" x="391.207031"/>
     <use xlink:href="#DejaVuSans-65" x="454.683594"/>
     <use xlink:href="#DejaVuSans-71" x="516.207031"/>
     <use xlink:href="#DejaVuSans-75" x="579.683594"/>
     <use xlink:href="#DejaVuSans-65" x="643.0625"/>
     <use xlink:href="#DejaVuSans-6e" x="704.585938"/>
     <use xlink:href="#DejaVuSans-63" x="767.964844"/>
     <use xlink:href="#DejaVuSans-65" x="822.945312"/>
    </g>
    <!-- Groove Shape -->
    <g transform="translate(94.126563 102.15332) scale(0.125 -0.125)">
     <use xlink:href="#DejaVuSans-47"/>
     <use xlink:href="#DejaVuSans-72" x="77.490234"/>
     <use xlink:href="#DejaVuSans-6f" x="116.353516"/>
     <use xlink:href="#DejaVuSans-6f" x="177.535156"/>
     <use xlink:href="#DejaVuSans-76" x="238.716797"/>
     <use xlink:href="#DejaVuSans-65" x="297.896484"/>
     <use xlink:href="#DejaVuSans-20" x="359.419922"/>
     <use xlink:href="#DejaVuSans-53" x="391.207031"/>
     <use xlink:href="#DejaVuSans-68" x="454.683594"/>
     <use xlink:href="#DejaVuSans-61" x="518.0625"/>
     <use xlink:href="#DejaVuSans-70" x="579.341797"/>
     <use xlink:href="#DejaVuSans-65" x="642.818359"/>
    </g>
    <!-- Groove Size -->
    <g transform="translate(100.86875 116.150586) scale(0.125 -0.125)">
     <defs>
      <path id="DejaVuSans-7a" d="M 353 3500 
L 3084 3500 
L 3084 2975 
L 922 459 
L 3084 459 
L 3084 0 
L 275 0 
L 275 525 
L 2438 3041 
L 353 3041 
L 353 3500 
z
" transform="scale(0.015625)"/>
     </defs>
     <use xlink:href="#DejaVuSans-47"/>
     <use xlink:href="#DejaVuSans-72" x="77.490234"/>
     <use xlink:href="#DejaVuSans-6f" x="116.353516"/>
     <use xlink:href="#DejaVuSans-6f" x="177.535156"/>
     <use xlink:href="#DejaVuSans-76" x="238.716797"/>
     <use xlink:href="#DejaVuSans-65" x="297.896484"/>
     <use xlink:href="#DejaVuSans-20" x="359.419922"/>
     <use xlink:href="#DejaVuSans-53" x="391.207031"/>
     <use xlink:href="#DejaVuSans-69" x="454.683594"/>
     <use xlink:href="#DejaVuSans-7a" x="482.466797"/>
     <use xlink:href="#DejaVuSans-65" x="534.957031"/>
    </g>
    <!-- Max. Reduction -->
    <g transform="translate(90.011328 130.147852) scale(0.125 -0.125)">
     <defs>
      <path id="DejaVuSans-78" d="M 3513 3500 
L 2247 1797 
L 3578 0 
L 2900 0 
L 1881 1375 
L 863 0 
L 184 0 
L 1544 1831 
L 300 3500 
L 978 3500 
L 1906 2253 
L 2834 3500 
L 3513 3500 
z
" transform="scale(0.015625)"/>
      <path id="DejaVuSans-2e" d="M 684 794 
L 1344 794 
L 1344 0 
L 684 0 
L 684 794 
z
" transform="scale(0.015625)"/>
     </defs>
     <use xlink:href="#DejaVuSans-4d"/>
     <use xlink:href="#DejaVuSans-61" x="86.279297"/>
     <use xlink:href="#DejaVuSans-78" x="147.558594"/>
     <use xlink:href="#DejaVuSans-2e" x="206.738281"/>
     <use xlink:href="#DejaVuSans-20" x="238.525391"/>
     <use xlink:href="#DejaVuSans-52" x="270.3125"/>
     <use xlink:href="#DejaVuSans-65" x="335.294922"/>
     <use xlink:href="#DejaVuSans-64" x="396.818359"/>
     <use xlink:href="#DejaVuSans-75" x="460.294922"/>
     <use xlink:href="#DejaVuSans-63" x="523.673828"/>
     <use xlink:href="#DejaVuSans-74" x="578.654297"/>
     <use xlink:href="#DejaVuSans-69" x="617.863281"/>
     <use xlink:href="#DejaVuSans-6f" x="645.646484"/>
     <use xlink:href="#DejaVuSans-6e" x="706.828125"/>
    </g>
    <!-- Roll Gap -->
    <g transform="translate(112.164648 144.145117) scale(0.125 -0.125)">
     <use xlink:href="#DejaVuSans-52"/>
     <use xlink:href="#DejaVuSans-6f" x="64.982422"/>
     <use xlink:href="#DejaVuSans-6c" x="126.164062"/>
     <use xlink:href="#DejaVuSans-6c" x="153.947266"/>
     <use xlink:href="#DejaVuSans-20" x="181.730469"/>
     <use xlink:href="#DejaVuSans-47" x="213.517578"/>
     <use xlink:href="#DejaVuSans-61" x="291.007812"/>
     <use xlink:href="#DejaVuSans-70" x="352.287109"/>
    </g>
    <!-- Roll Radius -->
    <g transform="translate(103.852148 158.142383) scale(0.125 -0.125)">
     <use xlink:href="#DejaVuSans-52"/>
     <use xlink:href="#DejaVuSans-6f" x="64.982422"/>
     <use xlink:href="#DejaVuSans-6c" x="126.164062"/>
     <use xlink:href="#DejaVuSans-6c" x="153.947266"/>
     <use xlink:href="#DejaVuSans-20" x="181.730469"/>
     <use xlink:href="#DejaVuSans-52" x="213.517578"/>
     <use xlink:href="#DejaVuSans-61" x="280.75"/>
     <use xlink:href="#DejaVuSans-64" x="342.029297"/>
     <use xlink:href="#DejaVuSans-69" x="405.505859"/>
     <use xlink:href="#DejaVuSans-75" x="433.289062"/>
     <use xlink:href="#DejaVuSans-73" x="496.667969"/>
    </g>
   </g>
   <g id="text_9">
    <!-- Roll Force/Torque -->
    <g transform="translate(588.983008 249.149219) scale(0.125 -0.125)">
     <defs>
      <path id="DejaVuSans-2f" d="M 1625 4666 
L 2156 4666 
L 531 -594 
L 0 -594 
L 1625 4666 
z
" transform="scale(0.015625)"/>
     </defs>
     <use xlink:href="#DejaVuSans-52"/>
     <use xlink:href="#DejaVuSans-6f" x="64.982422"/>
     <use xlink:href="#DejaVuSans-6c" x="126.164062"/>
     <use xlink:href="#DejaVuSans-6c" x="153.947266"/>
     <use xlink:href="#DejaVuSans-20" x="181.730469"/>
     <use xlink:href="#DejaVuSans-46" x="213.517578"/>
     <use xlink:href="#DejaVuSans-6f" x="267.412109"/>
     <use xlink:href="#DejaVuSans-72" x="328.59375"/>
     <use xlink:href="#DejaVuSans-63" x="367.457031"/>
     <use xlink:href="#DejaVuSans-65" x="422.4375"/>
     <use xlink:href="#DejaVuSans-2f" x="483.960938"/>
     <use xlink:href="#DejaVuSans-54" x="517.652344"/>
     <use xlink:href="#DejaVuSans-6f" x="561.736328"/>
     <use xlink:href="#DejaVuSans-72" x="622.917969"/>
     <use xlink:href="#DejaVuSans-71" x="662.28125"/>
     <use xlink:href="#DejaVuSans-75" x="725.757812"/>
     <use xlink:href="#DejaVuSans-65" x="789.136719"/>
    </g>
   </g>
   <g id="text_10">
    <!-- Contact Area -->
    <g transform="translate(601.467383 289.151953) scale(0.125 -0.125)">
     <use xlink:href="#DejaVuSans-43"/>
     <use xlink:href="#DejaVuSans-6f" x="69.824219"/>
     <use xlink:href="#DejaVuSans-6e" x="131.005859"/>
     <use xlink:href="#DejaVuSans-74" x="194.384766"/>
     <use xlink:href="#DejaVuSans-61" x="233.59375"/>
     <use xlink:href="#DejaVuSans-63" x="294.873047"/>
     <use xlink:href="#DejaVuSans-74" x="349.853516"/>
     <use xlink:href="#DejaVuSans-20" x="389.0625"/>
     <use xlink:href="#DejaVuSans-41" x="420.849609"/>
     <use xlink:href="#DejaVuSans-72" x="489.257812"/>
     <use xlink:href="#DejaVuSans-65" x="528.121094"/>
     <use xlink:href="#DejaVuSans-61" x="589.644531"/>
    </g>
    <!-- Friction -->
    <g transform="translate(619.294531 303.149219) scale(0.125 -0.125)">
     <use xlink:href="#DejaVuSans-46"/>
     <use xlink:href="#DejaVuSans-72" x="50.269531"/>
     <use xlink:href="#DejaVuSans-69" x="91.382812"/>
     <use xlink:href="#DejaVuSans-63" x="119.166016"/>
     <use xlink:href="#DejaVuSans-74" x="174.146484"/>
     <use xlink:href="#DejaVuSans-69" x="213.355469"/>
     <use xlink:href="#DejaVuSans-6f" x="241.138672"/>
     <use xlink:href="#DejaVuSans-6e" x="302.320312"/>
    </g>
    <!-- Shearing -->
    <g transform="translate(614.311133 317.146484) scale(0.125 -0.125)">
     <use xlink:href="#DejaVuSans-53"/>
     <use xlink:href="#DejaVuSans-68" x="63.476562"/>
     <use xlink:href="#DejaVuSans-65" x="126.855469"/>
     <use xlink:href="#DejaVuSans-61" x="188.378906"/>
     <use xlink:href="#DejaVuSans-72" x="249.658203"/>
     <use xlink:href="#DejaVuSans-69" x="290.771484"/>
     <use xlink:href="#DejaVuSans-6e" x="318.554688"/>
     <use xlink:href="#DejaVuSans-67" x="381.933594"/>
    </g>
   </g>
   <g id="text_11">
    <!-- Plant Elasticity/Wear -->
    <g transform="translate(577.974219 69.149219) scale(0.125 -0.125)">
     <defs>
      <path id="DejaVuSans-57" d="M 213 4666 
L 850 4666 
L 1831 722 
L 2809 4666 
L 3519 4666 
L 4500 722 
L 5478 4666 
L 6119 4666 
L 4947 0 
L 4153 0 
L 3169 4050 
L 2175 0 
L 1381 0 
L 213 4666 
z
" transform="scale(0.015625)"/>
     </defs>
     <use xlink:href="#DejaVuSans-50"/>
     <use xlink:href="#DejaVuSans-6c" x="60.302734"/>
     <use xlink:href="#DejaVuSans-61" x="88.085938"/>
     <use xlink:href="#DejaVuSans-6e" x="149.365234"/>
     <use xlink:href="#DejaVuSans-74" x="212.744141"/>
     <use xlink:href="#DejaVuSans-20" x="251.953125"/>
     <use xlink:href="#DejaVuSans-45" x="283.740234"/>
     <use xlink:href="#DejaVuSans-6c" x="346.923828"/>
     <use xlink:href="#DejaVuSans-61" x="374.707031"/>
     <use xlink:href="#DejaVuSans-73" x="435.986328"/>
     <use xlink:href="#DejaVuSans-74" x="488.085938"/>
     <use xlink:href="#DejaVuSans-69" x="527.294922"/>
     <use xlink:href="#DejaVuSans-63" x="555.078125"/>
     <use xlink:href="#DejaVuSans-69" x="610.058594"/>
     <use xlink:href="#DejaVuSans-74" x="637.841797"/>
     <use xlink:href="#DejaVuSans-79" x="677.050781"/>
     <use xlink:href="#DejaVuSans-2f" x="736.230469"/>
     <use xlink:href="#DejaVuSans-57" x="769.921875"/>
     <use xlink:href="#DejaVuSans-65" x="862.923828"/>
     <use xlink:href="#DejaVuSans-61" x="924.447266"/>
     <use xlink:href="#DejaVuSans-72" x="985.726562"/>
    </g>
   </g>
   <g id="text_12">
    <!-- Roll Material -->
    <g transform="translate(603.414648 109.151953) scale(0.125 -0.125)">
     <use xlink:href="#DejaVuSans-52"/>
     <use xlink:href="#DejaVuSans-6f" x="64.982422"/>
     <use xlink:href="#DejaVuSans-6c" x="126.164062"/>
     <use xlink:href="#DejaVuSans-6c" x="153.947266"/>
     <use xlink:href="#DejaVuSans-20" x="181.730469"/>
     <use xlink:href="#DejaVuSans-4d" x="213.517578"/>
     <use xlink:href="#DejaVuSans-61" x="299.796875"/>
     <use xlink:href="#DejaVuSans-74" x="361.076172"/>
     <use xlink:href="#DejaVuSans-65" x="400.285156"/>
     <use xlink:href="#DejaVuSans-72" x="461.808594"/>
     <use xlink:href="#DejaVuSans-69" x="502.921875"/>
     <use xlink:href="#DejaVuSans-61" x="530.705078"/>
     <use xlink:href="#DejaVuSans-6c" x="591.984375"/>
    </g>
    <!-- Roll Geometry -->
    <g transform="translate(597.640234 123.149219) scale(0.125 -0.125)">
     <use xlink:href="#DejaVuSans-52"/>
     <use xlink:href="#DejaVuSans-6f" x="64.982422"/>
     <use xlink:href="#DejaVuSans-6c" x="126.164062"/>
     <use xlink:href="#DejaVuSans-6c" x="153.947266"/>
     <use xlink:href="#DejaVuSans-20" x="181.730469"/>
     <use xlink:href="#DejaVuSans-47" x="213.517578"/>
     <use xlink:href="#DejaVuSans-65" x="291.007812"/>
     <use xlink:href="#DejaVuSans-6f" x="352.53125"/>
     <use xlink:href="#DejaVuSans-6d" x="413.712891"/>
     <use xlink:href="#DejaVuSans-65" x="511.125"/>
     <use xlink:href="#DejaVuSans-74" x="572.648438"/>
     <use xlink:href="#DejaVuSans-72" x="611.857422"/>
     <use xlink:href="#DejaVuSans-79" x="652.970703"/>
    </g>
    <!-- Stand Stiffness -->
    <g transform="translate(595.113867 137.146484) scale(0.125 -0.125)">
     <use xlink:href="#DejaVuSans-53"/>
     <use xlink:href="#DejaVuSans-74" x="63.476562"/>
     <use xlink:href="#DejaVuSans-61" x="102.685547"/>
     <use xlink:href="#DejaVuSans-6e" x="163.964844"/>
     <use xlink:href="#DejaVuSans-64" x="227.34375"/>
     <use xlink:href="#DejaVuSans-20" x="290.820312"/>
     <use xlink:href="#DejaVuSans-53" x="322.607422"/>
     <use xlink:href="#DejaVuSans-74" x="386.083984"/>
     <use xlink:href="#DejaVuSans-69" x="425.292969"/>
     <use xlink:href="#DejaVuSans-66" x="453.076172"/>
     <use xlink:href="#DejaVuSans-66" x="488.28125"/>
     <use xlink:href="#DejaVuSans-6e" x="523.486328"/>
     <use xlink:href="#DejaVuSans-65" x="586.865234"/>
     <use xlink:href="#DejaVuSans-73" x="648.388672"/>
     <use xlink:href="#DejaVuSans-73" x="700.488281"/>
    </g>
   </g>
  </g>
 </g>
 <defs>
  <clipPath id="pa2d308d076">
   <rect x="3.6" y="3.6" width="782.1" height="376.2"/>
  </clipPath>
 </defs>
</svg>
