<?xml version="1.0" encoding="UTF-8" standalone="no"?>
<!-- Created with Inkscape (http://www.inkscape.org/) -->

<svg
   version="1.1"
   id="svg2"
   width="226.66667"
   height="113.33333"
   viewBox="0 0 226.66667 113.33333"
   sodipodi:docname="circular_oval.pdf"
   xmlns:inkscape="http://www.inkscape.org/namespaces/inkscape"
   xmlns:sodipodi="http://sodipodi.sourceforge.net/DTD/sodipodi-0.dtd"
   xmlns="http://www.w3.org/2000/svg"
   xmlns:svg="http://www.w3.org/2000/svg">
  <defs
     id="defs6" />
  <sodipodi:namedview
     id="namedview4"
     pagecolor="#ffffff"
     bordercolor="#000000"
     borderopacity="0.25"
     inkscape:showpageshadow="2"
     inkscape:pageopacity="0.0"
     inkscape:pagecheckerboard="0"
     inkscape:deskcolor="#d1d1d1" />
  <g
     id="g8"
     inkscape:groupmode="layer"
     inkscape:label="circular_oval"
     transform="matrix(1.3333333,0,0,-1.3333333,0,113.33333)">
    <g
       id="g10"
       transform="matrix(0.06,0,0,-0.06,0,85)">
      <g
         id="g12">
        <g
           id="g14" />
      </g>
      <g
         id="g16">
        <g
           id="g18" />
        <g
           id="g20"
           transform="matrix(47.216667,0,0,-47.233333,0,1417)">
          <path
             d="m 5.2943338,17.6321 h 1.05 m 0.3835,0 h 0.013 m 0.3835,0 h 1.56 m 0.3835,0 h 0.013 m 0.3835,0 h 1.5600002 m 0.3835,0 h 0.013 m 0.3835,0 h 1.56 m 0.3835,0 h 0.013 m 0.3835,0 h 1.56 m 0.3835,0 h 0.013 m 0.3835,0 h 1.56 m 0.3835,0 h 0.013 m 0.3835,0 h 1.56 m 0.3835,0 h 0.013 m 0.3835,0 h 1.56 m 0.3835,0 h 0.013 m 0.3835,0 h 1.56 m 0.3835,0 h 0.013 m 0.3835,0 h 1.56 m 0.3835,0 h 0.013 m 0.3835,0 h 1.56 m 0.3835,0 h 0.013 m 0.3835,0 h 1.56 m 0.3835,0 h 0.013 m 0.3835,0 h 1.56 m 0.3835,0 h 0.013 m 0.3835,0 h 1.56 m 0.3835,0 h 0.013 m 0.3835,0 h 1.56 m 0.3835,0 h 0.013 m 0.3835,0 h 1.56 m 0.3835,0 h 0.013 m 0.3835,0 h 1.56 m 0.3835,0 h 0.013 m 0.3835,0 h 1.56 m 0.3835,0 h 0.013 m 0.3835,0 h 1.56 m 0.3835,0 h 0.013 m 0.3835,0 h 1.05"
             style="fill:none;stroke:#000000;stroke-width:0.13;stroke-linecap:round;stroke-linejoin:round;stroke-miterlimit:10;stroke-dasharray:none;stroke-opacity:1"
             id="path22" />
          <path
             d="m 27.794334,6.1321001 v 0.58 m 0,0.3835 v 0.013 m 0,0.3835 v 1.56 m 0,0.3835 v 0.013 m 0,0.3835 V 11.3921 m 0,0.3835 v 0.013 m 0,0.3835 v 1.56 m 0,0.3835 v 0.013 m 0,0.3835 v 1.56 m 0,0.3835 v 0.013 m 0,0.3835 v 1.56 m 0,0.3835 v 0.013 m 0,0.3835 v 1.56 m 0,0.3835 v 0.013 m 0,0.3835 v 1.56 m 0,0.3835 v 0.013 m 0,0.3835 v 1.56 m 0,0.3835 v 0.013 m 0,0.3835 v 1.56 m 0,0.3835 v 0.013 m 0,0.3835 v 0.58"
             style="fill:none;stroke:#000000;stroke-width:0.13;stroke-linecap:round;stroke-linejoin:round;stroke-miterlimit:10;stroke-dasharray:none;stroke-opacity:1"
             id="path24" />
          <path
             d="m 44.571489,20.666583 -0.0648,0.05845 -0.065,0.05822 -0.06521,0.058 -0.06541,0.05777 -0.06561,0.05754 -0.06581,0.05731 -0.06601,0.05708 -0.06621,0.05685 -0.06641,0.05662 -0.0666,0.05639 -0.0668,0.05615 -0.067,0.05592 -0.06719,0.05569 -0.06739,0.05545 -0.06758,0.05522 -0.06777,0.05498 -0.06796,0.05474 -0.06815,0.0545 -0.06834,0.05427 -0.06853,0.05403 -0.06872,0.05379 -0.06891,0.05355 -0.06909,0.05331 -0.06928,0.05307 -0.06946,0.05282 -0.06965,0.05258 -0.06983,0.05234 -0.07001,0.05209 -0.07019,0.05185 -0.07037,0.0516 -0.07055,0.05136 -0.07073,0.05111 -0.07091,0.05086 -0.07109,0.05062 -0.07126,0.05037 -0.07144,0.05012 -0.07162,0.04987 -0.07179,0.04962 -0.07196,0.04937 -0.07213,0.04912 -0.0723,0.04886 -0.07247,0.04861 -0.07264,0.04836 -0.07281,0.0481 -0.07298,0.04785 -0.07315,0.04759 -0.07331,0.04734 -0.07348,0.04708 -0.07364,0.04683 -0.0738,0.04657 -0.07397,0.04631 -0.07413,0.04605 -0.07429,0.04579 -0.07445,0.04553 -0.0746,0.04527 -0.07476,0.04501 -0.07492,0.04475 -0.07507,0.04449 -0.07523,0.04423 -0.07538,0.04396 -0.07554,0.0437 -0.07569,0.04344 -0.07584,0.04317 -0.07599,0.04291 -0.07614,0.04264 -0.07629,0.04238 -0.07644,0.04211 -0.07658,0.04184 -0.07673,0.04158 -0.07687,0.04131 -0.07701,0.04104 -0.07716,0.04077 -0.0773,0.0405 -0.07744,0.04023 -0.07758,0.03996 -0.07772,0.03969 -0.07786,0.03942 -0.078,0.03914 -0.07813,0.03887 -0.07827,0.0386 -0.0784,0.03833 -0.07853,0.03805 -0.07867,0.03778 -0.0788,0.0375 -0.07893,0.03723 -0.07906,0.03695 -0.07919,0.03668 -0.07931,0.0364 -0.07944,0.03612 -0.07957,0.03584 -0.07969,0.03556 -0.07981,0.03529 -0.07994,0.03501 -0.08006,0.03473 -0.08018,0.03445 -0.0803,0.03417 -0.08042,0.03389 -0.08053,0.03361 -0.08065,0.03333 -0.08077,0.03305 -0.08088,0.03276 -0.081,0.03248 -0.08111,0.0322 -0.08122,0.03191 -0.08133,0.03163 -0.08144,0.03135 -0.08155,0.03106 -0.08166,0.03078 -0.08177,0.03049 -0.08187,0.0302 -0.08198,0.02992 -0.08208,0.02963 -0.08218,0.02935 -0.08229,0.02906 -0.08239,0.02877 -0.08249,0.02848 -0.08259,0.0282 -0.08268,0.02791 -0.08278,0.02762 -0.08288,0.02733 -0.08297,0.02704 -0.08306,0.02675 -0.08316,0.02646 -0.08325,0.02617 -0.08334,0.02588 -0.08343,0.02559 -0.08352,0.0253 -0.08361,0.02501 -0.08369,0.02471 -0.08378,0.02442 -0.08387,0.02413 -0.08395,0.02384 -0.08403,0.02354 -0.08411,0.02325 -0.08419,0.02296 -0.08427,0.02266 -0.08435,0.02237 -0.08443,0.02207 -0.08451,0.02178 -0.08458,0.02148 -0.08465,0.02119 -0.08473,0.02089 -0.0848,0.0206 -0.08487,0.0203 -0.08494,0.02 -0.08501,0.01971 -0.08508,0.01941 -0.08515,0.01911 -0.08521,0.01882 -0.08528,0.01852 -0.08534,0.01822 -0.08541,0.01792 -0.08547,0.01762 -0.08553,0.01732 -0.08559,0.01703 -0.08565,0.01673 -0.08571,0.01643 -0.08576,0.01613 -0.08582,0.01583 -0.08587,0.01553 -0.08593,0.01523 -0.08598,0.01493 -0.08603,0.01463 -0.08608,0.01433 -0.08613,0.01403 -0.08618,0.01373 -0.08623,0.01343 -0.08627,0.01313 -0.08632,0.01282 -0.08636,0.01252 -0.08641,0.01222 -0.08645,0.01192 -0.08649,0.01162 -0.08653,0.01132 -0.08657,0.01102 -0.08661,0.01071 -0.08664,0.01041 -0.08668,0.01011 -0.08671,0.0098 -0.08675,0.0095 -0.08678,0.0092 -0.08681,0.0089 -0.08684,0.0086 -0.08687,0.0083 -0.0869,0.008 -0.08693,0.0077 -0.08695,0.0074 -0.08698,0.0071 -0.087,0.0068 -0.08703,0.0065 -0.08705,0.0062 -0.08707,0.0059 -0.08709,0.0056 -0.08711,0.0053 -0.08713,0.0049 -0.08714,0.0046 -0.08716,0.0043 -0.08717,0.004 -0.08719,0.0037 -0.0872,0.0034 -0.08721,0.0031 -0.08722,0.0028 -0.08723,0.0025 -0.08724,0.0022 -0.08725,0.0019 -0.08725,0.0016 -0.08726,0.0013 -0.08726,9.91e-4 -0.08726,6.87e-4 -0.08727,3.82e-4 -0.08727,7.8e-5 -0.08727,-2.27e-4 -0.08726,-5.32e-4 -0.08726,-8.36e-4 -0.08726,-0.0011 -0.08725,-0.0014 -0.08725,-0.0018 -0.08724,-0.0021 -0.08723,-0.0024 -0.08723,-0.0027 -0.08722,-0.003 -0.0872,-0.0033 -0.08719,-0.0036 -0.08718,-0.0039 -0.08717,-0.0042 -0.08715,-0.0045 -0.08713,-0.0048 -0.08712,-0.0051 -0.0871,-0.0054 -0.08708,-0.0057 -0.08706,-0.006 -0.08704,-0.0063 -0.08701,-0.0066 -0.08699,-0.0069 -0.08697,-0.0072 -0.08694,-0.0075 -0.08692,-0.0078 -0.08689,-0.0081 -0.08686,-0.0084 -0.08683,-0.0087 -0.0868,-0.009 -0.08676,-0.0093 -0.08673,-0.0097 -0.0867,-0.01 -0.08666,-0.01026 -0.08662,-0.01056 -0.08659,-0.01086 -0.08655,-0.01116 -0.08651,-0.01146 -0.08647,-0.01177 -0.08643,-0.01207 -0.08638,-0.01237 -0.08634,-0.01267 -0.0863,-0.01297 -0.08625,-0.01327 -0.0862,-0.01358 -0.08616,-0.01388 -0.08611,-0.01418 -0.08606,-0.01448 -0.08601,-0.01478 -0.08595,-0.01508 -0.0859,-0.01538 -0.08585,-0.01568 -0.08579,-0.01598 -0.08574,-0.01628 -0.08568,-0.01658 -0.08562,-0.01687 -0.08556,-0.01717 -0.0855,-0.01747 -0.08544,-0.01777 -0.08538,-0.01807 -0.08531,-0.01837 -0.08525,-0.01866 -0.08518,-0.01896 -0.08512,-0.01926 -0.08505,-0.01956 -0.08498,-0.01985 -0.08491,-0.02015 -0.08484,-0.02045 -0.08477,-0.02074 -0.08469,-0.02104 -0.08462,-0.02133 -0.08455,-0.02163 -0.08447,-0.02192 -0.08439,-0.02222 -0.08431,-0.02251 -0.08423,-0.02281 -0.08415,-0.0231 -0.08407,-0.02339 -0.08399,-0.02369 -0.08391,-0.02398 -0.08382,-0.02427 -0.08374,-0.02456 -0.08365,-0.02486 -0.08356,-0.02515 -0.08348,-0.02544 -0.08339,-0.02573 -0.0833,-0.02602 -0.08321,-0.02631 -0.08311,-0.0266 -0.08302,-0.02689 -0.08292,-0.02718 -0.08283,-0.02747 -0.08273,-0.02776 -0.08264,-0.02805 -0.08254,-0.02834 -0.08244,-0.02863 -0.08234,-0.02891 -0.08224,-0.0292 -0.08213,-0.02949 -0.08203,-0.02977 -0.08193,-0.03006 -0.08182,-0.03035 -0.08171,-0.03063 -0.08161,-0.03092 -0.0815,-0.0312 -0.08139,-0.03148 -0.08128,-0.03177 -0.08117,-0.03205 -0.08105,-0.03234 -0.08094,-0.03262 -0.08083,-0.0329 -0.08071,-0.03318 -0.0806,-0.03346 -0.08048,-0.03374 -0.08036,-0.03403 -0.08024,-0.03431 -0.08012,-0.03459 -0.08,-0.03486 -0.07988,-0.03514 -0.07975,-0.03542 -0.07963,-0.0357 -0.0795,-0.03598 -0.07938,-0.03626 -0.07925,-0.03653 -0.07912,-0.03681 -0.07899,-0.03709 -0.07886,-0.03736 -0.07873,-0.03764 -0.0786,-0.03791 -0.07847,-0.03818 -0.07833,-0.03846 -0.0782,-0.03873 -0.07806,-0.039 -0.07793,-0.03928 -0.07779,-0.03955 -0.07765,-0.03982 -0.07751,-0.04009 -0.07737,-0.04036 -0.07723,-0.04063 -0.07709,-0.0409 -0.07695,-0.04117 -0.0768,-0.04144 -0.07666,-0.04171 -0.07651,-0.04197 -0.07636,-0.04224 -0.07621,-0.04251 -0.07607,-0.04277 -0.07592,-0.04304 -0.07577,-0.0433 -0.07561,-0.04357 -0.07546,-0.04383 -0.07531,-0.04409 -0.07515,-0.04436 -0.075,-0.04462 -0.07484,-0.04488 -0.07468,-0.04514 -0.07453,-0.0454 -0.07437,-0.04566 -0.07421,-0.04592 -0.07405,-0.04618 -0.07389,-0.04644 -0.07372,-0.04669 -0.07356,-0.04695 -0.07339,-0.04721 -0.07323,-0.04746 -0.07306,-0.04772 -0.0729,-0.04797 -0.07273,-0.04823 -0.07256,-0.04848 -0.07239,-0.04874 -0.07222,-0.04899 -0.07205,-0.04924 -0.07188,-0.04949 -0.0717,-0.04974 -0.07153,-0.04999 -0.07135,-0.05024 -0.07118,-0.05049 -0.071,-0.05074 -0.07082,-0.05098 -0.07065,-0.05123 -0.07047,-0.05148 -0.07029,-0.05172 -0.07011,-0.05197 -0.06992,-0.05221 -0.06974,-0.05246 -0.06956,-0.0527 -0.06937,-0.05294 -0.06919,-0.05318 -0.069,-0.05342 -0.06881,-0.05367 -0.06863,-0.05391 -0.06844,-0.05414 -0.06825,-0.05438 -0.06806,-0.05462 -0.06787,-0.05486 -0.06768,-0.05509 -0.06748,-0.05533 -0.06729,-0.05557 -0.06709,-0.0558 -0.0669,-0.05603 -0.0667,-0.05627 -0.06651,-0.0565 -0.06631,-0.05673 -0.06611,-0.05696 -0.06591,-0.05719 -0.06571,-0.05742 -0.06551,-0.05765 -0.06531,-0.05788 -0.06511,-0.05811 -0.0649,-0.05833 -0.03299,-0.02981"
             style="fill:none;stroke:#000000;stroke-width:0.25;stroke-linecap:round;stroke-linejoin:round;stroke-miterlimit:10;stroke-dasharray:none;stroke-opacity:1"
             id="path26" />
          <path
             d="m 11.017178,14.597617 0.0648,-0.05845 0.065,-0.05822 0.06521,-0.058 0.06541,-0.05777 0.06561,-0.05754 0.06581,-0.05731 0.06601,-0.05708 0.06621,-0.05685 0.06641,-0.05662 0.0666,-0.05639 0.0668,-0.05615 0.067,-0.05592 0.06719,-0.05569 0.06738,-0.05545 0.06758,-0.05522 0.06777,-0.05498 0.06796,-0.05474 0.06815,-0.0545 0.06834,-0.05427 0.06853,-0.05403 0.06872,-0.05379 0.06891,-0.05355 0.06909,-0.05331 0.06928,-0.05307 0.06946,-0.05282 0.06965,-0.05258 0.06983,-0.05234 0.07001,-0.05209 0.0702,-0.05185 0.07037,-0.0516 0.07055,-0.05136 0.07073,-0.05111 0.07091,-0.05086 0.07109,-0.05061 0.07127,-0.05037 0.07144,-0.05012 0.07161,-0.04987 0.07179,-0.04962 0.07196,-0.04937 0.07213,-0.04911 0.0723,-0.04886 0.07247,-0.04861 0.07264,-0.04836 0.07281,-0.0481 0.07298,-0.04785 0.07315,-0.04759 0.07331,-0.04734 0.07348,-0.04708 0.07364,-0.04683 0.0738,-0.04657 0.07397,-0.04631 0.07413,-0.04605 0.07429,-0.04579 0.07444,-0.04553 0.07461,-0.04527 0.07476,-0.04501 0.07492,-0.04475 0.07508,-0.04449 0.07523,-0.04423 0.07538,-0.04396 0.07554,-0.0437 0.07569,-0.04344 0.07584,-0.04317 0.07599,-0.04291 0.07614,-0.04264 0.07629,-0.04238 0.07644,-0.04211 0.07658,-0.04184 0.07673,-0.04157 0.07687,-0.04131 0.07701,-0.04104 0.07716,-0.04077 0.0773,-0.0405 0.07744,-0.04023 0.07758,-0.03996 0.07772,-0.03969 0.07786,-0.03942 0.078,-0.03914 0.07813,-0.03887 0.07827,-0.0386 0.0784,-0.03833 0.07853,-0.03805 0.07867,-0.03778 0.0788,-0.0375 0.07893,-0.03723 0.07906,-0.03695 0.07919,-0.03668 0.07931,-0.0364 0.07944,-0.03612 0.07957,-0.03584 0.07969,-0.03557 0.07981,-0.03529 0.07994,-0.03501 0.08006,-0.03473 0.08018,-0.03445 0.0803,-0.03417 0.08042,-0.03389 0.08054,-0.03361 0.08065,-0.03333 0.08077,-0.033045 0.08088,-0.032763 0.081,-0.03248 0.08111,-0.032197 0.08122,-0.031914 0.08133,-0.03163 0.08144,-0.031346 0.08155,-0.031061 0.08166,-0.030777 0.08177,-0.030491 0.08187,-0.030206 0.08198,-0.02992 0.08208,-0.029633 0.08218,-0.029347 0.08229,-0.02906 0.08239,-0.028772 0.08249,-0.028485 0.08258,-0.028196 0.08268,-0.027908 0.08278,-0.027619 0.08288,-0.02733 0.08297,-0.027041 0.08307,-0.026751 0.08316,-0.026461 0.08325,-0.02617 0.08334,-0.02588 0.08343,-0.025588 0.08352,-0.025297 0.08361,-0.025005 0.08369,-0.024713 0.08378,-0.024421 0.08386,-0.024128 0.08395,-0.023836 0.08403,-0.023542 0.08411,-0.023249 0.08419,-0.022955 0.08427,-0.022661 0.08435,-0.022367 0.08443,-0.022072 0.08451,-0.021777 0.08458,-0.021482 0.08466,-0.021187 0.08473,-0.020891 0.0848,-0.020596 0.08487,-0.020299 0.08494,-0.020003 0.08501,-0.019706 0.08508,-0.019409 0.08515,-0.019112 0.08521,-0.018815 0.08528,-0.018517 0.08534,-0.01822 0.08541,-0.017922 0.08547,-0.017623 0.08553,-0.017325 0.08559,-0.017026 0.08565,-0.016727 0.08571,-0.016428 0.08576,-0.016129 0.08582,-0.01583 0.08587,-0.01553 0.08593,-0.01523 0.08598,-0.01493 0.08603,-0.01463 0.08608,-0.014329 0.08613,-0.014029 0.08618,-0.013728 0.08623,-0.013427 0.08627,-0.013126 0.08632,-0.012825 0.08636,-0.012524 0.08641,-0.012222 0.08645,-0.01192 0.08649,-0.011618 0.08653,-0.011316 0.08657,-0.011014 0.08661,-0.010712 0.08664,-0.01041 0.08668,-0.010107 0.08671,-0.0098 0.08675,-0.0095 0.08678,-0.0092 0.08681,-0.0089 0.08684,-0.00859 0.08687,-0.00829 0.0869,-0.00799 0.08693,-0.00768 0.08695,-0.00738 0.08698,-0.00708 0.087,-0.00677 0.08703,-0.00647 0.08705,-0.00616 0.08707,-0.00586 0.08709,-0.00556 0.08711,-0.00525 0.08713,-0.00495 0.08714,-0.00464 0.08716,-0.00434 0.08717,-0.00404 0.08719,-0.00373 0.0872,-0.00343 0.08721,-0.00312 0.08722,-0.00282 0.08723,-0.00251 0.08724,-0.00221 0.08724,-0.00191 0.08725,-0.0016 0.08726,-0.0013 0.08726,-9.915e-4 0.08726,-6.868e-4 0.08727,-3.822e-4 0.08727,-7.76e-5 0.08727,2.27e-4 0.08726,5.316e-4 0.08726,8.362e-4 0.08726,0.00114 0.08725,0.00145 0.08725,0.00175 0.08724,0.00205 0.08723,0.00236 0.08723,0.00266 0.08721,0.00297 0.08721,0.00327 0.08719,0.00358 0.08718,0.00388 0.08717,0.00419 0.08715,0.00449 0.08713,0.00479 0.08712,0.0051 0.0871,0.0054 0.08708,0.00571 0.08706,0.00601 0.08704,0.00631 0.08702,0.00662 0.08699,0.00692 0.08697,0.00722 0.08694,0.00753 0.08691,0.00783 0.08689,0.00814 0.08686,0.00844 0.08683,0.00874 0.0868,0.00904 0.08676,0.00935 0.08673,0.00965 0.0867,0.00995 0.08666,0.010256 0.08663,0.010558 0.08659,0.01086 0.08655,0.011162 0.08651,0.011465 0.08647,0.011767 0.08643,0.012068 0.08638,0.01237 0.08634,0.012671 0.0863,0.012973 0.08625,0.013274 0.0862,0.013575 0.08616,0.013876 0.08611,0.014176 0.08606,0.014477 0.08601,0.014777 0.08595,0.015077 0.0859,0.015377 0.08585,0.015677 0.08579,0.015977 0.08574,0.016276 0.08568,0.016575 0.08562,0.016874 0.08556,0.017173 0.0855,0.017471 0.08544,0.01777 0.08537,0.018068 0.08531,0.018366 0.08525,0.018663 0.08518,0.018961 0.08512,0.019258 0.08505,0.019555 0.08498,0.019852 0.08491,0.020148 0.08484,0.020445 0.08477,0.020741 0.08469,0.021036 0.08462,0.021332 0.08454,0.021627 0.08447,0.021922 0.08439,0.022217 0.08431,0.022511 0.08423,0.022805 0.08415,0.023099 0.08407,0.023393 0.08399,0.023686 0.08391,0.023979 0.08382,0.024272 0.08374,0.024565 0.08365,0.024857 0.08356,0.025149 0.08348,0.02544 0.08339,0.025731 0.0833,0.026022 0.0832,0.026313 0.08311,0.026603 0.08302,0.026893 0.08293,0.027183 0.08283,0.027472 0.08273,0.027761 0.08264,0.028049 0.08254,0.028338 0.08244,0.028626 0.08234,0.028913 0.08224,0.0292 0.08213,0.029487 0.08203,0.029774 0.08193,0.03006 0.08182,0.030346 0.08171,0.030631 0.08161,0.030916 0.0815,0.031201 0.08139,0.031485 0.08128,0.031769 0.08117,0.032053 0.08105,0.032336 0.08094,0.032619 0.08083,0.032901 0.08071,0.033183 0.0806,0.03346 0.08048,0.03375 0.08036,0.03403 0.08024,0.03431 0.08012,0.03459 0.08,0.03487 0.07988,0.03514 0.07975,0.03542 0.07963,0.0357 0.0795,0.03598 0.07938,0.03626 0.07925,0.03653 0.07912,0.03681 0.07899,0.03709 0.07886,0.03736 0.07873,0.03764 0.0786,0.03791 0.07847,0.03819 0.07834,0.03846 0.0782,0.03873 0.07806,0.039 0.07793,0.03928 0.07779,0.03955 0.07765,0.03982 0.07751,0.04009 0.07737,0.04036 0.07723,0.04063 0.07709,0.0409 0.07695,0.04117 0.0768,0.04144 0.07666,0.04171 0.07651,0.04197 0.07636,0.04224 0.07621,0.04251 0.07607,0.04277 0.07592,0.04304 0.07577,0.0433 0.07561,0.04357 0.07546,0.04383 0.07531,0.04409 0.07515,0.04436 0.075,0.04462 0.07484,0.04488 0.07469,0.04514 0.07453,0.0454 0.07437,0.04566 0.07421,0.04592 0.07405,0.04618 0.07388,0.04644 0.07372,0.04669 0.07356,0.04695 0.07339,0.04721 0.07323,0.04746 0.07306,0.04772 0.0729,0.04797 0.07273,0.04823 0.07256,0.04848 0.07239,0.04873 0.07222,0.04899 0.07205,0.04924 0.07188,0.04949 0.0717,0.04974 0.07153,0.04999 0.07135,0.05024 0.07118,0.05049 0.071,0.05074 0.07082,0.05098 0.07065,0.05123 0.07047,0.05148 0.07029,0.05172 0.0701,0.05197 0.06992,0.05221 0.06974,0.05246 0.06956,0.0527 0.06937,0.05294 0.06919,0.05318 0.069,0.05343 0.06881,0.05366 0.06863,0.05391 0.06844,0.05414 0.06825,0.05438 0.06806,0.05462 0.06787,0.05486 0.06768,0.05509 0.06748,0.05533 0.06729,0.05557 0.06709,0.0558 0.0669,0.05603 0.0667,0.05627 0.06651,0.0565 0.06631,0.05673 0.06611,0.05696 0.06591,0.05719 0.06571,0.05742 0.06551,0.05765 0.06531,0.05788 0.06511,0.05811 0.0649,0.05833 0.03299,0.02981"
             style="fill:none;stroke:#000000;stroke-width:0.25;stroke-linecap:round;stroke-linejoin:round;stroke-miterlimit:10;stroke-dasharray:none;stroke-opacity:1"
             id="path28" />
          <path
             d="M 5.2943338,19.6321 H 8.3328333"
             style="fill:none;stroke:#000000;stroke-width:0.25;stroke-linecap:round;stroke-linejoin:round;stroke-miterlimit:10;stroke-dasharray:none;stroke-opacity:1"
             id="path30" />
          <path
             d="m 47.255834,19.6321 h 3.0385"
             style="fill:none;stroke:#000000;stroke-width:0.25;stroke-linecap:round;stroke-linejoin:round;stroke-miterlimit:10;stroke-dasharray:none;stroke-opacity:1"
             id="path32" />
          <path
             d="M 5.2943338,15.6321 H 8.3328333"
             style="fill:none;stroke:#000000;stroke-width:0.25;stroke-linecap:round;stroke-linejoin:round;stroke-miterlimit:10;stroke-dasharray:none;stroke-opacity:1"
             id="path34" />
          <path
             d="m 47.255834,15.6321 h 3.0385"
             style="fill:none;stroke:#000000;stroke-width:0.25;stroke-linecap:round;stroke-linejoin:round;stroke-miterlimit:10;stroke-dasharray:none;stroke-opacity:1"
             id="path36" />
          <path
             d="m 11.017178,14.597617 -0.05739,0.05095 -0.05835,0.04984 -0.0593,0.04871 -0.06022,0.04757 -0.06112,0.0464 -0.062,0.04522 -0.06286,0.04402 -0.06369,0.04281 -0.0645,0.04158 -0.06529,0.04033 -0.06605,0.03908 -0.06679,0.0378 -0.0675,0.03651 -0.06819,0.03521 -0.06885,0.0339 -0.069488,0.03257 -0.0701,0.03123 -0.070686,0.02988 -0.071247,0.02852 -0.071781,0.02714 -0.072288,0.02576 -0.072769,0.02437 -0.073223,0.02297 -0.07365,0.02156 -0.074051,0.02015 -0.074423,0.01872 -0.074769,0.01729 -0.075087,0.01585 -0.075377,0.01441 -0.07564,0.01296 -0.075874,0.01151 -0.076081,0.01005 -0.07626,0.0086 -0.076411,0.0071 -0.076533,0.0057 -0.076628,0.0042 -0.076694,0.0027 -0.076732,0.0012 -0.026452,8.7e-5"
             style="fill:none;stroke:#000000;stroke-width:0.25;stroke-linecap:round;stroke-linejoin:round;stroke-miterlimit:10;stroke-dasharray:none;stroke-opacity:1"
             id="path38" />
          <path
             d="m 8.3328333,19.6321 0.076738,7.36e-4 0.07671,0.0022 0.076654,0.0037 0.076569,0.0051 0.076456,0.0066 0.076315,0.0081 0.076146,0.0095 0.075949,0.01101 0.075724,0.01246 0.075471,0.01391 0.07519,0.01536 0.074882,0.01679 0.074546,0.01823 0.074182,0.01966 0.073792,0.02107 0.073374,0.02249 0.072929,0.02389 0.072457,0.02529 0.071958,0.02667 0.071434,0.02805 0.070882,0.02941 0.070305,0.03077 0.069702,0.03211 0.06907,0.03344 0.06842,0.03476 0.06774,0.03607 0.06704,0.03736 0.06631,0.03864 0.06555,0.0399 0.06477,0.04115 0.06397,0.04239 0.06315,0.04361 0.0623,0.04481 0.06143,0.046 0.06054,0.04717 0.05962,0.04832 0.05868,0.04946 0.05772,0.05057 0.01967,0.01769"
             style="fill:none;stroke:#000000;stroke-width:0.25;stroke-linecap:round;stroke-linejoin:round;stroke-miterlimit:10;stroke-dasharray:none;stroke-opacity:1"
             id="path40" />
          <path
             d="m 44.571489,20.666583 0.05739,-0.05095 0.05835,-0.04984 0.0593,-0.04871 0.06022,-0.04757 0.06112,-0.0464 0.062,-0.04522 0.06286,-0.04402 0.06369,-0.04281 0.0645,-0.04158 0.06529,-0.04033 0.06605,-0.03908 0.06679,-0.0378 0.0675,-0.03651 0.06819,-0.03521 0.06885,-0.0339 0.06949,-0.03257 0.0701,-0.03123 0.07069,-0.02988 0.07125,-0.02852 0.07178,-0.02715 0.07229,-0.02576 0.07277,-0.02437 0.07322,-0.02297 0.07365,-0.02156 0.07405,-0.02015 0.07442,-0.01872 0.07477,-0.01729 0.07509,-0.01585 0.07538,-0.01441 0.07564,-0.01296 0.07587,-0.01151 0.07608,-0.01005 0.07626,-0.0086 0.07641,-0.0071 0.07653,-0.0057 0.07663,-0.0042 0.07669,-0.0027 0.07673,-0.0012 0.02645,-8.7e-5"
             style="fill:none;stroke:#000000;stroke-width:0.25;stroke-linecap:round;stroke-linejoin:round;stroke-miterlimit:10;stroke-dasharray:none;stroke-opacity:1"
             id="path42" />
          <path
             d="m 47.255834,15.6321 -0.07674,-7.36e-4 -0.07671,-0.0022 -0.07665,-0.0037 -0.07657,-0.0051 -0.07646,-0.0066 -0.07632,-0.0081 -0.07615,-0.0095 -0.07595,-0.011 -0.07572,-0.01246 -0.07547,-0.01391 -0.07519,-0.01536 -0.07488,-0.0168 -0.07455,-0.01823 -0.07418,-0.01966 -0.07379,-0.02107 -0.07337,-0.02249 -0.07293,-0.02389 -0.07246,-0.02528 -0.07196,-0.02667 -0.07143,-0.02805 -0.07088,-0.02941 -0.07031,-0.03077 -0.0697,-0.03211 -0.06907,-0.03344 -0.06842,-0.03476 -0.06774,-0.03606 -0.06703,-0.03736 -0.06631,-0.03864 -0.06555,-0.0399 -0.06477,-0.04115 -0.06397,-0.04239 -0.06315,-0.04361 -0.0623,-0.04481 -0.06143,-0.046 -0.06054,-0.04717 -0.05962,-0.04832 -0.05868,-0.04946 -0.05772,-0.05057 -0.01967,-0.01769"
             style="fill:none;stroke:#000000;stroke-width:0.25;stroke-linecap:round;stroke-linejoin:round;stroke-miterlimit:10;stroke-dasharray:none;stroke-opacity:1"
             id="path44" />
        </g>
        <g
           id="g46"
           transform="matrix(0.47021056,0.70672363,-0.70647426,0.47037653,764.09303,485.87525)">
          <g
             id="g48">
            <text
               xml:space="preserve"
               transform="translate(0,208)"
               style="font-variant:normal;font-weight:normal;font-size:194px;font-family:'Noto Sans';-inkscape-font-specification:NotoSans-DisplayRegular;writing-mode:lr-tb;fill:#008000;fill-opacity:1;fill-rule:nonzero;stroke:none"
               id="text52"><tspan
                 x="0"
                 y="0"
                 id="tspan50">r</tspan></text>
          </g>
        </g>
        <g
           id="g54"
           transform="matrix(47.216667,0,0,-47.233333,0,1417)" />
        <g
           id="g56"
           transform="matrix(0.18808422,0.28268945,-0.2825897,0.18815061,711.58757,598.17881)">
          <g
             id="g58">
            <text
               xml:space="preserve"
               transform="translate(0,208)"
               style="font-variant:normal;font-weight:normal;font-size:194px;font-family:'Noto Sans';-inkscape-font-specification:NotoSans-DisplayRegular;writing-mode:lr-tb;fill:#008000;fill-opacity:1;fill-rule:nonzero;stroke:none"
               id="text62"><tspan
                 x="0"
                 y="0"
                 id="tspan60">1</tspan></text>
          </g>
        </g>
        <g
           id="g64"
           transform="matrix(47.216667,0,0,-47.233333,0,1417)">
          <path
             d="M 8.3328333,23.6321 14.335176,14.613799"
             style="fill:none;stroke:#008000;stroke-width:0.13;stroke-linecap:round;stroke-linejoin:round;stroke-miterlimit:10;stroke-dasharray:none;stroke-opacity:1"
             id="path66" />
        </g>
        <g
           id="g68">
          <path
             d="M 498.09397,458.05848 579.86,545.46491 547.13465,567.25373 Z"
             style="fill:#008000;fill-opacity:1;fill-rule:evenodd;stroke:none"
             id="path70" />
        </g>
        <g
           id="g72"
           transform="matrix(47.216667,0,0,-47.233333,0,1417)">
          <path
             d="m 10.549113,20.30222 1.73172,-1.850525 -0.693089,-0.461301 z"
             style="fill:#008000;fill-opacity:1;fill-rule:evenodd;stroke:#008000;stroke-width:0.13;stroke-linecap:round;stroke-linejoin:round;stroke-miterlimit:10;stroke-dasharray:none;stroke-opacity:1"
             id="path74" />
        </g>
        <g
           id="g76"
           transform="matrix(0.31931484,0.78656113,-0.78628358,0.31942755,1156.235,396.49124)">
          <g
             id="g78">
            <text
               xml:space="preserve"
               transform="translate(0,208)"
               style="font-variant:normal;font-weight:normal;font-size:194px;font-family:'Noto Sans';-inkscape-font-specification:NotoSans-DisplayRegular;writing-mode:lr-tb;fill:#008000;fill-opacity:1;fill-rule:nonzero;stroke:none"
               id="text82"><tspan
                 x="0"
                 y="0"
                 id="tspan80">r</tspan></text>
          </g>
        </g>
        <g
           id="g84"
           transform="matrix(47.216667,0,0,-47.233333,0,1417)" />
        <g
           id="g86"
           transform="matrix(0.12772594,0.31462445,-0.31451343,0.12777102,1082.3248,496.01155)">
          <g
             id="g88">
            <text
               xml:space="preserve"
               transform="translate(0,208)"
               style="font-variant:normal;font-weight:normal;font-size:194px;font-family:'Noto Sans';-inkscape-font-specification:NotoSans-DisplayRegular;writing-mode:lr-tb;fill:#008000;fill-opacity:1;fill-rule:nonzero;stroke:none"
               id="text92"><tspan
                 x="0"
                 y="0"
                 id="tspan90">2</tspan></text>
          </g>
        </g>
        <g
           id="g94"
           transform="matrix(47.216667,0,0,-47.233333,0,1417)">
          <path
             d="M 24.014412,11.388894 18.370013,25.287708"
             style="fill:none;stroke:#008000;stroke-width:0.13;stroke-linecap:round;stroke-linejoin:round;stroke-miterlimit:10;stroke-dasharray:none;stroke-opacity:1"
             id="path96" />
        </g>
        <g
           id="g98">
          <path
             d="m 867.3708,222.57725 62.62585,102.00746 -36.42229,14.79655 z"
             style="fill:#008000;fill-opacity:1;fill-rule:evenodd;stroke:none"
             id="path100" />
        </g>
        <g
           id="g102"
           transform="matrix(47.216667,0,0,-47.233333,0,1417)">
          <path
             d="m 18.370013,25.287708 1.326351,-2.15965 -0.771387,-0.313265 z"
             style="fill:#008000;fill-opacity:1;fill-rule:evenodd;stroke:#008000;stroke-width:0.13;stroke-linecap:round;stroke-linejoin:round;stroke-miterlimit:10;stroke-dasharray:none;stroke-opacity:1"
             id="path104" />
        </g>
        <g
           id="g106"
           transform="matrix(0,-0.8489478,0.84864824,0,2320.6874,358.00418)">
          <g
             id="g108">
            <text
               xml:space="preserve"
               transform="translate(0,208)"
               style="font-variant:normal;font-weight:normal;font-size:194px;font-family:'Noto Sans';-inkscape-font-specification:NotoSans-DisplayRegular;writing-mode:lr-tb;fill:#008000;fill-opacity:1;fill-rule:nonzero;stroke:none"
               id="text112"><tspan
                 x="0"
                 y="0"
                 id="tspan110">d</tspan></text>
          </g>
        </g>
        <g
           id="g114"
           transform="matrix(47.216667,0,0,-47.233333,0,1417)">
          <path
             d="m 53.455666,27.1321 v -7.5"
             style="fill:none;stroke:#008000;stroke-width:0.13;stroke-linecap:round;stroke-linejoin:round;stroke-miterlimit:10;stroke-dasharray:none;stroke-opacity:1"
             id="path116" />
        </g>
        <g
           id="g118">
          <path
             d="m 2523.9984,135.46047 19.6555,118.08333 h -39.3111 z"
             style="fill:#008000;fill-opacity:1;fill-rule:evenodd;stroke:none"
             id="path120" />
        </g>
        <g
           id="g122"
           transform="matrix(47.216667,0,0,-47.233333,0,1417)">
          <path
             d="m 53.455666,27.1321 0.416285,-2.5 h -0.83257 z"
             style="fill:#008000;fill-opacity:1;fill-rule:evenodd;stroke:#008000;stroke-width:0.13;stroke-linecap:round;stroke-linejoin:round;stroke-miterlimit:10;stroke-dasharray:none;stroke-opacity:1"
             id="path124" />
        </g>
        <g
           id="g126">
          <path
             d="m 2523.9984,489.71047 -19.6556,-118.08333 h 39.3111 z"
             style="fill:#008000;fill-opacity:1;fill-rule:evenodd;stroke:none"
             id="path128" />
        </g>
        <g
           id="g130"
           transform="matrix(47.216667,0,0,-47.233333,0,1417)">
          <path
             d="m 53.455666,19.6321 -0.416285,2.5 h 0.83257 z"
             style="fill:#008000;fill-opacity:1;fill-rule:evenodd;stroke:#008000;stroke-width:0.13;stroke-linecap:round;stroke-linejoin:round;stroke-miterlimit:10;stroke-dasharray:none;stroke-opacity:1"
             id="path132" />
          <path
             d="M 28.419334,27.1321 H 54.705666"
             style="fill:none;stroke:#008000;stroke-width:0.13;stroke-linecap:round;stroke-linejoin:round;stroke-miterlimit:10;stroke-dasharray:none;stroke-opacity:1"
             id="path134" />
          <path
             d="m 50.919334,19.6321 h 3.786332"
             style="fill:none;stroke:#008000;stroke-width:0.13;stroke-linecap:round;stroke-linejoin:round;stroke-miterlimit:10;stroke-dasharray:none;stroke-opacity:1"
             id="path136" />
          <path
             d="m 8.3328333,19.6321 h 1.541505"
             style="fill:none;stroke:#000000;stroke-width:0.13;stroke-linecap:round;stroke-linejoin:round;stroke-miterlimit:10;stroke-dasharray:none;stroke-opacity:1"
             id="path138" />
          <path
             d="m 9.8743383,19.6321 1.1428397,1.034483"
             style="fill:none;stroke:#000000;stroke-width:0.13;stroke-linecap:round;stroke-linejoin:round;stroke-miterlimit:10;stroke-dasharray:none;stroke-opacity:1"
             id="path140" />
          <path
             d="M 44.571489,20.666583 45.714329,19.6321"
             style="fill:none;stroke:#000000;stroke-width:0.13;stroke-linecap:round;stroke-linejoin:round;stroke-miterlimit:10;stroke-dasharray:none;stroke-opacity:1"
             id="path142" />
          <path
             d="m 45.714329,19.6321 h 1.541505"
             style="fill:none;stroke:#000000;stroke-width:0.13;stroke-linecap:round;stroke-linejoin:round;stroke-miterlimit:10;stroke-dasharray:none;stroke-opacity:1"
             id="path144" />
        </g>
        <g
           id="g146"
           transform="matrix(0.84864824,0,0,0.8489478,1233.7471,1110.8626)">
          <g
             id="g148">
            <text
               xml:space="preserve"
               transform="translate(0,208)"
               style="font-variant:normal;font-weight:normal;font-size:194px;font-family:'Noto Sans';-inkscape-font-specification:NotoSans-DisplayRegular;writing-mode:lr-tb;fill:#008000;fill-opacity:1;fill-rule:nonzero;stroke:none"
               id="text152"><tspan
                 x="0"
                 y="0"
                 id="tspan150">w</tspan></text>
          </g>
        </g>
        <g
           id="g154"
           transform="matrix(47.216667,0,0,-47.233333,0,1417)" />
        <g
           id="g156"
           transform="matrix(0.3394593,0,0,0.33957912,1356.0718,1216.8112)">
          <g
             id="g158">
            <text
               xml:space="preserve"
               transform="translate(0,208)"
               style="font-variant:normal;font-weight:normal;font-size:194px;font-family:'Noto Sans';-inkscape-font-specification:NotoSans-DisplayRegular;writing-mode:lr-tb;fill:#008000;fill-opacity:1;fill-rule:nonzero;stroke:none"
               id="text162"><tspan
                 x="0"
                 y="0"
                 id="tspan160">u</tspan></text>
          </g>
        </g>
        <g
           id="g164"
           transform="matrix(47.216667,0,0,-47.233333,0,1417)">
          <path
             d="M 9.8743383,2.1178999 H 45.714329"
             style="fill:none;stroke:#008000;stroke-width:0.13;stroke-linecap:round;stroke-linejoin:round;stroke-miterlimit:10;stroke-dasharray:none;stroke-opacity:1"
             id="path166" />
        </g>
        <g
           id="g168">
          <path
             d="m 466.23334,1316.9645 118.04167,-19.6625 v 39.325 z"
             style="fill:#008000;fill-opacity:1;fill-rule:evenodd;stroke:none"
             id="path170" />
        </g>
        <g
           id="g172"
           transform="matrix(47.216667,0,0,-47.233333,0,1417)">
          <path
             d="M 9.8743383,2.1178999 12.374338,2.5341845 V 1.7016152 Z"
             style="fill:#008000;fill-opacity:1;fill-rule:evenodd;stroke:#008000;stroke-width:0.13;stroke-linecap:round;stroke-linejoin:round;stroke-miterlimit:10;stroke-dasharray:none;stroke-opacity:1"
             id="path174" />
        </g>
        <g
           id="g176">
          <path
             d="m 2158.4782,1316.9645 -118.0416,19.6625 v -39.325 z"
             style="fill:#008000;fill-opacity:1;fill-rule:evenodd;stroke:none"
             id="path178" />
        </g>
        <g
           id="g180"
           transform="matrix(47.216667,0,0,-47.233333,0,1417)">
          <path
             d="m 45.714329,2.1178999 -2.5,-0.4162847 v 0.8325693 z"
             style="fill:#008000;fill-opacity:1;fill-rule:evenodd;stroke:#008000;stroke-width:0.13;stroke-linecap:round;stroke-linejoin:round;stroke-miterlimit:10;stroke-dasharray:none;stroke-opacity:1"
             id="path182" />
          <path
             d="M 9.8743383,19.0071 V 0.86789988"
             style="fill:none;stroke:#008000;stroke-width:0.13;stroke-linecap:round;stroke-linejoin:round;stroke-miterlimit:10;stroke-dasharray:none;stroke-opacity:1"
             id="path184" />
          <path
             d="M 45.714329,19.0071 V 0.86789988"
             style="fill:none;stroke:#008000;stroke-width:0.13;stroke-linecap:round;stroke-linejoin:round;stroke-miterlimit:10;stroke-dasharray:none;stroke-opacity:1"
             id="path186" />
        </g>
      </g>
    </g>
  </g>
</svg>
