<?xml version="1.0" encoding="UTF-8" standalone="no"?>
<!-- Created with Inkscape (http://www.inkscape.org/) -->

<svg
   width="68.22522mm"
   height="64.362175mm"
   viewBox="0 0 68.22522 64.362175"
   version="1.1"
   id="svg5"
   sodipodi:docname="directions-three-roll.svg"
   inkscape:version="1.2.2 (b0a8486541, 2022-12-01)"
   xmlns:inkscape="http://www.inkscape.org/namespaces/inkscape"
   xmlns:sodipodi="http://sodipodi.sourceforge.net/DTD/sodipodi-0.dtd"
   xmlns="http://www.w3.org/2000/svg"
   xmlns:svg="http://www.w3.org/2000/svg">
  <sodipodi:namedview
     id="namedview7"
     pagecolor="#ffffff"
     bordercolor="#666666"
     borderopacity="1.0"
     inkscape:showpageshadow="2"
     inkscape:pageopacity="0.0"
     inkscape:pagecheckerboard="0"
     inkscape:deskcolor="#d1d1d1"
     inkscape:document-units="mm"
     showgrid="false"
     inkscape:zoom="3.1521606"
     inkscape:cx="-89.145204"
     inkscape:cy="197.64221"
     inkscape:window-width="3840"
     inkscape:window-height="2079"
     inkscape:window-x="0"
     inkscape:window-y="0"
     inkscape:window-maximized="1"
     inkscape:current-layer="layer1" />
  <defs
     id="defs2">
    <marker
       style="overflow:visible"
       id="marker1303"
       refX="0"
       refY="0"
       orient="auto-start-reverse"
       inkscape:stockid="Arrow1"
       markerWidth="4.0606604"
       markerHeight="6.7071066"
       viewBox="0 0 4.0606602 6.7071068"
       inkscape:isstock="true"
       inkscape:collect="always"
       preserveAspectRatio="xMidYMid">
      <path
         style="fill:none;stroke:context-stroke;stroke-width:1;stroke-linecap:butt"
         d="M 3,-3 0,0 3,3"
         id="path1301"
         transform="rotate(180,0.125,0)"
         sodipodi:nodetypes="ccc" />
    </marker>
    <marker
       style="overflow:visible"
       id="Arrow1"
       refX="0.80000001"
       refY="0"
       orient="auto-start-reverse"
       inkscape:stockid="Arrow1"
       markerWidth="4.0606599"
       markerHeight="6.7071066"
       viewBox="0 0 4.0606602 6.7071068"
       inkscape:isstock="true"
       inkscape:collect="always"
       preserveAspectRatio="xMidYMid">
      <path
         style="fill:none;stroke:context-stroke;stroke-width:1;stroke-linecap:butt"
         d="M 3,-3 0,0 3,3"
         id="path5057"
         transform="rotate(180,0.125,0)"
         sodipodi:nodetypes="ccc" />
    </marker>
    <filter
       style="color-interpolation-filters:sRGB"
       inkscape:label="Blur"
       id="filter4573"
       x="-0.023338459"
       y="-0.093450062"
       width="1.0466769"
       height="1.1869001">
      <feGaussianBlur
         stdDeviation="0.1 0.1"
         result="blur"
         id="feGaussianBlur4571" />
    </filter>
    <clipPath
       id="clipPath5667">
      <path
         clip-rule="nonzero"
         d="m 2,8 h 5 v 6.886719 H 2 Z m 0,0"
         id="path734" />
    </clipPath>
    <clipPath
       id="clipPath5843">
      <path
         clip-rule="nonzero"
         d="m 2,10 h 5 v 7.515625 H 2 Z m 0,0"
         id="path116" />
    </clipPath>
  </defs>
  <g
     inkscape:label="Layer 1"
     inkscape:groupmode="layer"
     id="layer1"
     transform="translate(-71.3427, -14.969)">
    <path
       id="path1041"
       style="fill:#ff0000;fill-opacity:0.49653;stroke:#800000;stroke-width:0.2;stroke-dasharray:none"
       d="M 109.806 33.84534 A 16 16 0 0 0 105.45588 33.242276 A 16 16 0 0 0 101.04529 33.871178 A 8 15 30 0 0 100.86856 33.965746 A 8 15 30 0 0 99.942517 34.557441 A 8 15 30 0 0 99.018025 35.244738 A 8 15 30 0 0 98.102319 36.022468 A 8 15 30 0 0 97.204183 36.883398 A 8 15 30 0 0 96.329817 37.821325 A 8 15 30 0 0 95.486458 38.827465 A 8 15 30 0 0 94.681856 39.894583 A 8 15 30 0 0 93.922212 41.012861 A 8 15 30 0 0 93.213728 42.174031 A 8 15 30 0 0 92.563122 43.367756 A 8 15 30 0 0 91.975044 44.584736 A 8 15 30 0 0 91.453629 45.814119 A 8 15 30 0 0 91.004044 47.047118 A 8 15 30 0 0 90.629907 48.272367 A 8 15 30 0 0 90.333801 49.480562 A 8 15 30 0 0 90.11831 50.661368 A 8 15 30 0 0 89.985502 51.804967 A 8 15 30 0 0 89.936409 52.902575 A 8 15 30 0 0 89.943127 53.109797 A 16 16 0 0 0 94.349576 60.747574 A 15 8 0 0 0 95.191902 61.206978 A 15 8 0 0 0 96.142232 61.644677 A 15 8 0 0 0 97.158191 62.038451 A 15 8 0 0 0 98.232027 62.385717 A 15 8 0 0 0 99.357023 62.68389 A 15 8 0 0 0 100.52439 62.930903 A 15 8 0 0 0 101.72639 63.12469 A 15 8 0 0 0 102.95474 63.264216 A 15 8 0 0 0 104.20117 63.348966 A 15 8 0 0 0 105.45588 63.377388 A 15 8 0 0 0 106.71058 63.348966 A 15 8 0 0 0 107.9565 63.264216 A 15 8 0 0 0 109.18485 63.12469 A 15 8 0 0 0 110.38736 62.930903 A 15 8 0 0 0 111.55473 62.68389 A 15 8 0 0 0 112.67921 62.385717 A 15 8 0 0 0 113.75356 62.038451 A 15 8 0 0 0 114.769 61.644677 A 15 8 0 0 0 115.71933 61.206978 A 15 8 0 0 0 116.56166 60.747574 A 16 16 0 0 0 120.97224 53.094294 A 15 8 60 0 0 120.97844 52.908259 A 15 8 60 0 0 120.92935 51.810652 A 15 8 60 0 0 120.79602 50.666019 A 15 8 60 0 0 120.58053 49.484696 A 15 8 60 0 0 120.28391 48.275984 A 15 8 60 0 0 119.90926 47.049702 A 15 8 60 0 0 119.45915 45.816702 A 15 8 60 0 0 118.93722 44.586287 A 15 8 60 0 0 118.34863 43.36879 A 15 8 60 0 0 117.69699 42.175064 A 15 8 60 0 0 116.98902 41.014412 A 15 8 60 0 0 116.22938 39.89665 A 15 8 60 0 0 115.42478 38.830566 A 15 8 60 0 0 114.58193 37.824942 A 15 8 60 0 0 113.70808 36.888049 A 15 8 60 0 0 112.80995 36.027636 A 15 8 60 0 0 111.89476 35.250939 A 15 8 60 0 0 110.97078 34.563643 A 15 8 60 0 0 110.04474 33.972464 A 15 8 60 0 0 109.806 33.84534 z " />
    <g
       id="g2491"
       transform="translate(-21.821238,-4.0538297)">
      <path
         id="path2369"
         style="fill:none;stroke:#000000;stroke-width:0.499999;stroke-linejoin:miter;stroke-miterlimit:4"
         d="m 111.23507,63.135164 -8.95811,5.171778 v 9.656775 l 8.95708,5.17126 h 2.75642 a 15,8 0 0 1 13.28653,-4.295862 15,8 0 0 1 13.29427,4.295862 h 2.74816 l 8.95759,-5.171777 v -9.655742 l -8.95863,-5.172294 h -2.75487 a 15,8 0 0 1 -13.28652,4.295862 15,8 0 0 1 -13.28653,-4.295862 z" />
      <path
         id="path2372"
         style="fill:none;stroke:#000000;stroke-width:0.499999;stroke-linejoin:miter;stroke-miterlimit:4"
         d="m 93.414111,52.268691 -1.6e-4,10.34384 8.363009,4.828387 8.957,-5.171428 1.37821,-2.38713 a 8,15 30 0 1 2.92293,-13.654404 8,15 30 0 1 10.36747,-9.365244 l 1.37408,-2.379976 -1e-4,-10.343389 -8.36212,-4.82787 -8.95865,5.172253 -1.37744,2.385787 a 8,15 30 0 1 -2.92293,13.654395 8,15 30 0 1 -10.363599,9.358541 z" />
      <path
         id="path2374"
         style="fill:none;stroke:#000000;stroke-width:0.499999;stroke-linejoin:miter;stroke-miterlimit:4"
         d="m 145.09751,24.484055 -8.95795,-5.172061 -8.36301,4.828387 1e-4,10.342689 1.37821,2.38713 a 15,8 60 0 1 10.36359,9.358541 15,8 60 0 1 2.92681,13.661107 l 1.37408,2.379976 8.95768,5.171612 8.36212,-4.827871 3e-5,-10.344548 -1.37744,-2.385788 a 15,8 60 0 1 -10.36359,-9.358532 15,8 60 0 1 -2.92293,-13.654404 z" />
    </g>
    <g
       id="g2486"
       transform="translate(-21.821237,-4.0538296)">
      <path
         style="fill:none;stroke:#000000;stroke-width:0.264584px;stroke-linecap:butt;stroke-linejoin:miter;stroke-dasharray:2.11667, 0.529168, 0.264584, 0.529168;stroke-dashoffset:0;stroke-opacity:1"
         d="m 127.27703,53.296072 v 30"
         id="path2396" />
      <path
         style="fill:none;stroke:#000000;stroke-width:0.264584px;stroke-linecap:butt;stroke-linejoin:miter;stroke-dasharray:2.11667, 0.529168, 0.264584, 0.529168;stroke-dashoffset:0;stroke-opacity:1"
         d="M 127.27703,53.296073 153.25779,38.296075"
         id="path2449" />
      <path
         style="fill:none;stroke:#000000;stroke-width:0.264584px;stroke-linecap:butt;stroke-linejoin:miter;stroke-dasharray:2.11667, 0.529168, 0.264584, 0.529168;stroke-dashoffset:0;stroke-opacity:1"
         d="m 127.27703,53.296073 -25.98076,-15"
         id="path2451" />
    </g>
    <path
       style="fill:none;stroke:#800000;stroke-width:0.264583px;stroke-linecap:butt;stroke-linejoin:miter;stroke-opacity:1;marker-end:url(#marker1303)"
       d="M 105.45579,49.242243 117.6971,42.17472"
       id="path2515"
       sodipodi:nodetypes="cc" />
    <path
       style="fill:none;stroke:#800000;stroke-width:0.265;stroke-linecap:butt;stroke-linejoin:miter;stroke-opacity:1;marker-end:url(#Arrow1);stroke-dasharray:none"
       d="m 105.45579,49.242243 9e-5,-15.999967"
       id="path2791"
       sodipodi:nodetypes="cc" />
    <g
       inkscape:label="w/2"
       transform="translate(101.94518,37.980423)"
       id="g1778"
       style="fill:#800000">
      <g
         fill="#000000"
         fill-opacity="1"
         id="g19"
         transform="matrix(0.352778,0,0,0.352778,-0.42168,0.0413632)"
         style="fill:#800000">
        <g
           id="use17"
           transform="translate(1.196,4.289)"
           style="fill:#800000">
          <path
             d="M 4.609375,-3.375 C 4.65625,-3.59375 4.75,-3.96875 4.75,-4.03125 c 0,-0.171875 -0.140625,-0.265625 -0.28125,-0.265625 -0.125,0 -0.296875,0.078125 -0.375,0.28125 -0.03125,0.0625 -0.5,1.96875 -0.5625,2.234375 C 3.453125,-1.484375 3.4375,-1.3125 3.4375,-1.125 c 0,0.109375 0,0.125 0.015625,0.171875 -0.234375,0.53125 -0.53125,0.84375 -0.921875,0.84375 -0.796875,0 -0.796875,-0.734375 -0.796875,-0.90625 0,-0.3125 0.046875,-0.703125 0.515625,-1.9375 0.109375,-0.296875 0.171875,-0.4375 0.171875,-0.640625 0,-0.4375 -0.328125,-0.8125 -0.8125,-0.8125 -0.953125,0 -1.3125,1.453125 -1.3125,1.53125 0,0.109375 0.09375,0.109375 0.109375,0.109375 0.109375,0 0.109375,-0.03125 0.15625,-0.1875 C 0.84375,-3.875 1.21875,-4.1875 1.578125,-4.1875 c 0.09375,0 0.25,0.015625 0.25,0.328125 0,0.25 -0.109375,0.53125 -0.1875,0.703125 -0.4375,1.171875 -0.546875,1.625 -0.546875,2.015625 0,0.90625 0.65625,1.25 1.40625,1.25 0.171875,0 0.640625,0 1.03125,-0.703125 0.265625,0.640625 0.953125,0.703125 1.25,0.703125 0.75,0 1.1875,-0.625 1.453125,-1.21875 0.328125,-0.78125 0.65625,-2.125 0.65625,-2.59375 0,-0.546875 -0.265625,-0.703125 -0.4375,-0.703125 -0.25,0 -0.5,0.265625 -0.5,0.484375 0,0.125 0.0625,0.1875 0.140625,0.265625 0.109375,0.109375 0.359375,0.359375 0.359375,0.84375 0,0.34375 -0.28125,1.3125 -0.546875,1.828125 -0.25,0.53125 -0.609375,0.875 -1.09375,0.875 -0.46875,0 -0.734375,-0.296875 -0.734375,-0.875 0,-0.265625 0.0625,-0.578125 0.109375,-0.71875 z m 0,0"
             id="path33"
             style="fill:#800000" />
        </g>
      </g>
      <path
         fill="none"
         stroke-width="0.574"
         stroke-linecap="butt"
         stroke-linejoin="miter"
         stroke="#000000"
         stroke-opacity="1"
         stroke-miterlimit="10"
         d="M 0,6.4688125 H 7.4023435"
         id="path21"
         transform="scale(0.352778)"
         style="fill:#800000;stroke:#800000" />
      <g
         fill="#000000"
         fill-opacity="1"
         id="g25"
         transform="matrix(0.35277801,0,0,0.35277801,-0.42167923,0.04136287)"
         style="fill:#800000">
        <g
           id="use23"
           transform="translate(2.405,14.885)"
           style="fill:#800000">
          <path
             d="m 1.265625,-0.765625 1.0625,-1.03125 c 1.546875,-1.375 2.140625,-1.90625 2.140625,-2.90625 0,-1.140625 -0.890625,-1.9375 -2.109375,-1.9375 -1.125,0 -1.859375,0.921875 -1.859375,1.8125 0,0.546875 0.5,0.546875 0.53125,0.546875 0.171875,0 0.515625,-0.109375 0.515625,-0.53125 0,-0.25 -0.1875,-0.515625 -0.53125,-0.515625 -0.078125,0 -0.09375,0 -0.125,0.015625 0.21875,-0.65625 0.765625,-1.015625 1.34375,-1.015625 0.90625,0 1.328125,0.8125 1.328125,1.625 C 3.5625,-3.90625 3.078125,-3.125 2.515625,-2.5 l -1.90625,2.125 C 0.5,-0.265625 0.5,-0.234375 0.5,0 H 4.203125 L 4.46875,-1.734375 H 4.234375 C 4.171875,-1.4375 4.109375,-1 4,-0.84375 3.9375,-0.765625 3.28125,-0.765625 3.0625,-0.765625 Z m 0,0"
             id="path37"
             style="fill:#800000" />
        </g>
      </g>
    </g>
    <g
       inkscape:label="h/2"
       transform="translate(111.65303,46.26685)"
       id="g1899"
       style="fill:#800000">
      <g
         fill="#000000"
         fill-opacity="1"
         id="g1887"
         transform="matrix(0.352778,0,0,0.352778,-0.42168,0.00136694)"
         style="fill:#800000">
        <g
           id="g1885"
           transform="translate(1.196,6.9180002)"
           style="fill:#800000">
          <path
             d="m 2.859375,-6.8125 c 0,0 0,-0.109375 -0.125,-0.109375 -0.234375,0 -0.953125,0.078125 -1.21875,0.109375 -0.078125,0 -0.1875,0.015625 -0.1875,0.1875 0,0.125 0.09375,0.125 0.234375,0.125 0.484375,0 0.5,0.0625 0.5,0.171875 L 2.03125,-6.125 0.59375,-0.390625 c -0.046875,0.140625 -0.046875,0.15625 -0.046875,0.21875 0,0.234375 0.203125,0.28125 0.296875,0.28125 0.15625,0 0.3125,-0.125 0.359375,-0.265625 l 0.1875,-0.75 0.21875,-0.890625 C 1.671875,-2.03125 1.734375,-2.25 1.78125,-2.46875 1.796875,-2.53125 1.890625,-2.859375 1.890625,-2.921875 1.921875,-3.015625 2.234375,-3.5625 2.578125,-3.84375 2.796875,-4 3.09375,-4.1875 3.53125,-4.1875 c 0.421875,0 0.53125,0.34375 0.53125,0.703125 0,0.53125 -0.375,1.625 -0.609375,2.234375 C 3.375,-1.03125 3.3125,-0.90625 3.3125,-0.703125 c 0,0.46875 0.359375,0.8125 0.828125,0.8125 0.9375,0 1.296875,-1.453125 1.296875,-1.53125 0,-0.109375 -0.078125,-0.109375 -0.109375,-0.109375 -0.109375,0 -0.109375,0.03125 -0.15625,0.1875 -0.140625,0.53125 -0.46875,1.234375 -1.015625,1.234375 -0.171875,0 -0.234375,-0.09375 -0.234375,-0.328125 0,-0.25 0.078125,-0.484375 0.171875,-0.703125 0.15625,-0.4375 0.609375,-1.625 0.609375,-2.203125 0,-0.640625 -0.390625,-1.0625 -1.140625,-1.0625 -0.625,0 -1.109375,0.3125 -1.484375,0.765625 z m 0,0"
             id="path1883"
             style="fill:#800000" />
        </g>
      </g>
      <path
         fill="none"
         stroke-width="0.574"
         stroke-linecap="butt"
         stroke-linejoin="miter"
         stroke="#000000"
         stroke-opacity="1"
         stroke-miterlimit="10"
         d="M 0,8.9843435 H 5.7421875"
         id="path1889"
         transform="scale(0.352778)"
         style="fill:#800000;stroke:#800000" />
      <g
         fill="#000000"
         fill-opacity="1"
         id="g1895"
         transform="matrix(0.35277801,0,0,0.35277801,-0.42167931,0.00136703)"
         style="fill:#800000">
        <g
           id="g1893"
           transform="translate(1.575,17.514)"
           style="fill:#800000">
          <path
             d="m 1.265625,-0.765625 1.0625,-1.03125 c 1.546875,-1.375 2.140625,-1.90625 2.140625,-2.90625 0,-1.140625 -0.890625,-1.9375 -2.109375,-1.9375 -1.125,0 -1.859375,0.921875 -1.859375,1.8125 0,0.546875 0.5,0.546875 0.53125,0.546875 0.171875,0 0.515625,-0.109375 0.515625,-0.53125 0,-0.25 -0.1875,-0.515625 -0.53125,-0.515625 -0.078125,0 -0.09375,0 -0.125,0.015625 0.21875,-0.65625 0.765625,-1.015625 1.34375,-1.015625 0.90625,0 1.328125,0.8125 1.328125,1.625 C 3.5625,-3.90625 3.078125,-3.125 2.515625,-2.5 l -1.90625,2.125 C 0.5,-0.265625 0.5,-0.234375 0.5,0 H 4.203125 L 4.46875,-1.734375 H 4.234375 C 4.171875,-1.4375 4.109375,-1 4,-0.84375 3.9375,-0.765625 3.28125,-0.765625 3.0625,-0.765625 Z m 0,0"
             id="path1891"
             style="fill:#800000" />
        </g>
      </g>
    </g>
    <path
       style="fill:none;stroke:#000000;stroke-width:0.264583px;stroke-linecap:butt;stroke-linejoin:miter;stroke-opacity:1"
       d="M 105.45588,35.947767 V 49.242244"
       id="path1298" />
  </g>
</svg>
