<?xml version="1.0" encoding="UTF-8" standalone="no"?>
<!-- Created with Inkscape (http://www.inkscape.org/) -->

<svg
   inkscape:version="1.2.2 (b0a8486541, 2022-12-01)"
   sodipodi:docname="directions-two-roll.svg"
   id="svg5"
   version="1.1"
   viewBox="0 0 50.50005 45.79129"
   height="45.79129mm"
   width="50.50005mm"
   xmlns:inkscape="http://www.inkscape.org/namespaces/inkscape"
   xmlns:sodipodi="http://sodipodi.sourceforge.net/DTD/sodipodi-0.dtd"
   xmlns="http://www.w3.org/2000/svg"
   xmlns:svg="http://www.w3.org/2000/svg">
  <sodipodi:namedview
     id="namedview7"
     pagecolor="#ffffff"
     bordercolor="#666666"
     borderopacity="1.0"
     inkscape:showpageshadow="2"
     inkscape:pageopacity="0.0"
     inkscape:pagecheckerboard="0"
     inkscape:deskcolor="#d1d1d1"
     inkscape:document-units="mm"
     showgrid="false"
     inkscape:zoom="6.3043212"
     inkscape:cx="0.63448544"
     inkscape:cy="85.021049"
     inkscape:window-width="3840"
     inkscape:window-height="2079"
     inkscape:window-x="0"
     inkscape:window-y="0"
     inkscape:window-maximized="1"
     inkscape:current-layer="layer1" />
  <defs
     id="defs2">
    <marker
       style="overflow:visible"
       id="marker12514"
       refX="0"
       refY="0"
       orient="auto-start-reverse"
       inkscape:stockid="Arrow1"
       markerWidth="4.0606604"
       markerHeight="6.7071066"
       viewBox="0 0 4.0606602 6.7071068"
       inkscape:isstock="true"
       inkscape:collect="always"
       preserveAspectRatio="xMidYMid">
      <path
         style="fill:none;stroke:context-stroke;stroke-width:1;stroke-linecap:butt"
         d="M 3,-3 0,0 3,3"
         id="path12512"
         transform="rotate(180,0.125,0)"
         sodipodi:nodetypes="ccc" />
    </marker>
    <marker
       style="overflow:visible"
       id="Arrow1"
       refX="0.80000001"
       refY="0"
       orient="auto-start-reverse"
       inkscape:stockid="Arrow1"
       markerWidth="4.0606599"
       markerHeight="6.7071066"
       viewBox="0 0 4.0606602 6.7071068"
       inkscape:isstock="true"
       inkscape:collect="always"
       preserveAspectRatio="xMidYMid">
      <path
         style="fill:none;stroke:context-stroke;stroke-width:1;stroke-linecap:butt"
         d="M 3,-3 0,0 3,3"
         id="path5057"
         transform="rotate(180,0.125,0)"
         sodipodi:nodetypes="ccc" />
    </marker>
    <filter
       style="color-interpolation-filters:sRGB"
       inkscape:label="Blur"
       id="filter4573"
       x="-0.023338459"
       y="-0.093450062"
       width="1.0466769"
       height="1.1869001">
      <feGaussianBlur
         stdDeviation="0.1 0.1"
         result="blur"
         id="feGaussianBlur4571" />
    </filter>
  </defs>
  <g
     inkscape:label="Layer 1"
     inkscape:groupmode="layer"
     id="layer1"
     transform="translate(-77.668392,-17.765596)">
    <path
       id="path12472"
       style="fill:#ff0000;fill-opacity:0.49653;stroke:#800000;stroke-width:0.264999"
       d="m 90.351339,37.364401 a 13,13 0 0 0 -0.433049,3.296956 13,13 0 0 0 0.434599,3.29799 15,8 0 0 0 0.623218,0.478007 15,8 0 0 0 0.799951,0.516248 15,8 0 0 0 0.878499,0.47904 15,8 0 0 0 0.95033,0.437699 15,8 0 0 0 1.015959,0.393775 15,8 0 0 0 1.073836,0.347266 15,8 0 0 0 1.124996,0.298173 15,8 0 0 0 1.16737,0.247013 15,8 0 0 0 1.201994,0.193786 15,8 0 0 0 1.228348,0.140044 15,8 0 0 0 1.24644,0.08423 15,8 0 0 0 1.2547,0.02842 15,8 0 0 0 1.2547,-0.02842 15,8 0 0 0 1.24592,-0.08423 15,8 0 0 0 1.22835,-0.140044 15,8 0 0 0 1.20251,-0.193786 15,8 0 0 0 1.16737,-0.247013 15,8 0 0 0 1.12448,-0.298173 15,8 0 0 0 1.07436,-0.347266 15,8 0 0 0 1.01544,-0.393775 15,8 0 0 0 0.95033,-0.437699 15,8 0 0 0 0.8785,-0.47904 15,8 0 0 0 0.80046,-0.516248 15,8 0 0 0 0.62322,-0.478524 13,13 0 0 0 0.43408,-3.297473 13,13 0 0 0 -0.42581,-3.29799 15,8 0 0 0 -0.62477,-0.47904 15,8 0 0 0 -0.80047,-0.516248 15,8 0 0 0 -0.87901,-0.47904 15,8 0 0 0 -0.95085,-0.4377 15,8 0 0 0 -1.01647,-0.394291 15,8 0 0 0 -1.07487,-0.347266 15,8 0 0 0 -1.12552,-0.298173 15,8 0 0 0 -1.16788,-0.246496 15,8 0 0 0 -1.20303,-0.193787 15,8 0 0 0 -1.22887,-0.139526 15,8 0 0 0 -1.24695,-0.08423 15,8 0 0 0 -1.25522,-0.0279 15,8 0 0 0 -1.2547,0.02842 15,8 0 0 0 -1.24644,0.08423 15,8 0 0 0 -1.228348,0.139526 15,8 0 0 0 -1.201994,0.193787 15,8 0 0 0 -1.16737,0.247013 15,8 0 0 0 -1.124996,0.298173 15,8 0 0 0 -1.073836,0.347266 15,8 0 0 0 -1.015959,0.393774 15,8 0 0 0 -0.95033,0.438216 15,8 0 0 0 -0.878499,0.478524 15,8 0 0 0 -0.799951,0.516247 15,8 0 0 0 -0.624768,0.479558 z" />
    <g
       id="g488"
       transform="translate(54.772158,-8.5221912)">
      <path
         id="path12466"
         style="fill:none;stroke:#000000;stroke-width:0.499999"
         d="m 23.146233,51.829267 v 19.99981 H 34.85973 a 15,8 0 0 1 13.286527,-4.29586 15,8 0 0 1 13.294279,4.29586 H 73.146282 V 51.829267 H 61.432785 a 15,8 0 0 1 -13.286528,4.29586 15,8 0 0 1 -13.286527,-4.29586 z" />
      <path
         id="path12468"
         style="fill:none;stroke:#000000;stroke-width:0.499999"
         d="m 23.146233,26.537787 v 19.99981 H 34.85973 a 15,8 0 0 1 13.286527,-4.29586 15,8 0 0 1 13.294279,4.29586 H 73.146282 V 26.537787 H 61.432785 a 15,8 0 0 1 -13.286528,4.29586 15,8 0 0 1 -13.286527,-4.29586 z" />
    </g>
    <path
       style="fill:none;stroke:#000000;stroke-width:0.264583px;stroke-linecap:butt;stroke-linejoin:miter;stroke-dasharray:2.11666, 0.529166, 0.264583, 0.529166;stroke-dashoffset:0;stroke-opacity:1"
       d="M 102.91842,20.661241 V 60.661239"
       id="path2392" />
    <path
       style="fill:none;stroke:#800000;stroke-width:0.264583px;stroke-linecap:butt;stroke-linejoin:miter;stroke-opacity:1;marker-end:url(#marker12514)"
       d="M 102.91842,40.661239 V 33.719546"
       id="path2793"
       sodipodi:nodetypes="cc" />
    <path
       style="fill:none;stroke:#800000;stroke-width:0.264583px;stroke-linecap:butt;stroke-linejoin:miter;stroke-opacity:1;marker-end:url(#Arrow1)"
       d="m 102.91842,40.661239 12.99983,1.18e-4"
       id="path2795"
       sodipodi:nodetypes="cc" />
    <g
       inkscape:label="w/2"
       transform="translate(104.88784,41.204792)"
       id="g1778"
       style="fill:#800000">
      <g
         fill="#000000"
         fill-opacity="1"
         id="g19"
         transform="matrix(0.352778,0,0,0.352778,-0.42168,0.0413632)"
         style="fill:#800000">
        <g
           id="use17"
           transform="translate(1.196,4.289)"
           style="fill:#800000">
          <path
             d="M 4.609375,-3.375 C 4.65625,-3.59375 4.75,-3.96875 4.75,-4.03125 c 0,-0.171875 -0.140625,-0.265625 -0.28125,-0.265625 -0.125,0 -0.296875,0.078125 -0.375,0.28125 -0.03125,0.0625 -0.5,1.96875 -0.5625,2.234375 C 3.453125,-1.484375 3.4375,-1.3125 3.4375,-1.125 c 0,0.109375 0,0.125 0.015625,0.171875 -0.234375,0.53125 -0.53125,0.84375 -0.921875,0.84375 -0.796875,0 -0.796875,-0.734375 -0.796875,-0.90625 0,-0.3125 0.046875,-0.703125 0.515625,-1.9375 0.109375,-0.296875 0.171875,-0.4375 0.171875,-0.640625 0,-0.4375 -0.328125,-0.8125 -0.8125,-0.8125 -0.953125,0 -1.3125,1.453125 -1.3125,1.53125 0,0.109375 0.09375,0.109375 0.109375,0.109375 0.109375,0 0.109375,-0.03125 0.15625,-0.1875 C 0.84375,-3.875 1.21875,-4.1875 1.578125,-4.1875 c 0.09375,0 0.25,0.015625 0.25,0.328125 0,0.25 -0.109375,0.53125 -0.1875,0.703125 -0.4375,1.171875 -0.546875,1.625 -0.546875,2.015625 0,0.90625 0.65625,1.25 1.40625,1.25 0.171875,0 0.640625,0 1.03125,-0.703125 0.265625,0.640625 0.953125,0.703125 1.25,0.703125 0.75,0 1.1875,-0.625 1.453125,-1.21875 0.328125,-0.78125 0.65625,-2.125 0.65625,-2.59375 0,-0.546875 -0.265625,-0.703125 -0.4375,-0.703125 -0.25,0 -0.5,0.265625 -0.5,0.484375 0,0.125 0.0625,0.1875 0.140625,0.265625 0.109375,0.109375 0.359375,0.359375 0.359375,0.84375 0,0.34375 -0.28125,1.3125 -0.546875,1.828125 -0.25,0.53125 -0.609375,0.875 -1.09375,0.875 -0.46875,0 -0.734375,-0.296875 -0.734375,-0.875 0,-0.265625 0.0625,-0.578125 0.109375,-0.71875 z m 0,0"
             id="path33"
             style="fill:#800000" />
        </g>
      </g>
      <path
         fill="none"
         stroke-width="0.574"
         stroke-linecap="butt"
         stroke-linejoin="miter"
         stroke="#000000"
         stroke-opacity="1"
         stroke-miterlimit="10"
         d="M 0,6.4688125 H 7.4023435"
         id="path21"
         transform="scale(0.352778)"
         style="fill:#800000;stroke:#800000" />
      <g
         fill="#000000"
         fill-opacity="1"
         id="g25"
         transform="matrix(0.35277801,0,0,0.35277801,-0.42167923,0.04136287)"
         style="fill:#800000">
        <g
           id="use23"
           transform="translate(2.405,14.885)"
           style="fill:#800000">
          <path
             d="m 1.265625,-0.765625 1.0625,-1.03125 c 1.546875,-1.375 2.140625,-1.90625 2.140625,-2.90625 0,-1.140625 -0.890625,-1.9375 -2.109375,-1.9375 -1.125,0 -1.859375,0.921875 -1.859375,1.8125 0,0.546875 0.5,0.546875 0.53125,0.546875 0.171875,0 0.515625,-0.109375 0.515625,-0.53125 0,-0.25 -0.1875,-0.515625 -0.53125,-0.515625 -0.078125,0 -0.09375,0 -0.125,0.015625 0.21875,-0.65625 0.765625,-1.015625 1.34375,-1.015625 0.90625,0 1.328125,0.8125 1.328125,1.625 C 3.5625,-3.90625 3.078125,-3.125 2.515625,-2.5 l -1.90625,2.125 C 0.5,-0.265625 0.5,-0.234375 0.5,0 H 4.203125 L 4.46875,-1.734375 H 4.234375 C 4.171875,-1.4375 4.109375,-1 4,-0.84375 3.9375,-0.765625 3.28125,-0.765625 3.0625,-0.765625 Z m 0,0"
             id="path37"
             style="fill:#800000" />
        </g>
      </g>
    </g>
    <g
       inkscape:label="h/2"
       transform="translate(99.74009,34.958002)"
       id="g1899"
       style="fill:#800000">
      <g
         fill="#000000"
         fill-opacity="1"
         id="g1887"
         transform="matrix(0.352778,0,0,0.352778,-0.42168,0.00136694)"
         style="fill:#800000">
        <g
           id="g1885"
           transform="translate(1.196,6.9180002)"
           style="fill:#800000">
          <path
             d="m 2.859375,-6.8125 c 0,0 0,-0.109375 -0.125,-0.109375 -0.234375,0 -0.953125,0.078125 -1.21875,0.109375 -0.078125,0 -0.1875,0.015625 -0.1875,0.1875 0,0.125 0.09375,0.125 0.234375,0.125 0.484375,0 0.5,0.0625 0.5,0.171875 L 2.03125,-6.125 0.59375,-0.390625 c -0.046875,0.140625 -0.046875,0.15625 -0.046875,0.21875 0,0.234375 0.203125,0.28125 0.296875,0.28125 0.15625,0 0.3125,-0.125 0.359375,-0.265625 l 0.1875,-0.75 0.21875,-0.890625 C 1.671875,-2.03125 1.734375,-2.25 1.78125,-2.46875 1.796875,-2.53125 1.890625,-2.859375 1.890625,-2.921875 1.921875,-3.015625 2.234375,-3.5625 2.578125,-3.84375 2.796875,-4 3.09375,-4.1875 3.53125,-4.1875 c 0.421875,0 0.53125,0.34375 0.53125,0.703125 0,0.53125 -0.375,1.625 -0.609375,2.234375 C 3.375,-1.03125 3.3125,-0.90625 3.3125,-0.703125 c 0,0.46875 0.359375,0.8125 0.828125,0.8125 0.9375,0 1.296875,-1.453125 1.296875,-1.53125 0,-0.109375 -0.078125,-0.109375 -0.109375,-0.109375 -0.109375,0 -0.109375,0.03125 -0.15625,0.1875 -0.140625,0.53125 -0.46875,1.234375 -1.015625,1.234375 -0.171875,0 -0.234375,-0.09375 -0.234375,-0.328125 0,-0.25 0.078125,-0.484375 0.171875,-0.703125 0.15625,-0.4375 0.609375,-1.625 0.609375,-2.203125 0,-0.640625 -0.390625,-1.0625 -1.140625,-1.0625 -0.625,0 -1.109375,0.3125 -1.484375,0.765625 z m 0,0"
             id="path1883"
             style="fill:#800000" />
        </g>
      </g>
      <path
         fill="none"
         stroke-width="0.574"
         stroke-linecap="butt"
         stroke-linejoin="miter"
         stroke="#000000"
         stroke-opacity="1"
         stroke-miterlimit="10"
         d="M 0,8.9843435 H 5.7421875"
         id="path1889"
         transform="scale(0.352778)"
         style="fill:#800000;stroke:#800000" />
      <g
         fill="#000000"
         fill-opacity="1"
         id="g1895"
         transform="matrix(0.35277801,0,0,0.35277801,-0.42167931,0.00136703)"
         style="fill:#800000">
        <g
           id="g1893"
           transform="translate(1.575,17.514)"
           style="fill:#800000">
          <path
             d="m 1.265625,-0.765625 1.0625,-1.03125 c 1.546875,-1.375 2.140625,-1.90625 2.140625,-2.90625 0,-1.140625 -0.890625,-1.9375 -2.109375,-1.9375 -1.125,0 -1.859375,0.921875 -1.859375,1.8125 0,0.546875 0.5,0.546875 0.53125,0.546875 0.171875,0 0.515625,-0.109375 0.515625,-0.53125 0,-0.25 -0.1875,-0.515625 -0.53125,-0.515625 -0.078125,0 -0.09375,0 -0.125,0.015625 0.21875,-0.65625 0.765625,-1.015625 1.34375,-1.015625 0.90625,0 1.328125,0.8125 1.328125,1.625 C 3.5625,-3.90625 3.078125,-3.125 2.515625,-2.5 l -1.90625,2.125 C 0.5,-0.265625 0.5,-0.234375 0.5,0 H 4.203125 L 4.46875,-1.734375 H 4.234375 C 4.171875,-1.4375 4.109375,-1 4,-0.84375 3.9375,-0.765625 3.28125,-0.765625 3.0625,-0.765625 Z m 0,0"
             id="path1891"
             style="fill:#800000" />
        </g>
      </g>
    </g>
  </g>
</svg>
