<?xml version="1.0" encoding="UTF-8" standalone="no"?>
<!-- Created with Inkscape (http://www.inkscape.org/) -->

<svg
   width="126.79492mm"
   height="91.694107mm"
   viewBox="0 0 126.79492 91.694107"
   version="1.1"
   id="svg5"
   inkscape:version="1.2.2 (b0a8486541, 2022-12-01)"
   sodipodi:docname="disk_element.svg"
   xmlns:inkscape="http://www.inkscape.org/namespaces/inkscape"
   xmlns:sodipodi="http://sodipodi.sourceforge.net/DTD/sodipodi-0.dtd"
   xmlns="http://www.w3.org/2000/svg"
   xmlns:svg="http://www.w3.org/2000/svg">
  <sodipodi:namedview
     id="namedview7"
     pagecolor="#ffffff"
     bordercolor="#666666"
     borderopacity="1.0"
     inkscape:showpageshadow="2"
     inkscape:pageopacity="0.0"
     inkscape:pagecheckerboard="0"
     inkscape:deskcolor="#d1d1d1"
     inkscape:document-units="mm"
     showgrid="false"
     inkscape:zoom="2.8284271"
     inkscape:cx="134.70384"
     inkscape:cy="199.75767"
     inkscape:window-width="3840"
     inkscape:window-height="2079"
     inkscape:window-x="0"
     inkscape:window-y="0"
     inkscape:window-maximized="1"
     inkscape:current-layer="g15236" />
  <defs
     id="defs2">
    <marker
       style="overflow:visible"
       id="marker3132"
       refX="3"
       refY="0"
       orient="auto-start-reverse"
       inkscape:stockid="TriangleStart"
       markerWidth="5.3244081"
       markerHeight="6.155385"
       viewBox="0 0 5.3244081 6.1553851"
       inkscape:isstock="true"
       inkscape:collect="always"
       preserveAspectRatio="xMidYMid">
      <path
         transform="scale(0.5)"
         style="fill:context-stroke;fill-rule:evenodd;stroke:context-stroke;stroke-width:1pt"
         d="M 5.77,0 -2.88,5 V -5 Z"
         id="path3130" />
    </marker>
    <marker
       style="overflow:visible"
       id="TriangleStart"
       refX="3"
       refY="0"
       orient="auto-start-reverse"
       inkscape:stockid="TriangleStart"
       markerWidth="5.3244081"
       markerHeight="6.155385"
       viewBox="0 0 5.3244081 6.1553851"
       inkscape:isstock="true"
       inkscape:collect="always"
       preserveAspectRatio="xMidYMid">
      <path
         transform="scale(0.5)"
         style="fill:context-stroke;fill-rule:evenodd;stroke:context-stroke;stroke-width:1pt"
         d="M 5.77,0 -2.88,5 V -5 Z"
         id="path135" />
    </marker>
    <marker
       markerWidth="3.793"
       markerHeight="1"
       refX="1.8936"
       refY="0.49999934"
       orient="auto"
       id="marker9794"
       viewBox="0 0 3.7872 0.26458299"
       preserveAspectRatio="none">
      <path
         style="fill:none;stroke:#000000;stroke-width:0.264583px;stroke-linecap:butt;stroke-linejoin:miter;stroke-opacity:1"
         d="M 0,0.49999935 H 3.7872"
         id="path9792" />
    </marker>
    <marker
       markerWidth="18.897638"
       markerHeight="0.99999899"
       refX="9.4488192"
       refY="1.8897638"
       orient="auto"
       id="marker14458"
       viewBox="0 0 18.897638 0.99999899"
       preserveAspectRatio="xMidYMid">
      <path
         style="fill:none;stroke:#000000;stroke-width:0.999999;stroke-linecap:butt;stroke-linejoin:miter;stroke-dasharray:none;stroke-opacity:1"
         d="M 0,1.8897638 H 18.897638"
         id="path13552" />
    </marker>
    <clipPath
       id="clipPath2609">
      <path
         clip-rule="nonzero"
         d="M 0,0 H 12 V 9.804688 H 0 Z m 0,0"
         id="path5737" />
    </clipPath>
    <clipPath
       id="clipPath1099">
      <path
         clip-rule="nonzero"
         d="m 12,3 h 7.6875 V 9.804688 H 12 Z m 0,0"
         id="path4769" />
    </clipPath>
    <clipPath
       id="clipPath229">
      <path
         clip-rule="nonzero"
         d="M 0,1 H 11 V 12.125 H 0 Z m 0,0"
         id="path8085" />
    </clipPath>
    <clipPath
       id="clipPath910">
      <path
         clip-rule="nonzero"
         d="M 0,1 H 11 V 12.125 H 0 Z m 0,0"
         id="path5200" />
    </clipPath>
  </defs>
  <g
     inkscape:label="Layer 1"
     inkscape:groupmode="layer"
     id="layer1"
     transform="translate(-43.18454,-15.783078)">
    <g
       id="g1985"
       transform="translate(-11.697836,-49.349423)">
      <g
         id="g1995"
         style="display:inline;stroke-width:0.5;stroke-dasharray:none"
         inkscape:label="k">
        <ellipse
           style="display:inline;fill:#999999;fill-opacity:0.496958;stroke:#000000;stroke-width:0.5;stroke-dasharray:none"
           id="ellipse1762"
           cx="100"
           cy="100"
           rx="44.8675"
           ry="22.3675"
           inkscape:label="cs0" />
        <path
           style="fill:none;stroke:#000000;stroke-width:0.5;stroke-linecap:butt;stroke-linejoin:miter;stroke-dasharray:none;stroke-opacity:1"
           d="m 100,77.6325 v 44.735"
           id="path1962" />
        <path
           style="fill:none;stroke:#000000;stroke-width:0.5;stroke-linecap:butt;stroke-linejoin:miter;stroke-dasharray:none;stroke-opacity:1"
           d="M 55.132496,100 H 144.8675"
           id="path1964" />
      </g>
      <path
         style="fill:none;stroke:#000000;stroke-width:0.5;stroke-linecap:butt;stroke-linejoin:miter;stroke-dasharray:none;stroke-opacity:1"
         d="m 100,100 31.5598,36.70911"
         id="path1956"
         sodipodi:nodetypes="cc" />
      <path
         style="fill:none;stroke:#000000;stroke-width:0.5;stroke-linecap:butt;stroke-linejoin:miter;stroke-dasharray:none;stroke-opacity:1"
         d="m 55.132496,100 26.559803,36.70911"
         id="path1966" />
      <path
         style="fill:none;stroke:#000000;stroke-width:0.5;stroke-linecap:butt;stroke-linejoin:miter;stroke-dasharray:none;stroke-opacity:1"
         d="M 131.5598,116.8416 100,77.632498"
         id="path1968" />
      <path
         style="fill:none;stroke:#000000;stroke-width:0.5;stroke-linecap:butt;stroke-linejoin:miter;stroke-dasharray:none;stroke-opacity:1"
         d="m 144.8675,100 36.5598,36.70911"
         id="path1970" />
      <path
         style="fill:none;stroke:#000000;stroke-width:0.5;stroke-linecap:butt;stroke-linejoin:miter;stroke-dasharray:none;stroke-opacity:1"
         d="M 131.5598,156.5766 100,122.3675"
         id="path1972" />
      <g
         id="g1990"
         style="display:inline;fill:#999999;fill-opacity:0.502093;stroke-width:0.5;stroke-dasharray:none"
         inkscape:label="k+1">
        <ellipse
           style="display:inline;fill:#999999;fill-opacity:0.502093;stroke:#000000;stroke-width:0.5;stroke-dasharray:none"
           id="path254"
           cx="131.5598"
           cy="136.70911"
           rx="49.8675"
           ry="19.8675"
           inkscape:label="cs1" />
        <path
           style="fill:#999999;fill-opacity:0.502093;stroke:#000000;stroke-width:0.5;stroke-linecap:butt;stroke-linejoin:miter;stroke-dasharray:none;stroke-opacity:1"
           d="m 131.5598,116.8416 v 39.735"
           id="path1958" />
        <path
           style="fill:#999999;fill-opacity:0.502093;stroke:#000000;stroke-width:0.5;stroke-linecap:butt;stroke-linejoin:miter;stroke-dasharray:none;stroke-opacity:1"
           d="M 81.692299,136.70911 H 181.4273"
           id="path1960" />
      </g>
      <g
         id="g18846"
         inkscape:label="mantel">
        <path
           id="path18322"
           style="display:inline;fill:#ff0000;fill-opacity:0.496958;stroke:#000000;stroke-width:0.5"
           inkscape:label="cs0"
           d="M 131.5598,116.84161 100,77.632499 C 75.220364,77.6325 55.1325,87.646771 55.132498,100 l 26.559801,36.70911 c 0,-10.97252 22.326441,-19.8675 49.867501,-19.8675 z"
           sodipodi:nodetypes="ccccc" />
        <path
           id="path18337"
           style="display:inline;fill:#ff0000;fill-opacity:0.496958;stroke:#000000;stroke-width:0.5"
           inkscape:label="cs0"
           d="M 140.50451,90.366562 C 133.28417,82.835246 117.86086,77.632485 99.999996,77.632484 L 131.5598,116.8416 c 21.2783,0 39.44392,5.30955 46.60145,12.78062 2.10776,2.2001 -37.66112,-39.260226 -37.66112,-39.260226"
           sodipodi:nodetypes="ccccc" />
        <path
           id="ellipse18564"
           style="display:inline;fill:#ff0000;fill-opacity:0.496958;stroke:#000000;stroke-width:0.5"
           inkscape:label="cs0"
           d="m 83.445851,141.94951 c -1.142972,-1.66954 -1.753382,-3.42661 -1.753467,-5.24046 l -26.55997,-36.709 c 1.31e-4,2.68411 0.969356,5.34619 2.861243,7.85904 z"
           sodipodi:nodetypes="ccccc" />
      </g>
    </g>
    <g
       id="g15236">
      <path
         style="fill:none;stroke:#000000;stroke-width:0.264583px;stroke-linecap:butt;stroke-linejoin:miter;stroke-opacity:1;marker-end:url(#marker14458)"
         d="m 88.302164,28.283077 -2e-6,-10.000002"
         id="path1997"
         sodipodi:nodetypes="cc" />
      <path
         style="fill:none;stroke:#000000;stroke-width:0.264583px;stroke-linecap:butt;stroke-linejoin:miter;stroke-opacity:1;marker-end:url(#marker14458)"
         d="M 119.86196,67.492183 V 57.492182"
         id="path1999"
         sodipodi:nodetypes="cc" />
      <path
         style="fill:none;stroke:#000000;stroke-width:0.264583px;stroke-linecap:butt;stroke-linejoin:miter;stroke-opacity:1;marker-start:url(#TriangleStart);marker-end:url(#marker3132)"
         d="M 88.302162,18.283075 119.86196,57.492182"
         id="path2001" />
      <g
         inkscape:label=""
         transform="translate(104.80021,33.745773)"
         id="g17463">
        <g
           fill="#000000"
           fill-opacity="1"
           id="g28"
           transform="matrix(0.35277801,0,0,0.35277801,-0.23151092,0.15217965)">
          <g
             id="use26"
             transform="translate(11.706,9.8030005)">
            <path
               d="m 6.796875,-5.859375 c -0.453125,0.09375 -0.625,0.4375 -0.625,0.703125 0,0.34375 0.265625,0.46875 0.46875,0.46875 0.4375,0 0.734375,-0.375 0.734375,-0.765625 0,-0.59375 -0.6875,-0.875 -1.296875,-0.875 -0.875,0 -1.359375,0.859375 -1.484375,1.140625 C 4.265625,-6.265625 3.375,-6.328125 3.109375,-6.328125 1.65625,-6.328125 0.875,-4.453125 0.875,-4.125 0.875,-4.078125 0.9375,-4 1.03125,-4 1.140625,-4 1.171875,-4.09375 1.203125,-4.140625 1.6875,-5.734375 2.65625,-6.03125 3.0625,-6.03125 c 0.65625,0 0.78125,0.59375 0.78125,0.9375 0,0.3125 -0.078125,0.640625 -0.265625,1.328125 l -0.484375,1.96875 c -0.203125,0.859375 -0.625,1.65625 -1.390625,1.65625 -0.0625,0 -0.421875,0 -0.734375,-0.1875 0.515625,-0.109375 0.640625,-0.53125 0.640625,-0.703125 0,-0.28125 -0.21875,-0.453125 -0.484375,-0.453125 -0.34375,0 -0.71875,0.296875 -0.71875,0.75 0,0.609375 0.671875,0.875 1.28125,0.875 0.6875,0 1.1875,-0.546875 1.484375,-1.125 0.234375,0.84375 0.9375,1.125 1.46875,1.125 1.46875,0 2.25,-1.875 2.25,-2.1875 0,-0.078125 -0.0625,-0.140625 -0.15625,-0.140625 -0.125,0 -0.140625,0.078125 -0.171875,0.1875 -0.390625,1.265625 -1.234375,1.859375 -1.875,1.859375 -0.5,0 -0.765625,-0.375 -0.765625,-0.96875 0,-0.3125 0.046875,-0.546875 0.28125,-1.484375 l 0.5,-1.953125 C 4.921875,-5.40625 5.40625,-6.03125 6.0625,-6.03125 c 0.03125,0 0.4375,0 0.734375,0.171875 z m 0,0"
               id="path40" />
          </g>
        </g>
        <g
           fill="#000000"
           fill-opacity="1"
           id="g22"
           transform="matrix(0.35277801,0,0,0.35277801,-0.23151092,0.15217965)">
          <g
             id="use20"
             transform="translate(0,9.8030005)">
            <path
               d="m 6.1875,-9.984375 c -0.109375,-0.203125 -0.140625,-0.25 -0.328125,-0.25 -0.21875,0 -0.25,0.04687 -0.34375,0.25 L 0.71875,-0.28125 C 0.6875,-0.25 0.65625,-0.15625 0.65625,-0.09375 0.65625,-0.015625 0.671875,0 0.96875,0 h 9.765625 c 0.28125,0 0.296875,-0.015625 0.296875,-0.09375 0,-0.0625 -0.03125,-0.15625 -0.0625,-0.1875 z m -0.78125,1.0625 3.921875,7.9375 H 1.5 Z m 0,0"
               id="path36" />
          </g>
        </g>
      </g>
    </g>
    <g
       inkscape:label=""
       transform="translate(65.648151,38.556182)"
       id="g17601">
      <g
         fill="#000000"
         fill-opacity="1"
         id="g25"
         transform="matrix(0.352778,0,0,0.352778,-0.170877,0.00101418)">
        <g
           id="use23"
           transform="translate(10.53,6.9190001)">
          <path
             d="m 2.859375,-6.8125 c 0,0 0,-0.109375 -0.125,-0.109375 -0.234375,0 -0.953125,0.078125 -1.21875,0.109375 -0.078125,0 -0.1875,0.015625 -0.1875,0.1875 0,0.125 0.09375,0.125 0.234375,0.125 0.484375,0 0.5,0.0625 0.5,0.171875 L 2.03125,-6.125 0.59375,-0.390625 c -0.046875,0.140625 -0.046875,0.15625 -0.046875,0.21875 0,0.234375 0.203125,0.28125 0.296875,0.28125 0.125,0 0.265625,-0.09375 0.328125,-0.203125 0.046875,-0.09375 0.5,-1.9375 0.5625,-2.1875 0.34375,0.03125 1.15625,0.1875 1.15625,0.84375 0,0.078125 0,0.109375 -0.03125,0.21875 -0.015625,0.109375 -0.03125,0.234375 -0.03125,0.34375 0,0.578125 0.390625,0.984375 0.90625,0.984375 0.296875,0 0.578125,-0.15625 0.796875,-0.53125 0.25,-0.4375 0.359375,-0.984375 0.359375,-1 0,-0.109375 -0.09375,-0.109375 -0.125,-0.109375 -0.09375,0 -0.109375,0.046875 -0.140625,0.1875 -0.203125,0.71875 -0.421875,1.234375 -0.859375,1.234375 -0.203125,0 -0.328125,-0.109375 -0.328125,-0.46875 0,-0.171875 0.046875,-0.40625 0.078125,-0.5625 C 3.5625,-1.3125 3.5625,-1.34375 3.5625,-1.453125 3.5625,-2.09375 2.9375,-2.375 2.078125,-2.5 2.390625,-2.671875 2.71875,-2.984375 2.9375,-3.234375 3.421875,-3.765625 3.875,-4.1875 4.359375,-4.1875 c 0.0625,0 0.078125,0 0.09375,0.015625 0.125,0.015625 0.125,0.015625 0.21875,0.078125 0.015625,0 0.015625,0.015625 0.03125,0.03125 -0.46875,0.03125 -0.5625,0.421875 -0.5625,0.546875 0,0.15625 0.109375,0.34375 0.375,0.34375 0.265625,0 0.546875,-0.21875 0.546875,-0.609375 0,-0.296875 -0.234375,-0.625 -0.671875,-0.625 -0.28125,0 -0.734375,0.078125 -1.453125,0.875 -0.34375,0.375 -0.734375,0.78125 -1.109375,0.921875 z m 0,0"
             id="path35" />
        </g>
      </g>
      <g
         fill="#000000"
         fill-opacity="1"
         id="g19"
         transform="matrix(0.35277801,0,0,0.35277801,-0.17087619,0.00101475)">
        <g
           id="use17"
           transform="translate(0,12.125)">
          <path
             d="M 2.4375,-1.59375 C 1.9375,-0.75 1.453125,-0.453125 0.765625,-0.421875 0.609375,-0.40625 0.484375,-0.40625 0.484375,-0.140625 0.484375,-0.0625 0.5625,0 0.65625,0 0.921875,0 1.5625,-0.03125 1.828125,-0.03125 2.234375,-0.03125 2.703125,0 3.09375,0 3.1875,0 3.359375,0 3.359375,-0.265625 c 0,-0.140625 -0.125,-0.15625 -0.203125,-0.15625 C 2.828125,-0.4375 2.546875,-0.5625 2.546875,-0.90625 c 0,-0.203125 0.09375,-0.359375 0.28125,-0.671875 l 1.09375,-1.8125 h 3.65625 c 0.015625,0.140625 0.015625,0.25 0.03125,0.375 0.03125,0.375 0.203125,1.875 0.203125,2.140625 0,0.4375 -0.734375,0.453125 -0.953125,0.453125 -0.15625,0 -0.3125,0 -0.3125,0.265625 C 6.546875,0 6.671875,0 6.75,0 7,0 7.28125,-0.03125 7.53125,-0.03125 h 0.8125 C 9.21875,-0.03125 9.859375,0 9.875,0 c 0.09375,0 0.25,0 0.25,-0.265625 0,-0.15625 -0.125,-0.15625 -0.34375,-0.15625 -0.78125,0 -0.796875,-0.125 -0.84375,-0.546875 l -0.875,-8.953125 c -0.03125,-0.296875 -0.09375,-0.3125 -0.25,-0.3125 -0.140625,0 -0.21875,0.01563 -0.359375,0.234375 z M 4.15625,-3.796875 7.046875,-8.625 7.53125,-3.796875 Z m 0,0"
             id="path31" />
        </g>
      </g>
    </g>
    <g
       inkscape:label=""
       transform="translate(136.17133,94.345817)"
       id="g17762">
      <g
         fill="#000000"
         fill-opacity="1"
         id="g32"
         transform="matrix(0.352778,0,0,0.352778,-0.170877,0.00101418)">
        <g
           id="use30"
           transform="translate(10.53,6.9190001)">
          <path
             d="m 2.859375,-6.8125 c 0,0 0,-0.109375 -0.125,-0.109375 -0.234375,0 -0.953125,0.078125 -1.21875,0.109375 -0.078125,0 -0.1875,0.015625 -0.1875,0.1875 0,0.125 0.09375,0.125 0.234375,0.125 0.484375,0 0.5,0.0625 0.5,0.171875 L 2.03125,-6.125 0.59375,-0.390625 c -0.046875,0.140625 -0.046875,0.15625 -0.046875,0.21875 0,0.234375 0.203125,0.28125 0.296875,0.28125 0.125,0 0.265625,-0.09375 0.328125,-0.203125 0.046875,-0.09375 0.5,-1.9375 0.5625,-2.1875 0.34375,0.03125 1.15625,0.1875 1.15625,0.84375 0,0.078125 0,0.109375 -0.03125,0.21875 -0.015625,0.109375 -0.03125,0.234375 -0.03125,0.34375 0,0.578125 0.390625,0.984375 0.90625,0.984375 0.296875,0 0.578125,-0.15625 0.796875,-0.53125 0.25,-0.4375 0.359375,-0.984375 0.359375,-1 0,-0.109375 -0.09375,-0.109375 -0.125,-0.109375 -0.09375,0 -0.109375,0.046875 -0.140625,0.1875 -0.203125,0.71875 -0.421875,1.234375 -0.859375,1.234375 -0.203125,0 -0.328125,-0.109375 -0.328125,-0.46875 0,-0.171875 0.046875,-0.40625 0.078125,-0.5625 C 3.5625,-1.3125 3.5625,-1.34375 3.5625,-1.453125 3.5625,-2.09375 2.9375,-2.375 2.078125,-2.5 2.390625,-2.671875 2.71875,-2.984375 2.9375,-3.234375 3.421875,-3.765625 3.875,-4.1875 4.359375,-4.1875 c 0.0625,0 0.078125,0 0.09375,0.015625 0.125,0.015625 0.125,0.015625 0.21875,0.078125 0.015625,0 0.015625,0.015625 0.03125,0.03125 -0.46875,0.03125 -0.5625,0.421875 -0.5625,0.546875 0,0.15625 0.109375,0.34375 0.375,0.34375 0.265625,0 0.546875,-0.21875 0.546875,-0.609375 0,-0.296875 -0.234375,-0.625 -0.671875,-0.625 -0.28125,0 -0.734375,0.078125 -1.453125,0.875 -0.34375,0.375 -0.734375,0.78125 -1.109375,0.921875 z m 0,0"
             id="path48" />
        </g>
      </g>
      <g
         fill="#000000"
         fill-opacity="1"
         id="g38"
         transform="matrix(0.352778,0,0,0.352778,-0.170877,0.00101418)">
        <g
           id="use34"
           transform="translate(16.031,6.9190001)">
          <path
             d="m 4.078125,-2.296875 h 2.78125 C 7,-2.296875 7.1875,-2.296875 7.1875,-2.5 7.1875,-2.6875 7,-2.6875 6.859375,-2.6875 h -2.78125 v -2.796875 c 0,-0.140625 0,-0.328125 -0.203125,-0.328125 -0.203125,0 -0.203125,0.1875 -0.203125,0.328125 V -2.6875 h -2.78125 c -0.140625,0 -0.328125,0 -0.328125,0.1875 0,0.203125 0.1875,0.203125 0.328125,0.203125 h 2.78125 V 0.5 c 0,0.140625 0,0.328125 0.203125,0.328125 0.203125,0 0.203125,-0.1875 0.203125,-0.328125 z m 0,0"
             id="path52" />
        </g>
        <g
           id="use36"
           transform="translate(23.779909,6.9190001)">
          <path
             d="m 2.9375,-6.375 c 0,-0.25 0,-0.265625 -0.234375,-0.265625 C 2.078125,-6 1.203125,-6 0.890625,-6 v 0.3125 c 0.203125,0 0.78125,0 1.296875,-0.265625 v 5.171875 c 0,0.359375 -0.03125,0.46875 -0.921875,0.46875 h -0.3125 V 0 c 0.34375,-0.03125 1.203125,-0.03125 1.609375,-0.03125 0.390625,0 1.265625,0 1.609375,0.03125 v -0.3125 h -0.3125 c -0.90625,0 -0.921875,-0.109375 -0.921875,-0.46875 z m 0,0"
             id="path56" />
        </g>
      </g>
      <g
         fill="#000000"
         fill-opacity="1"
         id="g26"
         transform="matrix(0.35277801,0,0,0.35277801,-0.17087698,0.00101483)">
        <g
           id="use24"
           transform="translate(0,12.125)">
          <path
             d="M 2.4375,-1.59375 C 1.9375,-0.75 1.453125,-0.453125 0.765625,-0.421875 0.609375,-0.40625 0.484375,-0.40625 0.484375,-0.140625 0.484375,-0.0625 0.5625,0 0.65625,0 0.921875,0 1.5625,-0.03125 1.828125,-0.03125 2.234375,-0.03125 2.703125,0 3.09375,0 3.1875,0 3.359375,0 3.359375,-0.265625 c 0,-0.140625 -0.125,-0.15625 -0.203125,-0.15625 C 2.828125,-0.4375 2.546875,-0.5625 2.546875,-0.90625 c 0,-0.203125 0.09375,-0.359375 0.28125,-0.671875 l 1.09375,-1.8125 h 3.65625 c 0.015625,0.140625 0.015625,0.25 0.03125,0.375 0.03125,0.375 0.203125,1.875 0.203125,2.140625 0,0.4375 -0.734375,0.453125 -0.953125,0.453125 -0.15625,0 -0.3125,0 -0.3125,0.265625 C 6.546875,0 6.671875,0 6.75,0 7,0 7.28125,-0.03125 7.53125,-0.03125 h 0.8125 C 9.21875,-0.03125 9.859375,0 9.875,0 c 0.09375,0 0.25,0 0.25,-0.265625 0,-0.15625 -0.125,-0.15625 -0.34375,-0.15625 -0.78125,0 -0.796875,-0.125 -0.84375,-0.546875 l -0.875,-8.953125 c -0.03125,-0.296875 -0.09375,-0.3125 -0.25,-0.3125 -0.140625,0 -0.21875,0.01563 -0.359375,0.234375 z M 4.15625,-3.796875 7.046875,-8.625 7.53125,-3.796875 Z m 0,0"
             id="path44" />
        </g>
      </g>
    </g>
  </g>
</svg>
