<?xml version="1.0" encoding="UTF-8" standalone="no"?>
<!-- Created with Inkscape (http://www.inkscape.org/) -->

<svg
   width="210mm"
   height="297mm"
   viewBox="0 0 210 297"
   version="1.1"
   id="svg21"
   xml:space="preserve"
   inkscape:version="1.2.2 (b0a8486541, 2022-12-01)"
   sodipodi:docname="disk_elements.svg"
   xmlns:inkscape="http://www.inkscape.org/namespaces/inkscape"
   xmlns:sodipodi="http://sodipodi.sourceforge.net/DTD/sodipodi-0.dtd"
   xmlns="http://www.w3.org/2000/svg"
   xmlns:svg="http://www.w3.org/2000/svg"><sodipodi:namedview
     id="namedview23"
     pagecolor="#ffffff"
     bordercolor="#000000"
     borderopacity="0.25"
     inkscape:showpageshadow="2"
     inkscape:pageopacity="0.0"
     inkscape:pagecheckerboard="0"
     inkscape:deskcolor="#d1d1d1"
     inkscape:document-units="mm"
     showgrid="false"
     inkscape:zoom="4.0821428"
     inkscape:cx="239.09012"
     inkscape:cy="188.13649"
     inkscape:window-width="3840"
     inkscape:window-height="2049"
     inkscape:window-x="0"
     inkscape:window-y="0"
     inkscape:window-maximized="1"
     inkscape:current-layer="svg21"><inkscape:grid
       type="xygrid"
       id="grid14479"
       originx="-24.093713"
       originy="-12.832028" /></sodipodi:namedview><defs
     id="defs18"><marker
   style="overflow:visible"
   id="TriangleStart"
   refX="0"
   refY="0"
   orient="auto-start-reverse"
   inkscape:stockid="TriangleStart"
   markerWidth="5.3244081"
   markerHeight="6.155385"
   viewBox="0 0 5.3244081 6.1553851"
   inkscape:isstock="true"
   inkscape:collect="always"
   preserveAspectRatio="xMidYMid"><path
     transform="scale(0.5)"
     style="fill:context-stroke;fill-rule:evenodd;stroke:context-stroke;stroke-width:1pt"
     d="M 5.77,0 -2.88,5 V -5 Z"
     id="path135" /></marker><clipPath
   clipPathUnits="userSpaceOnUse"
   id="clipPath1605"><path
     d="M 57.602,41.473 H 414.719 V 307.586 H 57.602 Z"
     id="path1603" /></clipPath><clipPath
   clipPathUnits="userSpaceOnUse"
   id="clipPath1615"><path
     d="M 0,0 H 461 V 346 H 0 Z"
     id="path1613" /></clipPath><clipPath
   clipPathUnits="userSpaceOnUse"
   id="clipPath1629"><path
     d="M 0,0 H 461 V 346 H 0 Z"
     id="path1627" /></clipPath><clipPath
   clipPathUnits="userSpaceOnUse"
   id="clipPath1643"><path
     d="M 0,0 H 461 V 346 H 0 Z"
     id="path1641" /></clipPath><clipPath
   clipPathUnits="userSpaceOnUse"
   id="clipPath1657"><path
     d="M 0,0 H 461 V 346 H 0 Z"
     id="path1655" /></clipPath><clipPath
   clipPathUnits="userSpaceOnUse"
   id="clipPath1671"><path
     d="M 0,0 H 461 V 346 H 0 Z"
     id="path1669" /></clipPath><clipPath
   clipPathUnits="userSpaceOnUse"
   id="clipPath1685"><path
     d="M 0,0 H 461 V 346 H 0 Z"
     id="path1683" /></clipPath><clipPath
   clipPathUnits="userSpaceOnUse"
   id="clipPath1699"><path
     d="M 0,0 H 461 V 346 H 0 Z"
     id="path1697" /></clipPath><clipPath
   clipPathUnits="userSpaceOnUse"
   id="clipPath1713"><path
     d="M 0,0 H 461 V 346 H 0 Z"
     id="path1711" /></clipPath><clipPath
   clipPathUnits="userSpaceOnUse"
   id="clipPath1727"><path
     d="M 0,0 H 461 V 346 H 0 Z"
     id="path1725" /></clipPath><clipPath
   clipPathUnits="userSpaceOnUse"
   id="clipPath1741"><path
     d="M 0,0 H 461 V 346 H 0 Z"
     id="path1739" /></clipPath><clipPath
   clipPathUnits="userSpaceOnUse"
   id="clipPath1755"><path
     d="M 0,0 H 461 V 346 H 0 Z"
     id="path1753" /></clipPath><clipPath
   clipPathUnits="userSpaceOnUse"
   id="clipPath1769"><path
     d="M 0,0 H 461 V 346 H 0 Z"
     id="path1767" /></clipPath><clipPath
   clipPathUnits="userSpaceOnUse"
   id="clipPath1783"><path
     d="M 0,0 H 461 V 346 H 0 Z"
     id="path1781" /></clipPath><clipPath
   clipPathUnits="userSpaceOnUse"
   id="clipPath1797"><path
     d="M 0,0 H 461 V 346 H 0 Z"
     id="path1795" /></clipPath><clipPath
   clipPathUnits="userSpaceOnUse"
   id="clipPath1811"><path
     d="M 0,0 H 461 V 346 H 0 Z"
     id="path1809" /></clipPath><clipPath
   clipPathUnits="userSpaceOnUse"
   id="clipPath1825"><path
     d="M 0,0 H 461 V 346 H 0 Z"
     id="path1823" /></clipPath><clipPath
   clipPathUnits="userSpaceOnUse"
   id="clipPath1839"><path
     d="M 0,0 H 461 V 346 H 0 Z"
     id="path1837" /></clipPath><clipPath
   clipPathUnits="userSpaceOnUse"
   id="clipPath1853"><path
     d="M 0,0 H 461 V 346 H 0 Z"
     id="path1851" /></clipPath><clipPath
   clipPathUnits="userSpaceOnUse"
   id="clipPath1867"><path
     d="M 0,0 H 461 V 346 H 0 Z"
     id="path1865" /></clipPath><clipPath
   clipPathUnits="userSpaceOnUse"
   id="clipPath1881"><path
     d="M 0,0 H 461 V 346 H 0 Z"
     id="path1879" /></clipPath><clipPath
   clipPathUnits="userSpaceOnUse"
   id="clipPath1895"><path
     d="M 0,0 H 461 V 346 H 0 Z"
     id="path1893" /></clipPath><clipPath
   clipPathUnits="userSpaceOnUse"
   id="clipPath1909"><path
     d="M 0,0 H 461 V 346 H 0 Z"
     id="path1907" /></clipPath><clipPath
   clipPathUnits="userSpaceOnUse"
   id="clipPath1997"><path
     d="M 0,0 H 461 V 346 H 0 Z"
     id="path1995" /></clipPath><clipPath
   id="clipPath9920">
      <path
   clip-rule="nonzero"
   d="M 0,0 H 9 V 6.808594 H 0 Z m 0,0"
   id="path8205" />
    </clipPath>
  <clipPath
   id="clipPath3002">
      <path
   clip-rule="nonzero"
   d="M 0,0 H 7.980469 V 6.175781 H 0 Z m 0,0"
   id="path2148" />
    </clipPath>
  <clipPath
   id="clipPath2228">
      <path
   clip-rule="nonzero"
   d="M 0,0 H 7 V 8.964844 H 0 Z m 0,0"
   id="path5291" />
    </clipPath>
  <clipPath
   id="clipPath7381">
      <path
   clip-rule="nonzero"
   d="M 0,0 H 7 V 6.175781 H 0 Z m 0,0"
   id="path2989" />
    </clipPath>
  </defs><g
     inkscape:groupmode="layer"
     id="layer2"
     inkscape:label="Layer 1"
     style="display:none"><path
       style="fill:none;fill-opacity:1;stroke:#000000;stroke-width:0.499999;stroke-dasharray:none;stroke-opacity:1"
       d="m 52.343716,43.082027 6.97571,3.099006"
       id="path1024" /><path
       style="fill:none;fill-opacity:1;stroke:#000000;stroke-width:0.499999;stroke-dasharray:none;stroke-opacity:1"
       d="m 59.319426,46.181033 6.97571,3.099006"
       id="path1028" /><path
       style="fill:none;fill-opacity:1;stroke:#000000;stroke-width:0.499999;stroke-dasharray:none;stroke-opacity:1"
       d="m 66.295136,49.280039 6.97571,3.099006"
       id="path1030" /><path
       style="fill:none;fill-opacity:1;stroke:#000000;stroke-width:0.499999;stroke-dasharray:none;stroke-opacity:1"
       d="m 73.270846,52.379045 6.97571,3.099006"
       id="path1032" /><path
       style="fill:none;fill-opacity:1;stroke:#000000;stroke-width:0.499999;stroke-dasharray:none;stroke-opacity:1"
       d="m 80.246556,55.478051 6.97571,3.099006"
       id="path1034" /><path
       style="fill:none;fill-opacity:1;stroke:#000000;stroke-width:0.499999;stroke-dasharray:none;stroke-opacity:1"
       d="m 87.222266,58.577057 6.97571,3.099006"
       id="path1044" /></g><g
     inkscape:label="Ebene 1"
     inkscape:groupmode="layer"
     id="layer1"><ellipse
       style="fill:none;fill-opacity:1;stroke:#000000;stroke-width:0.5;stroke-dasharray:none;stroke-opacity:1"
       id="path127"
       cx="52.343716"
       cy="43.082027"
       rx="28"
       ry="30" /><ellipse
       style="fill:#b40426;fill-opacity:0.8;stroke:#b40426;stroke-width:0.5;stroke-dasharray:none;stroke-opacity:1"
       id="ellipse966"
       cx="52.343716"
       cy="43.082027"
       rx="28"
       ry="30" /><ellipse
       style="fill:#e7745b;fill-opacity:0.8;stroke:#e7745b;stroke-width:0.5;stroke-dasharray:none;stroke-opacity:1"
       id="ellipse1026"
       cx="59.319427"
       cy="46.181034"
       rx="28.5"
       ry="28" /><ellipse
       style="fill:#f7b89c;fill-opacity:0.8;stroke:#f7b89c;stroke-width:0.5;stroke-dasharray:none;stroke-opacity:1"
       id="ellipse1036"
       cx="66.295135"
       cy="49.280041"
       rx="29"
       ry="26" /><ellipse
       style="fill:#dcdddd;fill-opacity:0.8;stroke:#dcdddd;stroke-width:0.5;stroke-dasharray:none;stroke-opacity:1"
       id="ellipse1038"
       cx="73.270844"
       cy="52.379044"
       rx="30"
       ry="24" /><ellipse
       style="fill:#aac7fd;fill-opacity:0.8;stroke:#aac7fd;stroke-width:0.5;stroke-dasharray:none;stroke-opacity:1"
       id="ellipse1042"
       cx="80.246559"
       cy="55.47805"
       rx="31"
       ry="22" /><ellipse
       style="fill:#6f92f3;fill-opacity:0.8;stroke:#6f92f3;stroke-width:0.5;stroke-dasharray:none;stroke-opacity:1"
       id="ellipse1046"
       cx="87.222267"
       cy="58.577057"
       rx="32.5"
       ry="21" /><ellipse
       style="fill:#3b4cc0;fill-opacity:0.8;stroke:#3b4cc0;stroke-width:0.5;stroke-dasharray:none;stroke-opacity:1"
       id="ellipse1050"
       cx="94.197975"
       cy="61.676064"
       rx="34"
       ry="20" /><path
       style="display:inline;fill:none;fill-opacity:1;stroke:#000000;stroke-width:0.3;stroke-dasharray:none;stroke-opacity:1;marker-end:url(#TriangleStart)"
       d="m 94.197975,61.676064 10.463575,4.648509"
       id="path8742" /><path
       style="opacity:1;fill:none;fill-opacity:0.8;stroke:#000000;stroke-width:0.3;stroke-dasharray:none;stroke-opacity:1;marker-end:url(#TriangleStart)"
       d="M 94.197973,61.676062 H 81.329815"
       id="path9043" /><path
       style="opacity:1;fill:none;fill-opacity:0.8;stroke:#000000;stroke-width:0.3;stroke-dasharray:none;stroke-opacity:1;marker-end:url(#TriangleStart)"
       d="M 94.197973,61.676062 V 48.807904"
       id="path9315" /><g
       inkscape:label=""
       transform="translate(100.56402,66.567391)"
       id="g11740">
<g
   fill="#000000"
   fill-opacity="1"
   id="g11736"
   transform="matrix(0.35277801,0,0,0.35277801,-0.14331633,0.05331429)">
      <g
   id="g11734"
   transform="translate(0,6.177)">
        <path
   d="m 6.796875,-5.859375 c -0.453125,0.09375 -0.625,0.4375 -0.625,0.703125 0,0.34375 0.265625,0.46875 0.46875,0.46875 0.4375,0 0.734375,-0.375 0.734375,-0.765625 0,-0.59375 -0.6875,-0.875 -1.296875,-0.875 -0.875,0 -1.359375,0.859375 -1.484375,1.140625 C 4.265625,-6.265625 3.375,-6.328125 3.109375,-6.328125 1.65625,-6.328125 0.875,-4.453125 0.875,-4.125 0.875,-4.078125 0.9375,-4 1.03125,-4 1.140625,-4 1.171875,-4.09375 1.203125,-4.140625 1.6875,-5.734375 2.65625,-6.03125 3.0625,-6.03125 c 0.65625,0 0.78125,0.59375 0.78125,0.9375 0,0.3125 -0.078125,0.640625 -0.265625,1.328125 l -0.484375,1.96875 c -0.203125,0.859375 -0.625,1.65625 -1.390625,1.65625 -0.0625,0 -0.421875,0 -0.734375,-0.1875 0.515625,-0.109375 0.640625,-0.53125 0.640625,-0.703125 0,-0.28125 -0.21875,-0.453125 -0.484375,-0.453125 -0.34375,0 -0.71875,0.296875 -0.71875,0.75 0,0.609375 0.671875,0.875 1.28125,0.875 0.6875,0 1.1875,-0.546875 1.484375,-1.125 0.234375,0.84375 0.9375,1.125 1.46875,1.125 1.46875,0 2.25,-1.875 2.25,-2.1875 0,-0.078125 -0.0625,-0.140625 -0.15625,-0.140625 -0.125,0 -0.140625,0.078125 -0.171875,0.1875 -0.390625,1.265625 -1.234375,1.859375 -1.875,1.859375 -0.5,0 -0.765625,-0.375 -0.765625,-0.96875 0,-0.3125 0.046875,-0.546875 0.28125,-1.484375 l 0.5,-1.953125 C 4.921875,-5.40625 5.40625,-6.03125 6.0625,-6.03125 c 0.03125,0 0.4375,0 0.734375,0.171875 z m 0,0"
   id="path11732" />
      </g>
    </g></g><g
       inkscape:label="y"
       transform="translate(95.591686,48.515925)"
       id="g12547">
<g
   fill="#000000"
   fill-opacity="1"
   id="g12543"
   transform="matrix(0.35277801,0,0,0.35277801,-0.1378045,0.05366508)">
      <g
   id="g12541"
   transform="translate(0,6.1760001)">
        <path
   d="m 3.765625,1.609375 c -0.375,0.546875 -0.9375,1.03125 -1.640625,1.03125 -0.171875,0 -0.859375,-0.03125 -1.078125,-0.6875 C 1.09375,1.96875 1.15625,1.96875 1.1875,1.96875 c 0.4375,0 0.71875,-0.375 0.71875,-0.703125 C 1.90625,0.9375 1.640625,0.8125 1.421875,0.8125 1.1875,0.8125 0.6875,0.984375 0.6875,1.6875 c 0,0.734375 0.625,1.234375 1.4375,1.234375 1.4375,0 2.875,-1.3125 3.28125,-2.90625 l 1.40625,-5.59375 c 0.015625,-0.078125 0.046875,-0.15625 0.046875,-0.25 0,-0.203125 -0.171875,-0.359375 -0.390625,-0.359375 -0.125,0 -0.4375,0.0625 -0.546875,0.5 l -1.0625,4.203125 c -0.0625,0.265625 -0.0625,0.296875 -0.1875,0.453125 -0.28125,0.40625 -0.75,0.890625 -1.4375,0.890625 -0.8125,0 -0.875,-0.796875 -0.875,-1.171875 0,-0.828125 0.375,-1.921875 0.765625,-2.96875 0.15625,-0.40625 0.25,-0.609375 0.25,-0.890625 0,-0.609375 -0.4375,-1.15625 -1.140625,-1.15625 -1.3125,0 -1.84375,2.078125 -1.84375,2.203125 0,0.046875 0.046875,0.125 0.15625,0.125 C 0.671875,-4 0.6875,-4.0625 0.75,-4.265625 1.09375,-5.46875 1.640625,-6.03125 2.1875,-6.03125 c 0.140625,0 0.375,0 0.375,0.46875 0,0.375 -0.15625,0.78125 -0.375,1.328125 -0.703125,1.875 -0.703125,2.359375 -0.703125,2.703125 0,1.359375 0.984375,1.671875 1.703125,1.671875 0.40625,0 0.921875,-0.125 1.4375,-0.65625 L 4.640625,-0.5 c -0.21875,0.84375 -0.359375,1.40625 -0.875,2.109375 z m 0,0"
   id="path12539" />
      </g>
    </g></g><g
       inkscape:label="z"
       transform="translate(80.946664,62.937612)"
       id="g13368">
<g
   fill="#000000"
   fill-opacity="1"
   id="g13364"
   transform="matrix(0.35277801,0,0,0.35277801,-0.21497352,0.05331337)">
      <g
   id="g13362"
   transform="translate(0,6.177)">
        <path
   d="M 1.828125,-1.15625 C 2.4375,-1.859375 2.9375,-2.3125 3.65625,-2.953125 c 0.859375,-0.75 1.234375,-1.109375 1.4375,-1.328125 1,-0.984375 1.5,-1.8125 1.5,-1.921875 0,-0.125 -0.109375,-0.125 -0.140625,-0.125 -0.09375,0 -0.125,0.0625 -0.203125,0.15625 C 5.890625,-5.546875 5.546875,-5.25 5.171875,-5.25 4.875,-5.25 4.71875,-5.375 4.453125,-5.71875 4.140625,-6.078125 3.90625,-6.328125 3.484375,-6.328125 c -1.046875,0 -1.671875,1.3125 -1.671875,1.609375 0,0.046875 0.015625,0.125 0.140625,0.125 0.109375,0 0.125,-0.046875 0.171875,-0.15625 0.234375,-0.578125 0.9375,-0.671875 1.203125,-0.671875 0.296875,0 0.59375,0.09375 0.890625,0.234375 0.546875,0.21875 0.765625,0.21875 0.921875,0.21875 0.09375,0 0.15625,0 0.21875,-0.015625 -0.46875,0.5625 -1.25,1.25 -1.890625,1.84375 L 2.015625,-1.8125 c -0.875,0.890625 -1.40625,1.734375 -1.40625,1.84375 0,0.078125 0.078125,0.109375 0.171875,0.109375 0.078125,0 0.09375,-0.015625 0.1875,-0.1875 C 1.203125,-0.40625 1.65625,-0.9375 2.1875,-0.9375 c 0.3125,0 0.453125,0.109375 0.734375,0.46875 0.28125,0.3125 0.515625,0.609375 0.984375,0.609375 1.40625,0 2.203125,-1.8125 2.203125,-2.15625 0,-0.046875 -0.015625,-0.140625 -0.15625,-0.140625 -0.109375,0 -0.125,0.0625 -0.171875,0.203125 -0.3125,0.84375 -1.15625,1.1875 -1.71875,1.1875 -0.296875,0 -0.59375,-0.09375 -0.890625,-0.21875 C 2.59375,-1.21875 2.4375,-1.21875 2.25,-1.21875 c -0.140625,0 -0.296875,0 -0.421875,0.0625 z m 0,0"
   id="path13360" />
      </g>
    </g></g></g><text
     xml:space="preserve"
     style="font-size:4.93889px;opacity:1;fill:#3b4cc0;fill-opacity:1;stroke:none;stroke-width:0.3;stroke-dasharray:none;stroke-opacity:1"
     x="82.08535"
     y="87.291817"
     id="text14904"><tspan
       sodipodi:role="line"
       id="tspan14902"
       style="font-size:4.93889px;fill:#3b4cc0;fill-opacity:1;stroke:none;stroke-width:0.3;stroke-opacity:1"
       x="82.08535"
       y="87.291817">out profile</tspan></text><text
     xml:space="preserve"
     style="font-size:4.93889px;fill:#b40426;fill-opacity:1;stroke:none;stroke-width:0.3;stroke-dasharray:none;stroke-opacity:1"
     x="41.922665"
     y="10.059196"
     id="text14904-3"><tspan
       sodipodi:role="line"
       id="tspan14902-6"
       style="font-size:4.93889px;fill:#b40426;fill-opacity:1;stroke:none;stroke-width:0.3;stroke-opacity:1"
       x="41.922665"
       y="10.059196">in profile</tspan></text></svg>
