<?xml version="1.0" encoding="UTF-8" standalone="no"?>
<!-- Created with Inkscape (http://www.inkscape.org/) -->

<svg
   version="1.1"
   id="svg2"
   xml:space="preserve"
   width="416"
   height="226.66667"
   viewBox="0 0 416 226.66667"
   sodipodi:docname="equivalent_rectangle.svg"
   inkscape:version="1.1.1 (3bf5ae0d25, 2021-09-20, custom)"
   xmlns:inkscape="http://www.inkscape.org/namespaces/inkscape"
   xmlns:sodipodi="http://sodipodi.sourceforge.net/DTD/sodipodi-0.dtd"
   xmlns="http://www.w3.org/2000/svg"
   xmlns:svg="http://www.w3.org/2000/svg"><defs
     id="defs6" /><sodipodi:namedview
     id="namedview4"
     pagecolor="#ffffff"
     bordercolor="#666666"
     borderopacity="1.0"
     inkscape:pageshadow="2"
     inkscape:pageopacity="0.0"
     inkscape:pagecheckerboard="0"
     showgrid="false"
     inkscape:zoom="2.7794117"
     inkscape:cx="208.13757"
     inkscape:cy="113.15344"
     inkscape:window-width="3840"
     inkscape:window-height="2091"
     inkscape:window-x="0"
     inkscape:window-y="0"
     inkscape:window-maximized="1"
     inkscape:current-layer="g8" /><g
     id="g8"
     inkscape:groupmode="layer"
     inkscape:label="equivalent_rectangle"
     transform="matrix(1.3333333,0,0,-1.3333333,0,226.66667)"><g
       id="g10"
       transform="matrix(0.06,0,0,-0.06,0,170)"><g
         id="g12"><g
           id="g14" /></g><g
         id="g16"><g
           id="g18" /><g
           id="g20"
           transform="matrix(47.272727,0,0,-47.216667,0,2833)"><path
             d="m 13.100054,40.516189 h 1.05 m 0.3835,0 h 0.013 m 0.3835,0 h 1.56 m 0.3835,0 h 0.013 m 0.3835,0 h 1.56 m 0.3835,0 h 0.013 m 0.3835,0 h 1.56 m 0.3835,0 h 0.013 m 0.3835,0 h 1.56 m 0.3835,0 h 0.013 m 0.3835,0 h 1.56 m 0.3835,0 h 0.013 m 0.3835,0 h 1.56 m 0.3835,0 h 0.013 m 0.3835,0 h 1.56 m 0.3835,0 h 0.013 m 0.3835,0 h 1.56 m 0.3835,0 h 0.013 m 0.3835,0 h 1.56 m 0.3835,0 h 0.013 m 0.3835,0 h 1.56 m 0.3835,0 h 0.013 m 0.3835,0 h 1.56 m 0.3835,0 h 0.013 m 0.3835,0 h 1.56 m 0.3835,0 h 0.013 m 0.3835,0 h 1.56 m 0.3835,0 h 0.013 m 0.3835,0 h 1.56 m 0.3835,0 h 0.013 m 0.3835,0 h 1.56 m 0.3835,0 h 0.013 m 0.3835,0 h 1.56 m 0.3835,0 h 0.013 m 0.3835,0 h 1.56 m 0.3835,0 h 0.013 m 0.3835,0 h 1.56 m 0.3835,0 h 0.013 m 0.3835,0 h 1.05"
             style="fill:none;stroke:#000000;stroke-width:0.13;stroke-linecap:round;stroke-linejoin:round;stroke-miterlimit:10;stroke-dasharray:none;stroke-opacity:1"
             id="path22" /><path
             d="m 52.600054,43.346492 -0.143273,0.131842 -0.144296,0.130721 -0.14531,0.129594 -0.146315,0.128459 -0.14731,0.127315 -0.148298,0.126164 -0.149276,0.125005 -0.150245,0.123839 -0.151205,0.122665 -0.152155,0.121483 -0.153097,0.120295 -0.154029,0.119099 -0.154952,0.117895 -0.155866,0.116686 -0.15677,0.115468 -0.157664,0.114243 -0.158549,0.113012 -0.159424,0.111774 -0.16029,0.110529 -0.161146,0.109277 -0.161993,0.108019 -0.162828,0.106754 -0.163655,0.105482 -0.164472,0.104205 -0.165278,0.102921 -0.166075,0.10163 -0.166861,0.100334 -0.167637,0.09903 -0.168404,0.09772 -0.16916,0.09641 -0.169905,0.09509 -0.170641,0.09376 -0.171366,0.09243 -0.17208,0.09109 -0.172785,0.08975 -0.173478,0.0884 -0.174162,0.08705 -0.174834,0.08569 -0.175496,0.08432 -0.176148,0.08295 -0.176789,0.08158 -0.177418,0.0802 -0.178038,0.07882 -0.178646,0.07743 -0.179244,0.07603 -0.17983,0.07464 -0.180406,0.07323 -0.180972,0.07183 -0.181525,0.07041 -0.182067,0.069 -0.1826,0.06758 -0.183121,0.06615 -0.18363,0.06473 -0.184129,0.06329 -0.184616,0.06186 -0.185092,0.06042 -0.185557,0.05897 -0.186011,0.05753 -0.186454,0.05608 -0.186884,0.05462 -0.187304,0.05317 -0.187712,0.05171 -0.18811,0.05024 -0.188495,0.04878 -0.188869,0.04731 -0.189232,0.04583 -0.189583,0.04436 -0.189923,0.04288 -0.190251,0.0414 -0.190568,0.03992 -0.190873,0.03843 -0.191166,0.03694 -0.191449,0.03546 -0.191718,0.03396 -0.191978,0.03247 -0.192224,0.03097 -0.19246,0.02948 -0.192683,0.02797 -0.192896,0.02647 -0.193096,0.02497 -0.193284,0.02347 -0.193462,0.02196 -0.193626,0.02045 -0.19378,0.01894 -0.193922,0.01743 -0.194051,0.01592 -0.19417,0.01441 -0.194276,0.0129 -0.194371,0.01139 -0.194453,0.0099 -0.194524,0.0084 -0.194584,0.0068 -0.19463,0.0053 -0.194667,0.0038 -0.19469,0.0023 -0.194702,7.77e-4 -0.194703,-7.39e-4 -0.19469,-0.0023 -0.194668,-0.0038 -0.194632,-0.0053 -0.194584,-0.0068 -0.194526,-0.0083 -0.194456,-0.0098 -0.194372,-0.01135 -0.194279,-0.01286 -0.194172,-0.01437 -0.194055,-0.01588 -0.193925,-0.0174 -0.193784,-0.01891 -0.19363,-0.02041 -0.193466,-0.02192 -0.193289,-0.02343 -0.193101,-0.02493 -0.192901,-0.02644 -0.192689,-0.02794 -0.192465,-0.02944 -0.192231,-0.03093 -0.191983,-0.03243 -0.191726,-0.03393 -0.191455,-0.03542 -0.191174,-0.03691 -0.19088,-0.0384 L 30.384103,49.46594 30.193844,49.42458 30.003913,49.38174 29.814321,49.33742 29.62508,49.29162 29.436201,49.24435 29.247697,49.19561 29.059577,49.1454 28.871855,49.09373 28.68454,49.0406 28.497645,48.98601 28.311181,48.92997 28.125158,48.87248 27.93959,48.81354 27.754485,48.75316 27.569857,48.69134 27.385716,48.62808 27.202073,48.56339 27.018939,48.49727 26.836326,48.42973 26.654245,48.36077 26.472706,48.29039 26.291721,48.2186 26.1113,48.1454 25.931455,48.0708 25.752196,47.9948 25.573535,47.91741 25.395482,47.83863 25.218047,47.75846 25.041243,47.67691 24.865079,47.59399 24.689566,47.5097 24.514715,47.42405 24.340536,47.33704 24.16704,47.24867 l -0.172802,-0.08972 -0.172099,-0.09106 -0.171384,-0.0924 -0.170659,-0.09373 -0.169924,-0.09505 -0.169179,-0.09637 -0.168423,-0.09769 -0.167656,-0.099 -0.166881,-0.100301 -0.166095,-0.101598 -0.165299,-0.102888 -0.164492,-0.104173 -0.163675,-0.10545 -0.16285,-0.106722 -0.162014,-0.107987 -0.161167,-0.109245 -0.160312,-0.110497 -0.159446,-0.111743 -0.158572,-0.112981 -0.157686,-0.114212 -0.156793,-0.115437 -0.155888,-0.116655 -0.154975,-0.117865 -0.154053,-0.119068 -0.153121,-0.120265 -0.152179,-0.121454 -0.151229,-0.122635 -0.150269,-0.123809 -0.149301,-0.124976 -0.148322,-0.126135 -0.147336,-0.127286 -0.14634,-0.128429 -0.145335,-0.129566 -0.144322,-0.130693 -0.1433,-0.131813 -0.0036,-0.0033"
             style="fill:none;stroke:#800000;stroke-width:0.25;stroke-linecap:round;stroke-linejoin:round;stroke-miterlimit:10;stroke-dasharray:none;stroke-opacity:1"
             id="path24" /><path
             d="m 18.600054,37.685886 0.143274,-0.131841 0.144296,-0.130722 0.14531,-0.129594 0.146314,-0.128458 0.147311,-0.127315 0.148298,-0.126164 0.149276,-0.125005 0.150245,-0.123839 0.151204,-0.122665 0.152156,-0.121484 0.153097,-0.120294 0.154029,-0.119099 0.154952,-0.117896 0.155866,-0.116685 0.156769,-0.115468 0.157665,-0.114244 0.158549,-0.113012 0.159424,-0.111774 0.16029,-0.110528 0.161146,-0.109278 0.161992,-0.108018 0.162829,-0.106754 0.163655,-0.105483 0.164472,-0.104205 0.165278,-0.10292 0.166074,-0.101631 0.166862,-0.100334 0.167637,-0.09903 0.168404,-0.09772 0.169159,-0.09641 0.169906,-0.09509 0.170641,-0.09376 0.171365,-0.09243 0.172081,-0.09109 0.172785,-0.08975 0.173478,-0.0884 0.174162,-0.08705 0.174834,-0.08569 0.175496,-0.08432 0.176148,-0.08295 0.176788,-0.08158 0.177419,-0.0802 0.178038,-0.07882 0.178646,-0.07743 0.179243,-0.07603 0.179831,-0.07464 0.180406,-0.07323 0.180971,-0.07183 0.181525,-0.07041 0.182068,-0.069 0.1826,-0.06758 0.183121,-0.06615 0.18363,-0.06473 0.184129,-0.06329 0.184616,-0.06186 0.185092,-0.06042 0.185557,-0.05897 0.186011,-0.05753 0.186453,-0.05608 0.186885,-0.05462 0.187304,-0.05317 0.187712,-0.05171 0.18811,-0.05024 0.188495,-0.04878 0.188869,-0.04731 0.189232,-0.04583 0.189583,-0.04436 0.189923,-0.04288 0.190251,-0.0414 0.190568,-0.03992 0.190873,-0.03843 0.191166,-0.03695 0.191448,-0.03546 0.191719,-0.03396 0.191977,-0.03247 0.192225,-0.03097 0.19246,-0.02948 0.192683,-0.02797 0.192896,-0.02647 0.193096,-0.02497 0.193284,-0.02347 0.193461,-0.02196 0.193627,-0.02045 0.19378,-0.01894 0.193922,-0.01743 0.194051,-0.01592 0.19417,-0.01441 0.194276,-0.0129 0.19437,-0.01139 0.194454,-0.0099 0.194524,-0.0084 0.194583,-0.0068 0.194631,-0.0053 0.194667,-0.0038 0.19469,-0.0023 0.194702,-7.78e-4 0.194703,7.39e-4 0.19469,0.0023 0.194667,0.0038 0.194632,0.0053 0.194585,0.0068 0.194526,0.0083 0.194455,0.0098 0.194373,0.01135 0.194279,0.01286 0.194172,0.01437 0.194055,0.01589 0.193925,0.0174 0.193783,0.01891 0.193631,0.02041 0.193466,0.02192 0.193289,0.02343 0.193101,0.02493 0.1929,0.02644 0.192689,0.02794 0.192466,0.02944 0.192231,0.03093 0.191983,0.03243 0.191726,0.03393 0.191455,0.03542 0.191174,0.03691 0.19088,0.0384 0.190576,0.03988 0.190259,0.04136 0.189931,0.04284 0.189592,0.04432 0.189241,0.0458 0.188879,0.04727 0.188504,0.04874 0.18812,0.05021 0.187722,0.05167 0.187315,0.05313 0.186895,0.05459 0.186464,0.05604 0.186022,0.05749 0.185569,0.05894 0.185104,0.06038 0.184629,0.06182 0.184141,0.06326 0.183643,0.06469 0.183133,0.06612 0.182613,0.06754 0.182082,0.06896 0.181539,0.07038 0.180985,0.07179 0.180421,0.0732 0.179845,0.0746 0.179259,0.076 0.178661,0.07739 0.178053,0.07878 0.177434,0.08017 0.176805,0.08155 0.176164,0.08292 0.175513,0.08429 0.174851,0.08565 0.174179,0.08701 0.173496,0.08837 0.172802,0.08972 0.172098,0.09106 0.171385,0.0924 0.170659,0.09373 0.169924,0.09506 0.169178,0.09638 0.168423,0.09769 0.167657,0.099 0.166881,0.100302 0.166095,0.101597 0.165298,0.102888 0.164492,0.104173 0.163676,0.10545 0.16285,0.106722 0.162013,0.107987 0.161168,0.109245 0.160312,0.110498 0.159446,0.111742 0.158571,0.112981 0.157687,0.114213 0.156792,0.115437 0.155889,0.116654 0.154975,0.117865 0.154053,0.119069 0.153121,0.120265 0.152179,0.121453 0.151229,0.122635 0.150269,0.12381 0.1493,0.124975 0.148323,0.126135 0.147336,0.127286 0.14634,0.12843 0.145335,0.129565 0.144322,0.130693 0.143299,0.131814 0.0036,0.0033"
             style="fill:none;stroke:#800000;stroke-width:0.25;stroke-linecap:round;stroke-linejoin:round;stroke-miterlimit:10;stroke-dasharray:none;stroke-opacity:1"
             id="path26" /><path
             d="m 18.600054,37.685886 v 5.660606"
             style="fill:none;stroke:#800000;stroke-width:0.25;stroke-linecap:round;stroke-linejoin:round;stroke-miterlimit:10;stroke-dasharray:none;stroke-opacity:1"
             id="path28" /><path
             d="m 52.600054,37.685886 v 5.660606"
             style="fill:none;stroke:#800000;stroke-width:0.25;stroke-linecap:round;stroke-linejoin:round;stroke-miterlimit:10;stroke-dasharray:none;stroke-opacity:1"
             id="path30" /><path
             d="m 52.600054,42.374727 -3.98879,3.988791"
             style="fill:none;stroke:#800000;stroke-width:0.13;stroke-linecap:round;stroke-linejoin:round;stroke-miterlimit:10;stroke-dasharray:none;stroke-opacity:1"
             id="path32" /><path
             d="m 52.600054,41.027689 -6.823565,6.823565"
             style="fill:none;stroke:#800000;stroke-width:0.13;stroke-linecap:round;stroke-linejoin:round;stroke-miterlimit:10;stroke-dasharray:none;stroke-opacity:1"
             id="path34" /><path
             d="m 52.600054,39.68065 -9.031641,9.031641"
             style="fill:none;stroke:#800000;stroke-width:0.13;stroke-linecap:round;stroke-linejoin:round;stroke-miterlimit:10;stroke-dasharray:none;stroke-opacity:1"
             id="path36" /><path
             d="M 52.600054,38.333612 41.664071,49.269595"
             style="fill:none;stroke:#800000;stroke-width:0.13;stroke-linecap:round;stroke-linejoin:round;stroke-miterlimit:10;stroke-dasharray:none;stroke-opacity:1"
             id="path38" /><path
             d="M 52.233764,37.352864 39.952171,49.634456"
             style="fill:none;stroke:#800000;stroke-width:0.13;stroke-linecap:round;stroke-linejoin:round;stroke-miterlimit:10;stroke-dasharray:none;stroke-opacity:1"
             id="path40" /><path
             d="M 51.508589,36.731 38.378247,49.861343"
             style="fill:none;stroke:#800000;stroke-width:0.13;stroke-linecap:round;stroke-linejoin:round;stroke-miterlimit:10;stroke-dasharray:none;stroke-opacity:1"
             id="path42" /><path
             d="M 50.757388,36.135163 36.910743,49.981807"
             style="fill:none;stroke:#800000;stroke-width:0.13;stroke-linecap:round;stroke-linejoin:round;stroke-miterlimit:10;stroke-dasharray:none;stroke-opacity:1"
             id="path44" /><path
             d="m 49.979813,35.565699 -14.45039,14.45039"
             style="fill:none;stroke:#800000;stroke-width:0.13;stroke-linecap:round;stroke-linejoin:round;stroke-miterlimit:10;stroke-dasharray:none;stroke-opacity:1"
             id="path46" /><path
             d="M 49.175387,35.023087 34.220384,49.97809"
             style="fill:none;stroke:#800000;stroke-width:0.13;stroke-linecap:round;stroke-linejoin:round;stroke-miterlimit:10;stroke-dasharray:none;stroke-opacity:1"
             id="path48" /><path
             d="m 48.343495,34.507941 -15.3699,15.3699"
             style="fill:none;stroke:#800000;stroke-width:0.13;stroke-linecap:round;stroke-linejoin:round;stroke-miterlimit:10;stroke-dasharray:none;stroke-opacity:1"
             id="path50" /><path
             d="M 47.483365,34.021032 31.781549,49.722849"
             style="fill:none;stroke:#800000;stroke-width:0.13;stroke-linecap:round;stroke-linejoin:round;stroke-miterlimit:10;stroke-dasharray:none;stroke-opacity:1"
             id="path52" /><path
             d="M 46.594053,33.563306 30.638463,49.518895"
             style="fill:none;stroke:#800000;stroke-width:0.13;stroke-linecap:round;stroke-linejoin:round;stroke-miterlimit:10;stroke-dasharray:none;stroke-opacity:1"
             id="path54" /><path
             d="M 45.674413,33.135907 29.539788,49.270533"
             style="fill:none;stroke:#800000;stroke-width:0.13;stroke-linecap:round;stroke-linejoin:round;stroke-miterlimit:10;stroke-dasharray:none;stroke-opacity:1"
             id="path56" /><path
             d="M 44.723062,32.74022 28.481877,48.981405"
             style="fill:none;stroke:#800000;stroke-width:0.13;stroke-linecap:round;stroke-linejoin:round;stroke-miterlimit:10;stroke-dasharray:none;stroke-opacity:1"
             id="path58" /><path
             d="M 43.738336,32.377907 27.461773,48.654471"
             style="fill:none;stroke:#800000;stroke-width:0.13;stroke-linecap:round;stroke-linejoin:round;stroke-miterlimit:10;stroke-dasharray:none;stroke-opacity:1"
             id="path60" /><path
             d="M 42.718232,32.050974 26.477047,48.292158"
             style="fill:none;stroke:#800000;stroke-width:0.13;stroke-linecap:round;stroke-linejoin:round;stroke-miterlimit:10;stroke-dasharray:none;stroke-opacity:1"
             id="path62" /><path
             d="M 41.660321,31.761846 25.525696,47.896471"
             style="fill:none;stroke:#800000;stroke-width:0.13;stroke-linecap:round;stroke-linejoin:round;stroke-miterlimit:10;stroke-dasharray:none;stroke-opacity:1"
             id="path64" /><path
             d="M 40.561645,31.513483 24.606056,47.469073"
             style="fill:none;stroke:#800000;stroke-width:0.13;stroke-linecap:round;stroke-linejoin:round;stroke-miterlimit:10;stroke-dasharray:none;stroke-opacity:1"
             id="path66" /><path
             d="M 39.41856,31.30953 23.716744,47.011346"
             style="fill:none;stroke:#800000;stroke-width:0.13;stroke-linecap:round;stroke-linejoin:round;stroke-miterlimit:10;stroke-dasharray:none;stroke-opacity:1"
             id="path68" /><path
             d="m 38.226514,31.154538 -15.3699,15.369899"
             style="fill:none;stroke:#800000;stroke-width:0.13;stroke-linecap:round;stroke-linejoin:round;stroke-miterlimit:10;stroke-dasharray:none;stroke-opacity:1"
             id="path70" /><path
             d="M 36.979725,31.054288 22.024722,46.009291"
             style="fill:none;stroke:#800000;stroke-width:0.13;stroke-linecap:round;stroke-linejoin:round;stroke-miterlimit:10;stroke-dasharray:none;stroke-opacity:1"
             id="path72" /><path
             d="m 35.670686,31.016289 -14.45039,14.45039"
             style="fill:none;stroke:#800000;stroke-width:0.13;stroke-linecap:round;stroke-linejoin:round;stroke-miterlimit:10;stroke-dasharray:none;stroke-opacity:1"
             id="path74" /><path
             d="M 34.289365,31.050571 20.44272,44.897216"
             style="fill:none;stroke:#800000;stroke-width:0.13;stroke-linecap:round;stroke-linejoin:round;stroke-miterlimit:10;stroke-dasharray:none;stroke-opacity:1"
             id="path76" /><path
             d="M 32.821862,31.171036 19.69152,44.301378"
             style="fill:none;stroke:#800000;stroke-width:0.13;stroke-linecap:round;stroke-linejoin:round;stroke-miterlimit:10;stroke-dasharray:none;stroke-opacity:1"
             id="path78" /><path
             d="M 31.247937,31.397922 18.966345,43.679515"
             style="fill:none;stroke:#800000;stroke-width:0.13;stroke-linecap:round;stroke-linejoin:round;stroke-miterlimit:10;stroke-dasharray:none;stroke-opacity:1"
             id="path80" /><path
             d="M 29.536038,31.762783 18.600054,42.698767"
             style="fill:none;stroke:#800000;stroke-width:0.13;stroke-linecap:round;stroke-linejoin:round;stroke-miterlimit:10;stroke-dasharray:none;stroke-opacity:1"
             id="path82" /><path
             d="m 27.631696,32.320087 -9.031642,9.031641"
             style="fill:none;stroke:#800000;stroke-width:0.13;stroke-linecap:round;stroke-linejoin:round;stroke-miterlimit:10;stroke-dasharray:none;stroke-opacity:1"
             id="path84" /><path
             d="M 25.423619,33.181125 18.600054,40.00469"
             style="fill:none;stroke:#800000;stroke-width:0.13;stroke-linecap:round;stroke-linejoin:round;stroke-miterlimit:10;stroke-dasharray:none;stroke-opacity:1"
             id="path86" /><path
             d="m 22.588845,34.668861 -3.988791,3.98879"
             style="fill:none;stroke:#800000;stroke-width:0.13;stroke-linecap:round;stroke-linejoin:round;stroke-miterlimit:10;stroke-dasharray:none;stroke-opacity:1"
             id="path88" /><path
             d="m 35.600054,29.016189 v 0.58 m 0,0.3835 v 0.013 m 0,0.3835 v 1.56 m 0,0.3835 v 0.013 m 0,0.3835 v 1.56 m 0,0.3835 v 0.013 m 0,0.3835 v 1.56 m 0,0.3835 v 0.013 m 0,0.3835 v 1.56 m 0,0.3835 v 0.013 m 0,0.3835 v 1.56 m 0,0.3835 v 0.013 m 0,0.3835 v 1.56 m 0,0.3835 v 0.013 m 0,0.3835 v 1.56 m 0,0.3835 v 0.013 m 0,0.3835 v 1.56 m 0,0.3835 v 0.013 m 0,0.3835 v 1.56 m 0,0.3835 v 0.013 m 0,0.3835 v 0.58"
             style="fill:none;stroke:#000000;stroke-width:0.13;stroke-linecap:round;stroke-linejoin:round;stroke-miterlimit:10;stroke-dasharray:none;stroke-opacity:1"
             id="path90" /><path
             d="m 52.37721,43.550672 -0.144857,0.1301 -0.145866,0.128968 -0.146866,0.127827 -0.147857,0.126681 -0.148839,0.125525 -0.149812,0.124361 -0.150776,0.123192 -0.151731,0.122013 -0.152677,0.120828 -0.153613,0.119635 -0.15454,0.118435 -0.155458,0.117228 -0.156366,0.116014 -0.157265,0.114793 -0.158154,0.113564 -0.159033,0.112329 -0.159904,0.111087 -0.160764,0.109838 -0.161615,0.108583 -0.162455,0.107321 -0.163286,0.106053 -0.164108,0.104777 -0.164918,0.103497 -0.165719,0.102209 -0.166511,0.100915 -0.167291,0.09962 -0.168062,0.09831 -0.168822,0.097 -0.169573,0.09568 -0.170313,0.09436 -0.171042,0.09303 -0.171762,0.09169 -0.172471,0.09035 -0.173169,0.08901 -0.173857,0.08765 -0.174535,0.0863 -0.175201,0.08494 -0.175857,0.08357 -0.176503,0.0822 -0.177138,0.08082 -0.177762,0.07944 -0.178375,0.07805 -0.178977,0.07666 -0.17957,0.07526 -0.180149,0.07386 -0.18072,0.07246 -0.181278,0.07105 -0.181827,0.06963 -0.182363,0.06822 -0.182889,0.06679 -0.183403,0.06537 -0.183907,0.06394 -0.184399,0.0625 -0.184881,0.06106 -0.18535,0.05962 -0.185809,0.05818 -0.186257,0.05673 -0.186693,0.05528 -0.187117,0.05382 -0.187531,0.05236 -0.187933,0.0509 -0.188324,0.04943 -0.188703,0.04797 -0.189071,0.04649 -0.189428,0.04502 -0.189772,0.04354 -0.190106,0.04207 -0.190427,0.04058 -0.190738,0.0391 -0.191036,0.03761 -0.191324,0.03612 -0.191599,0.03463 -0.191863,0.03314 -0.192115,0.03164 -0.192356,0.03015 -0.192585,0.02865 -0.192802,0.02715 -0.193007,0.02564 -0.193202,0.02414 -0.193383,0.02263 -0.193554,0.02113 -0.193713,0.01962 -0.19386,0.01811 -0.193995,0.0166 -0.194118,0.01509 -0.19423,0.01358 -0.194329,0.01206 -0.194418,0.01055 -0.194494,0.009 -0.194559,0.0075 -0.194611,0.006 -0.194652,0.0045 -0.194681,0.003 -0.194698,0.0015 -0.194704,-6.1e-5 -0.194697,-0.0016 -0.194679,-0.0031 -0.19465,-0.0046 -0.194607,-0.0061 -0.194554,-0.0076 -0.194488,-0.0092 -0.194411,-0.01067 -0.194322,-0.01218 -0.194222,-0.0137 -0.194109,-0.01521 -0.193984,-0.01672 -0.193849,-0.01823 -0.1937,-0.01974 -0.193541,-0.02125 -0.19337,-0.02275 -0.193186,-0.02426 -0.192992,-0.02576 -0.192785,-0.02727 -0.192567,-0.02877 -0.192337,-0.03026 -0.192096,-0.03176 -0.191843,-0.03326 -0.191577,-0.03475 -0.191301,-0.03624 -0.191014,-0.03773 -0.190713,-0.03922 -0.190402,-0.0407 -0.19008,-0.04218 -0.189745,-0.04366 -0.1894,-0.04514 -0.189042,-0.04661 -0.188673,-0.04808 -0.188294,-0.04955 -0.187901,-0.05101 -0.187499,-0.05248 -0.187084,-0.05394 -0.186659,-0.05539 -0.186221,-0.05684 -0.185774,-0.05829 -0.185313,-0.05974 -0.184843,-0.06118 -0.18436,-0.06262 -0.183868,-0.06405 -0.183363,-0.06548 -0.182847,-0.0669 -0.182321,-0.06833 -0.181783,-0.06974 -0.181235,-0.07116 -0.180675,-0.07257 -0.180104,-0.07397 -0.179522,-0.07537 -0.17893,-0.07677 -0.178327,-0.07816 -0.177713,-0.07955 -0.177088,-0.08093 -0.176452,-0.08231 -0.175806,-0.08368 -0.175148,-0.08504 -0.174481,-0.08641 -0.173803,-0.08776 -0.173114,-0.08911 -0.172415,-0.09046 -0.171705,-0.0918 -0.170985,-0.09313 -0.170255,-0.09446 -0.169513,-0.09578 -0.168763,-0.0971 -0.168001,-0.09841 -0.16723,-0.09972 -0.166448,-0.101018 -0.165656,-0.102311 -0.164854,-0.103598 -0.164043,-0.10488 -0.16322,-0.106153 -0.162389,-0.107421 -0.161548,-0.108683 -0.160696,-0.109938 -0.159835,-0.111186 -0.158964,-0.112427 -0.158084,-0.113662 -0.157194,-0.11489 -0.156294,-0.11611 -0.155386,-0.117324 -0.154466,-0.118531 -0.15354,-0.11973 -0.152601,-0.120922 -0.151656,-0.122107 -0.1507,-0.123285 -0.149735,-0.124454 -0.148762,-0.125617 -0.147778,-0.126772 -0.146787,-0.127918 -0.145786,-0.129058 -0.133325,-0.119817"
             style="fill:none;stroke:#000000;stroke-width:0.25;stroke-linecap:round;stroke-linejoin:round;stroke-miterlimit:10;stroke-dasharray:none;stroke-opacity:1"
             id="path92" /><path
             d="m 18.822899,37.481706 0.144857,-0.130099 0.145866,-0.128968 0.146866,-0.127828 0.147857,-0.12668 0.148839,-0.125525 0.149812,-0.124362 0.150776,-0.123191 0.151731,-0.122014 0.152676,-0.120828 0.153614,-0.119635 0.15454,-0.118435 0.155457,-0.117228 0.156366,-0.116014 0.157265,-0.114792 0.158155,-0.113564 0.159033,-0.112329 0.159904,-0.111087 0.160764,-0.109839 0.161615,-0.108583 0.162455,-0.107321 0.163286,-0.106052 0.164107,-0.104778 0.164919,-0.103496 0.165719,-0.102209 0.16651,-0.100915 0.167292,-0.09962 0.168062,-0.09831 0.168822,-0.097 0.169573,-0.09568 0.170313,-0.09436 0.171042,-0.09303 0.171762,-0.09169 0.172471,-0.09035 0.173169,-0.08901 0.173857,-0.08765 0.174534,-0.0863 0.175202,-0.08494 0.175857,-0.08357 0.176503,-0.0822 0.177138,-0.08082 0.177762,-0.07944 0.178375,-0.07805 0.178977,-0.07666 0.179569,-0.07526 0.18015,-0.07386 0.18072,-0.07246 0.181278,-0.07105 0.181827,-0.06963 0.182363,-0.06821 0.182888,-0.06679 0.183404,-0.06537 0.183907,-0.06394 0.184399,-0.0625 0.184881,-0.06106 0.18535,-0.05962 0.185809,-0.05818 0.186257,-0.05673 0.186692,-0.05528 0.187118,-0.05382 0.187531,-0.05236 0.187933,-0.0509 0.188324,-0.04943 0.188703,-0.04797 0.189071,-0.04649 0.189428,-0.04502 0.189772,-0.04354 0.190105,-0.04206 0.190428,-0.04058 0.190738,-0.0391 0.191036,-0.03761 0.191324,-0.03612 0.191599,-0.03463 0.191863,-0.03314 0.192115,-0.03164 0.192356,-0.03015 0.192584,-0.02865 0.192803,-0.02715 0.193007,-0.02564 0.193202,-0.02414 0.193383,-0.02263 0.193554,-0.02113 0.193713,-0.01962 0.19386,-0.01811 0.193995,-0.0166 0.194118,-0.01509 0.19423,-0.01358 0.194329,-0.01206 0.194418,-0.01055 0.194494,-0.009 0.194558,-0.0075 0.194612,-0.006 0.194652,-0.0045 0.194681,-0.003 0.194698,-0.0015 0.194704,6e-5 0.194697,0.0016 0.194679,0.0031 0.194649,0.0046 0.194608,0.0061 0.194554,0.0076 0.194488,0.0092 0.194411,0.01067 0.194322,0.01218 0.194222,0.0137 0.194108,0.01521 0.193985,0.01672 0.193848,0.01823 0.193701,0.01974 0.193541,0.02125 0.19337,0.02275 0.193186,0.02426 0.192992,0.02576 0.192785,0.02726 0.192567,0.02877 0.192337,0.03026 0.192096,0.03176 0.191842,0.03326 0.191578,0.03475 0.191301,0.03624 0.191013,0.03773 0.190714,0.03922 0.190402,0.0407 0.19008,0.04218 0.189745,0.04366 0.1894,0.04514 0.189042,0.04661 0.188673,0.04808 0.188293,0.04955 0.187902,0.05101 0.187499,0.05248 0.187084,0.05394 0.186659,0.05539 0.186221,0.05684 0.185773,0.05829 0.185314,0.05974 0.184843,0.06118 0.18436,0.06262 0.183868,0.06405 0.183363,0.06548 0.182847,0.06691 0.182321,0.06833 0.181783,0.06975 0.181235,0.07116 0.180674,0.07257 0.180105,0.07397 0.179522,0.07537 0.17893,0.07677 0.178327,0.07816 0.177713,0.07955 0.177087,0.08093 0.176453,0.0823 0.175805,0.08368 0.175149,0.08504 0.174481,0.0864 0.173803,0.08776 0.173114,0.08911 0.172415,0.09046 0.171705,0.0918 0.170985,0.09313 0.170255,0.09446 0.169513,0.09578 0.168763,0.0971 0.168001,0.09841 0.167229,0.09972 0.166449,0.101019 0.165656,0.102311 0.164854,0.103598 0.164042,0.104879 0.163221,0.106153 0.162389,0.107422 0.161548,0.108683 0.160696,0.109937 0.159835,0.111186 0.158964,0.112427 0.158084,0.113662 0.157194,0.11489 0.156294,0.11611 0.155385,0.117325 0.154467,0.11853 0.153539,0.11973 0.152602,0.120923 0.151656,0.122107 0.1507,0.123284 0.149735,0.124455 0.148761,0.125616 0.147779,0.126772 0.146787,0.127919 0.145786,0.129057 0.133325,0.119817"
             style="fill:none;stroke:#000000;stroke-width:0.25;stroke-linecap:round;stroke-linejoin:round;stroke-miterlimit:10;stroke-dasharray:none;stroke-opacity:1"
             id="path94" /><path
             d="m 13.100054,42.516189 h 3.0385"
             style="fill:none;stroke:#000000;stroke-width:0.25;stroke-linecap:round;stroke-linejoin:round;stroke-miterlimit:10;stroke-dasharray:none;stroke-opacity:1"
             id="path96" /><path
             d="m 55.061555,42.516189 h 3.038499"
             style="fill:none;stroke:#000000;stroke-width:0.25;stroke-linecap:round;stroke-linejoin:round;stroke-miterlimit:10;stroke-dasharray:none;stroke-opacity:1"
             id="path98" /><path
             d="m 13.100054,38.516189 h 3.0385"
             style="fill:none;stroke:#000000;stroke-width:0.25;stroke-linecap:round;stroke-linejoin:round;stroke-miterlimit:10;stroke-dasharray:none;stroke-opacity:1"
             id="path100" /><path
             d="m 55.061555,38.516189 h 3.038499"
             style="fill:none;stroke:#000000;stroke-width:0.25;stroke-linecap:round;stroke-linejoin:round;stroke-miterlimit:10;stroke-dasharray:none;stroke-opacity:1"
             id="path102" /><path
             d="m 18.822899,37.481706 -0.147472,0.1271 -0.153482,0.119773 -0.159128,0.112163 -0.164397,0.104288 -0.169276,0.09616 -0.173755,0.08781 -0.177822,0.07926 -0.181467,0.07051 -0.184684,0.0616 -0.187462,0.05254 -0.189796,0.04335 -0.191681,0.03407 -0.193112,0.0247 -0.194085,0.01528 -0.194598,0.0058 -0.02213,6.1e-5"
             style="fill:none;stroke:#000000;stroke-width:0.25;stroke-linecap:round;stroke-linejoin:round;stroke-miterlimit:10;stroke-dasharray:none;stroke-opacity:1"
             id="path104" /><path
             d="m 16.138554,42.516189 0.194627,0.0047 0.194167,0.0142 0.193245,0.02363 0.191866,0.03301 0.190034,0.0423 0.187749,0.0515 0.185022,0.06058 0.181855,0.0695 0.178257,0.07827 0.174239,0.08685 0.169805,0.09523 0.164971,0.103377 0.159746,0.111282 0.154142,0.118922 0.148173,0.126281 0.01645,0.0148"
             style="fill:none;stroke:#000000;stroke-width:0.25;stroke-linecap:round;stroke-linejoin:round;stroke-miterlimit:10;stroke-dasharray:none;stroke-opacity:1"
             id="path106" /><path
             d="m 52.37721,43.550672 0.147472,-0.127099 0.153482,-0.119773 0.159128,-0.112164 0.164396,-0.104288 0.169277,-0.09616 0.173755,-0.08781 0.177822,-0.07926 0.181467,-0.07051 0.184684,-0.0616 0.187462,-0.05254 0.189796,-0.04335 0.191681,-0.03407 0.193112,-0.0247 0.194084,-0.01528 0.194599,-0.0058 0.02213,-6.1e-5"
             style="fill:none;stroke:#000000;stroke-width:0.25;stroke-linecap:round;stroke-linejoin:round;stroke-miterlimit:10;stroke-dasharray:none;stroke-opacity:1"
             id="path108" /><path
             d="m 55.061555,38.516189 -0.194628,-0.0047 -0.194166,-0.0142 -0.193245,-0.02363 -0.191867,-0.03301 -0.190033,-0.0423 -0.18775,-0.0515 -0.185021,-0.06058 -0.181855,-0.06951 -0.178258,-0.07827 -0.174238,-0.08685 -0.169806,-0.09523 -0.164971,-0.103377 -0.159745,-0.111281 -0.154142,-0.118922 -0.148173,-0.126282 -0.01645,-0.0148"
             style="fill:none;stroke:#000000;stroke-width:0.25;stroke-linecap:round;stroke-linejoin:round;stroke-miterlimit:10;stroke-dasharray:none;stroke-opacity:1"
             id="path110" /><path
             d="m 18.600054,11.756189 v 1.069849 m 0,0.39 v 1.56 m 0,0.39 v 1.56 m 0,0.39 v 1.56 m 0,0.39 v 1.56 m 0,0.39 v 1.56 m 0,0.39 v 1.56 m 0,0.39 v 1.56 m 0,0.39 v 1.56 m 0,0.39 v 1.56 m 0,0.39 v 1.56 m 0,0.39 v 1.56 m 0,0.39 v 1.56 m 0,0.39 v 1.069848"
             style="fill:none;stroke:#000000;stroke-width:0.13;stroke-linecap:round;stroke-linejoin:round;stroke-miterlimit:10;stroke-dasharray:none;stroke-opacity:1"
             id="path112" /><path
             d="m 52.600054,11.756189 v 1.069849 m 0,0.39 v 1.56 m 0,0.39 v 1.56 m 0,0.39 v 1.56 m 0,0.39 v 1.56 m 0,0.39 v 1.56 m 0,0.39 v 1.56 m 0,0.39 v 1.56 m 0,0.39 v 1.56 m 0,0.39 v 1.56 m 0,0.39 v 1.56 m 0,0.39 v 1.56 m 0,0.39 v 1.56 m 0,0.39 v 1.069848"
             style="fill:none;stroke:#000000;stroke-width:0.13;stroke-linecap:round;stroke-linejoin:round;stroke-miterlimit:10;stroke-dasharray:none;stroke-opacity:1"
             id="path114" /><path
             d="m 35.600054,50.016189 h 0.715 m 0.39,0 h 1.56 m 0.39,0 h 1.56 m 0.39,0 h 1.56 m 0.39,0 h 1.56 m 0.39,0 h 1.56 m 0.39,0 h 1.56 m 0.39,0 h 1.56 m 0.39,0 h 1.56 m 0.39,0 h 1.56 m 0.39,0 h 1.56 m 0.39,0 h 1.56 m 0.39,0 h 1.56 m 0.39,0 h 1.56 m 0.39,0 h 1.56 m 0.39,0 h 1.56 m 0.39,0 h 1.56 m 0.39,0 h 1.56 m 0.39,0 h 1.56 m 0.39,0 h 1.56 m 0.39,0 h 1.56 m 0.39,0 h 1.56 m 0.39,0 h 1.56 m 0.39,0 h 1.56 m 0.39,0 h 1.56 m 0.39,0 h 1.56 m 0.39,0 h 1.56 m 0.39,0 h 1.56 m 0.39,0 h 1.56 m 0.39,0 h 0.715"
             style="fill:none;stroke:#000000;stroke-width:0.13;stroke-linecap:round;stroke-linejoin:round;stroke-miterlimit:10;stroke-dasharray:none;stroke-opacity:1"
             id="path116" /><path
             d="m 35.600054,31.016189 h 0.715 m 0.39,0 h 1.56 m 0.39,0 h 1.56 m 0.39,0 h 1.56 m 0.39,0 h 1.56 m 0.39,0 h 1.56 m 0.39,0 h 1.56 m 0.39,0 h 1.56 m 0.39,0 h 1.56 m 0.39,0 h 1.56 m 0.39,0 h 1.56 m 0.39,0 h 1.56 m 0.39,0 h 1.56 m 0.39,0 h 1.56 m 0.39,0 h 1.56 m 0.39,0 h 1.56 m 0.39,0 h 1.56 m 0.39,0 h 1.56 m 0.39,0 h 1.56 m 0.39,0 h 1.56 m 0.39,0 h 1.56 m 0.39,0 h 1.56 m 0.39,0 h 1.56 m 0.39,0 h 1.56 m 0.39,0 h 1.56 m 0.39,0 h 1.56 m 0.39,0 h 1.56 m 0.39,0 h 1.56 m 0.39,0 h 1.56 m 0.39,0 h 0.715"
             style="fill:none;stroke:#000000;stroke-width:0.13;stroke-linecap:round;stroke-linejoin:round;stroke-miterlimit:10;stroke-dasharray:none;stroke-opacity:1"
             id="path118" /></g><g
           id="g120"
           transform="matrix(1.1774029,0,0,1.1760066,1629.6342,102.95203)"><g
             id="g122"><text
               transform="translate(0,150)"
               style="font-variant:normal;font-weight:normal;font-size:140px;font-family:'Noto Sans';-inkscape-font-specification:NotoSans-Regular;writing-mode:lr-tb;fill:#000000;fill-opacity:1;fill-rule:nonzero;stroke:none"
               id="text126"><tspan
                 x="0"
                 y="0"
                 id="tspan124">b</tspan></text></g></g><g
           id="g128"
           transform="matrix(47.272727,0,0,-47.216667,0,2833)"><path
             d="m 18.600054,53.516189 h 34"
             style="fill:none;stroke:#000000;stroke-width:0.13;stroke-linecap:round;stroke-linejoin:round;stroke-miterlimit:10;stroke-dasharray:none;stroke-opacity:1"
             id="path130" /></g><g
           id="g132"><path
             d="M 879.2753,306.14393 997.45712,286.48835 V 325.7995 Z"
             style="fill:#000000;fill-opacity:1;fill-rule:evenodd;stroke:none"
             id="path134" /></g><g
           id="g136"
           transform="matrix(47.272727,0,0,-47.216667,0,2833)"><path
             d="m 18.600054,53.516189 2.5,0.416285 v -0.832569 z"
             style="fill:#000000;fill-opacity:1;fill-rule:evenodd;stroke:#000000;stroke-width:0.13;stroke-linecap:round;stroke-linejoin:round;stroke-miterlimit:10;stroke-dasharray:none;stroke-opacity:1"
             id="path138" /></g><g
           id="g140"><path
             d="M 2486.548,306.14393 2368.3662,325.7995 V 286.48835 Z"
             style="fill:#000000;fill-opacity:1;fill-rule:evenodd;stroke:none"
             id="path142" /></g><g
           id="g144"
           transform="matrix(47.272727,0,0,-47.216667,0,2833)"><path
             d="m 52.600054,53.516189 -2.5,-0.416284 v 0.832569 z"
             style="fill:#000000;fill-opacity:1;fill-rule:evenodd;stroke:#000000;stroke-width:0.13;stroke-linecap:round;stroke-linejoin:round;stroke-miterlimit:10;stroke-dasharray:none;stroke-opacity:1"
             id="path146" /><path
             d="M 18.600054,38.310886 V 54.766189"
             style="fill:none;stroke:#000000;stroke-width:0.13;stroke-linecap:round;stroke-linejoin:round;stroke-miterlimit:10;stroke-dasharray:none;stroke-opacity:1"
             id="path148" /><path
             d="M 52.600054,38.310886 V 54.766189"
             style="fill:none;stroke:#000000;stroke-width:0.13;stroke-linecap:round;stroke-linejoin:round;stroke-miterlimit:10;stroke-dasharray:none;stroke-opacity:1"
             id="path150" /></g><g
           id="g152"
           transform="matrix(0,-1.1760066,1.1774029,0,333.94274,971.28226)"><g
             id="g154"><text
               transform="translate(0,150)"
               style="font-variant:normal;font-weight:normal;font-size:140px;font-family:'Noto Sans';-inkscape-font-specification:NotoSans-Regular;writing-mode:lr-tb;fill:#000000;fill-opacity:1;fill-rule:nonzero;stroke:none"
               id="text158"><tspan
                 x="0"
                 y="0"
                 id="tspan156">h</tspan></text></g></g><g
           id="g160"
           transform="matrix(47.272727,0,0,-47.216667,0,2833)"><path
             d="m 11.350054,50.016189 v -19"
             style="fill:none;stroke:#000000;stroke-width:0.13;stroke-linecap:round;stroke-linejoin:round;stroke-miterlimit:10;stroke-dasharray:none;stroke-opacity:1"
             id="path162" /></g><g
           id="g164"><path
             d="m 536.54803,471.40226 19.67891,118.04167 h -39.35782 z"
             style="fill:#000000;fill-opacity:1;fill-rule:evenodd;stroke:none"
             id="path166" /></g><g
           id="g168"
           transform="matrix(47.272727,0,0,-47.216667,0,2833)"><path
             d="m 11.350054,50.016189 0.416285,-2.5 H 10.93377 Z"
             style="fill:#000000;fill-opacity:1;fill-rule:evenodd;stroke:#000000;stroke-width:0.13;stroke-linecap:round;stroke-linejoin:round;stroke-miterlimit:10;stroke-dasharray:none;stroke-opacity:1"
             id="path170" /></g><g
           id="g172"><path
             d="m 536.54803,1368.5189 -19.67891,-118.0416 h 39.35782 z"
             style="fill:#000000;fill-opacity:1;fill-rule:evenodd;stroke:none"
             id="path174" /></g><g
           id="g176"
           transform="matrix(47.272727,0,0,-47.216667,0,2833)"><path
             d="m 11.350054,31.016189 -0.416284,2.5 h 0.832569 z"
             style="fill:#000000;fill-opacity:1;fill-rule:evenodd;stroke:#000000;stroke-width:0.13;stroke-linecap:round;stroke-linejoin:round;stroke-miterlimit:10;stroke-dasharray:none;stroke-opacity:1"
             id="path178" /><path
             d="m 34.975054,50.016189 h -24.875"
             style="fill:none;stroke:#000000;stroke-width:0.13;stroke-linecap:round;stroke-linejoin:round;stroke-miterlimit:10;stroke-dasharray:none;stroke-opacity:1"
             id="path180" /><path
             d="m 34.975054,31.016189 h -24.875"
             style="fill:none;stroke:#000000;stroke-width:0.13;stroke-linecap:round;stroke-linejoin:round;stroke-miterlimit:10;stroke-dasharray:none;stroke-opacity:1"
             id="path182" /><path
             d="m 18.600054,26.516189 h 34"
             style="fill:none;stroke:#000000;stroke-width:0.25;stroke-linecap:round;stroke-linejoin:round;stroke-miterlimit:10;stroke-dasharray:none;stroke-opacity:1"
             id="path184" /><path
             d="m 65.600054,31.016189 v 19"
             style="fill:none;stroke:#000000;stroke-width:0.25;stroke-linecap:round;stroke-linejoin:round;stroke-miterlimit:10;stroke-dasharray:none;stroke-opacity:1"
             id="path186" /><path
             d="m 18.600054,11.756189 h 34"
             style="fill:none;stroke:#000000;stroke-width:0.25;stroke-linecap:round;stroke-linejoin:round;stroke-miterlimit:10;stroke-dasharray:none;stroke-opacity:1"
             id="path188" /><path
             d="m 92.020054,31.016189 v 19"
             style="fill:none;stroke:#000000;stroke-width:0.25;stroke-linecap:round;stroke-linejoin:round;stroke-miterlimit:10;stroke-dasharray:none;stroke-opacity:1"
             id="path190" /><path
             d="m 18.600054,26.516189 v -14.76"
             style="fill:none;stroke:#000000;stroke-width:0.25;stroke-linecap:round;stroke-linejoin:round;stroke-miterlimit:10;stroke-dasharray:none;stroke-opacity:1"
             id="path192" /><path
             d="m 52.600054,26.516189 v -14.76"
             style="fill:none;stroke:#000000;stroke-width:0.25;stroke-linecap:round;stroke-linejoin:round;stroke-miterlimit:10;stroke-dasharray:none;stroke-opacity:1"
             id="path194" /><path
             d="m 65.600054,31.016189 h 26.42"
             style="fill:none;stroke:#000000;stroke-width:0.25;stroke-linecap:round;stroke-linejoin:round;stroke-miterlimit:10;stroke-dasharray:none;stroke-opacity:1"
             id="path196" /><path
             d="m 65.600054,50.016189 h 26.42"
             style="fill:none;stroke:#000000;stroke-width:0.25;stroke-linecap:round;stroke-linejoin:round;stroke-miterlimit:10;stroke-dasharray:none;stroke-opacity:1"
             id="path198" /></g><g
           id="g200"
           transform="matrix(1.1774029,0,0,1.1760066,3655.4004,102.95203)"><g
             id="g202"><text
               transform="translate(0,150)"
               style="font-variant:normal;font-weight:normal;font-size:140px;font-family:'Noto Sans';-inkscape-font-specification:NotoSans-Regular;writing-mode:lr-tb;fill:#000000;fill-opacity:1;fill-rule:nonzero;stroke:none"
               id="text206"><tspan
                 x="0 84.6875"
                 y="0"
                 sodipodi:role="line"
                 id="tspan204">b'</tspan></text></g></g><g
           id="g208"
           transform="matrix(47.272727,0,0,-47.216667,0,2833)"><path
             d="m 65.600054,53.516189 h 26.42"
             style="fill:none;stroke:#000000;stroke-width:0.13;stroke-linecap:round;stroke-linejoin:round;stroke-miterlimit:10;stroke-dasharray:none;stroke-opacity:1"
             id="path210" /></g><g
           id="g212"><path
             d="m 3101.0935,306.14393 118.1818,-19.65558 v 39.31115 z"
             style="fill:#000000;fill-opacity:1;fill-rule:evenodd;stroke:none"
             id="path214" /></g><g
           id="g216"
           transform="matrix(47.272727,0,0,-47.216667,0,2833)"><path
             d="m 65.600054,53.516189 2.5,0.416285 v -0.832569 z"
             style="fill:#000000;fill-opacity:1;fill-rule:evenodd;stroke:#000000;stroke-width:0.13;stroke-linecap:round;stroke-linejoin:round;stroke-miterlimit:10;stroke-dasharray:none;stroke-opacity:1"
             id="path218" /></g><g
           id="g220"><path
             d="M 4350.0389,306.14393 4231.8571,325.7995 V 286.48835 Z"
             style="fill:#000000;fill-opacity:1;fill-rule:evenodd;stroke:none"
             id="path222" /></g><g
           id="g224"
           transform="matrix(47.272727,0,0,-47.216667,0,2833)"><path
             d="m 92.020054,53.516189 -2.5,-0.416284 v 0.832569 z"
             style="fill:#000000;fill-opacity:1;fill-rule:evenodd;stroke:#000000;stroke-width:0.13;stroke-linecap:round;stroke-linejoin:round;stroke-miterlimit:10;stroke-dasharray:none;stroke-opacity:1"
             id="path226" /><path
             d="m 65.600054,50.641189 v 4.125"
             style="fill:none;stroke:#000000;stroke-width:0.13;stroke-linecap:round;stroke-linejoin:round;stroke-miterlimit:10;stroke-dasharray:none;stroke-opacity:1"
             id="path228" /><path
             d="m 92.020054,50.641189 v 4.125"
             style="fill:none;stroke:#000000;stroke-width:0.13;stroke-linecap:round;stroke-linejoin:round;stroke-miterlimit:10;stroke-dasharray:none;stroke-opacity:1"
             id="path230" /></g><g
           id="g232"
           transform="matrix(0,-1.1760066,1.1774029,0,333.94274,1999.7836)"><g
             id="g234"><text
               transform="translate(0,150)"
               style="font-variant:normal;font-weight:normal;font-size:140px;font-family:'Noto Sans';-inkscape-font-specification:NotoSans-Regular;writing-mode:lr-tb;fill:#000000;fill-opacity:1;fill-rule:nonzero;stroke:none"
               id="text238"><tspan
                 x="0 85.109375"
                 y="0"
                 sodipodi:role="line"
                 id="tspan236">h'</tspan></text></g></g><g
           id="g240"
           transform="matrix(47.272727,0,0,-47.216667,0,2833)"><path
             d="m 11.350054,26.516189 v -14.76"
             style="fill:none;stroke:#000000;stroke-width:0.13;stroke-linecap:round;stroke-linejoin:round;stroke-miterlimit:10;stroke-dasharray:none;stroke-opacity:1"
             id="path242" /></g><g
           id="g244"><path
             d="m 536.54803,1580.9939 19.67891,118.0417 h -39.35782 z"
             style="fill:#000000;fill-opacity:1;fill-rule:evenodd;stroke:none"
             id="path246" /></g><g
           id="g248"
           transform="matrix(47.272727,0,0,-47.216667,0,2833)"><path
             d="m 11.350054,26.516189 0.416285,-2.5 H 10.93377 Z"
             style="fill:#000000;fill-opacity:1;fill-rule:evenodd;stroke:#000000;stroke-width:0.13;stroke-linecap:round;stroke-linejoin:round;stroke-miterlimit:10;stroke-dasharray:none;stroke-opacity:1"
             id="path250" /></g><g
           id="g252"><path
             d="m 536.54803,2277.9119 -19.67891,-118.0416 h 39.35782 z"
             style="fill:#000000;fill-opacity:1;fill-rule:evenodd;stroke:none"
             id="path254" /></g><g
           id="g256"
           transform="matrix(47.272727,0,0,-47.216667,0,2833)"><path
             d="m 11.350054,11.756189 -0.416284,2.5 h 0.832569 z"
             style="fill:#000000;fill-opacity:1;fill-rule:evenodd;stroke:#000000;stroke-width:0.13;stroke-linecap:round;stroke-linejoin:round;stroke-miterlimit:10;stroke-dasharray:none;stroke-opacity:1"
             id="path258" /><path
             d="m 17.975054,26.516189 h -7.875"
             style="fill:none;stroke:#000000;stroke-width:0.13;stroke-linecap:round;stroke-linejoin:round;stroke-miterlimit:10;stroke-dasharray:none;stroke-opacity:1"
             id="path260" /><path
             d="m 17.975054,11.756189 h -7.875"
             style="fill:none;stroke:#000000;stroke-width:0.13;stroke-linecap:round;stroke-linejoin:round;stroke-miterlimit:10;stroke-dasharray:none;stroke-opacity:1"
             id="path262" /><path
             d="m 63.825054,10.766189 h 29.97"
             style="fill:none;stroke:#000000;stroke-width:0.25;stroke-linecap:round;stroke-linejoin:round;stroke-miterlimit:10;stroke-dasharray:none;stroke-opacity:1"
             id="path264" /><path
             d="m 93.795054,10.766189 v 16.74"
             style="fill:none;stroke:#000000;stroke-width:0.25;stroke-linecap:round;stroke-linejoin:round;stroke-miterlimit:10;stroke-dasharray:none;stroke-opacity:1"
             id="path266" /><path
             d="m 93.795054,27.506189 h -29.97"
             style="fill:none;stroke:#000000;stroke-width:0.25;stroke-linecap:round;stroke-linejoin:round;stroke-miterlimit:10;stroke-dasharray:none;stroke-opacity:1"
             id="path268" /><path
             d="m 63.825054,27.506189 v -16.74"
             style="fill:none;stroke:#000000;stroke-width:0.25;stroke-linecap:round;stroke-linejoin:round;stroke-miterlimit:10;stroke-dasharray:none;stroke-opacity:1"
             id="path270" /></g><g
           id="g272"
           transform="matrix(1.1774029,0,0,1.1760066,3636.8563,2416.5687)"><g
             id="g274"><text
               transform="translate(0,150)"
               style="font-variant:normal;font-weight:normal;font-size:140px;font-family:'Noto Sans';-inkscape-font-specification:NotoSans-Regular;writing-mode:lr-tb;fill:#000000;fill-opacity:1;fill-rule:nonzero;stroke:none"
               id="text278"><tspan
                 x="0 84.6875 116.1875"
                 y="0"
                 sodipodi:role="line"
                 id="tspan276">b''</tspan></text></g></g><g
           id="g280"
           transform="matrix(47.272727,0,0,-47.216667,0,2833)"><path
             d="m 63.825054,4.5161893 h 29.97"
             style="fill:none;stroke:#000000;stroke-width:0.13;stroke-linecap:round;stroke-linejoin:round;stroke-miterlimit:10;stroke-dasharray:none;stroke-opacity:1"
             id="path282" /></g><g
           id="g284"><path
             d="m 3017.1844,2619.7606 118.1818,-19.6556 v 39.3112 z"
             style="fill:#000000;fill-opacity:1;fill-rule:evenodd;stroke:none"
             id="path286" /></g><g
           id="g288"
           transform="matrix(47.272727,0,0,-47.216667,0,2833)"><path
             d="m 63.825054,4.5161893 2.5,0.4162846 V 4.0999046 Z"
             style="fill:#000000;fill-opacity:1;fill-rule:evenodd;stroke:#000000;stroke-width:0.13;stroke-linecap:round;stroke-linejoin:round;stroke-miterlimit:10;stroke-dasharray:none;stroke-opacity:1"
             id="path290" /></g><g
           id="g292"><path
             d="m 4433.948,2619.7606 -118.1818,19.6556 v -39.3112 z"
             style="fill:#000000;fill-opacity:1;fill-rule:evenodd;stroke:none"
             id="path294" /></g><g
           id="g296"
           transform="matrix(47.272727,0,0,-47.216667,0,2833)"><path
             d="m 93.795054,4.5161893 -2.5,-0.4162847 v 0.8325693 z"
             style="fill:#000000;fill-opacity:1;fill-rule:evenodd;stroke:#000000;stroke-width:0.13;stroke-linecap:round;stroke-linejoin:round;stroke-miterlimit:10;stroke-dasharray:none;stroke-opacity:1"
             id="path298" /><path
             d="M 63.825054,10.141189 V 3.2661893"
             style="fill:none;stroke:#000000;stroke-width:0.13;stroke-linecap:round;stroke-linejoin:round;stroke-miterlimit:10;stroke-dasharray:none;stroke-opacity:1"
             id="path300" /><path
             d="M 93.795054,10.141189 V 3.2661893"
             style="fill:none;stroke:#000000;stroke-width:0.13;stroke-linecap:round;stroke-linejoin:round;stroke-miterlimit:10;stroke-dasharray:none;stroke-opacity:1"
             id="path302" /></g><g
           id="g304"
           transform="matrix(0,-1.1760066,1.1774029,0,4553.0336,2018.3057)"><g
             id="g306"><text
               transform="translate(0,150)"
               style="font-variant:normal;font-weight:normal;font-size:140px;font-family:'Noto Sans';-inkscape-font-specification:NotoSans-Regular;writing-mode:lr-tb;fill:#000000;fill-opacity:1;fill-rule:nonzero;stroke:none"
               id="text310"><tspan
                 x="0 85.109375 116.60938"
                 y="0"
                 sodipodi:role="line"
                 id="tspan308">h''</tspan></text></g></g><g
           id="g312"
           transform="matrix(47.272727,0,0,-47.216667,0,2833)"><path
             d="m 100.60005,27.506189 v -16.74"
             style="fill:none;stroke:#000000;stroke-width:0.13;stroke-linecap:round;stroke-linejoin:round;stroke-miterlimit:10;stroke-dasharray:none;stroke-opacity:1"
             id="path314" /></g><g
           id="g316"><path
             d="m 4755.6389,1534.2494 19.6789,118.0417 H 4735.96 Z"
             style="fill:#000000;fill-opacity:1;fill-rule:evenodd;stroke:none"
             id="path318" /></g><g
           id="g320"
           transform="matrix(47.272727,0,0,-47.216667,0,2833)"><path
             d="m 100.60005,27.506189 0.41629,-2.5 h -0.83257 z"
             style="fill:#000000;fill-opacity:1;fill-rule:evenodd;stroke:#000000;stroke-width:0.13;stroke-linecap:round;stroke-linejoin:round;stroke-miterlimit:10;stroke-dasharray:none;stroke-opacity:1"
             id="path322" /></g><g
           id="g324"><path
             d="M 4755.6389,2324.6564 4735.96,2206.6148 h 39.3578 z"
             style="fill:#000000;fill-opacity:1;fill-rule:evenodd;stroke:none"
             id="path326" /></g><g
           id="g328"
           transform="matrix(47.272727,0,0,-47.216667,0,2833)"><path
             d="m 100.60005,10.766189 -0.41628,2.5 h 0.83257 z"
             style="fill:#000000;fill-opacity:1;fill-rule:evenodd;stroke:#000000;stroke-width:0.13;stroke-linecap:round;stroke-linejoin:round;stroke-miterlimit:10;stroke-dasharray:none;stroke-opacity:1"
             id="path330" /><path
             d="m 94.420054,27.506189 h 7.429996"
             style="fill:none;stroke:#000000;stroke-width:0.13;stroke-linecap:round;stroke-linejoin:round;stroke-miterlimit:10;stroke-dasharray:none;stroke-opacity:1"
             id="path332" /><path
             d="m 94.420054,10.766189 h 7.429996"
             style="fill:none;stroke:#000000;stroke-width:0.13;stroke-linecap:round;stroke-linejoin:round;stroke-miterlimit:10;stroke-dasharray:none;stroke-opacity:1"
             id="path334" /></g></g></g></g></svg>
