999
dxflib 3.26.4.0
  0
SECTION
  2
HEADER
  9
$ACADVER
  1
AC1015
  9
$HANDSEED
  5
FFFF
  9
$DIMADEC
 70
0
  9
$DIMASZ
 40
2.0
  9
$DIMATFIT
 70
0
  9
$DIMAUNIT
 70
0
  9
$DIMAZIN
 70
2
  9
$DIMBLK
  1
0
  9
$DIMBLK1
  1
0
  9
$DIMBLK2
  1
0
  9
$DIMDEC
 70
4
  9
$DIMDLI
 40
4.0
  9
$DIMDSEP
 70
46
  9
$DIMEXE
 40
1.0
  9
$DIMEXO
 40
0.5
  9
$DIMGAP
 40
0.5
  9
$DIMLFAC
 40
1.0
  9
$DIMLUNIT
 70
2
  9
$DIMSCALE
 40
1.0
  9
$DIMTAD
 70
1
  9
$DIMTIH
 70
0
  9
$DIMTSZ
 40
0.0
  9
$DIMTXT
 40
2.0
  9
$DIMZIN
 70
8
  9
$DWGCODEPAGE
  3
ANSI_1252
  9
$INSUNITS
 70
4
  9
$LTSCALE
 40
1.0
  9
$MAXACTVP
 70
64
  9
$MEASUREMENT
 70
1
  9
$MIRRTEXT
 70
0
  9
$PDMODE
 70
0
  9
$PDSIZE
 40
0.0
  0
ENDSEC
  0
SECTION
  2
TABLES
  0
TABLE
  2
VPORT
  5
8
100
AcDbSymbolTable
 70
1
  0
VPORT
  5
30
100
AcDbSymbolTableRecord
100
AcDbViewportTableRecord
  2
*Active
 70
0
 10
0.0
 20
0.0
 11
1.0
 21
1.0
 12
286.3055555555554861
 22
148.5
 13
0.0
 23
0.0
 14
10.0
 24
10.0
 15
10.0
 25
10.0
 16
0.0
 26
0.0
 36
1.0
 17
0.0
 27
0.0
 37
0.0
 40
297.0
 41
1.92798353909465
 42
50.0
 43
0.0
 44
0.0
 50
0.0
 51
0.0
 71
0
 72
100
 73
1
 74
3
 75
1
 76
1
 77
0
 78
0
281
0
 65
1
110
0.0
120
0.0
130
0.0
111
1.0
121
0.0
131
0.0
112
0.0
122
1.0
132
0.0
 79
0
146
0.0
  0
ENDTAB
  0
TABLE
  2
LTYPE
  5
5
100
AcDbSymbolTable
 70
41
  0
LTYPE
  5
16
100
AcDbSymbolTableRecord
100
AcDbLinetypeTableRecord
  2
Continuous
 70
0
  3
Solid line
 72
65
 73
0
 40
0.0
  0
LTYPE
  5
31
100
AcDbSymbolTableRecord
100
AcDbLinetypeTableRecord
  2
PHANTOMX2
 70
0
  3
Phantom (2x) ____________    ____    ____   _
 72
65
 73
6
 40
127.0000000000000142
 49
63.5
 74
0
 49
-12.6999999999999993
 74
0
 49
12.6999999999999993
 74
0
 49
-12.6999999999999993
 74
0
 49
12.6999999999999993
 74
0
 49
-12.6999999999999993
 74
0
  0
LTYPE
  5
32
100
AcDbSymbolTableRecord
100
AcDbLinetypeTableRecord
  2
CENTER2
 70
0
  3
Center (.5x) ___ _ ___ _ ___ _ ___ _ ___ _ ___
 72
65
 73
4
 40
28.5750000000000028
 49
19.0500000000000007
 74
0
 49
-3.1749999999999998
 74
0
 49
3.1749999999999998
 74
0
 49
-3.1749999999999998
 74
0
  0
LTYPE
  5
33
100
AcDbSymbolTableRecord
100
AcDbLinetypeTableRecord
  2
CENTERX2
 70
0
  3
Center (2x) ________  __  ________  __  _____
 72
65
 73
4
 40
101.6000000000000085
 49
63.5
 74
0
 49
-12.6999999999999993
 74
0
 49
12.6999999999999993
 74
0
 49
-12.6999999999999993
 74
0
  0
LTYPE
  5
34
100
AcDbSymbolTableRecord
100
AcDbLinetypeTableRecord
  2
ACAD_ISO05W100
 70
0
  3
ISO long-dash double-dot ____ .. ____ .. ____ . 
 72
65
 73
6
 40
33.0000000000000071
 49
24.0
 74
0
 49
-2.9500000000000002
 74
0
 49
0.1
 74
0
 49
-2.9000000000000004
 74
0
 49
0.1
 74
0
 49
-2.9500000000000002
 74
0
  0
LTYPE
  5
35
100
AcDbSymbolTableRecord
100
AcDbLinetypeTableRecord
  2
DASHDOTX2
 70
0
  3
Dash dot (2x) ____  .  ____  .  ____  .  ___
 72
65
 73
4
 40
50.7999999999999972
 49
25.3999999999999986
 74
0
 49
-12.6499999999999986
 74
0
 49
0.1
 74
0
 49
-12.6499999999999986
 74
0
  0
LTYPE
  5
36
100
AcDbSymbolTableRecord
100
AcDbLinetypeTableRecord
  2
BORDERX2
 70
0
  3
Border (2x) ____  ____  .  ____  ____  .  ___
 72
65
 73
6
 40
88.8999999999999773
 49
25.3999999999999986
 74
0
 49
-12.6999999999999993
 74
0
 49
25.3999999999999986
 74
0
 49
-12.6499999999999986
 74
0
 49
0.1
 74
0
 49
-12.6499999999999986
 74
0
  0
LTYPE
  5
37
100
AcDbSymbolTableRecord
100
AcDbLinetypeTableRecord
  2
HIDDEN
 70
0
  3
Hidden __ __ __ __ __ __ __ __ __ __ __ __ __ __
 72
65
 73
2
 40
9.5249999999999986
 49
6.3499999999999996
 74
0
 49
-3.1749999999999998
 74
0
  0
LTYPE
  5
38
100
AcDbSymbolTableRecord
100
AcDbLinetypeTableRecord
  2
DASHDOT
 70
0
  3
Dash dot __ . __ . __ . __ . __ . __ . __ . __
 72
65
 73
4
 40
25.4000000000000021
 49
12.6999999999999993
 74
0
 49
-6.2999999999999998
 74
0
 49
0.1
 74
0
 49
-6.2999999999999998
 74
0
  0
LTYPE
  5
39
100
AcDbSymbolTableRecord
100
AcDbLinetypeTableRecord
  2
ACAD_ISO11W100
 70
0
  3
ISO double-dash dot __ __ . __ __ . __ __ . __ _
 72
65
 73
6
 40
33.0
 49
12.0
 74
0
 49
-3.0
 74
0
 49
12.0
 74
0
 49
-2.9500000000000002
 74
0
 49
0.1
 74
0
 49
-2.9500000000000002
 74
0
  0
LTYPE
  5
3A
100
AcDbSymbolTableRecord
100
AcDbLinetypeTableRecord
  2
ACAD_ISO15W100
 70
0
  3
ISO double-dash triple-dot __ __ . . . __ __ . .
 72
65
 73
10
 40
39.0000000000000071
 49
12.0
 74
0
 49
-3.0
 74
0
 49
12.0
 74
0
 49
-2.9500000000000002
 74
0
 49
0.1
 74
0
 49
-2.9000000000000004
 74
0
 49
0.1
 74
0
 49
-2.9000000000000004
 74
0
 49
0.1
 74
0
 49
-2.9500000000000002
 74
0
  0
LTYPE
  5
15
100
AcDbSymbolTableRecord
100
AcDbLinetypeTableRecord
  2
BYLAYER
 70
0
  3

 72
65
 73
0
 40
0.0
  0
LTYPE
  5
3B
100
AcDbSymbolTableRecord
100
AcDbLinetypeTableRecord
  2
DOTX2
 70
0
  3
Dot (2x) .  .  .  .  .  .  .  .  .  .  .  .  .  .
 72
65
 73
2
 40
12.6999999999999993
 49
0.1
 74
0
 49
-12.5999999999999996
 74
0
  0
LTYPE
  5
3C
100
AcDbSymbolTableRecord
100
AcDbLinetypeTableRecord
  2
PHANTOM2
 70
0
  3
Phantom (.5x) ___ _ _ ___ _ _ ___ _ _ ___ _ _
 72
65
 73
6
 40
31.7500000000000036
 49
15.875
 74
0
 49
-3.1749999999999998
 74
0
 49
3.1749999999999998
 74
0
 49
-3.1749999999999998
 74
0
 49
3.1749999999999998
 74
0
 49
-3.1749999999999998
 74
0
  0
LTYPE
  5
3D
100
AcDbSymbolTableRecord
100
AcDbLinetypeTableRecord
  2
ACAD_ISO10W100
 70
0
  3
ISO dash dot __ . __ . __ . __ . __ . __ . __ . 
 72
65
 73
4
 40
18.0
 49
12.0
 74
0
 49
-2.9500000000000002
 74
0
 49
0.1
 74
0
 49
-2.9500000000000002
 74
0
  0
LTYPE
  5
3E
100
AcDbSymbolTableRecord
100
AcDbLinetypeTableRecord
  2
DASHDOT2
 70
0
  3
Dash dot (.5x) _._._._._._._._._._._._._._._.
 72
65
 73
4
 40
12.6999999999999993
 49
6.3499999999999996
 74
0
 49
-3.125
 74
0
 49
0.1
 74
0
 49
-3.125
 74
0
  0
LTYPE
  5
3F
100
AcDbSymbolTableRecord
100
AcDbLinetypeTableRecord
  2
DASHEDX2
 70
0
  3
Dashed (2x) ____  ____  ____  ____  ____  ___
 72
65
 73
2
 40
38.0999999999999943
 49
25.3999999999999986
 74
0
 49
-12.6999999999999993
 74
0
  0
LTYPE
  5
40
100
AcDbSymbolTableRecord
100
AcDbLinetypeTableRecord
  2
ACAD_ISO13W100
 70
0
  3
ISO double-dash double-dot __ __ . . __ __ . . _
 72
65
 73
8
 40
36.0000000000000071
 49
12.0
 74
0
 49
-3.0
 74
0
 49
12.0
 74
0
 49
-2.9500000000000002
 74
0
 49
0.1
 74
0
 49
-2.9000000000000004
 74
0
 49
0.1
 74
0
 49
-2.9500000000000002
 74
0
  0
LTYPE
  5
41
100
AcDbSymbolTableRecord
100
AcDbLinetypeTableRecord
  2
ACAD_ISO14W100
 70
0
  3
ISO dash triple-dot __ . . . __ . . . __ . . . _
 72
65
 73
8
 40
24.0000000000000036
 49
12.0
 74
0
 49
-2.9500000000000002
 74
0
 49
0.1
 74
0
 49
-2.9000000000000004
 74
0
 49
0.1
 74
0
 49
-2.9000000000000004
 74
0
 49
0.1
 74
0
 49
-2.9500000000000002
 74
0
  0
LTYPE
  5
42
100
AcDbSymbolTableRecord
100
AcDbLinetypeTableRecord
  2
BORDER2
 70
0
  3
Border (.5x) __.__.__.__.__.__.__.__.__.__.__.
 72
65
 73
6
 40
22.2250000000000014
 49
6.3499999999999996
 74
0
 49
-3.1749999999999998
 74
0
 49
6.3499999999999996
 74
0
 49
-3.125
 74
0
 49
0.1
 74
0
 49
-3.125
 74
0
  0
LTYPE
  5
43
100
AcDbSymbolTableRecord
100
AcDbLinetypeTableRecord
  2
DIVIDEX2
 70
0
  3
Divide (2x) ________  .  .  ________  .  .  _
 72
65
 73
6
 40
63.5
 49
25.3999999999999986
 74
0
 49
-12.6499999999999986
 74
0
 49
0.1
 74
0
 49
-12.5999999999999979
 74
0
 49
0.1
 74
0
 49
-12.6499999999999986
 74
0
  0
LTYPE
  5
44
100
AcDbSymbolTableRecord
100
AcDbLinetypeTableRecord
  2
ACAD_ISO02W100
 70
0
  3
ISO dash __ __ __ __ __ __ __ __ __ __ __ __ __
 72
65
 73
2
 40
15.0
 49
12.0
 74
0
 49
-3.0
 74
0
  0
LTYPE
  5
45
100
AcDbSymbolTableRecord
100
AcDbLinetypeTableRecord
  2
DASHED
 70
0
  3
Dashed __ __ __ __ __ __ __ __ __ __ __ __ __ _
 72
65
 73
2
 40
19.0499999999999972
 49
12.6999999999999993
 74
0
 49
-6.3499999999999996
 74
0
  0
LTYPE
  5
46
100
AcDbSymbolTableRecord
100
AcDbLinetypeTableRecord
  2
DIVIDE2
 70
0
  3
Divide (.5x) __..__..__..__..__..__..__..__.._
 72
65
 73
6
 40
15.8749999999999982
 49
6.3499999999999996
 74
0
 49
-3.125
 74
0
 49
0.1
 74
0
 49
-3.0750000000000002
 74
0
 49
0.1
 74
0
 49
-3.125
 74
0
  0
LTYPE
  5
47
100
AcDbSymbolTableRecord
100
AcDbLinetypeTableRecord
  2
DOT2
 70
0
  3
Dot (.5x) ........................................
 72
65
 73
2
 40
3.1749999999999998
 49
0.1
 74
0
 49
-3.0749999999999997
 74
0
  0
LTYPE
  5
14
100
AcDbSymbolTableRecord
100
AcDbLinetypeTableRecord
  2
BYBLOCK
 70
0
  3

 72
65
 73
0
 40
0.0
  0
LTYPE
  5
48
100
AcDbSymbolTableRecord
100
AcDbLinetypeTableRecord
  2
HIDDENX2
 70
0
  3
Hidden (2x) ____ ____ ____ ____ ____ ____ ____ 
 72
65
 73
2
 40
19.0499999999999972
 49
12.6999999999999993
 74
0
 49
-6.3499999999999996
 74
0
  0
LTYPE
  5
49
100
AcDbSymbolTableRecord
100
AcDbLinetypeTableRecord
  2
ACAD_ISO04W100
 70
0
  3
ISO long-dash dot ____ . ____ . ____ . ____ . _
 72
65
 73
4
 40
30.0
 49
24.0
 74
0
 49
-2.9500000000000002
 74
0
 49
0.1
 74
0
 49
-2.9500000000000002
 74
0
  0
LTYPE
  5
4A
100
AcDbSymbolTableRecord
100
AcDbLinetypeTableRecord
  2
ACAD_ISO12W100
 70
0
  3
ISO dash double-dot __ . . __ . . __ . . __ . . 
 72
65
 73
6
 40
21.0
 49
12.0
 74
0
 49
-2.9500000000000002
 74
0
 49
0.1
 74
0
 49
-2.9000000000000004
 74
0
 49
0.1
 74
0
 49
-2.9500000000000002
 74
0
  0
LTYPE
  5
4B
100
AcDbSymbolTableRecord
100
AcDbLinetypeTableRecord
  2
ACAD_ISO03W100
 70
0
  3
ISO dash space __    __    __    __    __    __
 72
65
 73
2
 40
30.0
 49
12.0
 74
0
 49
-18.0
 74
0
  0
LTYPE
  5
4C
100
AcDbSymbolTableRecord
100
AcDbLinetypeTableRecord
  2
DIVIDE
 70
0
  3
Divide ____ . . ____ . . ____ . . ____ . . ____
 72
65
 73
6
 40
31.7500000000000036
 49
12.6999999999999993
 74
0
 49
-6.2999999999999998
 74
0
 49
0.1
 74
0
 49
-6.25
 74
0
 49
0.1
 74
0
 49
-6.2999999999999998
 74
0
  0
LTYPE
  5
4D
100
AcDbSymbolTableRecord
100
AcDbLinetypeTableRecord
  2
DOT
 70
0
  3
Dot . . . . . . . . . . . . . . . . . . . . . . . .
 72
65
 73
2
 40
6.3499999999999996
 49
0.1
 74
0
 49
-6.25
 74
0
  0
LTYPE
  5
4E
100
AcDbSymbolTableRecord
100
AcDbLinetypeTableRecord
  2
DASHED2
 70
0
  3
Dashed (.5x) _ _ _ _ _ _ _ _ _ _ _ _ _ _ _ _ _ 
 72
65
 73
2
 40
9.5249999999999986
 49
6.3499999999999996
 74
0
 49
-3.1749999999999998
 74
0
  0
LTYPE
  5
4F
100
AcDbSymbolTableRecord
100
AcDbLinetypeTableRecord
  2
CENTER
 70
0
  3
Center ____ _ ____ _ ____ _ ____ _ ____ _ ____
 72
65
 73
4
 40
50.8000000000000043
 49
31.75
 74
0
 49
-6.3499999999999996
 74
0
 49
6.3499999999999996
 74
0
 49
-6.3499999999999996
 74
0
  0
LTYPE
  5
50
100
AcDbSymbolTableRecord
100
AcDbLinetypeTableRecord
  2
PHANTOM
 70
0
  3
Phantom ______  __  __  ______  __  __  ______ 
 72
65
 73
6
 40
63.5000000000000071
 49
31.75
 74
0
 49
-6.3499999999999996
 74
0
 49
6.3499999999999996
 74
0
 49
-6.3499999999999996
 74
0
 49
6.3499999999999996
 74
0
 49
-6.3499999999999996
 74
0
  0
LTYPE
  5
51
100
AcDbSymbolTableRecord
100
AcDbLinetypeTableRecord
  2
ACAD_ISO06W100
 70
0
  3
ISO long-dash triple-dot ____ ... ____ ... ____
 72
65
 73
8
 40
36.0000000000000071
 49
24.0
 74
0
 49
-2.9500000000000002
 74
0
 49
0.1
 74
0
 49
-2.9000000000000004
 74
0
 49
0.1
 74
0
 49
-2.9000000000000004
 74
0
 49
0.1
 74
0
 49
-2.9500000000000002
 74
0
  0
LTYPE
  5
52
100
AcDbSymbolTableRecord
100
AcDbLinetypeTableRecord
  2
ACAD_ISO07W100
 70
0
  3
ISO dot . . . . . . . . . . . . . . . . . . . . 
 72
65
 73
2
 40
3.0
 49
0.1
 74
0
 49
-2.8999999999999999
 74
0
  0
LTYPE
  5
53
100
AcDbSymbolTableRecord
100
AcDbLinetypeTableRecord
  2
ACAD_ISO08W100
 70
0
  3
ISO long-dash short-dash ____ __ ____ __ ____ _
 72
65
 73
4
 40
36.0
 49
24.0
 74
0
 49
-3.0
 74
0
 49
6.0
 74
0
 49
-3.0
 74
0
  0
LTYPE
  5
54
100
AcDbSymbolTableRecord
100
AcDbLinetypeTableRecord
  2
HIDDEN2
 70
0
  3
Hidden (.5x) _ _ _ _ _ _ _ _ _ _ _ _ _ _ _ _ _ 
 72
65
 73
2
 40
4.7624999999999993
 49
3.1749999999999998
 74
0
 49
-1.5874999999999999
 74
0
  0
LTYPE
  5
55
100
AcDbSymbolTableRecord
100
AcDbLinetypeTableRecord
  2
BORDER
 70
0
  3
Border __ __ . __ __ . __ __ . __ __ . __ __ .
 72
65
 73
6
 40
44.4499999999999957
 49
12.6999999999999993
 74
0
 49
-6.3499999999999996
 74
0
 49
12.6999999999999993
 74
0
 49
-6.2999999999999998
 74
0
 49
0.1
 74
0
 49
-6.2999999999999998
 74
0
  0
LTYPE
  5
56
100
AcDbSymbolTableRecord
100
AcDbLinetypeTableRecord
  2
ACAD_ISO09W100
 70
0
  3
ISO long-dash double-short-dash ____ __ __ ____
 72
65
 73
6
 40
45.0
 49
24.0
 74
0
 49
-3.0
 74
0
 49
6.0
 74
0
 49
-3.0
 74
0
 49
6.0
 74
0
 49
-3.0
 74
0
  0
ENDTAB
  0
TABLE
  2
LAYER
  5
2
100
AcDbSymbolTable
 70
5
  0
LAYER
  5
57
100
AcDbSymbolTableRecord
100
AcDbLayerTableRecord
  2
strichpunkt
 70
0
 62
7
420
0
  6
ACAD_ISO10W100
370
13
390
F
  0
LAYER
  5
10
100
AcDbSymbolTableRecord
100
AcDbLayerTableRecord
  2
0
 70
0
 62
7
420
0
  6
Continuous
370
25
390
F
  0
LAYER
  5
58
100
AcDbSymbolTableRecord
100
AcDbLayerTableRecord
  2
mass
 70
0
 62
7
420
0
  6
Continuous
370
13
390
F
  0
LAYER
  5
59
100
AcDbSymbolTableRecord
100
AcDbLayerTableRecord
  2
punkte
 70
0
 62
94
420
32768
  6
Continuous
370
25
390
F
  0
LAYER
  5
5A
100
AcDbSymbolTableRecord
100
AcDbLayerTableRecord
  2
koord
 70
0
 62
1
420
16711680
  6
Continuous
370
13
390
F
  0
ENDTAB
  0
TABLE
  2
STYLE
  5
3
100
AcDbSymbolTable
 70
17
  0
STYLE
  5
5B
100
AcDbSymbolTableRecord
100
AcDbTextStyleTableRecord
  2
Standard
 70
0
 40
0.0
 41
1.0
 50
0.0
 71
0
 42
2.5
  3

  4

1001
ACAD
1000
txt
1071
0
  0
STYLE
  5
5C
100
AcDbSymbolTableRecord
100
AcDbTextStyleTableRecord
  2
textstyle0
 70
0
 40
0.0
 41
1.0
 50
0.0
 71
0
 42
2.0
  3

  4

1001
ACAD
1000
Nimbus Sans [UKWN]
1071
0
  0
STYLE
  5
5D
100
AcDbSymbolTableRecord
100
AcDbTextStyleTableRecord
  2
textstyle1
 70
0
 40
0.0
 41
1.0
 50
0.0
 71
0
 42
2.0
  3

  4

1001
ACAD
1000
Nimbus Sans [UKWN]
1071
0
  0
STYLE
  5
5E
100
AcDbSymbolTableRecord
100
AcDbTextStyleTableRecord
  2
textstyle2
 70
0
 40
0.0
 41
1.0
 50
0.0
 71
0
 42
2.0
  3

  4

1001
ACAD
1000
Nimbus Sans [UKWN]
1071
0
  0
STYLE
  5
5F
100
AcDbSymbolTableRecord
100
AcDbTextStyleTableRecord
  2
textstyle3
 70
0
 40
0.0
 41
1.0
 50
0.0
 71
0
 42
2.0
  3

  4

1001
ACAD
1000
Nimbus Sans [UKWN]
1071
0
  0
STYLE
  5
60
100
AcDbSymbolTableRecord
100
AcDbTextStyleTableRecord
  2
textstyle4
 70
0
 40
0.0
 41
1.0
 50
0.0
 71
0
 42
2.0
  3

  4

1001
ACAD
1000
Nimbus Sans [UKWN]
1071
0
  0
STYLE
  5
61
100
AcDbSymbolTableRecord
100
AcDbTextStyleTableRecord
  2
textstyle5
 70
0
 40
0.0
 41
1.0
 50
0.0
 71
0
 42
2.0
  3

  4

1001
ACAD
1000
Nimbus Sans [UKWN]
1071
0
  0
STYLE
  5
62
100
AcDbSymbolTableRecord
100
AcDbTextStyleTableRecord
  2
textstyle6
 70
0
 40
0.0
 41
1.0
 50
0.0
 71
0
 42
2.0
  3

  4

1001
ACAD
1000
Nimbus Sans [UKWN]
1071
0
  0
STYLE
  5
63
100
AcDbSymbolTableRecord
100
AcDbTextStyleTableRecord
  2
textstyle7
 70
0
 40
0.0
 41
1.0
 50
0.0
 71
0
 42
2.0
  3

  4

1001
ACAD
1000
Nimbus Sans [UKWN]
1071
0
  0
STYLE
  5
64
100
AcDbSymbolTableRecord
100
AcDbTextStyleTableRecord
  2
textstyle8
 70
0
 40
0.0
 41
1.0
 50
0.0
 71
0
 42
2.0
  3

  4

1001
ACAD
1000
Nimbus Sans [UKWN]
1071
0
  0
STYLE
  5
65
100
AcDbSymbolTableRecord
100
AcDbTextStyleTableRecord
  2
textstyle9
 70
0
 40
0.0
 41
1.0
 50
0.0
 71
0
 42
2.0
  3

  4

1001
ACAD
1000
Nimbus Sans [UKWN]
1071
0
  0
STYLE
  5
66
100
AcDbSymbolTableRecord
100
AcDbTextStyleTableRecord
  2
textstyle10
 70
0
 40
0.0
 41
1.0
 50
0.0
 71
0
 42
2.0
  3

  4

1001
ACAD
1000
Nimbus Sans [UKWN]
1071
0
  0
STYLE
  5
67
100
AcDbSymbolTableRecord
100
AcDbTextStyleTableRecord
  2
textstyle11
 70
0
 40
0.0
 41
1.0
 50
0.0
 71
0
 42
2.0
  3

  4

1001
ACAD
1000
Nimbus Sans [UKWN]
1071
0
  0
STYLE
  5
68
100
AcDbSymbolTableRecord
100
AcDbTextStyleTableRecord
  2
textstyle12
 70
0
 40
0.0
 41
1.0
 50
0.0
 71
0
 42
2.0
  3

  4

1001
ACAD
1000
Nimbus Sans [UKWN]
1071
0
  0
STYLE
  5
69
100
AcDbSymbolTableRecord
100
AcDbTextStyleTableRecord
  2
textstyle13
 70
0
 40
0.0
 41
1.0
 50
0.0
 71
0
 42
2.0
  3

  4

1001
ACAD
1000
Nimbus Sans [UKWN]
1071
0
  0
STYLE
  5
6A
100
AcDbSymbolTableRecord
100
AcDbTextStyleTableRecord
  2
textstyle14
 70
0
 40
0.0
 41
1.0
 50
0.0
 71
0
 42
2.0
  3

  4

1001
ACAD
1000
Nimbus Sans [UKWN]
1071
0
  0
STYLE
  5
6B
100
AcDbSymbolTableRecord
100
AcDbTextStyleTableRecord
  2
textstyle15
 70
0
 40
0.0
 41
1.0
 50
0.0
 71
0
 42
2.0
  3

  4

1001
ACAD
1000
Nimbus Sans [UKWN]
1071
0
  0
ENDTAB
  0
TABLE
  2
VIEW
  5
6
100
AcDbSymbolTable
 70
0
  0
ENDTAB
  0
TABLE
  2
UCS
  5
7
100
AcDbSymbolTable
 70
0
  0
ENDTAB
  0
TABLE
  2
APPID
  5
9
100
AcDbSymbolTable
 70
1
  0
APPID
  5
12
100
AcDbSymbolTableRecord
100
AcDbRegAppTableRecord
  2
ACAD
 70
0
  0
APPID
  5
6C
100
AcDbSymbolTableRecord
100
AcDbRegAppTableRecord
  2
QCAD
 70
0
  0
ENDTAB
  0
TABLE
  2
DIMSTYLE
  5
A
100
AcDbSymbolTable
 70
1
100
AcDbDimStyleTable
 71
0
  0
DIMSTYLE
105
27
100
AcDbSymbolTableRecord
100
AcDbDimStyleTableRecord
  2
Standard
 41
2.0
 42
0.5
 43
3.75
 44
1.0
 70
0
 73
0
 74
0
 77
1
 78
8
140
2.0
141
2.5
143
0.03937007874016
147
0.5
171
3
172
1
271
2
272
2
274
3
278
44
283
0
284
8
340
5B
  0
ENDTAB
  0
TABLE
  2
BLOCK_RECORD
  5
1
100
AcDbSymbolTable
 70
1
  0
BLOCK_RECORD
  5
1F
100
AcDbSymbolTableRecord
100
AcDbBlockTableRecord
  2
*Model_Space
340
22
  0
BLOCK_RECORD
  5
1B
100
AcDbSymbolTableRecord
100
AcDbBlockTableRecord
  2
*Paper_Space
340
1E
  0
BLOCK_RECORD
  5
23
100
AcDbSymbolTableRecord
100
AcDbBlockTableRecord
  2
*Paper_Space0
340
26
  0
ENDTAB
  0
ENDSEC
  0
SECTION
  2
BLOCKS
  0
BLOCK
  5
20
100
AcDbEntity
  8
0
100
AcDbBlockBegin
  2
*Model_Space
 70
0
 10
0.0
 20
0.0
 30
0.0
  3
*Model_Space
  1

  0
ENDBLK
  5
21
100
AcDbEntity
  8
0
100
AcDbBlockEnd
  0
BLOCK
  5
1C
100
AcDbEntity
 67
1
  8
0
100
AcDbBlockBegin
  2
*Paper_Space
 70
0
 10
0.0
 20
0.0
 30
0.0
  3
*Paper_Space
  1

  0
ENDBLK
  5
1D
100
AcDbEntity
 67
1
  8
0
100
AcDbBlockEnd
  0
BLOCK
  5
24
100
AcDbEntity
  8
0
100
AcDbBlockBegin
  2
*Paper_Space0
 70
0
 10
0.0
 20
0.0
 30
0.0
  3
*Paper_Space0
  1

  0
ENDBLK
  5
25
100
AcDbEntity
  8
0
100
AcDbBlockEnd
  0
ENDSEC
  0
SECTION
  2
ENTITIES
  0
LINE
  5
6D
100
AcDbEntity
  8
strichpunkt
 62
256
370
-1
 48
1.0
  6
BYLAYER
100
AcDbLine
 10
-0.0000000000000005
 20
-7.5900000000000061
 30
0.0
 11
0.000000000000003
 21
49.4985518998863512
 31
0.0
  0
LINE
  5
6E
100
AcDbEntity
  8
strichpunkt
 62
256
370
-1
 48
1.0
  6
BYLAYER
100
AcDbLine
 10
0.000000000000001
 20
-0.0000000000000071
 30
0.0
 11
108.9999999999999716
 21
-0.0000000000000071
 31
0.0
  0
LINE
  5
6F
100
AcDbEntity
  8
strichpunkt
 62
256
370
-1
 48
1.0
  6
BYLAYER
100
AcDbLine
 10
94.0
 20
-8.0
 30
0.0
 11
75.50555502035769
 21
49.4985518998863938
 31
0.0
  0
LINE
  5
70
100
AcDbEntity
  8
0
 62
256
370
-1
 48
1.0
  6
BYLAYER
100
AcDbLine
 10
98.7148550625361167
 20
0.0000000000000039
 30
0.0
 11
108.9999999999999716
 21
0.0000000000000039
 31
0.0
  0
LINE
  5
71
100
AcDbEntity
  8
0
 62
256
370
-1
 48
1.0
  6
BYLAYER
100
AcDbLine
 10
89.1951854685779182
 20
6.937992354374737
 30
0.0
 11
80.2051930025292705
 21
34.8875495840010004
 31
0.0
  0
LINE
  5
72
100
AcDbEntity
  8
0
 62
256
370
-1
 48
1.0
  6
BYLAYER
100
AcDbLine
 10
-2.8996000000000013
 20
35.5464999999999876
 30
0.0
 11
20.9989999999999952
 21
35.5464999999999876
 31
0.0
  0
ARC
  5
73
100
AcDbEntity
  8
0
 62
256
370
-1
 48
1.0
  6
BYLAYER
100
AcDbCircle
 10
20.9989999999999952
 20
46.0459999999999781
 30
0.0
 40
10.4994999999999994
100
AcDbArc
 50
270.0
 51
313.6839716214383316
  0
ARC
  5
74
100
AcDbEntity
  8
0
 62
256
370
-1
 48
1.0
  6
BYLAYER
100
AcDbCircle
 10
55.8076211942143061
 20
9.600451899886389
 30
0.0
 40
39.8980999999999995
100
AcDbArc
 50
74.3783568143149267
 51
133.68397162143836
  0
LINE
  5
75
100
AcDbEntity
  8
strichpunkt
 62
256
370
-1
 48
1.0
  6
BYLAYER
100
AcDbLine
 10
0.0000000000000039
 20
49.4985518998863654
 30
0.0
 11
75.5055550203577184
 21
49.4985518998863654
 31
0.0
  0
LINE
  5
76
100
AcDbEntity
  8
mass
 62
256
370
-1
 48
1.0
  6
BYLAYER
100
AcDbLine
 10
66.5515264370225879
 20
48.0247525928535453
 30
0.0
 11
55.807621194214299
 21
9.6004518998863588
 31
0.0
  0
LINE
  5
77
100
AcDbEntity
  8
mass
 62
256
370
-1
 48
1.0
  6
BYLAYER
100
AcDbLine
 10
28.2507960821279731
 20
38.4531774791429868
 30
0.0
 11
55.8076211942143416
 21
9.6004518998863269
 31
0.0
  0
LINE
  5
78
100
AcDbEntity
  8
mass
 62
256
370
-1
 48
1.0
  6
BYLAYER
100
AcDbLine
 10
28.2507960821279767
 20
38.4531774791429868
 30
0.0
 11
20.9989999999999988
 21
46.0459999999999781
 31
0.0
  0
LINE
  5
79
100
AcDbEntity
  8
mass
 62
256
370
-1
 48
1.0
  6
BYLAYER
100
AcDbLine
 10
20.9989999999999952
 20
35.5464999999999876
 30
0.0
 11
20.9989999999999988
 21
46.0459999999999781
 31
0.0
  0
LINE
  5
7A
100
AcDbEntity
  8
mass
 62
256
370
-1
 48
1.0
  6
BYLAYER
100
AcDbLine
 10
55.807621194214299
 20
9.6004518998863588
 30
0.0
 11
55.807621194214299
 21
51.5984518998863706
 31
0.0
  0
LINE
  5
7B
100
AcDbEntity
  8
mass
 62
256
370
-1
 48
1.0
  6
BYLAYER
100
AcDbLine
 10
47.7594138533754986
 20
48.6783835520205486
 30
0.0
 11
55.8076211942143416
 21
9.6004518998863269
 31
0.0
  0
DIMENSION
  5
7C
100
AcDbEntity
  8
mass
 62
256
370
-1
 48
1.0
  6
BYLAYER
100
AcDbDimension
 10
55.807621194214299
 20
51.598451899886399
 30
0.0
 11
52.4570783301328731
 21
42.6369098449713206
 31
0.0
 70
130
 71
8
 72
2
 74
0
 75
0
 41
1.0
 42
0.0
  1
\U+03b2
  3
Standard
100
AcDb2LineAngularDimension
 13
90.1183998577903651
 23
-156.9949409328960428
 33
0.0
 14
47.7594138533754773
 24
48.6783835520205628
 34
0.0
 15
55.807621194214299
 25
9.6004518998863659
 35
0.0
 16
54.0461047154839278
 26
40.7969480010956431
 36
0.0
  0
DIMENSION
  5
7D
100
AcDbEntity
  8
mass
 62
256
370
-1
 48
1.0
  6
BYLAYER
100
AcDbDimension
 10
66.5515264370225879
 20
48.0247525928535453
 30
0.0
 11
46.0597331236172138
 21
31.3608788198052437
 31
0.0
 70
130
 71
8
 72
2
 74
0
 75
0
 41
1.0
 42
0.0
  1
\A1;\U+03b1\S^ 3;
  3
Standard
100
AcDb2LineAngularDimension
 13
28.2507960821279731
 23
38.453177479143001
 33
0.0
 14
55.807621194214299
 24
9.6004518998863659
 34
0.0
 15
55.807621194214299
 25
9.6004518998863659
 35
0.0
 16
45.0
 26
29.0
 36
0.0
  0
DIMENSION
  5
7E
100
AcDbEntity
  8
mass
 62
256
370
-1
 48
1.0
  6
BYLAYER
100
AcDbDimension
 10
47.7594138533754773
 20
48.6783835520205628
 30
0.0
 11
41.4663613675892009
 21
36.9620673354804268
 31
0.0
 70
2
 71
8
 72
2
 74
0
 75
0
 41
1.0
 42
0.0
  1
\U+03b1\S^ 3;/2
  3
Standard
100
AcDb2LineAngularDimension
 13
28.6133858862343544
 23
38.073536353100117
 33
0.0
 14
42.7152875962250675
 24
23.3084718535052318
 34
0.0
 15
55.8076211942143416
 25
9.6004518998863198
 35
0.0
 16
41.9980000000000047
 26
35.5464999999999947
 36
0.0
  0
DIMENSION
  5
7F
100
AcDbEntity
  8
mass
 62
256
370
-1
 48
1.0
  6
BYLAYER
100
AcDbDimension
 10
28.2507960821279731
 20
38.453177479143001
 30
0.0
 11
29.5853867370515111
 21
24.6240410292563183
 31
0.0
 70
2
 71
8
 72
2
 74
0
 75
0
 41
1.0
 42
0.0
  1
\A1;\U+03b1\S^ 4;
  3
Standard
100
AcDb2LineAngularDimension
 13
20.998999999999981
 23
35.5464999999999804
 33
0.0
 14
20.9989999999999881
 24
46.0459999999999781
 34
0.0
 15
20.9989999999999881
 25
46.0459999999999781
 35
0.0
 16
29.3985999999999947
 26
22.9470999999999918
 36
0.0
  0
DIMENSION
  5
80
100
AcDbEntity
  8
mass
 62
256
370
-1
 48
1.0
  6
BYLAYER
100
AcDbDimension
 10
20.9989999999999881
 20
46.0459999999999781
 30
0.0
 11
25.7096386269285908
 21
43.2856089427423001
 31
0.0
 70
4
 71
8
 72
2
 74
0
 41
1.0
 42
0.0
  1
\A1;r\S^ 4;
  3
Standard
100
AcDbRadialDimension
 15
28.2507960821279731
 25
38.453177479143001
 35
0.0
 40
0.0
1001
ACAD
1000
DSTYLE
1002
{
1070
144
1040
1.0
1070
40
1040
1.0
1002
}
  0
DIMENSION
  5
81
100
AcDbEntity
  8
mass
 62
256
370
-1
 48
1.0
  6
BYLAYER
100
AcDbDimension
 10
55.8076211942143061
 20
9.6004518998863819
 30
0.0
 11
52.3887311016916115
 21
34.247294217061679
 31
0.0
 70
132
 71
8
 72
2
 74
0
 41
1.0
 42
0.0
  1
\A1;r\S^ 3;
  3
Standard
100
AcDbRadialDimension
 15
47.7594138533754773
 25
48.6783835520205628
 35
0.0
 40
0.0
1001
ACAD
1000
DSTYLE
1002
{
1070
279
1070
2
1070
144
1040
1.0
1070
40
1040
1.0
1002
}
  0
DIMENSION
  5
82
100
AcDbEntity
  8
mass
 62
256
370
-1
 48
1.0
  6
BYLAYER
100
AcDbDimension
 10
115.0
 20
49.4985518998863441
 30
0.0
 11
113.5
 21
24.7492759499431685
 31
0.0
 70
0
 71
8
 72
2
 74
0
 75
0
 41
1.0
 42
0.0
  1
d
  3
Standard
100
AcDbAlignedDimension
 13
55.8076211942142919
 23
49.4985518998863441
 33
0.0
 14
108.9999999999999716
 24
-0.0000000000000071
 34
0.0
 50
90.0
100
AcDbRotatedDimension
1001
ACAD
1000
DSTYLE
1002
{
1070
144
1040
1.0
1070
40
1040
1.0
1002
}
  0
DIMENSION
  5
83
100
AcDbEntity
  8
mass
 62
256
370
-1
 48
1.0
  6
BYLAYER
100
AcDbDimension
 10
-5.5
 20
35.5464999999999876
 30
0.0
 11
-7.0
 21
42.5225259499431729
 31
0.0
 70
0
 71
8
 72
2
 74
0
 75
0
 41
1.0
 42
0.0
  1
i
  3
Standard
100
AcDbAlignedDimension
 13
0.0000000000000021
 23
35.5464999999999876
 33
0.0
 14
0.000000000000003
 24
49.4985518998863654
 34
0.0
 50
90.0
100
AcDbRotatedDimension
1001
ACAD
1000
DSTYLE
1002
{
1070
144
1040
1.0
1070
40
1040
1.0
1002
}
  0
DIMENSION
  5
84
100
AcDbEntity
  8
mass
 62
256
370
-1
 48
1.0
  6
BYLAYER
100
AcDbDimension
 10
103.8574275312680442
 20
-0.0000000000000071
 30
0.0
 11
102.3574275312680442
 21
-3.795000000000007
 31
0.0
 70
0
 71
8
 72
2
 74
0
 75
0
 41
1.0
 42
0.0
  1
s/2
  3
Standard
100
AcDbAlignedDimension
 13
98.7148550625361167
 23
-0.0000000000000071
 33
0.0
 14
93.8681232450017973
 24
-7.590000000000007
 34
0.0
 50
90.0
100
AcDbRotatedDimension
1001
ACAD
1000
DSTYLE
1002
{
1070
144
1040
1.0
1070
40
1040
1.0
1002
}
  0
LINE
  5
85
100
AcDbEntity
  8
strichpunkt
 62
256
370
-1
 48
1.0
  6
BYLAYER
100
AcDbLine
 10
0.000000000000001
 20
-7.5900000000000061
 30
0.0
 11
108.9999999999999858
 21
-7.5900000000000061
 31
0.0
  0
DIMENSION
  5
86
100
AcDbEntity
  8
mass
 62
256
370
-1
 48
1.0
  6
BYLAYER
100
AcDbDimension
 10
93.8681232450017973
 20
-12.0999999999999996
 30
0.0
 11
46.9340616225008986
 21
-10.5999999999999996
 31
0.0
 70
0
 71
8
 72
2
 74
0
 75
0
 41
1.0
 42
0.0
  1
b\S^ ks;/2
  3
Standard
100
AcDbAlignedDimension
 13
93.8681232450017973
 23
-7.590000000000007
 33
0.0
 14
-0.0000000000000005
 24
-7.5900000000000061
 34
0.0
 50
0.0
100
AcDbRotatedDimension
1001
ACAD
1000
DSTYLE
1002
{
1070
144
1040
1.0
1070
40
1040
1.0
1002
}
  0
DIMENSION
  5
87
100
AcDbEntity
  8
mass
 62
256
370
-1
 48
1.0
  6
BYLAYER
100
AcDbDimension
 10
91.4267950244251182
 20
-4.3999999999999995
 30
0.0
 11
45.7133975122125591
 21
-2.8999999999999995
 31
0.0
 70
0
 71
8
 72
2
 74
0
 75
0
 41
1.0
 42
0.0
  1
b\S^ kn;/2
  3
Standard
100
AcDbAlignedDimension
 13
91.4267950244251182
 23
-0.0000000000000071
 33
0.0
 14
-0.0000000000000005
 24
-7.5900000000000061
 34
0.0
 50
0.0
100
AcDbRotatedDimension
1001
ACAD
1000
DSTYLE
1002
{
1070
144
1040
1.0
1070
40
1040
1.0
1002
}
  0
DIMENSION
  5
88
100
AcDbEntity
  8
mass
 62
256
370
-1
 48
1.0
  6
BYLAYER
100
AcDbDimension
 10
20.9989999999999988
 20
21.4673006574798464
 30
0.0
 11
10.4994999999999994
 21
22.9673006574798464
 31
0.0
 70
0
 71
8
 72
2
 74
0
 75
0
 41
1.0
 42
0.0
  1
b\S^ d;'/2
  3
Standard
100
AcDbAlignedDimension
 13
20.9989999999999952
 23
25.0469999999999899
 33
0.0
 14
0.0000000000000021
 24
35.5464999999999876
 34
0.0
 50
0.0
100
AcDbRotatedDimension
1001
ACAD
1000
DSTYLE
1002
{
1070
144
1040
1.0
1070
40
1040
1.0
1002
}
  0
DIMENSION
  5
89
100
AcDbEntity
  8
mass
 62
256
370
-1
 48
1.0
  6
BYLAYER
100
AcDbDimension
 10
75.50555502035769
 20
53.5977889249147452
 30
0.0
 11
37.752777510178845
 21
55.0977889249147452
 31
0.0
 70
0
 71
8
 72
2
 74
0
 75
0
 41
1.0
 42
0.0
  1
b\S^ d;/2
  3
Standard
100
AcDbAlignedDimension
 13
75.50555502035769
 23
49.4985518998863299
 33
0.0
 14
0.000000000000003
 24
49.4985518998863654
 34
0.0
 50
0.0
100
AcDbRotatedDimension
1001
ACAD
1000
DSTYLE
1002
{
1070
144
1040
1.0
1070
40
1040
1.0
1002
}
  0
LEADER
  5
8A
100
AcDbEntity
  8
koord
 62
256
370
-1
 48
1.0
  6
BYLAYER
100
AcDbLeader
  3
Standard
 71
1
 72
0
 73
3
 74
0
 75
0
 40
1.0
 41
10.0
 76
2
 10
12.6499999999999968
 20
-0.0000000000000071
 10
-0.0
 20
-0.0000000000000032
1001
ACAD
1000
DSTYLE
1002
{
1070
40
1040
1.0
1002
}
  0
LEADER
  5
8B
100
AcDbEntity
  8
koord
 62
256
370
-1
 48
1.0
  6
BYLAYER
100
AcDbLeader
  3
Standard
 71
1
 72
0
 73
3
 74
0
 75
0
 40
1.0
 41
10.0
 76
2
 10
-0.0000000000000024
 20
12.6499999999999932
 10
-0.0
 20
-0.0000000000000032
1001
ACAD
1000
DSTYLE
1002
{
1070
40
1040
1.0
1002
}
  0
MTEXT
  5
8C
100
AcDbEntity
  8
koord
 62
256
370
-1
 48
1.0
  6
BYLAYER
100
AcDbMText
 10
11.3849999999999962
 20
1.2649999999999875
 30
0.0
 40
2.0
 41
0.0
 71
9
 72
1
  1
z
  7
textstyle14
 50
0.0
 73
2
 44
1.0
  0
MTEXT
  5
8D
100
AcDbEntity
  8
koord
 62
256
370
-1
 48
1.0
  6
BYLAYER
100
AcDbMText
 10
2.529999999999998
 20
10.1199999999999886
 30
0.0
 40
2.0
 41
0.0
 71
9
 72
1
  1
y
  7
textstyle15
 50
0.0
 73
2
 44
1.0
  0
CIRCLE
  5
8E
100
AcDbEntity
  8
koord
 62
256
370
-1
 48
1.0
  6
BYLAYER
100
AcDbCircle
 10
-0.0
 20
-0.0000000000000032
 30
0.0
 40
2.0998999999999999
  0
MTEXT
  5
8F
100
AcDbEntity
  8
koord
 62
256
370
-1
 48
1.0
  6
BYLAYER
100
AcDbMText
 10
3.3598399999999971
 20
1.8899099999999966
 30
0.0
 40
2.0
 41
0.0
 71
9
 72
1
  1
\H2.1;x
  7
textstyle13
 50
0.0
 73
2
 44
1.0
  0
LINE
  5
90
100
AcDbEntity
  8
koord
 62
256
370
-1
 48
1.0
  6
BYLAYER
100
AcDbLine
 10
-1.4848535298136327
 20
1.4848535298136256
 30
0.0
 11
1.4848535298136287
 21
-1.4848535298136358
 31
0.0
  0
LINE
  5
91
100
AcDbEntity
  8
koord
 62
256
370
-1
 48
1.0
  6
BYLAYER
100
AcDbLine
 10
-1.4848535298136305
 20
-1.4848535298136381
 30
0.0
 11
1.4848535298136332
 21
1.4848535298136252
 31
0.0
  0
ARC
  5
92
100
AcDbEntity
  8
0
 62
256
370
-1
 48
1.0
  6
BYLAYER
100
AcDbCircle
 10
98.7148550625361167
 20
10.0000000000000036
 30
0.0
 40
10.0
100
AcDbArc
 50
197.8304193651213438
 51
270.0
  0
ARC
  5
93
100
AcDbEntity
  8
0
 62
256
370
-1
 48
1.0
  6
BYLAYER
100
AcDbCircle
 10
61.1658538146128592
 20
28.7635342927504567
 30
0.0
 40
20.0
100
AcDbArc
 50
17.8304193651213438
 51
74.3783568143149267
  0
LINE
  5
94
100
AcDbEntity
  8
mass
 62
256
370
-1
 48
1.0
  6
BYLAYER
100
AcDbLine
 10
80.2051930025292563
 20
34.8875495840010004
 30
0.0
 11
61.1658538146128592
 21
28.7635342927504709
 31
0.0
  0
DIMENSION
  5
95
100
AcDbEntity
  8
mass
 62
256
370
-1
 48
1.0
  6
BYLAYER
100
AcDbDimension
 10
80.2051930025292563
 20
34.8875495840010004
 30
0.0
 11
72.1000277233512321
 21
40.1275639586219626
 31
0.0
 70
2
 71
8
 72
2
 74
0
 75
0
 41
1.0
 42
0.0
  1
\A1;\U+03b1\S^ 2;
  3
Standard
100
AcDb2LineAngularDimension
 13
66.5515264370225879
 23
48.0247525928535453
 33
0.0
 14
55.807621194214299
 24
9.6004518998863588
 34
0.0
 15
61.1658538146128592
 25
28.7635342927504709
 35
0.0
 16
72.4203944671775162
 26
37.5369157794186208
 36
0.0
  0
DIMENSION
  5
96
100
AcDbEntity
  8
mass
 62
256
370
-1
 48
1.0
  6
BYLAYER
100
AcDbDimension
 10
61.1658538146128592
 20
28.7635342927504567
 30
0.0
 11
70.2262222617272869
 21
33.2534923774694704
 31
0.0
 70
4
 71
8
 72
2
 74
0
 41
1.0
 42
0.0
  1
\A1;r\S^ 2;
  3
Standard
100
AcDbRadialDimension
 15
80.2051930025292705
 25
34.8875495840010146
 35
0.0
 40
0.0
1001
ACAD
1000
DSTYLE
1002
{
1070
144
1040
1.0
1070
40
1040
1.0
1002
}
  0
LINE
  5
97
100
AcDbEntity
  8
mass
 62
256
370
-1
 48
1.0
  6
BYLAYER
100
AcDbLine
 10
61.1658538146128521
 20
28.7635342927504567
 30
0.0
 11
78.0017655803090548
 21
28.7635342927504567
 31
0.0
  0
DIMENSION
  5
98
100
AcDbEntity
  8
mass
 62
256
370
-1
 48
1.0
  6
BYLAYER
100
AcDbDimension
 10
80.2051930025292563
 20
34.8875495840010004
 30
0.0
 11
78.6441887302987936
 21
31.502140513273531
 31
0.0
 70
130
 71
8
 72
2
 74
0
 75
0
 41
1.0
 42
0.0
  1
\U+03b3
  3
Standard
100
AcDb2LineAngularDimension
 13
71.1658538146128592
 23
28.7635342927504567
 33
0.0
 14
61.1658538146128521
 24
28.7635342927504567
 34
0.0
 15
61.1658538146128592
 25
28.7635342927504709
 35
0.0
 16
77.0
 26
29.0
 36
0.0
  0
DIMENSION
  5
99
100
AcDbEntity
  8
mass
 62
256
370
-1
 48
1.0
  6
BYLAYER
100
AcDbDimension
 10
98.7148550625361167
 20
10.0000000000000036
 30
0.0
 11
97.2148550625361167
 21
5.0000000000000036
 31
0.0
 70
4
 71
8
 72
2
 74
0
 41
1.0
 42
0.0
  1
\A1;r\S^ 1;
  3
Standard
100
AcDbRadialDimension
 15
98.7148550625361167
 25
0.0000000000000036
 35
0.0
 40
0.0
1001
ACAD
1000
DSTYLE
1002
{
1070
144
1040
1.0
1070
40
1040
1.0
1002
}
  0
LINE
  5
9A
100
AcDbEntity
  8
mass
 62
256
370
-1
 48
1.0
  6
BYLAYER
100
AcDbLine
 10
89.1951854685779182
 20
6.9379923543747264
 30
0.0
 11
107.0918807880214274
 21
12.6944755346671982
 31
0.0
  0
LINE
  5
9B
100
AcDbEntity
  8
mass
 62
256
370
-1
 48
1.0
  6
BYLAYER
100
AcDbLine
 10
98.7148550625361167
 20
-0.0000000000000071
 30
0.0
 11
98.714855062536131
 21
18.7997021774809205
 31
0.0
  0
DIMENSION
  5
9C
100
AcDbEntity
  8
mass
 62
256
370
-1
 48
1.0
  6
BYLAYER
100
AcDbDimension
 10
89.1951854685779182
 20
6.9379923543747264
 30
0.0
 11
104.1922108403935283
 21
17.5155195610560135
 31
0.0
 70
2
 71
8
 72
2
 74
0
 75
0
 41
1.0
 42
0.0
  1
\A1;\U+03b1\S^ 1;
  3
Standard
100
AcDb2LineAngularDimension
 13
98.7148550625361167
 23
-0.0000000000000071
 33
0.0
 14
98.714855062536131
 24
14.9999999999999929
 34
0.0
 15
103.4746898595152089
 25
11.5310038228126324
 35
0.0
 16
104.1951025525955714
 26
15.5499767121221169
 36
0.0
  0
POINT
  5
9D
100
AcDbEntity
  8
punkte
 62
256
370
-1
 48
1.0
  6
BYLAYER
100
AcDbPoint
 10
98.7148550625361167
 20
-0.0000000000000071
 30
0.0
  0
POINT
  5
9E
100
AcDbEntity
  8
punkte
 62
256
370
-1
 48
1.0
  6
BYLAYER
100
AcDbPoint
 10
91.4267950244251182
 20
-0.0000000000000071
 30
0.0
  0
POINT
  5
9F
100
AcDbEntity
  8
punkte
 62
256
370
-1
 48
1.0
  6
BYLAYER
100
AcDbPoint
 10
89.1951854685779182
 20
6.9379923543747264
 30
0.0
  0
POINT
  5
A0
100
AcDbEntity
  8
punkte
 62
256
370
-1
 48
1.0
  6
BYLAYER
100
AcDbPoint
 10
80.2051930025292563
 20
34.8875495840010004
 30
0.0
  0
POINT
  5
A1
100
AcDbEntity
  8
punkte
 62
256
370
-1
 48
1.0
  6
BYLAYER
100
AcDbPoint
 10
66.5515264370225879
 20
48.0247525928535453
 30
0.0
  0
POINT
  5
A2
100
AcDbEntity
  8
punkte
 62
256
370
-1
 48
1.0
  6
BYLAYER
100
AcDbPoint
 10
61.1658538146128592
 20
28.763534292750478
 30
0.0
  0
POINT
  5
A3
100
AcDbEntity
  8
punkte
 62
256
370
-1
 48
1.0
  6
BYLAYER
100
AcDbPoint
 10
55.8076211942143416
 20
9.6004518998863198
 30
0.0
  0
POINT
  5
A4
100
AcDbEntity
  8
punkte
 62
256
370
-1
 48
1.0
  6
BYLAYER
100
AcDbPoint
 10
28.2507960821279767
 20
38.4531774791429868
 30
0.0
  0
POINT
  5
A5
100
AcDbEntity
  8
punkte
 62
256
370
-1
 48
1.0
  6
BYLAYER
100
AcDbPoint
 10
20.9989999999999952
 20
35.5464999999999876
 30
0.0
  0
POINT
  5
A6
100
AcDbEntity
  8
punkte
 62
256
370
-1
 48
1.0
  6
BYLAYER
100
AcDbPoint
 10
20.9990000000000023
 20
46.0459999999999781
 30
0.0
  0
POINT
  5
A7
100
AcDbEntity
  8
punkte
 62
256
370
-1
 48
1.0
  6
BYLAYER
100
AcDbPoint
 10
0.0000000000000022
 20
35.5464999999999876
 30
0.0
  0
POINT
  5
A8
100
AcDbEntity
  8
punkte
 62
256
370
-1
 48
1.0
  6
BYLAYER
100
AcDbPoint
 10
98.7148550625361167
 20
10.0000000000000036
 30
0.0
  0
POINT
  5
A9
100
AcDbEntity
  8
punkte
 62
256
370
-1
 48
1.0
  6
BYLAYER
100
AcDbPoint
 10
93.8681232450017973
 20
-7.590000000000007
 30
0.0
  0
MTEXT
  5
AA
100
AcDbEntity
  8
punkte
 62
256
370
-1
 48
1.0
  6
BYLAYER
100
AcDbMText
 10
100.3118229373454255
 20
0.7320177582442895
 30
0.0
 40
2.0
 41
0.0
 71
9
 72
1
  1
1
  7
textstyle0
 50
0.0
 73
2
 44
1.0
  0
MTEXT
  5
AB
100
AcDbEntity
  8
punkte
 62
256
370
-1
 48
1.0
  6
BYLAYER
100
AcDbMText
 10
89.8376833791725176
 20
0.7658218681858173
 30
0.0
 40
2.0
 41
0.0
 71
9
 72
1
  1
2
  7
textstyle1
 50
0.0
 73
2
 44
1.0
  0
MTEXT
  5
AC
100
AcDbEntity
  8
punkte
 62
256
370
-1
 48
1.0
  6
BYLAYER
100
AcDbMText
 10
87.7399435018672449
 20
7.0341834432465049
 30
0.0
 40
2.0
 41
0.0
 71
9
 72
1
  1
3
  7
textstyle4
 50
0.0
 73
2
 44
1.0
  0
MTEXT
  5
AD
100
AcDbEntity
  8
punkte
 62
256
370
-1
 48
1.0
  6
BYLAYER
100
AcDbMText
 10
102.2640096236915213
 20
8.1351153220503178
 30
0.0
 40
2.0
 41
0.0
 71
9
 72
1
  1
12
  7
textstyle5
 50
0.0
 73
2
 44
1.0
  0
MTEXT
  5
AE
100
AcDbEntity
  8
punkte
 62
256
370
-1
 48
1.0
  6
BYLAYER
100
AcDbMText
 10
82.4237032849011655
 20
33.9590899978970242
 30
0.0
 40
2.0
 41
0.0
 71
9
 72
1
  1
4
  7
textstyle2
 50
0.0
 73
2
 44
1.0
  0
MTEXT
  5
AF
100
AcDbEntity
  8
punkte
 62
256
370
-1
 48
1.0
  6
BYLAYER
100
AcDbMText
 10
64.6075912299772881
 20
45.4227358693029615
 30
0.0
 40
2.0
 41
0.0
 71
9
 72
1
  1
5
  7
textstyle3
 50
0.0
 73
2
 44
1.0
  0
MTEXT
  5
B0
100
AcDbEntity
  8
punkte
 62
256
370
-1
 48
1.0
  6
BYLAYER
100
AcDbMText
 10
31.4984999999999964
 20
37.436409999999988
 30
0.0
 40
2.0
 41
0.0
 71
9
 72
1
  1
6
  7
textstyle8
 50
0.0
 73
2
 44
1.0
  0
MTEXT
  5
B1
100
AcDbEntity
  8
punkte
 62
256
370
-1
 48
1.0
  6
BYLAYER
100
AcDbMText
 10
23.0988999999999862
 20
32.396649999999994
 30
0.0
 40
2.0
 41
0.0
 71
9
 72
1
  1
7
  7
textstyle9
 50
0.0
 73
2
 44
1.0
  0
MTEXT
  5
B2
100
AcDbEntity
  8
punkte
 62
256
370
-1
 48
1.0
  6
BYLAYER
100
AcDbMText
 10
23.5188799999999922
 20
46.0459999999999781
 30
0.0
 40
2.0
 41
0.0
 71
9
 72
1
  1
8
  7
textstyle6
 50
0.0
 73
2
 44
1.0
  0
MTEXT
  5
B3
100
AcDbEntity
  8
punkte
 62
256
370
-1
 48
1.0
  6
BYLAYER
100
AcDbMText
 10
2.3098899999999927
 20
36.3864599999999854
 30
0.0
 40
2.0
 41
0.0
 71
9
 72
1
  1
9
  7
textstyle7
 50
0.0
 73
2
 44
1.0
  0
MTEXT
  5
B4
100
AcDbEntity
  8
punkte
 62
256
370
-1
 48
1.0
  6
BYLAYER
100
AcDbMText
 10
60.0571399999999898
 20
8.2477999999999678
 30
0.0
 40
2.0
 41
0.0
 71
9
 72
1
  1
10
  7
textstyle11
 50
0.0
 73
2
 44
1.0
  0
MTEXT
  5
B5
100
AcDbEntity
  8
punkte
 62
256
370
-1
 48
1.0
  6
BYLAYER
100
AcDbMText
 10
64.0
 20
26.0
 30
0.0
 40
2.0
 41
0.0
 71
9
 72
1
  1
11
  7
textstyle12
 50
0.0
 73
2
 44
1.0
  0
MTEXT
  5
B6
100
AcDbEntity
  8
punkte
 62
256
370
-1
 48
1.0
  6
BYLAYER
100
AcDbMText
 10
97.0859112218727631
 20
-10.3928791089740109
 30
0.0
 40
2.0
 41
0.0
 71
9
 72
1
  1
13
  7
textstyle10
 50
0.0
 73
2
 44
1.0
  0
DIMENSION
  5
B7
100
AcDbEntity
  8
mass
 62
256
370
-1
 48
1.0
  6
BYLAYER
100
AcDbDimension
 10
76.6475787197938843
 20
-0.0000000000000071
 30
0.0
 11
78.2708072044733569
 21
9.588162909246563
 31
0.0
 70
2
 71
8
 72
2
 74
0
 75
0
 41
1.0
 42
0.0
  1
\U+03b1
  3
Standard
100
AcDb2LineAngularDimension
 13
80.2051930025292705
 23
34.8875495840010217
 33
0.0
 14
94.0
 24
-8.0
 34
0.0
 15
108.9999999999999716
 25
-0.0000000000000071
 35
0.0
 16
79.0
 26
8.0
 36
0.0
  0
ENDSEC
  0
SECTION
  2
OBJECTS
  0
DICTIONARY
  5
C
100
AcDbDictionary
280
0
281
1
  3
ACAD_GROUP
350
D
  3
ACAD_LAYOUT
350
1A
  3
ACAD_MLINESTYLE
350
17
  3
ACAD_PLOTSETTINGS
350
19
  3
ACAD_PLOTSTYLENAME
350
E
  3
AcDbVariableDictionary
350
B8
  3
QCAD_OBJECTS
350
B9
  0
DICTIONARY
  5
D
100
AcDbDictionary
280
0
281
1
  0
ACDBDICTIONARYWDFLT
  5
E
100
AcDbDictionary
281
1
  3
Normal
350
F
100
AcDbDictionaryWithDefault
340
F
  0
ACDBPLACEHOLDER
  5
F
  0
DICTIONARY
  5
17
100
AcDbDictionary
280
0
281
1
  3
Standard
350
18
  0
MLINESTYLE
  5
18
100
AcDbMlineStyle
  2
STANDARD
 70
0
  3

 62
256
 51
90.0
 52
90.0
 71
2
 49
0.5
 62
256
  6
BYLAYER
 49
-0.5
 62
256
  6
BYLAYER
  0
DICTIONARY
  5
19
100
AcDbDictionary
280
0
281
1
  0
DICTIONARY
  5
1A
100
AcDbDictionary
281
1
  3
Layout1
350
1E
  3
Layout2
350
26
  3
Model
350
22
  0
LAYOUT
  5
1E
100
AcDbPlotSettings
  1

  2
none_device
  4

  6

 40
0.0
 41
0.0
 42
0.0
 43
0.0
 44
0.0
 45
0.0
 46
0.0
 47
0.0
 48
0.0
 49
0.0
140
0.0
141
0.0
142
1.0
143
1.0
 70
688
 72
0
 73
0
 74
5
  7

 75
16
147
1.0
148
0.0
149
0.0
100
AcDbLayout
  1
Layout1
 70
1
 71
1
 10
0.0
 20
0.0
 11
420.0
 21
297.0
 12
0.0
 22
0.0
 32
0.0
 14
100000000000000000000.0
 24
100000000000000000000.0
 34
100000000000000000000.0
 15
-100000000000000000000.0
 25
-100000000000000000000.0
 35
-100000000000000000000.0
146
0.0
 13
0.0
 23
0.0
 33
0.0
 16
1.0
 26
0.0
 36
0.0
 17
0.0
 27
1.0
 37
0.0
 76
0
330
1B
  0
LAYOUT
  5
22
100
AcDbPlotSettings
  1

  2
none_device
  4

  6

 40
0.0
 41
0.0
 42
0.0
 43
0.0
 44
0.0
 45
0.0
 46
0.0
 47
0.0
 48
0.0
 49
0.0
140
0.0
141
0.0
142
1.0
143
1.0
 70
1712
 72
0
 73
0
 74
0
  7

 75
0
147
1.0
148
0.0
149
0.0
100
AcDbLayout
  1
Model
 70
1
 71
0
 10
0.0
 20
0.0
 11
12.0
 21
9.0
 12
0.0
 22
0.0
 32
0.0
 14
0.0
 24
0.0
 34
0.0
 15
0.0
 25
0.0
 35
0.0
146
0.0
 13
0.0
 23
0.0
 33
0.0
 16
1.0
 26
0.0
 36
0.0
 17
0.0
 27
1.0
 37
0.0
 76
0
330
1F
  0
LAYOUT
  5
26
100
AcDbPlotSettings
  1

  2
none_device
  4

  6

 40
0.0
 41
0.0
 42
0.0
 43
0.0
 44
0.0
 45
0.0
 46
0.0
 47
0.0
 48
0.0
 49
0.0
140
0.0
141
0.0
142
1.0
143
1.0
 70
688
 72
0
 73
0
 74
5
  7

 75
16
147
1.0
148
0.0
149
0.0
100
AcDbLayout
  1
Layout2
 70
1
 71
2
 10
0.0
 20
0.0
 11
12.0
 21
9.0
 12
0.0
 22
0.0
 32
0.0
 14
0.0
 24
0.0
 34
0.0
 15
0.0
 25
0.0
 35
0.0
146
0.0
 13
0.0
 23
0.0
 33
0.0
 16
1.0
 26
0.0
 36
0.0
 17
0.0
 27
1.0
 37
0.0
 76
0
330
23
  0
DICTIONARY
  5
B8
100
AcDbDictionary
281
1
  3
DIMASSOC
350
BB
  3
HIDETEXT
350
BA
  0
DICTIONARYVAR
  5
BA
100
DictionaryVariables
280
0
  1
2
  0
DICTIONARYVAR
  5
BB
100
DictionaryVariables
280
0
  1
1
  0
DICTIONARY
  5
B9
100
AcDbDictionary
281
1
  3
ColorSettings/BackgroundColor
350
BC
  3
ColorSettings/ColorMode
350
BD
  3
DimensionSettings/AngularFormat
350
BE
  3
DimensionSettings/AngularPrecision
350
BF
  3
DimensionSettings/DecimalPoint
350
C0
  3
DimensionSettings/DimensionFont
350
C1
  3
DimensionSettings/DimensionTextColor
350
C2
  3
DimensionSettings/KeepProportions
350
C3
  3
DimensionSettings/LinearFormat
350
C4
  3
DimensionSettings/LinearPrecision
350
C5
  3
Grid/DisplayGrid00
350
C6
  3
Grid/DisplayGrid01
350
C7
  3
Grid/DisplayGrid02
350
C8
  3
Grid/DisplayGrid03
350
C9
  3
Grid/GridSpacingX00
350
CA
  3
Grid/GridSpacingX01
350
CB
  3
Grid/GridSpacingX02
350
CC
  3
Grid/GridSpacingX03
350
CD
  3
Grid/GridSpacingY00
350
CE
  3
Grid/GridSpacingY01
350
CF
  3
Grid/GridSpacingY02
350
D0
  3
Grid/GridSpacingY03
350
D1
  3
Grid/IsometricGrid00
350
D2
  3
Grid/IsometricGrid01
350
D3
  3
Grid/IsometricGrid02
350
D4
  3
Grid/IsometricGrid03
350
D5
  3
Grid/IsometricProjection00
350
D6
  3
Grid/IsometricProjection01
350
D7
  3
Grid/IsometricProjection02
350
D8
  3
Grid/IsometricProjection03
350
D9
  3
Grid/MetaGridSpacingX00
350
DA
  3
Grid/MetaGridSpacingX01
350
DB
  3
Grid/MetaGridSpacingX02
350
DC
  3
Grid/MetaGridSpacingX03
350
DD
  3
Grid/MetaGridSpacingY00
350
DE
  3
Grid/MetaGridSpacingY01
350
DF
  3
Grid/MetaGridSpacingY02
350
E0
  3
Grid/MetaGridSpacingY03
350
E1
  3
LinetypeSettings/PSLTSCALE
350
E2
  3
MultiPageSettings/Columns
350
E3
  3
MultiPageSettings/GlueMarginsBottom
350
E4
  3
MultiPageSettings/GlueMarginsLeft
350
E5
  3
MultiPageSettings/GlueMarginsRight
350
E6
  3
MultiPageSettings/GlueMarginsTop
350
E7
  3
MultiPageSettings/PrintCropMarks
350
E8
  3
MultiPageSettings/Rows
350
E9
  3
PageSettings/OffsetX
350
EA
  3
PageSettings/OffsetY
350
EB
  3
PageSettings/PageOrientation
350
EC
  3
PageSettings/PaperHeight
350
ED
  3
PageSettings/PaperSizeAccepted
350
EE
  3
PageSettings/PaperSizeName
350
EF
  3
PageSettings/PaperWidth
350
F0
  3
PageSettings/PointSize
350
F1
  3
PageSettings/PositionAccepted
350
F2
  3
PageSettings/Scale
350
F3
  3
PageSettings/ShowPaperBorders
350
F4
  3
PageTagSettings/EnablePageTags
350
F5
  3
PageTagSettings/TagAlignment
350
F6
  3
PageTagSettings/TagFont
350
F7
  3
PageTagSettings/TagPosition
350
F8
  3
QCADVersion
350
F9
  3
UnitSettings/PaperUnit
350
FA
  3
ViewportCenter
350
FB
  3
ViewportHeight
350
FC
  3
ViewportWidth
350
FD
  0
XRECORD
  5
BC
330
B9
100
AcDbXrecord
280
1
1000
Weiss
  0
XRECORD
  5
BD
330
B9
100
AcDbXrecord
280
1
1000
FullColor
  0
XRECORD
  5
BE
330
B9
100
AcDbXrecord
280
1
 90
0
  0
XRECORD
  5
BF
330
B9
100
AcDbXrecord
280
1
 90
0
  0
XRECORD
  5
C0
330
B9
100
AcDbXrecord
280
1
 90
46
  0
XRECORD
  5
C1
330
B9
100
AcDbXrecord
280
1
1000
Noto Sans
  0
XRECORD
  5
C2
330
B9
100
AcDbXrecord
280
1
1000
By Layer
  0
XRECORD
  5
C3
330
B9
100
AcDbXrecord
280
1
290
1
  0
XRECORD
  5
C4
330
B9
100
AcDbXrecord
280
1
 90
2
  0
XRECORD
  5
C5
330
B9
100
AcDbXrecord
280
1
 90
4
  0
XRECORD
  5
C6
330
B9
100
AcDbXrecord
280
1
290
1
  0
XRECORD
  5
C7
330
B9
100
AcDbXrecord
280
1
290
1
  0
XRECORD
  5
C8
330
B9
100
AcDbXrecord
280
1
290
1
  0
XRECORD
  5
C9
330
B9
100
AcDbXrecord
280
1
290
1
  0
XRECORD
  5
CA
330
B9
100
AcDbXrecord
280
1
1000
auto
  0
XRECORD
  5
CB
330
B9
100
AcDbXrecord
280
1
1000
auto
  0
XRECORD
  5
CC
330
B9
100
AcDbXrecord
280
1
1000
auto
  0
XRECORD
  5
CD
330
B9
100
AcDbXrecord
280
1
1000
auto
  0
XRECORD
  5
CE
330
B9
100
AcDbXrecord
280
1
1000
auto
  0
XRECORD
  5
CF
330
B9
100
AcDbXrecord
280
1
1000
auto
  0
XRECORD
  5
D0
330
B9
100
AcDbXrecord
280
1
1000
auto
  0
XRECORD
  5
D1
330
B9
100
AcDbXrecord
280
1
1000
auto
  0
XRECORD
  5
D2
330
B9
100
AcDbXrecord
280
1
290
0
  0
XRECORD
  5
D3
330
B9
100
AcDbXrecord
280
1
290
0
  0
XRECORD
  5
D4
330
B9
100
AcDbXrecord
280
1
290
0
  0
XRECORD
  5
D5
330
B9
100
AcDbXrecord
280
1
290
0
  0
XRECORD
  5
D6
330
B9
100
AcDbXrecord
280
1
 90
65537
  0
XRECORD
  5
D7
330
B9
100
AcDbXrecord
280
1
 90
65537
  0
XRECORD
  5
D8
330
B9
100
AcDbXrecord
280
1
 90
65537
  0
XRECORD
  5
D9
330
B9
100
AcDbXrecord
280
1
 90
65537
  0
XRECORD
  5
DA
330
B9
100
AcDbXrecord
280
1
1000
auto
  0
XRECORD
  5
DB
330
B9
100
AcDbXrecord
280
1
1000
auto
  0
XRECORD
  5
DC
330
B9
100
AcDbXrecord
280
1
1000
auto
  0
XRECORD
  5
DD
330
B9
100
AcDbXrecord
280
1
1000
auto
  0
XRECORD
  5
DE
330
B9
100
AcDbXrecord
280
1
1000
auto
  0
XRECORD
  5
DF
330
B9
100
AcDbXrecord
280
1
1000
auto
  0
XRECORD
  5
E0
330
B9
100
AcDbXrecord
280
1
1000
auto
  0
XRECORD
  5
E1
330
B9
100
AcDbXrecord
280
1
1000
auto
  0
XRECORD
  5
E2
330
B9
100
AcDbXrecord
280
1
290
0
  0
XRECORD
  5
E3
330
B9
100
AcDbXrecord
280
1
 90
1
  0
XRECORD
  5
E4
330
B9
100
AcDbXrecord
280
1
 40
10.0
  0
XRECORD
  5
E5
330
B9
100
AcDbXrecord
280
1
 40
10.0
  0
XRECORD
  5
E6
330
B9
100
AcDbXrecord
280
1
 40
10.0
  0
XRECORD
  5
E7
330
B9
100
AcDbXrecord
280
1
 40
10.0
  0
XRECORD
  5
E8
330
B9
100
AcDbXrecord
280
1
290
0
  0
XRECORD
  5
E9
330
B9
100
AcDbXrecord
280
1
 90
1
  0
XRECORD
  5
EA
330
B9
100
AcDbXrecord
280
1
 40
-11.0139856212087146
  0
XRECORD
  5
EB
330
B9
100
AcDbXrecord
280
1
 40
-15.9641475505734061
  0
XRECORD
  5
EC
330
B9
100
AcDbXrecord
280
1
1000
Portrait
  0
XRECORD
  5
ED
330
B9
100
AcDbXrecord
280
1
1000
75
  0
XRECORD
  5
EE
330
B9
100
AcDbXrecord
280
1
290
1
  0
XRECORD
  5
EF
330
B9
100
AcDbXrecord
280
1
1000
Custom
  0
XRECORD
  5
F0
330
B9
100
AcDbXrecord
280
1
1000
130
  0
XRECORD
  5
F1
330
B9
100
AcDbXrecord
280
1
1000
0.5
  0
XRECORD
  5
F2
330
B9
100
AcDbXrecord
280
1
290
1
  0
XRECORD
  5
F3
330
B9
100
AcDbXrecord
280
1
1000
1:1
  0
XRECORD
  5
F4
330
B9
100
AcDbXrecord
280
1
290
1
  0
XRECORD
  5
F5
330
B9
100
AcDbXrecord
280
1
290
0
  0
XRECORD
  5
F6
330
B9
100
AcDbXrecord
280
1
1000
Inside
  0
XRECORD
  5
F7
330
B9
100
AcDbXrecord
280
1
1000
Arial,10,-1,5,50,0,0,0,0,0
  0
XRECORD
  5
F8
330
B9
100
AcDbXrecord
280
1
1000
TopLeft
  0
XRECORD
  5
F9
330
B9
100
AcDbXrecord
280
1
1000
3.27.8.6
  0
XRECORD
  5
FA
330
B9
100
AcDbXrecord
280
1
 90
4
  0
XRECORD
  5
FC
330
B9
100
AcDbXrecord
280
1
 40
72.0763956215428578
  0
XRECORD
  5
FD
330
B9
100
AcDbXrecord
280
1
 40
167.9153957806038306
  0
ENDSEC
  0
EOF
