<?xml version="1.0" encoding="UTF-8" standalone="no"?>
<!-- Created with Inkscape (http://www.inkscape.org/) -->

<svg
   version="1.1"
   id="svg2"
   width="226.66667"
   height="208"
   viewBox="0 0 226.66667 208"
   sodipodi:docname="gothic.pdf"
   xmlns:inkscape="http://www.inkscape.org/namespaces/inkscape"
   xmlns:sodipodi="http://sodipodi.sourceforge.net/DTD/sodipodi-0.dtd"
   xmlns="http://www.w3.org/2000/svg"
   xmlns:svg="http://www.w3.org/2000/svg">
  <defs
     id="defs6" />
  <sodipodi:namedview
     id="namedview4"
     pagecolor="#ffffff"
     bordercolor="#666666"
     borderopacity="1.0"
     inkscape:showpageshadow="2"
     inkscape:pageopacity="0.0"
     inkscape:pagecheckerboard="0"
     inkscape:deskcolor="#d1d1d1" />
  <g
     id="g8"
     inkscape:groupmode="layer"
     inkscape:label="gothic"
     transform="matrix(1.3333333,0,0,-1.3333333,0,208)">
    <g
       id="g10"
       transform="matrix(0.06,0,0,-0.06,0,156)">
      <g
         id="g12">
        <g
           id="g14" />
      </g>
      <g
         id="g16">
        <g
           id="g18" />
        <g
           id="g20"
           transform="matrix(47.216667,0,0,-47.272727,0,2600)">
          <path
             d="m 5.625,28.212527 h 1.05 m 0.3835,0 h 0.013 m 0.3835,0 h 1.56 m 0.3835,0 h 0.013 m 0.3835,0 h 1.56 m 0.3835,0 h 0.013 m 0.3835,0 h 1.56 m 0.3835,0 h 0.013 m 0.3835,0 h 1.56 m 0.3835,0 h 0.013 m 0.3835,0 h 1.56 m 0.3835,0 h 0.013 m 0.3835,0 h 1.56 m 0.3835,0 h 0.013 m 0.3835,0 h 1.56 m 0.3835,0 h 0.013 m 0.3835,0 h 1.56 m 0.3835,0 h 0.013 m 0.3835,0 h 1.56 m 0.3835,0 h 0.013 m 0.3835,0 h 1.56 m 0.3835,0 h 0.013 m 0.3835,0 h 1.56 m 0.3835,0 h 0.013 m 0.3835,0 h 1.56 m 0.3835,0 h 0.013 m 0.3835,0 h 1.56 m 0.3835,0 h 0.013 m 0.3835,0 h 1.56 m 0.3835,0 h 0.013 m 0.3835,0 h 1.56 m 0.3835,0 h 0.013 m 0.3835,0 h 1.56 m 0.3835,0 h 0.013 m 0.3835,0 h 1.56 m 0.3835,0 h 0.013 m 0.3835,0 h 1.56 m 0.3835,0 h 0.013 m 0.3835,0 h 1.05"
             style="fill:none;stroke:#000000;stroke-width:0.13;stroke-linecap:round;stroke-linejoin:round;stroke-miterlimit:10;stroke-dasharray:none;stroke-opacity:1"
             id="path22" />
          <path
             d="m 28.125,7.7125273 v 1.39 m 0,0.3835 v 0.013 m 0,0.3835 v 1.5599997 m 0,0.3835 v 0.013 m 0,0.3835 v 1.56 m 0,0.3835 v 0.013 m 0,0.3835 v 1.56 m 0,0.3835 v 0.013 m 0,0.3835 v 1.56 m 0,0.3835 v 0.013 m 0,0.3835 v 1.56 m 0,0.3835 v 0.013 m 0,0.3835 v 1.56 m 0,0.3835 v 0.013 m 0,0.3835 v 1.56 m 0,0.3835 v 0.013 m 0,0.3835 v 1.56 m 0,0.3835 v 0.013 m 0,0.3835 v 1.56 m 0,0.3835 v 0.013 m 0,0.3835 v 1.56 m 0,0.3835 v 0.013 m 0,0.3835 v 1.56 m 0,0.3835 v 0.013 m 0,0.3835 v 1.56 m 0,0.3835 v 0.013 m 0,0.3835 v 1.56 m 0,0.3835 v 0.013 m 0,0.3835 v 1.56 m 0,0.3835 v 0.013 m 0,0.3835 v 1.56 m 0,0.3835 v 0.013 m 0,0.3835 v 1.56 m 0,0.3835 v 0.013 m 0,0.3835 v 1.39"
             style="fill:none;stroke:#000000;stroke-width:0.13;stroke-linecap:round;stroke-linejoin:round;stroke-miterlimit:10;stroke-dasharray:none;stroke-opacity:1"
             id="path24" />
          <path
             d="M 6.125,30.212527 H 7.7931957"
             style="fill:none;stroke:#000000;stroke-width:0.25;stroke-linecap:round;stroke-linejoin:round;stroke-miterlimit:10;stroke-dasharray:none;stroke-opacity:1"
             id="path26" />
          <path
             d="M 50.125,30.212527 H 48.456804"
             style="fill:none;stroke:#000000;stroke-width:0.25;stroke-linecap:round;stroke-linejoin:round;stroke-miterlimit:10;stroke-dasharray:none;stroke-opacity:1"
             id="path28" />
          <path
             d="M 50.125,26.212527 H 48.456804"
             style="fill:none;stroke:#000000;stroke-width:0.25;stroke-linecap:round;stroke-linejoin:round;stroke-miterlimit:10;stroke-dasharray:none;stroke-opacity:1"
             id="path30" />
          <path
             d="M 6.125,26.212527 H 7.7931957"
             style="fill:none;stroke:#000000;stroke-width:0.25;stroke-linecap:round;stroke-linejoin:round;stroke-miterlimit:10;stroke-dasharray:none;stroke-opacity:1"
             id="path32" />
          <path
             d="m 26.827703,46.279181 -0.125791,-0.0606 -0.125579,-0.06104 -0.125364,-0.06148 -0.125149,-0.06191 -0.124933,-0.06235 -0.124714,-0.06278 -0.124494,-0.06322 -0.124273,-0.06365 -0.124049,-0.06409 -0.123825,-0.06452 -0.1236,-0.06495 -0.123371,-0.06538 -0.123143,-0.06581 -0.122913,-0.06624 -0.12268,-0.06667 -0.122447,-0.0671 -0.122212,-0.06753 -0.121975,-0.06795 -0.121738,-0.06838 -0.121498,-0.0688 -0.121257,-0.06923 -0.121014,-0.06965 -0.120772,-0.07007 -0.120525,-0.07049 -0.120279,-0.07091 -0.12003,-0.07133 -0.119781,-0.07175 -0.11953,-0.07217 -0.119277,-0.07258 -0.119023,-0.073 -0.118767,-0.07342 -0.118511,-0.07383 -0.118252,-0.07424 -0.117992,-0.07465 -0.11773,-0.07507 -0.117468,-0.07548 -0.117204,-0.07589 -0.116938,-0.07629 -0.116672,-0.0767 -0.116402,-0.07711 -0.116133,-0.07752 -0.115862,-0.07792 -0.115589,-0.07832 -0.115314,-0.07873 -0.11504,-0.07913 -0.114762,-0.07953 -0.114484,-0.07993 -0.114204,-0.08033 -0.113924,-0.08073 -0.11364,-0.08113 -0.113357,-0.08152 -0.113072,-0.08192 -0.112785,-0.08231 -0.112497,-0.0827 -0.112207,-0.0831 -0.111917,-0.08349 -0.111625,-0.08388 -0.111331,-0.08427 -0.111037,-0.08466 -0.11074,-0.08504 -0.110443,-0.08543 -0.110144,-0.08581 -0.109843,-0.0862 -0.109542,-0.08658 -0.10924,-0.08696 -0.108935,-0.08734 -0.108629,-0.08772 -0.108323,-0.0881 -0.108014,-0.08848 -0.107705,-0.08886 -0.107394,-0.08923 -0.107082,-0.0896 -0.106769,-0.08998 -0.106453,-0.09035 -0.106138,-0.09072 -0.105821,-0.09109 -0.105501,-0.09146 -0.105182,-0.09183 -0.104861,-0.09219 -0.104538,-0.09256 -0.104215,-0.09292 -0.10389,-0.09329 -0.103563,-0.09365 -0.103236,-0.09401 -0.102907,-0.09437 -0.102577,-0.09473 -0.102245,-0.09509 -0.101913,-0.09544 -0.10158,-0.0958 -0.101244,-0.09615 -0.100908,-0.0965 -0.100571,-0.09686 -0.100232,-0.09721 -0.09989,-0.09755 -0.09955,-0.0979 -0.09921,-0.09825 -0.09886,-0.0986 -0.09852,-0.09894 -0.09817,-0.09928 -0.09783,-0.09963 -0.09748,-0.09997 -0.09713,-0.100306 -0.09678,-0.100645 -0.09643,-0.100983 -0.09607,-0.101318 -0.09572,-0.101653 -0.09536,-0.101986 -0.09501,-0.102319 -0.09465,-0.10265 -0.09429,-0.102979 -0.09393,-0.103308 -0.09357,-0.103636 -0.09321,-0.103961 -0.09284,-0.104286 -0.09248,-0.10461 -0.09211,-0.104931 -0.09175,-0.105253 -0.09138,-0.105572 -0.09101,-0.10589 -0.09064,-0.106208 -0.09027,-0.106523 -0.0899,-0.106838 -0.08952,-0.107151 -0.08915,-0.107462 -0.08877,-0.107773 -0.0884,-0.108083 -0.08802,-0.10839 -0.08764,-0.108697 -0.08726,-0.109002 -0.08688,-0.109306 -0.08649,-0.109609 -0.08611,-0.10991 -0.08573,-0.11021 -0.08534,-0.110508 -0.08496,-0.110806 -0.08457,-0.111101 -0.08418,-0.111396 -0.08379,-0.111689 -0.0834,-0.111982 -0.08301,-0.112271 -0.08262,-0.112561 -0.08222,-0.112848 -0.08183,-0.113134 -0.08143,-0.11342 -0.08104,-0.113703 -0.08064,-0.113985 -0.08024,-0.114266 -0.07984,-0.114546 -0.07944,-0.114823 -0.07904,-0.1151 -0.07864,-0.115375 -0.07824,-0.115649 -0.07783,-0.115922 -0.07743,-0.116192 -0.07702,-0.116462 -0.07661,-0.11673 -0.0762,-0.116997 -0.0758,-0.117262 -0.07539,-0.117526 -0.07498,-0.117789 -0.01567,-0.02474"
             style="fill:none;stroke:#000000;stroke-width:0.25;stroke-linecap:round;stroke-linejoin:round;stroke-miterlimit:10;stroke-dasharray:none;stroke-opacity:1"
             id="path34" />
          <path
             d="m 29.422297,46.279181 0.125791,-0.0606 0.125578,-0.06104 0.125365,-0.06148 0.125149,-0.06191 0.124933,-0.06235 0.124714,-0.06278 0.124494,-0.06322 0.124272,-0.06365 0.12405,-0.06409 0.123825,-0.06452 0.123599,-0.06495 0.123372,-0.06538 0.123143,-0.06581 0.122912,-0.06624 0.122681,-0.06667 0.122447,-0.0671 0.122211,-0.06753 0.121976,-0.06795 0.121737,-0.06838 0.121498,-0.0688 0.121258,-0.06923 0.121014,-0.06965 0.120771,-0.07007 0.120526,-0.07049 0.120279,-0.07091 0.12003,-0.07133 0.119781,-0.07175 0.11953,-0.07217 0.119277,-0.07258 0.119023,-0.073 0.118767,-0.07342 0.11851,-0.07383 0.118252,-0.07424 0.117992,-0.07465 0.117731,-0.07507 0.117468,-0.07548 0.117204,-0.07589 0.116938,-0.07629 0.116671,-0.0767 0.116403,-0.07711 0.116133,-0.07752 0.115862,-0.07792 0.115589,-0.07832 0.115314,-0.07873 0.115039,-0.07913 0.114763,-0.07953 0.114484,-0.07993 0.114204,-0.08033 0.113923,-0.08073 0.113641,-0.08113 0.113357,-0.08152 0.113072,-0.08192 0.112785,-0.08231 0.112496,-0.0827 0.112208,-0.0831 0.111917,-0.08349 0.111625,-0.08388 0.111331,-0.08427 0.111036,-0.08466 0.110741,-0.08504 0.110442,-0.08543 0.110144,-0.08581 0.109844,-0.0862 0.109542,-0.08658 0.109239,-0.08696 0.108935,-0.08734 0.10863,-0.08772 0.108322,-0.0881 0.108015,-0.08848 0.107705,-0.08886 0.107394,-0.08923 0.107082,-0.0896 0.106768,-0.08998 0.106454,-0.09035 0.106138,-0.09072 0.10582,-0.09109 0.105502,-0.09146 0.105182,-0.09183 0.104861,-0.09219 0.104538,-0.09256 0.104215,-0.09292 0.103889,-0.09329 0.103564,-0.09365 0.103236,-0.09401 0.102907,-0.09437 0.102577,-0.09473 0.102245,-0.09509 0.101913,-0.09544 0.10158,-0.0958 0.101244,-0.09615 0.100908,-0.0965 0.100571,-0.09686 0.100232,-0.09721 0.09989,-0.09755 0.09955,-0.0979 0.09921,-0.09825 0.09887,-0.0986 0.09852,-0.09894 0.09818,-0.09928 0.09783,-0.09963 0.09748,-0.09997 0.09713,-0.100306 0.09678,-0.100645 0.09643,-0.100983 0.09607,-0.101318 0.09572,-0.101653 0.09536,-0.101986 0.09501,-0.102319 0.09465,-0.10265 0.09429,-0.102979 0.09393,-0.103308 0.09357,-0.103636 0.09321,-0.103961 0.09284,-0.104286 0.09248,-0.10461 0.09211,-0.104931 0.09175,-0.105253 0.09138,-0.105572 0.09101,-0.10589 0.09064,-0.106208 0.09027,-0.106523 0.08989,-0.106838 0.08952,-0.107151 0.08915,-0.107462 0.08877,-0.107773 0.08839,-0.108083 0.08802,-0.10839 0.08764,-0.108697 0.08726,-0.109002 0.08688,-0.109306 0.0865,-0.109609 0.08611,-0.10991 0.08573,-0.11021 0.08534,-0.110508 0.08496,-0.110806 0.08457,-0.111101 0.08418,-0.111396 0.08379,-0.111689 0.0834,-0.111982 0.08301,-0.112271 0.08262,-0.112561 0.08223,-0.112848 0.08183,-0.113134 0.08143,-0.11342 0.08104,-0.113703 0.08064,-0.113985 0.08024,-0.114266 0.07984,-0.114546 0.07944,-0.114823 0.07904,-0.1151 0.07864,-0.115375 0.07824,-0.115649 0.07783,-0.115922 0.07743,-0.116192 0.07702,-0.116462 0.07661,-0.11673 0.07621,-0.116997 0.0758,-0.117262 0.07539,-0.117526 0.07498,-0.117789 0.01567,-0.02474"
             style="fill:none;stroke:#000000;stroke-width:0.25;stroke-linecap:round;stroke-linejoin:round;stroke-miterlimit:10;stroke-dasharray:none;stroke-opacity:1"
             id="path36" />
          <path
             d="m 29.422297,10.145874 0.125791,0.0606 0.125578,0.06104 0.125365,0.06148 0.125149,0.06191 0.124933,0.06235 0.124714,0.06278 0.124494,0.06322 0.124272,0.06365 0.12405,0.06409 0.123825,0.06452 0.123599,0.06495 0.123372,0.06538 0.123143,0.06581 0.122912,0.06624 0.122681,0.06667 0.122447,0.0671 0.122211,0.06753 0.121976,0.06795 0.121737,0.06838 0.121498,0.0688 0.121258,0.06922 0.121014,0.06965 0.120771,0.07007 0.120526,0.07049 0.120279,0.07091 0.12003,0.07133 0.119781,0.07175 0.11953,0.07217 0.119277,0.07258 0.119023,0.073 0.118767,0.07342 0.11851,0.07383 0.118252,0.07424 0.117992,0.07465 0.117731,0.07507 0.117468,0.07548 0.117204,0.07589 0.116938,0.0763 0.116671,0.0767 0.116403,0.07711 0.116133,0.07752 0.115862,0.07792 0.115589,0.07832 0.115314,0.07873 0.115039,0.07913 0.114763,0.07953 0.114484,0.07993 0.114204,0.08033 0.113923,0.08073 0.113641,0.08112 0.113357,0.08152 0.113072,0.08192 0.112785,0.08231 0.112496,0.0827 0.112208,0.0831 0.111917,0.08349 0.111625,0.08388 0.111331,0.08427 0.111036,0.08465 0.110741,0.08504 0.110442,0.08543 0.110144,0.08581 0.109844,0.0862 0.109542,0.08658 0.109239,0.08696 0.108935,0.08734 0.10863,0.08772 0.108322,0.0881 0.108015,0.08848 0.107705,0.08885 0.107394,0.08923 0.107082,0.0896 0.106768,0.08998 0.106454,0.09035 0.106138,0.09072 0.10582,0.09109 0.105502,0.09146 0.105182,0.09183 0.104861,0.09219 0.104538,0.09256 0.104215,0.09292 0.103889,0.09329 0.103564,0.09365 0.103236,0.09401 0.102907,0.09437 0.102577,0.09473 0.102245,0.09509 0.101913,0.09544 0.10158,0.0958 0.101244,0.09615 0.100908,0.0965 0.100571,0.09686 0.100232,0.09721 0.09989,0.09756 0.09955,0.0979 0.09921,0.09825 0.09887,0.0986 0.09852,0.09894 0.09818,0.09928 0.09783,0.09963 0.09748,0.09997 0.09713,0.100307 0.09678,0.100645 0.09643,0.100982 0.09607,0.101318 0.09572,0.101653 0.09536,0.101987 0.09501,0.102319 0.09465,0.102649 0.09429,0.10298 0.09393,0.103308 0.09357,0.103635 0.09321,0.103961 0.09284,0.104286 0.09248,0.10461 0.09211,0.104932 0.09175,0.105252 0.09138,0.105572 0.09101,0.105891 0.09064,0.106207 0.09027,0.106523 0.08989,0.106838 0.08952,0.107151 0.08915,0.107463 0.08877,0.107773 0.08839,0.108082 0.08802,0.108391 0.08764,0.108696 0.08726,0.109003 0.08688,0.109306 0.0865,0.109608 0.08611,0.10991 0.08573,0.11021 0.08534,0.110508 0.08496,0.110806 0.08457,0.111102 0.08418,0.111396 0.08379,0.111689 0.0834,0.111981 0.08301,0.112271 0.08262,0.112561 0.08223,0.112848 0.08183,0.113135 0.08143,0.113419 0.08104,0.113703 0.08064,0.113986 0.08024,0.114266 0.07984,0.114545 0.07944,0.114823 0.07904,0.115101 0.07864,0.115375 0.07824,0.115649 0.07783,0.115921 0.07743,0.116193 0.07702,0.116462 0.07661,0.11673 0.07621,0.116997 0.0758,0.117262 0.07539,0.117526 0.07498,0.117788 0.01567,0.02474"
             style="fill:none;stroke:#000000;stroke-width:0.25;stroke-linecap:round;stroke-linejoin:round;stroke-miterlimit:10;stroke-dasharray:none;stroke-opacity:1"
             id="path38" />
          <path
             d="m 26.827703,10.145874 -0.125791,0.0606 -0.125579,0.06104 -0.125364,0.06148 -0.125149,0.06191 -0.124933,0.06235 -0.124714,0.06278 -0.124494,0.06322 -0.124273,0.06365 -0.124049,0.06409 -0.123825,0.06452 -0.1236,0.06495 -0.123371,0.06538 -0.123143,0.06581 -0.122913,0.06624 -0.12268,0.06667 -0.122447,0.0671 -0.122212,0.06753 -0.121975,0.06795 -0.121738,0.06838 -0.121498,0.0688 -0.121257,0.06922 -0.121014,0.06965 -0.120772,0.07007 -0.120525,0.07049 -0.120279,0.07091 -0.12003,0.07133 -0.119781,0.07175 -0.11953,0.07217 -0.119277,0.07258 -0.119023,0.073 -0.118767,0.07342 -0.118511,0.07383 -0.118252,0.07424 -0.117992,0.07465 -0.11773,0.07507 -0.117468,0.07548 -0.117204,0.07589 -0.116938,0.0763 -0.116672,0.0767 -0.116402,0.07711 -0.116133,0.07752 -0.115862,0.07792 -0.115589,0.07832 -0.115314,0.07873 -0.11504,0.07913 -0.114762,0.07953 -0.114484,0.07993 -0.114204,0.08033 -0.113924,0.08073 -0.11364,0.08112 -0.113357,0.08152 -0.113072,0.08192 -0.112785,0.08231 -0.112497,0.0827 -0.112207,0.0831 -0.111917,0.08349 -0.111625,0.08388 -0.111331,0.08427 -0.111037,0.08465 -0.11074,0.08504 -0.110443,0.08543 -0.110144,0.08581 -0.109843,0.0862 -0.109542,0.08658 -0.10924,0.08696 -0.108935,0.08734 -0.108629,0.08772 -0.108323,0.0881 -0.108014,0.08848 -0.107705,0.08885 -0.107394,0.08923 -0.107082,0.0896 -0.106769,0.08998 -0.106453,0.09035 -0.106138,0.09072 -0.105821,0.09109 -0.105501,0.09146 -0.105182,0.09183 -0.104861,0.09219 -0.104538,0.09256 -0.104215,0.09292 -0.10389,0.09329 -0.103563,0.09365 -0.103236,0.09401 -0.102907,0.09437 -0.102577,0.09473 -0.102245,0.09509 -0.101913,0.09544 -0.10158,0.0958 -0.101244,0.09615 -0.100908,0.0965 -0.100571,0.09686 -0.100232,0.09721 -0.09989,0.09756 -0.09955,0.0979 -0.09921,0.09825 -0.09886,0.0986 -0.09852,0.09894 -0.09817,0.09928 -0.09783,0.09963 -0.09748,0.09997 -0.09713,0.100307 -0.09678,0.100645 -0.09643,0.100982 -0.09607,0.101318 -0.09572,0.101653 -0.09536,0.101987 -0.09501,0.102319 -0.09465,0.102649 -0.09429,0.10298 -0.09393,0.103308 -0.09357,0.103635 -0.09321,0.103961 -0.09284,0.104286 -0.09248,0.10461 -0.09211,0.104932 -0.09175,0.105252 -0.09138,0.105572 -0.09101,0.105891 -0.09064,0.106207 -0.09027,0.106523 -0.0899,0.106838 -0.08952,0.107151 -0.08915,0.107463 -0.08877,0.107773 -0.0884,0.108082 -0.08802,0.108391 -0.08764,0.108696 -0.08726,0.109003 -0.08688,0.109306 -0.08649,0.109608 -0.08611,0.10991 -0.08573,0.11021 -0.08534,0.110508 -0.08496,0.110806 -0.08457,0.111102 -0.08418,0.111396 -0.08379,0.111689 -0.0834,0.111981 -0.08301,0.112271 -0.08262,0.112561 -0.08222,0.112848 -0.08183,0.113135 -0.08143,0.113419 -0.08104,0.113703 -0.08064,0.113986 -0.08024,0.114266 -0.07984,0.114545 -0.07944,0.114823 -0.07904,0.115101 -0.07864,0.115375 -0.07824,0.115649 -0.07783,0.115921 -0.07743,0.116193 -0.07702,0.116462 -0.07661,0.11673 -0.0762,0.116997 -0.0758,0.117262 -0.07539,0.117526 -0.07498,0.117788 -0.01567,0.02474"
             style="fill:none;stroke:#000000;stroke-width:0.25;stroke-linecap:round;stroke-linejoin:round;stroke-miterlimit:10;stroke-dasharray:none;stroke-opacity:1"
             id="path40" />
          <path
             d="m 7.7931957,30.212527 0.1172167,0.0023 0.1170376,0.0069 0.1166799,0.01144 0.1161439,0.01599 0.1154306,0.02051 0.1145409,0.02501 0.1134764,0.02946 0.1122386,0.03388 0.1108293,0.03823 0.1092508,0.04254 0.1075054,0.04677 0.1055958,0.05094 0.103525,0.05502 0.1012961,0.05903 0.098912,0.06294 0.096378,0.06676 0.093696,0.07047 0.090871,0.07408 0.087907,0.07757 0.084809,0.08095 0.081582,0.0842 0.07823,0.08732 0.07476,0.09031 0.07117,0.09316 0.06748,0.09587 0.04822,0.07375"
             style="fill:none;stroke:#000000;stroke-width:0.25;stroke-linecap:round;stroke-linejoin:round;stroke-miterlimit:10;stroke-dasharray:none;stroke-opacity:1"
             id="path42" />
          <path
             d="m 48.456804,30.212527 -0.117216,0.0023 -0.117038,0.0069 -0.11668,0.01144 -0.116144,0.01599 -0.11543,0.02051 -0.114541,0.02501 -0.113477,0.02946 -0.112238,0.03388 -0.11083,0.03823 -0.10925,0.04254 -0.107506,0.04677 -0.105596,0.05094 -0.103525,0.05502 -0.101296,0.05903 -0.09891,0.06294 -0.09638,0.06676 -0.0937,0.07047 -0.09087,0.07408 -0.08791,0.07757 -0.08481,0.08095 -0.08158,0.0842 -0.07823,0.08732 -0.07476,0.09031 -0.07117,0.09316 -0.06748,0.09587 -0.04822,0.07375"
             style="fill:none;stroke:#000000;stroke-width:0.25;stroke-linecap:round;stroke-linejoin:round;stroke-miterlimit:10;stroke-dasharray:none;stroke-opacity:1"
             id="path44" />
          <path
             d="m 7.7931957,26.212527 0.1172167,-0.0023 0.1170376,-0.0069 0.1166799,-0.01144 0.1161439,-0.01599 0.1154306,-0.02051 0.1145409,-0.02501 0.1134764,-0.02946 0.1122386,-0.03388 0.1108293,-0.03823 0.1092508,-0.04254 0.1075054,-0.04677 0.1055958,-0.05094 0.103525,-0.05502 0.1012961,-0.05903 0.098912,-0.06294 0.096378,-0.06676 0.093696,-0.07047 0.090871,-0.07408 0.087907,-0.07757 0.084809,-0.08095 0.081582,-0.0842 0.07823,-0.08732 0.07476,-0.09031 0.07117,-0.09316 0.06748,-0.09587 0.04822,-0.07375"
             style="fill:none;stroke:#000000;stroke-width:0.25;stroke-linecap:round;stroke-linejoin:round;stroke-miterlimit:10;stroke-dasharray:none;stroke-opacity:1"
             id="path46" />
          <path
             d="m 48.456804,26.212527 -0.117216,-0.0023 -0.117038,-0.0069 -0.11668,-0.01144 -0.116144,-0.01599 -0.11543,-0.02051 -0.114541,-0.02501 -0.113477,-0.02946 -0.112238,-0.03388 -0.11083,-0.03823 -0.10925,-0.04254 -0.107506,-0.04677 -0.105596,-0.05094 -0.103525,-0.05502 -0.101296,-0.05903 -0.09891,-0.06294 -0.09638,-0.06676 -0.0937,-0.07047 -0.09087,-0.07408 -0.08791,-0.07757 -0.08481,-0.08095 -0.08158,-0.0842 -0.07823,-0.08732 -0.07476,-0.09031 -0.07117,-0.09316 -0.06748,-0.09587 -0.04822,-0.07375"
             style="fill:none;stroke:#000000;stroke-width:0.25;stroke-linecap:round;stroke-linejoin:round;stroke-miterlimit:10;stroke-dasharray:none;stroke-opacity:1"
             id="path48" />
          <path
             d="m 26.827703,46.279181 0.106681,0.04862 0.108499,0.04442 0.110152,0.04014 0.111636,0.03581 0.11295,0.03142 0.114092,0.02698 0.115059,0.02251 0.11585,0.01799 0.116465,0.01345 0.116901,0.0089 0.11716,0.0043 0.117238,-2.65e-4 0.117139,-0.0048 0.11686,-0.0094 0.116403,-0.01398 0.115768,-0.01852 0.114956,-0.02302 0.113969,-0.0275 0.112807,-0.03193 0.111474,-0.03631 0.109969,-0.04064 0.108298,-0.04491 0.09427,-0.04322"
             style="fill:none;stroke:#000000;stroke-width:0.25;stroke-linecap:round;stroke-linejoin:round;stroke-miterlimit:10;stroke-dasharray:none;stroke-opacity:1"
             id="path50" />
          <path
             d="m 26.827703,10.145874 0.106681,-0.04862 0.108499,-0.04442 0.110152,-0.04015 0.111636,-0.035809 0.11295,-0.03142 0.114092,-0.026983 0.115059,-0.022505 0.11585,-0.017992 0.116465,-0.013452 0.116901,-0.00889 0.11716,-0.00432 0.117238,2.645e-4 0.117139,0.00485 0.11686,0.00942 0.116403,0.013977 0.115768,0.018515 0.114956,0.023024 0.113969,0.027498 0.112807,0.03193 0.111474,0.036312 0.109969,0.04064 0.108298,0.04491 0.09427,0.04322"
             style="fill:none;stroke:#000000;stroke-width:0.25;stroke-linecap:round;stroke-linejoin:round;stroke-miterlimit:10;stroke-dasharray:none;stroke-opacity:1"
             id="path52" />
        </g>
        <g
           id="g54"
           transform="matrix(0.4526784,0.7186866,-0.71783432,0.45321587,708.77526,1184.3214)">
          <g
             id="g56">
            <text
               xml:space="preserve"
               transform="translate(0,208)"
               style="font-variant:normal;font-weight:normal;font-size:194px;font-family:'Noto Sans';-inkscape-font-specification:NotoSans-DisplayRegular;writing-mode:lr-tb;fill:#008000;fill-opacity:1;fill-rule:nonzero;stroke:none"
               id="text60"><tspan
                 x="0"
                 y="0"
                 id="tspan58">r</tspan></text>
          </g>
        </g>
        <g
           id="g62"
           transform="matrix(47.216667,0,0,-47.272727,0,2600)" />
        <g
           id="g64"
           transform="matrix(0.18107136,0.28747464,-0.28713373,0.18128635,653.52237,1295.3906)">
          <g
             id="g66">
            <text
               xml:space="preserve"
               transform="translate(0,208)"
               style="font-variant:normal;font-weight:normal;font-size:194px;font-family:'Noto Sans';-inkscape-font-specification:NotoSans-DisplayRegular;writing-mode:lr-tb;fill:#008000;fill-opacity:1;fill-rule:nonzero;stroke:none"
               id="text70"><tspan
                 x="0"
                 y="0"
                 id="tspan68">1</tspan></text>
          </g>
        </g>
        <g
           id="g72"
           transform="matrix(47.216667,0,0,-47.272727,0,2600)">
          <path
             d="M 7.7931957,33.212527 13.038325,24.895069"
             style="fill:none;stroke:#008000;stroke-width:0.13;stroke-linecap:round;stroke-linejoin:round;stroke-miterlimit:10;stroke-dasharray:none;stroke-opacity:1"
             id="path74" />
        </g>
        <g
           id="g76">
          <path
             d="m 443.52641,1149.911 79.59052,89.4679 -33.25157,20.9939 z"
             style="fill:#008000;fill-opacity:1;fill-rule:evenodd;stroke:none"
             id="path78" />
        </g>
        <g
           id="g80"
           transform="matrix(47.216667,0,0,-47.272727,0,2600)">
          <path
             d="M 9.3934291,30.674959 11.079074,28.782369 10.37484,28.338268 Z"
             style="fill:#008000;fill-opacity:1;fill-rule:evenodd;stroke:#008000;stroke-width:0.13;stroke-linecap:round;stroke-linejoin:round;stroke-miterlimit:10;stroke-dasharray:none;stroke-opacity:1"
             id="path82" />
        </g>
        <g
           id="g84"
           transform="matrix(0.56978501,0.6296735,-0.62892678,0.57046151,1103.4737,735.22793)">
          <g
             id="g86">
            <text
               xml:space="preserve"
               transform="translate(0,208)"
               style="font-variant:normal;font-weight:normal;font-size:194px;font-family:'Noto Sans';-inkscape-font-specification:NotoSans-DisplayRegular;writing-mode:lr-tb;fill:#008000;fill-opacity:1;fill-rule:nonzero;stroke:none"
               id="text90"><tspan
                 x="0"
                 y="0"
                 id="tspan88">r</tspan></text>
          </g>
        </g>
        <g
           id="g92"
           transform="matrix(47.216667,0,0,-47.272727,0,2600)" />
        <g
           id="g94"
           transform="matrix(0.227914,0.2518694,-0.25157071,0.22818461,1068.1983,854.17833)">
          <g
             id="g96">
            <text
               xml:space="preserve"
               transform="translate(0,208)"
               style="font-variant:normal;font-weight:normal;font-size:194px;font-family:'Noto Sans';-inkscape-font-specification:NotoSans-DisplayRegular;writing-mode:lr-tb;fill:#008000;fill-opacity:1;fill-rule:nonzero;stroke:none"
               id="text100"><tspan
                 x="0"
                 y="0"
                 id="tspan98">2</tspan></text>
          </g>
        </g>
        <g
           id="g102"
           transform="matrix(47.216667,0,0,-47.272727,0,2600)">
          <path
             d="m 24.650587,31.53501 -7.467828,8.242964"
             style="fill:none;stroke:#008000;stroke-width:0.13;stroke-linecap:round;stroke-linejoin:round;stroke-miterlimit:10;stroke-dasharray:none;stroke-opacity:1"
             id="path104" />
        </g>
        <g
           id="g106">
          <path
             d="m 811.31259,719.58668 93.82013,74.37117 -29.13319,26.42496 z"
             style="fill:#008000;fill-opacity:1;fill-rule:evenodd;stroke:none"
             id="path108" />
        </g>
        <g
           id="g110"
           transform="matrix(47.216667,0,0,-47.272727,0,2600)">
          <path
             d="m 17.182759,39.777974 1.987013,-1.573236 -0.617011,-0.55899 z"
             style="fill:#008000;fill-opacity:1;fill-rule:evenodd;stroke:#008000;stroke-width:0.13;stroke-linecap:round;stroke-linejoin:round;stroke-miterlimit:10;stroke-dasharray:none;stroke-opacity:1"
             id="path112" />
        </g>
        <g
           id="g114"
           transform="matrix(0.28370773,0.80077072,-0.79982108,0.28404458,1381.2056,73.369482)">
          <g
             id="g116">
            <text
               xml:space="preserve"
               transform="translate(0,208)"
               style="font-variant:normal;font-weight:normal;font-size:194px;font-family:'Noto Sans';-inkscape-font-specification:NotoSans-DisplayRegular;writing-mode:lr-tb;fill:#008000;fill-opacity:1;fill-rule:nonzero;stroke:none"
               id="text120"><tspan
                 x="0"
                 y="0"
                 id="tspan118">r</tspan></text>
          </g>
        </g>
        <g
           id="g122"
           transform="matrix(47.216667,0,0,-47.272727,0,2600)" />
        <g
           id="g124"
           transform="matrix(0.11348309,0.32030829,-0.31992843,0.11361783,1302.9054,169.5517)">
          <g
             id="g126">
            <text
               xml:space="preserve"
               transform="translate(0,208)"
               style="font-variant:normal;font-weight:normal;font-size:194px;font-family:'Noto Sans';-inkscape-font-specification:NotoSans-DisplayRegular;writing-mode:lr-tb;fill:#008000;fill-opacity:1;fill-rule:nonzero;stroke:none"
               id="text130"><tspan
                 x="0"
                 y="0"
                 id="tspan128">3</tspan></text>
          </g>
        </g>
        <g
           id="g132"
           transform="matrix(47.216667,0,0,-47.272727,0,2600)">
          <path
             d="m 28.125,43.574182 -3.356762,9.463291"
             style="fill:none;stroke:#008000;stroke-width:0.13;stroke-linecap:round;stroke-linejoin:round;stroke-miterlimit:10;stroke-dasharray:none;stroke-opacity:1"
             id="path134" />
        </g>
        <g
           id="g136">
          <path
             d="m 1280.6144,406.47094 -57.9867,-104.80344 37.0494,-13.15753 z"
             style="fill:#008000;fill-opacity:1;fill-rule:evenodd;stroke:none"
             id="path138" />
        </g>
        <g
           id="g140"
           transform="matrix(47.216667,0,0,-47.272727,0,2600)">
          <path
             d="m 27.122084,46.401576 -1.228098,2.216996 0.784668,0.278332 z"
             style="fill:#008000;fill-opacity:1;fill-rule:evenodd;stroke:#008000;stroke-width:0.13;stroke-linecap:round;stroke-linejoin:round;stroke-miterlimit:10;stroke-dasharray:none;stroke-opacity:1"
             id="path142" />
          <path
             d="m 9.4446414,30.212527 0.3373634,0.532914 m 0.2086046,0.329521 0.3373636,0.532914"
             style="fill:none;stroke:#000000;stroke-width:0.13;stroke-linecap:round;stroke-linejoin:round;stroke-miterlimit:10;stroke-dasharray:none;stroke-opacity:1"
             id="path144" />
          <path
             d="m 7.7931957,30.212527 h 0.6307229 m 0.39,0 h 0.6307228"
             style="fill:none;stroke:#000000;stroke-width:0.13;stroke-linecap:round;stroke-linejoin:round;stroke-miterlimit:10;stroke-dasharray:none;stroke-opacity:1"
             id="path146" />
          <path
             d="m 45.922027,31.607876 0.337364,-0.532914 m 0.208604,-0.329521 0.337364,-0.532914"
             style="fill:none;stroke:#000000;stroke-width:0.13;stroke-linecap:round;stroke-linejoin:round;stroke-miterlimit:10;stroke-dasharray:none;stroke-opacity:1"
             id="path148" />
          <path
             d="m 46.805359,30.212527 h 0.630722 m 0.39,0 h 0.630723"
             style="fill:none;stroke:#000000;stroke-width:0.13;stroke-linecap:round;stroke-linejoin:round;stroke-miterlimit:10;stroke-dasharray:none;stroke-opacity:1"
             id="path150" />
        </g>
        <g
           id="g152"
           transform="matrix(0,-0.84965585,0.84864824,0,2305.0745,830.45154)">
          <g
             id="g154">
            <text
               xml:space="preserve"
               transform="translate(0,208)"
               style="font-variant:normal;font-weight:normal;font-size:194px;font-family:'Noto Sans';-inkscape-font-specification:NotoSans-DisplayRegular;writing-mode:lr-tb;fill:#008000;fill-opacity:1;fill-rule:nonzero;stroke:none"
               id="text158"><tspan
                 x="0"
                 y="0"
                 id="tspan156">d</tspan></text>
          </g>
        </g>
        <g
           id="g160"
           transform="matrix(47.216667,0,0,-47.272727,0,2600)">
          <path
             d="M 53.125,46.574182 V 30.212527"
             style="fill:none;stroke:#008000;stroke-width:0.13;stroke-linecap:round;stroke-linejoin:round;stroke-miterlimit:10;stroke-dasharray:none;stroke-opacity:1"
             id="path162" />
        </g>
        <g
           id="g164">
          <path
             d="m 2508.3854,398.3114 19.6556,118.18182 h -39.3112 z"
             style="fill:#008000;fill-opacity:1;fill-rule:evenodd;stroke:none"
             id="path166" />
        </g>
        <g
           id="g168"
           transform="matrix(47.216667,0,0,-47.272727,0,2600)">
          <path
             d="m 53.125,46.574182 0.416285,-2.5 h -0.83257 z"
             style="fill:#008000;fill-opacity:1;fill-rule:evenodd;stroke:#008000;stroke-width:0.13;stroke-linecap:round;stroke-linejoin:round;stroke-miterlimit:10;stroke-dasharray:none;stroke-opacity:1"
             id="path170" />
        </g>
        <g
           id="g172">
          <path
             d="m 2508.3854,1171.7714 -19.6556,-118.1818 h 39.3112 z"
             style="fill:#008000;fill-opacity:1;fill-rule:evenodd;stroke:none"
             id="path174" />
        </g>
        <g
           id="g176"
           transform="matrix(47.216667,0,0,-47.272727,0,2600)">
          <path
             d="m 53.125,30.212527 -0.416285,2.5 h 0.83257 z"
             style="fill:#008000;fill-opacity:1;fill-rule:evenodd;stroke:#008000;stroke-width:0.13;stroke-linecap:round;stroke-linejoin:round;stroke-miterlimit:10;stroke-dasharray:none;stroke-opacity:1"
             id="path178" />
          <path
             d="M 28.75,46.574182 H 54.375"
             style="fill:none;stroke:#008000;stroke-width:0.13;stroke-linecap:round;stroke-linejoin:round;stroke-miterlimit:10;stroke-dasharray:none;stroke-opacity:1"
             id="path180" />
          <path
             d="m 50.75,30.212527 h 3.625"
             style="fill:none;stroke:#008000;stroke-width:0.13;stroke-linecap:round;stroke-linejoin:round;stroke-miterlimit:10;stroke-dasharray:none;stroke-opacity:1"
             id="path182" />
        </g>
        <g
           id="g184"
           transform="matrix(0.84864824,0,0,0.84965585,1249.3879,2241.8612)">
          <g
             id="g186">
            <text
               xml:space="preserve"
               transform="translate(0,208)"
               style="font-variant:normal;font-weight:normal;font-size:194px;font-family:'Noto Sans';-inkscape-font-specification:NotoSans-DisplayRegular;writing-mode:lr-tb;fill:#008000;fill-opacity:1;fill-rule:nonzero;stroke:none"
               id="text190"><tspan
                 x="0"
                 y="0"
                 id="tspan188">w</tspan></text>
          </g>
        </g>
        <g
           id="g192"
           transform="matrix(47.216667,0,0,-47.272727,0,2600)" />
        <g
           id="g194"
           transform="matrix(0.3394593,0,0,0.33986234,1371.7126,2347.8983)">
          <g
             id="g196">
            <text
               xml:space="preserve"
               transform="translate(0,208)"
               style="font-variant:normal;font-weight:normal;font-size:194px;font-family:'Noto Sans';-inkscape-font-specification:NotoSans-DisplayRegular;writing-mode:lr-tb;fill:#008000;fill-opacity:1;fill-rule:nonzero;stroke:none"
               id="text200"><tspan
                 x="0"
                 y="0"
                 id="tspan198">u</tspan></text>
          </g>
        </g>
        <g
           id="g202"
           transform="matrix(47.216667,0,0,-47.272727,0,2600)">
          <path
             d="M 9.4446414,3.2125273 H 46.805359"
             style="fill:none;stroke:#008000;stroke-width:0.13;stroke-linecap:round;stroke-linejoin:round;stroke-miterlimit:10;stroke-dasharray:none;stroke-opacity:1"
             id="path204" />
        </g>
        <g
           id="g206">
          <path
             d="m 445.94448,2448.1351 118.04167,-19.6789 v 39.3578 z"
             style="fill:#008000;fill-opacity:1;fill-rule:evenodd;stroke:none"
             id="path208" />
        </g>
        <g
           id="g210"
           transform="matrix(47.216667,0,0,-47.272727,0,2600)">
          <path
             d="M 9.4446414,3.2125273 11.944641,3.6288119 V 2.7962426 Z"
             style="fill:#008000;fill-opacity:1;fill-rule:evenodd;stroke:#008000;stroke-width:0.13;stroke-linecap:round;stroke-linejoin:round;stroke-miterlimit:10;stroke-dasharray:none;stroke-opacity:1"
             id="path212" />
        </g>
        <g
           id="g214">
          <path
             d="m 2209.993,2448.1351 -118.0417,19.6789 v -39.3578 z"
             style="fill:#008000;fill-opacity:1;fill-rule:evenodd;stroke:none"
             id="path216" />
        </g>
        <g
           id="g218"
           transform="matrix(47.216667,0,0,-47.272727,0,2600)">
          <path
             d="m 46.805359,3.2125273 -2.5,-0.4162847 v 0.8325693 z"
             style="fill:#008000;fill-opacity:1;fill-rule:evenodd;stroke:#008000;stroke-width:0.13;stroke-linecap:round;stroke-linejoin:round;stroke-miterlimit:10;stroke-dasharray:none;stroke-opacity:1"
             id="path220" />
          <path
             d="M 9.4446414,29.587527 V 1.9625273"
             style="fill:none;stroke:#008000;stroke-width:0.13;stroke-linecap:round;stroke-linejoin:round;stroke-miterlimit:10;stroke-dasharray:none;stroke-opacity:1"
             id="path222" />
          <path
             d="M 46.805359,29.587527 V 1.9625273"
             style="fill:none;stroke:#008000;stroke-width:0.13;stroke-linecap:round;stroke-linejoin:round;stroke-miterlimit:10;stroke-dasharray:none;stroke-opacity:1"
             id="path224" />
        </g>
      </g>
    </g>
  </g>
</svg>
