<?xml version="1.0" encoding="UTF-8" standalone="no"?>
<!-- Created with Inkscape (http://www.inkscape.org/) -->

<svg
   version="1.1"
   id="svg1"
   width="226.66667"
   height="208"
   viewBox="0 0 226.66667 208"
   sodipodi:docname="gothic.pdf"
   xmlns:inkscape="http://www.inkscape.org/namespaces/inkscape"
   xmlns:sodipodi="http://sodipodi.sourceforge.net/DTD/sodipodi-0.dtd"
   xmlns="http://www.w3.org/2000/svg"
   xmlns:svg="http://www.w3.org/2000/svg">
  <defs
     id="defs1" />
  <sodipodi:namedview
     id="namedview1"
     pagecolor="#ffffff"
     bordercolor="#000000"
     borderopacity="0.25"
     inkscape:showpageshadow="2"
     inkscape:pageopacity="0.0"
     inkscape:pagecheckerboard="0"
     inkscape:deskcolor="#d1d1d1">
    <inkscape:page
       x="0"
       y="0"
       inkscape:label="1"
       id="page1"
       width="226.66667"
       height="208"
       margin="0"
       bleed="0" />
  </sodipodi:namedview>
  <g
     id="g1"
     inkscape:groupmode="layer"
     inkscape:label="1">
    <path
       id="path1"
       d="m 5.625,28.212527 h 1.05 m 0.3835,0 h 0.013 m 0.3835,0 h 1.56 m 0.3835,0 h 0.013 m 0.3835,0 h 1.56 m 0.3835,0 h 0.013 m 0.3835,0 h 1.56 m 0.3835,0 h 0.013 m 0.3835,0 h 1.56 m 0.3835,0 h 0.013 m 0.3835,0 h 1.56 m 0.3835,0 h 0.013 m 0.3835,0 h 1.56 m 0.3835,0 h 0.013 m 0.3835,0 h 1.56 m 0.3835,0 h 0.013 m 0.3835,0 h 1.56 m 0.3835,0 h 0.013 m 0.3835,0 h 1.56 m 0.3835,0 h 0.013 m 0.3835,0 h 1.56 m 0.3835,0 h 0.013 m 0.3835,0 h 1.56 m 0.3835,0 h 0.013 m 0.3835,0 h 1.56 m 0.3835,0 h 0.013 m 0.3835,0 h 1.56 m 0.3835,0 h 0.013 m 0.3835,0 h 1.56 m 0.3835,0 h 0.013 m 0.3835,0 h 1.56 m 0.3835,0 h 0.013 m 0.3835,0 h 1.56 m 0.3835,0 h 0.013 m 0.3835,0 h 1.56 m 0.3835,0 h 0.013 m 0.3835,0 h 1.56 m 0.3835,0 h 0.013 m 0.3835,0 h 1.05"
       style="fill:none;stroke:#000000;stroke-width:0.13;stroke-linecap:round;stroke-linejoin:round;stroke-miterlimit:10;stroke-dasharray:none;stroke-opacity:1"
       transform="matrix(3.7773333,0,0,-3.7818182,0,208)" />
    <path
       id="path2"
       d="m 28.125,7.7125273 v 1.39 m 0,0.3835 v 0.013 m 0,0.3835 v 1.5599997 m 0,0.3835 v 0.013 m 0,0.3835 v 1.56 m 0,0.3835 v 0.013 m 0,0.3835 v 1.56 m 0,0.3835 v 0.013 m 0,0.3835 v 1.56 m 0,0.3835 v 0.013 m 0,0.3835 v 1.56 m 0,0.3835 v 0.013 m 0,0.3835 v 1.56 m 0,0.3835 v 0.013 m 0,0.3835 v 1.56 m 0,0.3835 v 0.013 m 0,0.3835 v 1.56 m 0,0.3835 v 0.013 m 0,0.3835 v 1.56 m 0,0.3835 v 0.013 m 0,0.3835 v 1.56 m 0,0.3835 v 0.013 m 0,0.3835 v 1.56 m 0,0.3835 v 0.013 m 0,0.3835 v 1.56 m 0,0.3835 v 0.013 m 0,0.3835 v 1.56 m 0,0.3835 v 0.013 m 0,0.3835 v 1.56 m 0,0.3835 v 0.013 m 0,0.3835 v 1.56 m 0,0.3835 v 0.013 m 0,0.3835 v 1.56 m 0,0.3835 v 0.013 m 0,0.3835 v 1.39"
       style="fill:none;stroke:#000000;stroke-width:0.13;stroke-linecap:round;stroke-linejoin:round;stroke-miterlimit:10;stroke-dasharray:none;stroke-opacity:1"
       transform="matrix(3.7773333,0,0,-3.7818182,0,208)" />
    <path
       id="path3"
       d="M 6.125,30.212527 H 7.7931957"
       style="fill:none;stroke:#000000;stroke-width:0.25;stroke-linecap:round;stroke-linejoin:round;stroke-miterlimit:10;stroke-dasharray:none;stroke-opacity:1"
       transform="matrix(3.7773333,0,0,-3.7818182,0,208)" />
    <path
       id="path4"
       d="M 50.125,30.212527 H 48.456804"
       style="fill:none;stroke:#000000;stroke-width:0.25;stroke-linecap:round;stroke-linejoin:round;stroke-miterlimit:10;stroke-dasharray:none;stroke-opacity:1"
       transform="matrix(3.7773333,0,0,-3.7818182,0,208)" />
    <path
       id="path5"
       d="M 50.125,26.212527 H 48.456804"
       style="fill:none;stroke:#000000;stroke-width:0.25;stroke-linecap:round;stroke-linejoin:round;stroke-miterlimit:10;stroke-dasharray:none;stroke-opacity:1"
       transform="matrix(3.7773333,0,0,-3.7818182,0,208)" />
    <path
       id="path6"
       d="M 6.125,26.212527 H 7.7931957"
       style="fill:none;stroke:#000000;stroke-width:0.25;stroke-linecap:round;stroke-linejoin:round;stroke-miterlimit:10;stroke-dasharray:none;stroke-opacity:1"
       transform="matrix(3.7773333,0,0,-3.7818182,0,208)" />
    <path
       id="path7"
       d="m 26.827703,46.279181 -0.125791,-0.0606 -0.125579,-0.06104 -0.125364,-0.06148 -0.125149,-0.06191 -0.124933,-0.06235 -0.124714,-0.06278 -0.124494,-0.06322 -0.124273,-0.06365 -0.124049,-0.06409 -0.123825,-0.06452 -0.1236,-0.06495 -0.123371,-0.06538 -0.123143,-0.06581 -0.122913,-0.06624 -0.12268,-0.06667 -0.122447,-0.0671 -0.122212,-0.06753 -0.121975,-0.06795 -0.121738,-0.06838 -0.121498,-0.0688 -0.121257,-0.06923 -0.121014,-0.06965 -0.120772,-0.07007 -0.120525,-0.07049 -0.120279,-0.07091 -0.12003,-0.07133 -0.119781,-0.07175 -0.11953,-0.07217 -0.119277,-0.07258 -0.119023,-0.073 -0.118767,-0.07342 -0.118511,-0.07383 -0.118252,-0.07424 -0.117992,-0.07465 -0.11773,-0.07507 -0.117468,-0.07548 -0.117204,-0.07589 -0.116938,-0.07629 -0.116672,-0.0767 -0.116402,-0.07711 -0.116133,-0.07752 -0.115862,-0.07792 -0.115589,-0.07832 -0.115314,-0.07873 -0.11504,-0.07913 -0.114762,-0.07953 -0.114484,-0.07993 -0.114204,-0.08033 -0.113924,-0.08073 -0.11364,-0.08113 -0.113357,-0.08152 -0.113072,-0.08192 -0.112785,-0.08231 -0.112497,-0.0827 -0.112207,-0.0831 -0.111917,-0.08349 -0.111625,-0.08388 -0.111331,-0.08427 -0.111037,-0.08466 -0.11074,-0.08504 -0.110443,-0.08543 -0.110144,-0.08581 -0.109843,-0.0862 -0.109542,-0.08658 -0.10924,-0.08696 -0.108935,-0.08734 -0.108629,-0.08772 -0.108323,-0.0881 -0.108014,-0.08848 -0.107705,-0.08886 -0.107394,-0.08923 -0.107082,-0.0896 -0.106769,-0.08998 -0.106453,-0.09035 -0.106138,-0.09072 -0.105821,-0.09109 -0.105501,-0.09146 -0.105182,-0.09183 -0.104861,-0.09219 -0.104538,-0.09256 -0.104215,-0.09292 -0.10389,-0.09329 -0.103563,-0.09365 -0.103236,-0.09401 -0.102907,-0.09437 -0.102577,-0.09473 -0.102245,-0.09509 -0.101913,-0.09544 -0.10158,-0.0958 -0.101244,-0.09615 -0.100908,-0.0965 -0.100571,-0.09686 -0.100232,-0.09721 -0.09989,-0.09755 -0.09955,-0.0979 -0.09921,-0.09825 -0.09886,-0.0986 -0.09852,-0.09894 -0.09817,-0.09928 -0.09783,-0.09963 -0.09748,-0.09997 -0.09713,-0.100306 -0.09678,-0.100645 -0.09643,-0.100983 -0.09607,-0.101318 -0.09572,-0.101653 -0.09536,-0.101986 -0.09501,-0.102319 -0.09465,-0.10265 -0.09429,-0.102979 -0.09393,-0.103308 -0.09357,-0.103636 -0.09321,-0.103961 -0.09284,-0.104286 -0.09248,-0.10461 -0.09211,-0.104931 -0.09175,-0.105253 -0.09138,-0.105572 -0.09101,-0.10589 -0.09064,-0.106208 -0.09027,-0.106523 -0.0899,-0.106838 -0.08952,-0.107151 -0.08915,-0.107462 -0.08877,-0.107773 -0.0884,-0.108083 -0.08802,-0.10839 -0.08764,-0.108697 -0.08726,-0.109002 -0.08688,-0.109306 -0.08649,-0.109609 -0.08611,-0.10991 -0.08573,-0.11021 -0.08534,-0.110508 -0.08496,-0.110806 -0.08457,-0.111101 -0.08418,-0.111396 -0.08379,-0.111689 -0.0834,-0.111982 -0.08301,-0.112271 -0.08262,-0.112561 -0.08222,-0.112848 -0.08183,-0.113134 -0.08143,-0.11342 -0.08104,-0.113703 -0.08064,-0.113985 -0.08024,-0.114266 -0.07984,-0.114546 -0.07944,-0.114823 -0.07904,-0.1151 -0.07864,-0.115375 -0.07824,-0.115649 -0.07783,-0.115922 -0.07743,-0.116192 -0.07702,-0.116462 -0.07661,-0.11673 -0.0762,-0.116997 -0.0758,-0.117262 -0.07539,-0.117526 -0.07498,-0.117789 -0.01567,-0.02474"
       style="fill:none;stroke:#000000;stroke-width:0.25;stroke-linecap:round;stroke-linejoin:round;stroke-miterlimit:10;stroke-dasharray:none;stroke-opacity:1"
       transform="matrix(3.7773333,0,0,-3.7818182,0,208)" />
    <path
       id="path8"
       d="m 29.422297,46.279181 0.125791,-0.0606 0.125578,-0.06104 0.125365,-0.06148 0.125149,-0.06191 0.124933,-0.06235 0.124714,-0.06278 0.124494,-0.06322 0.124272,-0.06365 0.12405,-0.06409 0.123825,-0.06452 0.123599,-0.06495 0.123372,-0.06538 0.123143,-0.06581 0.122912,-0.06624 0.122681,-0.06667 0.122447,-0.0671 0.122211,-0.06753 0.121976,-0.06795 0.121737,-0.06838 0.121498,-0.0688 0.121258,-0.06923 0.121014,-0.06965 0.120771,-0.07007 0.120526,-0.07049 0.120279,-0.07091 0.12003,-0.07133 0.119781,-0.07175 0.11953,-0.07217 0.119277,-0.07258 0.119023,-0.073 0.118767,-0.07342 0.11851,-0.07383 0.118252,-0.07424 0.117992,-0.07465 0.117731,-0.07507 0.117468,-0.07548 0.117204,-0.07589 0.116938,-0.07629 0.116671,-0.0767 0.116403,-0.07711 0.116133,-0.07752 0.115862,-0.07792 0.115589,-0.07832 0.115314,-0.07873 0.115039,-0.07913 0.114763,-0.07953 0.114484,-0.07993 0.114204,-0.08033 0.113923,-0.08073 0.113641,-0.08113 0.113357,-0.08152 0.113072,-0.08192 0.112785,-0.08231 0.112496,-0.0827 0.112208,-0.0831 0.111917,-0.08349 0.111625,-0.08388 0.111331,-0.08427 0.111036,-0.08466 0.110741,-0.08504 0.110442,-0.08543 0.110144,-0.08581 0.109844,-0.0862 0.109542,-0.08658 0.109239,-0.08696 0.108935,-0.08734 0.10863,-0.08772 0.108322,-0.0881 0.108015,-0.08848 0.107705,-0.08886 0.107394,-0.08923 0.107082,-0.0896 0.106768,-0.08998 0.106454,-0.09035 0.106138,-0.09072 0.10582,-0.09109 0.105502,-0.09146 0.105182,-0.09183 0.104861,-0.09219 0.104538,-0.09256 0.104215,-0.09292 0.103889,-0.09329 0.103564,-0.09365 0.103236,-0.09401 0.102907,-0.09437 0.102577,-0.09473 0.102245,-0.09509 0.101913,-0.09544 0.10158,-0.0958 0.101244,-0.09615 0.100908,-0.0965 0.100571,-0.09686 0.100232,-0.09721 0.09989,-0.09755 0.09955,-0.0979 0.09921,-0.09825 0.09887,-0.0986 0.09852,-0.09894 0.09818,-0.09928 0.09783,-0.09963 0.09748,-0.09997 0.09713,-0.100306 0.09678,-0.100645 0.09643,-0.100983 0.09607,-0.101318 0.09572,-0.101653 0.09536,-0.101986 0.09501,-0.102319 0.09465,-0.10265 0.09429,-0.102979 0.09393,-0.103308 0.09357,-0.103636 0.09321,-0.103961 0.09284,-0.104286 0.09248,-0.10461 0.09211,-0.104931 0.09175,-0.105253 0.09138,-0.105572 0.09101,-0.10589 0.09064,-0.106208 0.09027,-0.106523 0.08989,-0.106838 0.08952,-0.107151 0.08915,-0.107462 0.08877,-0.107773 0.08839,-0.108083 0.08802,-0.10839 0.08764,-0.108697 0.08726,-0.109002 0.08688,-0.109306 0.0865,-0.109609 0.08611,-0.10991 0.08573,-0.11021 0.08534,-0.110508 0.08496,-0.110806 0.08457,-0.111101 0.08418,-0.111396 0.08379,-0.111689 0.0834,-0.111982 0.08301,-0.112271 0.08262,-0.112561 0.08223,-0.112848 0.08183,-0.113134 0.08143,-0.11342 0.08104,-0.113703 0.08064,-0.113985 0.08024,-0.114266 0.07984,-0.114546 0.07944,-0.114823 0.07904,-0.1151 0.07864,-0.115375 0.07824,-0.115649 0.07783,-0.115922 0.07743,-0.116192 0.07702,-0.116462 0.07661,-0.11673 0.07621,-0.116997 0.0758,-0.117262 0.07539,-0.117526 0.07498,-0.117789 0.01567,-0.02474"
       style="fill:none;stroke:#000000;stroke-width:0.25;stroke-linecap:round;stroke-linejoin:round;stroke-miterlimit:10;stroke-dasharray:none;stroke-opacity:1"
       transform="matrix(3.7773333,0,0,-3.7818182,0,208)" />
    <path
       id="path9"
       d="m 29.422297,10.145874 0.125791,0.0606 0.125578,0.06104 0.125365,0.06148 0.125149,0.06191 0.124933,0.06235 0.124714,0.06278 0.124494,0.06322 0.124272,0.06365 0.12405,0.06409 0.123825,0.06452 0.123599,0.06495 0.123372,0.06538 0.123143,0.06581 0.122912,0.06624 0.122681,0.06667 0.122447,0.0671 0.122211,0.06753 0.121976,0.06795 0.121737,0.06838 0.121498,0.0688 0.121258,0.06922 0.121014,0.06965 0.120771,0.07007 0.120526,0.07049 0.120279,0.07091 0.12003,0.07133 0.119781,0.07175 0.11953,0.07217 0.119277,0.07258 0.119023,0.073 0.118767,0.07342 0.11851,0.07383 0.118252,0.07424 0.117992,0.07465 0.117731,0.07507 0.117468,0.07548 0.117204,0.07589 0.116938,0.0763 0.116671,0.0767 0.116403,0.07711 0.116133,0.07752 0.115862,0.07792 0.115589,0.07832 0.115314,0.07873 0.115039,0.07913 0.114763,0.07953 0.114484,0.07993 0.114204,0.08033 0.113923,0.08073 0.113641,0.08112 0.113357,0.08152 0.113072,0.08192 0.112785,0.08231 0.112496,0.0827 0.112208,0.0831 0.111917,0.08349 0.111625,0.08388 0.111331,0.08427 0.111036,0.08465 0.110741,0.08504 0.110442,0.08543 0.110144,0.08581 0.109844,0.0862 0.109542,0.08658 0.109239,0.08696 0.108935,0.08734 0.10863,0.08772 0.108322,0.0881 0.108015,0.08848 0.107705,0.08885 0.107394,0.08923 0.107082,0.0896 0.106768,0.08998 0.106454,0.09035 0.106138,0.09072 0.10582,0.09109 0.105502,0.09146 0.105182,0.09183 0.104861,0.09219 0.104538,0.09256 0.104215,0.09292 0.103889,0.09329 0.103564,0.09365 0.103236,0.09401 0.102907,0.09437 0.102577,0.09473 0.102245,0.09509 0.101913,0.09544 0.10158,0.0958 0.101244,0.09615 0.100908,0.0965 0.100571,0.09686 0.100232,0.09721 0.09989,0.09756 0.09955,0.0979 0.09921,0.09825 0.09887,0.0986 0.09852,0.09894 0.09818,0.09928 0.09783,0.09963 0.09748,0.09997 0.09713,0.100307 0.09678,0.100645 0.09643,0.100982 0.09607,0.101318 0.09572,0.101653 0.09536,0.101987 0.09501,0.102319 0.09465,0.102649 0.09429,0.10298 0.09393,0.103308 0.09357,0.103635 0.09321,0.103961 0.09284,0.104286 0.09248,0.10461 0.09211,0.104932 0.09175,0.105252 0.09138,0.105572 0.09101,0.105891 0.09064,0.106207 0.09027,0.106523 0.08989,0.106838 0.08952,0.107151 0.08915,0.107463 0.08877,0.107773 0.08839,0.108082 0.08802,0.108391 0.08764,0.108696 0.08726,0.109003 0.08688,0.109306 0.0865,0.109608 0.08611,0.10991 0.08573,0.11021 0.08534,0.110508 0.08496,0.110806 0.08457,0.111102 0.08418,0.111396 0.08379,0.111689 0.0834,0.111981 0.08301,0.112271 0.08262,0.112561 0.08223,0.112848 0.08183,0.113135 0.08143,0.113419 0.08104,0.113703 0.08064,0.113986 0.08024,0.114266 0.07984,0.114545 0.07944,0.114823 0.07904,0.115101 0.07864,0.115375 0.07824,0.115649 0.07783,0.115921 0.07743,0.116193 0.07702,0.116462 0.07661,0.11673 0.07621,0.116997 0.0758,0.117262 0.07539,0.117526 0.07498,0.117788 0.01567,0.02474"
       style="fill:none;stroke:#000000;stroke-width:0.25;stroke-linecap:round;stroke-linejoin:round;stroke-miterlimit:10;stroke-dasharray:none;stroke-opacity:1"
       transform="matrix(3.7773333,0,0,-3.7818182,0,208)" />
    <path
       id="path10"
       d="m 26.827703,10.145874 -0.125791,0.0606 -0.125579,0.06104 -0.125364,0.06148 -0.125149,0.06191 -0.124933,0.06235 -0.124714,0.06278 -0.124494,0.06322 -0.124273,0.06365 -0.124049,0.06409 -0.123825,0.06452 -0.1236,0.06495 -0.123371,0.06538 -0.123143,0.06581 -0.122913,0.06624 -0.12268,0.06667 -0.122447,0.0671 -0.122212,0.06753 -0.121975,0.06795 -0.121738,0.06838 -0.121498,0.0688 -0.121257,0.06922 -0.121014,0.06965 -0.120772,0.07007 -0.120525,0.07049 -0.120279,0.07091 -0.12003,0.07133 -0.119781,0.07175 -0.11953,0.07217 -0.119277,0.07258 -0.119023,0.073 -0.118767,0.07342 -0.118511,0.07383 -0.118252,0.07424 -0.117992,0.07465 -0.11773,0.07507 -0.117468,0.07548 -0.117204,0.07589 -0.116938,0.0763 -0.116672,0.0767 -0.116402,0.07711 -0.116133,0.07752 -0.115862,0.07792 -0.115589,0.07832 -0.115314,0.07873 -0.11504,0.07913 -0.114762,0.07953 -0.114484,0.07993 -0.114204,0.08033 -0.113924,0.08073 -0.11364,0.08112 -0.113357,0.08152 -0.113072,0.08192 -0.112785,0.08231 -0.112497,0.0827 -0.112207,0.0831 -0.111917,0.08349 -0.111625,0.08388 -0.111331,0.08427 -0.111037,0.08465 -0.11074,0.08504 -0.110443,0.08543 -0.110144,0.08581 -0.109843,0.0862 -0.109542,0.08658 -0.10924,0.08696 -0.108935,0.08734 -0.108629,0.08772 -0.108323,0.0881 -0.108014,0.08848 -0.107705,0.08885 -0.107394,0.08923 -0.107082,0.0896 -0.106769,0.08998 -0.106453,0.09035 -0.106138,0.09072 -0.105821,0.09109 -0.105501,0.09146 -0.105182,0.09183 -0.104861,0.09219 -0.104538,0.09256 -0.104215,0.09292 -0.10389,0.09329 -0.103563,0.09365 -0.103236,0.09401 -0.102907,0.09437 -0.102577,0.09473 -0.102245,0.09509 -0.101913,0.09544 -0.10158,0.0958 -0.101244,0.09615 -0.100908,0.0965 -0.100571,0.09686 -0.100232,0.09721 -0.09989,0.09756 -0.09955,0.0979 -0.09921,0.09825 -0.09886,0.0986 -0.09852,0.09894 -0.09817,0.09928 -0.09783,0.09963 -0.09748,0.09997 -0.09713,0.100307 -0.09678,0.100645 -0.09643,0.100982 -0.09607,0.101318 -0.09572,0.101653 -0.09536,0.101987 -0.09501,0.102319 -0.09465,0.102649 -0.09429,0.10298 -0.09393,0.103308 -0.09357,0.103635 -0.09321,0.103961 -0.09284,0.104286 -0.09248,0.10461 -0.09211,0.104932 -0.09175,0.105252 -0.09138,0.105572 -0.09101,0.105891 -0.09064,0.106207 -0.09027,0.106523 -0.0899,0.106838 -0.08952,0.107151 -0.08915,0.107463 -0.08877,0.107773 -0.0884,0.108082 -0.08802,0.108391 -0.08764,0.108696 -0.08726,0.109003 -0.08688,0.109306 -0.08649,0.109608 -0.08611,0.10991 -0.08573,0.11021 -0.08534,0.110508 -0.08496,0.110806 -0.08457,0.111102 -0.08418,0.111396 -0.08379,0.111689 -0.0834,0.111981 -0.08301,0.112271 -0.08262,0.112561 -0.08222,0.112848 -0.08183,0.113135 -0.08143,0.113419 -0.08104,0.113703 -0.08064,0.113986 -0.08024,0.114266 -0.07984,0.114545 -0.07944,0.114823 -0.07904,0.115101 -0.07864,0.115375 -0.07824,0.115649 -0.07783,0.115921 -0.07743,0.116193 -0.07702,0.116462 -0.07661,0.11673 -0.0762,0.116997 -0.0758,0.117262 -0.07539,0.117526 -0.07498,0.117788 -0.01567,0.02474"
       style="fill:none;stroke:#000000;stroke-width:0.25;stroke-linecap:round;stroke-linejoin:round;stroke-miterlimit:10;stroke-dasharray:none;stroke-opacity:1"
       transform="matrix(3.7773333,0,0,-3.7818182,0,208)" />
    <path
       id="path11"
       d="m 7.7931957,30.212527 0.1172167,0.0023 0.1170376,0.0069 0.1166799,0.01144 0.1161439,0.01599 0.1154306,0.02051 0.1145409,0.02501 0.1134764,0.02946 0.1122386,0.03388 0.1108293,0.03823 0.1092508,0.04254 0.1075054,0.04677 0.1055958,0.05094 0.103525,0.05502 0.1012961,0.05903 0.098912,0.06294 0.096378,0.06676 0.093696,0.07047 0.090871,0.07408 0.087907,0.07757 0.084809,0.08095 0.081582,0.0842 0.07823,0.08732 0.07476,0.09031 0.07117,0.09316 0.06748,0.09587 0.04822,0.07375"
       style="fill:none;stroke:#000000;stroke-width:0.25;stroke-linecap:round;stroke-linejoin:round;stroke-miterlimit:10;stroke-dasharray:none;stroke-opacity:1"
       transform="matrix(3.7773333,0,0,-3.7818182,0,208)" />
    <path
       id="path12"
       d="m 48.456804,30.212527 -0.117216,0.0023 -0.117038,0.0069 -0.11668,0.01144 -0.116144,0.01599 -0.11543,0.02051 -0.114541,0.02501 -0.113477,0.02946 -0.112238,0.03388 -0.11083,0.03823 -0.10925,0.04254 -0.107506,0.04677 -0.105596,0.05094 -0.103525,0.05502 -0.101296,0.05903 -0.09891,0.06294 -0.09638,0.06676 -0.0937,0.07047 -0.09087,0.07408 -0.08791,0.07757 -0.08481,0.08095 -0.08158,0.0842 -0.07823,0.08732 -0.07476,0.09031 -0.07117,0.09316 -0.06748,0.09587 -0.04822,0.07375"
       style="fill:none;stroke:#000000;stroke-width:0.25;stroke-linecap:round;stroke-linejoin:round;stroke-miterlimit:10;stroke-dasharray:none;stroke-opacity:1"
       transform="matrix(3.7773333,0,0,-3.7818182,0,208)" />
    <path
       id="path13"
       d="m 7.7931957,26.212527 0.1172167,-0.0023 0.1170376,-0.0069 0.1166799,-0.01144 0.1161439,-0.01599 0.1154306,-0.02051 0.1145409,-0.02501 0.1134764,-0.02946 0.1122386,-0.03388 0.1108293,-0.03823 0.1092508,-0.04254 0.1075054,-0.04677 0.1055958,-0.05094 0.103525,-0.05502 0.1012961,-0.05903 0.098912,-0.06294 0.096378,-0.06676 0.093696,-0.07047 0.090871,-0.07408 0.087907,-0.07757 0.084809,-0.08095 0.081582,-0.0842 0.07823,-0.08732 0.07476,-0.09031 0.07117,-0.09316 0.06748,-0.09587 0.04822,-0.07375"
       style="fill:none;stroke:#000000;stroke-width:0.25;stroke-linecap:round;stroke-linejoin:round;stroke-miterlimit:10;stroke-dasharray:none;stroke-opacity:1"
       transform="matrix(3.7773333,0,0,-3.7818182,0,208)" />
    <path
       id="path14"
       d="m 48.456804,26.212527 -0.117216,-0.0023 -0.117038,-0.0069 -0.11668,-0.01144 -0.116144,-0.01599 -0.11543,-0.02051 -0.114541,-0.02501 -0.113477,-0.02946 -0.112238,-0.03388 -0.11083,-0.03823 -0.10925,-0.04254 -0.107506,-0.04677 -0.105596,-0.05094 -0.103525,-0.05502 -0.101296,-0.05903 -0.09891,-0.06294 -0.09638,-0.06676 -0.0937,-0.07047 -0.09087,-0.07408 -0.08791,-0.07757 -0.08481,-0.08095 -0.08158,-0.0842 -0.07823,-0.08732 -0.07476,-0.09031 -0.07117,-0.09316 -0.06748,-0.09587 -0.04822,-0.07375"
       style="fill:none;stroke:#000000;stroke-width:0.25;stroke-linecap:round;stroke-linejoin:round;stroke-miterlimit:10;stroke-dasharray:none;stroke-opacity:1"
       transform="matrix(3.7773333,0,0,-3.7818182,0,208)" />
    <path
       id="path15"
       d="m 26.827703,46.279181 0.106681,0.04862 0.108499,0.04442 0.110152,0.04014 0.111636,0.03581 0.11295,0.03142 0.114092,0.02698 0.115059,0.02251 0.11585,0.01799 0.116465,0.01345 0.116901,0.0089 0.11716,0.0043 0.117238,-2.65e-4 0.117139,-0.0048 0.11686,-0.0094 0.116403,-0.01398 0.115768,-0.01852 0.114956,-0.02302 0.113969,-0.0275 0.112807,-0.03193 0.111474,-0.03631 0.109969,-0.04064 0.108298,-0.04491 0.09427,-0.04322"
       style="fill:none;stroke:#000000;stroke-width:0.25;stroke-linecap:round;stroke-linejoin:round;stroke-miterlimit:10;stroke-dasharray:none;stroke-opacity:1"
       transform="matrix(3.7773333,0,0,-3.7818182,0,208)" />
    <path
       id="path16"
       d="m 26.827703,10.145874 0.106681,-0.04862 0.108499,-0.04442 0.110152,-0.04015 0.111636,-0.035809 0.11295,-0.03142 0.114092,-0.026983 0.115059,-0.022505 0.11585,-0.017992 0.116465,-0.013452 0.116901,-0.00889 0.11716,-0.00432 0.117238,2.645e-4 0.117139,0.00485 0.11686,0.00942 0.116403,0.013977 0.115768,0.018515 0.114956,0.023024 0.113969,0.027498 0.112807,0.03193 0.111474,0.036312 0.109969,0.04064 0.108298,0.04491 0.09427,0.04322"
       style="fill:none;stroke:#000000;stroke-width:0.25;stroke-linecap:round;stroke-linejoin:round;stroke-miterlimit:10;stroke-dasharray:none;stroke-opacity:1"
       transform="matrix(3.7773333,0,0,-3.7818182,0,208)" />
    <path
       id="path17"
       d="m 61.64232,-105.8866 c 1.803512,0.049 3.832154,0.17191 6.068006,0.28947 1.900731,0.11029 3.630091,0.3846 5.188079,0.82292 l -1.972519,15.625415 c -1.65006,-0.292319 -3.37942,-0.566625 -5.18808,-0.822918 -1.88796,-0.238279 -3.581481,-0.353942 -5.239164,-0.310962 -5.008887,-0.0297 -9.646617,1.399039 -13.864583,4.316878 -4.345875,2.905197 -7.80133,6.984101 -10.414976,12.206058 -2.741556,5.209316 -4.091348,11.22828 -4.080067,18.105559 l 0.03916,55.53019464 -16.648504,0.11251762 0.03532,-103.91449226 13.65034,-0.0986 1.814092,19.101659 0.828841,-0.02149 c 3.194291,-5.604028 7.268705,-10.448971 12.205324,-14.61415 4.954538,-4.085859 10.850777,-6.217439 17.578728,-6.328049 z m 0,0"
       style="fill:#008000;fill-opacity:1;fill-rule:nonzero;stroke:none"
       aria-label="r"
       transform="matrix(0.03621427,0.05749493,-0.05742675,0.03625727,44.757258,102.28723)" />
    <path
       id="path18"
       d="M 65.405116,-0.24846733 48.828288,0.18133672 48.660055,-96.515201 c 0.05668,-5.746079 0.183902,-10.257299 0.304934,-13.411989 0.396009,-3.3214 0.702422,-7.0394 0.842512,-11.03235 -2.084481,2.76678 -4.028379,4.77195 -5.754967,5.89383 -1.317218,1.55009 -3.030937,3.19025 -5.141157,4.92047 l -14.37504,12.021504 -8.725003,-10.943844 34.991145,-29.63029 14.504725,-0.37608 z m 0,0"
       style="fill:#008000;fill-opacity:1;fill-rule:nonzero;stroke:none"
       aria-label="1"
       transform="matrix(0.01448571,0.02299797,-0.0229707,0.01450291,47.503884,106.64786)" />
    <path
       id="path19"
       d="M 7.7931957,33.212527 13.038325,24.895069"
       style="fill:none;stroke:#008000;stroke-width:0.13;stroke-linecap:round;stroke-linejoin:round;stroke-miterlimit:10;stroke-dasharray:none;stroke-opacity:1"
       transform="matrix(3.7773333,0,0,-3.7818182,0,208)" />
    <path
       id="path20"
       d="m 443.52641,1149.911 79.59052,89.4679 -33.25157,20.9939 z"
       style="fill:#008000;fill-opacity:1;fill-rule:evenodd;stroke:none"
       transform="scale(0.08)" />
    <path
       id="path21"
       d="M 9.3934291,30.674959 11.079074,28.782369 10.37484,28.338268 Z"
       style="fill:#008000;fill-opacity:1;fill-rule:evenodd;stroke:#008000;stroke-width:0.13;stroke-linecap:round;stroke-linejoin:round;stroke-miterlimit:10;stroke-dasharray:none;stroke-opacity:1"
       transform="matrix(3.7773333,0,0,-3.7818182,0,208)" />
    <path
       id="path22"
       d="m 61.784787,-105.8201 c 1.632304,0.0813 3.546895,0.10787 5.709104,0.20346 2.088907,0.26209 3.852938,0.54041 5.415899,0.86947 l -1.838868,15.72479 c -1.640222,-0.243787 -3.365622,-0.564742 -5.261379,-1.040034 -1.84129,-0.193035 -3.636033,-0.266263 -5.384226,-0.219682 -4.888993,-0.08157 -9.416516,1.40654 -13.625158,4.425738 -4.29382,2.942028 -7.925047,6.950165 -10.816423,11.939131 -2.461524,5.456032 -3.669127,11.582249 -3.661439,18.421289 l -0.06134,55.53267164 -16.77076,0.02318947 -0.02414,-104.05574311 13.506154,-0.18587 2.079337,19.274544 0.649754,-0.03244 c 3.10336,-5.650925 7.220943,-10.538275 12.314117,-14.61941 5.007996,-4.158304 10.931122,-6.245344 17.769377,-6.261104 z m 0,0"
       style="fill:#008000;fill-opacity:1;fill-rule:nonzero;stroke:none"
       aria-label="r"
       transform="matrix(0.0455828,0.05037388,-0.05031414,0.04563692,77.812554,68.310714)" />
    <path
       id="path23"
       d="M 95.301688,0.1721714 8.5854139,0.02394052 8.6849674,-14.636939 42.758622,-50.535443 c 6.373963,-7.035559 11.965427,-13.421384 16.571344,-19.147335 4.132938,-4.989893 7.540361,-10.248892 10.232167,-15.573935 1.869715,-5.487548 2.907442,-11.340661 2.803659,-17.645657 0.242927,-7.54364 -1.658596,-13.14822 -5.704569,-16.81372 -4.258918,-3.85843 -9.743622,-5.72188 -16.560582,-5.68683 -6.014666,-0.20855 -11.157752,0.76069 -15.73878,2.82142 -5.373426,2.50741 -10.610685,5.72046 -15.808353,9.74574 l -8.6762017,-10.96581 c 5.2744477,-4.53801 11.1877337,-8.49725 17.7398567,-11.87773 6.658596,-3.28402 15.127233,-4.9282 25.40591,-4.93256 10.385151,0.0921 19.091334,3.32136 26.11855,9.68777 7.453108,6.75225 10.954128,15.94093 10.706108,27.55591 -0.04978,7.330436 -1.454009,14.016067 -4.309272,20.163489 -2.738892,6.446942 -6.406347,12.634919 -10.885995,18.863451 -5.195266,6.162487 -11.182928,12.771649 -17.769838,19.614287 l -26.694347,28.609191 0.03959,0.81224 65.13378,0.0046 z m 0,0"
       style="fill:#008000;fill-opacity:1;fill-rule:nonzero;stroke:none"
       aria-label="2"
       transform="matrix(0.01823312,0.02014955,-0.02012566,0.01825477,81.269724,72.131258)" />
    <path
       id="path24"
       d="m 24.650587,31.53501 -7.467828,8.242964"
       style="fill:none;stroke:#008000;stroke-width:0.13;stroke-linecap:round;stroke-linejoin:round;stroke-miterlimit:10;stroke-dasharray:none;stroke-opacity:1"
       transform="matrix(3.7773333,0,0,-3.7818182,0,208)" />
    <path
       id="path25"
       d="m 811.31259,719.58668 93.82013,74.37117 -29.13319,26.42496 z"
       style="fill:#008000;fill-opacity:1;fill-rule:evenodd;stroke:none"
       transform="scale(0.08)" />
    <path
       id="path26"
       d="m 17.182759,39.777974 1.987013,-1.573236 -0.617011,-0.55899 z"
       style="fill:#008000;fill-opacity:1;fill-rule:evenodd;stroke:#008000;stroke-width:0.13;stroke-linecap:round;stroke-linejoin:round;stroke-miterlimit:10;stroke-dasharray:none;stroke-opacity:1"
       transform="matrix(3.7773333,0,0,-3.7818182,0,208)" />
    <path
       id="path27"
       d="m 61.632613,-105.60915 c 1.82074,-0.14779 3.78473,-0.18372 5.891971,-0.10779 2.033844,0.11095 3.882426,0.40037 5.507277,0.97673 l -2.12185,15.60843 c -1.52007,-0.356044 -3.186932,-0.642059 -5.073984,-0.823032 -2.049536,-0.238609 -3.882426,-0.40037 -5.444507,-0.466072 -4.909976,0.08983 -9.500545,1.513929 -13.756013,4.399969 -4.309631,2.866828 -7.789621,7.004722 -10.494133,12.39447 -2.662501,5.099406 -3.962352,11.170553 -3.988642,18.120792 l 0.08326,55.46185297 -16.872096,0.12011265 0.0623,-104.00507262 13.88764,0.0422 1.812221,18.957459 0.726879,0.01364 c 3.129198,-5.727497 7.241914,-10.617735 12.283986,-14.689927 4.879587,-4.129832 10.698659,-6.094942 17.495687,-6.003802 z m 0,0"
       style="fill:#008000;fill-opacity:1;fill-rule:nonzero;stroke:none"
       aria-label="r"
       transform="matrix(0.02269662,0.06406166,-0.06398569,0.02272357,97.187424,10.59606)" />
    <path
       id="path28"
       d="m 89.817726,-105.55238 c 0.0064,9.006961 -2.358742,16.104369 -6.959923,21.340257 -5.431319,5.857159 -11.910446,9.51118 -19.660104,10.730441 l 0.156922,1.276639 c 10.112279,1.145014 17.812606,4.79216 23.061751,10.622278 5.345318,5.558987 7.881329,13.021293 7.926927,22.347411 0.175952,11.96693 -3.876,21.671054 -12.203944,29.2479353 C 74.034133,-2.1789128 61.552939,1.6354226 44.464197,1.6786876 37.466215,1.6383579 30.979476,1.0162629 25.052066,-0.32316238 18.70073,-0.89722763 13.101071,-2.730883 8.0695975,-5.7365933 l 0.126475,-15.8278277 c 5.0314735,3.00571 10.7184505,5.02296 17.3317375,6.147809 6.189363,1.89021 12.628015,2.64787 19.219785,2.54411 11.270167,0.02951 19.40452,-2.274266 24.306884,-6.64021 4.45692,-4.829193 6.86126,-11.607441 7.116845,-20.063615 0.12018,-8.504204 -2.984016,-14.794455 -9.081011,-19.093852 -6.424746,-3.805168 -15.339905,-5.746523 -26.610073,-5.776037 l -12.178766,-0.04656 -0.450566,-14.201048 12.91273,-0.303579 c 10.496973,0.06049 18.583238,-2.107721 24.306884,-6.640211 5.413606,-4.947709 7.99258,-11.358768 8.007731,-19.137116 -0.146822,-6.46221 -2.360131,-11.82596 -6.600698,-15.7721 -4.114019,-3.44339 -9.713678,-5.27704 -16.982468,-5.41343 -6.862578,0.008 -12.795039,1.26106 -17.701208,3.48894 -4.818853,2.41148 -9.821197,4.9105 -14.871627,7.54508 l -7.790206,-10.69964 c 4.351891,-4.10334 10.009737,-7.59082 17.108943,-10.4144 6.374098,-2.92817 15.312019,-4.48904 26.630274,-4.5951 11.270167,0.0295 20.477653,3.29554 27.622456,9.79808 6.41084,6.85267 9.518842,15.28098 9.324007,25.28492 z m 0,0"
       style="fill:#008000;fill-opacity:1;fill-rule:nonzero;stroke:none"
       aria-label="3"
       transform="matrix(0.00907865,0.02562466,-0.02559427,0.00908943,98.908821,15.454737)" />
    <path
       id="path29"
       d="m 28.125,43.574182 -3.356762,9.463291"
       style="fill:none;stroke:#008000;stroke-width:0.13;stroke-linecap:round;stroke-linejoin:round;stroke-miterlimit:10;stroke-dasharray:none;stroke-opacity:1"
       transform="matrix(3.7773333,0,0,-3.7818182,0,208)" />
    <path
       id="path30"
       d="m 1280.6144,406.47094 -57.9867,-104.80344 37.0494,-13.15753 z"
       style="fill:#008000;fill-opacity:1;fill-rule:evenodd;stroke:none"
       transform="scale(0.08)" />
    <path
       id="path31"
       d="m 27.122084,46.401576 -1.228098,2.216996 0.784668,0.278332 z"
       style="fill:#008000;fill-opacity:1;fill-rule:evenodd;stroke:#008000;stroke-width:0.13;stroke-linecap:round;stroke-linejoin:round;stroke-miterlimit:10;stroke-dasharray:none;stroke-opacity:1"
       transform="matrix(3.7773333,0,0,-3.7818182,0,208)" />
    <path
       id="path32"
       d="m 9.4446414,30.212527 0.3373634,0.532914 m 0.2086046,0.329521 0.3373636,0.532914"
       style="fill:none;stroke:#000000;stroke-width:0.13;stroke-linecap:round;stroke-linejoin:round;stroke-miterlimit:10;stroke-dasharray:none;stroke-opacity:1"
       transform="matrix(3.7773333,0,0,-3.7818182,0,208)" />
    <path
       id="path33"
       d="m 7.7931957,30.212527 h 0.6307229 m 0.39,0 h 0.6307228"
       style="fill:none;stroke:#000000;stroke-width:0.13;stroke-linecap:round;stroke-linejoin:round;stroke-miterlimit:10;stroke-dasharray:none;stroke-opacity:1"
       transform="matrix(3.7773333,0,0,-3.7818182,0,208)" />
    <path
       id="path34"
       d="m 45.922027,31.607876 0.337364,-0.532914 m 0.208604,-0.329521 0.337364,-0.532914"
       style="fill:none;stroke:#000000;stroke-width:0.13;stroke-linecap:round;stroke-linejoin:round;stroke-miterlimit:10;stroke-dasharray:none;stroke-opacity:1"
       transform="matrix(3.7773333,0,0,-3.7818182,0,208)" />
    <path
       id="path35"
       d="m 46.805359,30.212527 h 0.630722 m 0.39,0 h 0.630723"
       style="fill:none;stroke:#000000;stroke-width:0.13;stroke-linecap:round;stroke-linejoin:round;stroke-miterlimit:10;stroke-dasharray:none;stroke-opacity:1"
       transform="matrix(3.7773333,0,0,-3.7818182,0,208)" />
    <path
       id="path36"
       d="M 49.862075,1.8393632 C 37.736301,1.9544359 28.081657,-2.418327 20.898142,-11.509071 13.542222,-20.369669 9.8642627,-33.833176 9.8642627,-51.784518 c 0,-17.778733 3.6779593,-31.299776 11.0338793,-40.505593 7.355919,-9.033209 17.068032,-13.578579 29.193805,-13.578579 7.470856,0 13.677413,1.49595 18.619672,4.37276 4.712385,3.106966 8.56275,6.67422 11.493624,10.816837 h 1.149362 c -0.344809,-1.495945 -0.574681,-3.970008 -0.689617,-7.364653 -0.344809,-3.222034 -0.459745,-5.811174 -0.459745,-7.824944 v -41.42617 H 96.985934 V -0.00180012 H 83.423457 L 80.89486,-14.04067 h -0.689617 c -2.930874,4.4878353 -6.838707,8.2276982 -11.723497,11.2771249 -4.769854,3.2220358 -10.976411,4.717981 -18.619671,4.6029083 z m 2.988342,-14.0388702 c 10.114389,0 17.240436,-2.99189 21.378141,-8.975671 3.9653,-6.098854 5.976685,-15.247134 5.976685,-27.387304 v -2.991891 c 0,-12.888143 -1.953916,-22.841932 -5.746812,-29.918903 -4.022769,-6.731753 -11.206284,-10.183935 -21.608014,-10.356544 -8.620218,0.172609 -15.056648,3.854936 -19.309288,11.04698 -4.137705,7.364653 -6.206558,17.145833 -6.206558,29.228467 0,12.600462 2.068853,22.266569 6.206558,28.998322 4.25264,6.904363 10.68907,10.356544 19.309288,10.356544 z m 0,0"
       style="fill:#008000;fill-opacity:1;fill-rule:nonzero;stroke:none"
       aria-label="d"
       transform="matrix(0,-0.06797247,0.06789186,0,198.52747,66.436123)" />
    <path
       id="path37"
       d="M 53.125,46.574182 V 30.212527"
       style="fill:none;stroke:#008000;stroke-width:0.13;stroke-linecap:round;stroke-linejoin:round;stroke-miterlimit:10;stroke-dasharray:none;stroke-opacity:1"
       transform="matrix(3.7773333,0,0,-3.7818182,0,208)" />
    <path
       id="path38"
       d="m 2508.3854,398.3114 19.6556,118.18182 h -39.3112 z"
       style="fill:#008000;fill-opacity:1;fill-rule:evenodd;stroke:none"
       transform="scale(0.08)" />
    <path
       id="path39"
       d="m 53.125,46.574182 0.416285,-2.5 h -0.83257 z"
       style="fill:#008000;fill-opacity:1;fill-rule:evenodd;stroke:#008000;stroke-width:0.13;stroke-linecap:round;stroke-linejoin:round;stroke-miterlimit:10;stroke-dasharray:none;stroke-opacity:1"
       transform="matrix(3.7773333,0,0,-3.7818182,0,208)" />
    <path
       id="path40"
       d="m 2508.3854,1171.7714 -19.6556,-118.1818 h 39.3112 z"
       style="fill:#008000;fill-opacity:1;fill-rule:evenodd;stroke:none"
       transform="scale(0.08)" />
    <path
       id="path41"
       d="m 53.125,30.212527 -0.416285,2.5 h 0.83257 z"
       style="fill:#008000;fill-opacity:1;fill-rule:evenodd;stroke:#008000;stroke-width:0.13;stroke-linecap:round;stroke-linejoin:round;stroke-miterlimit:10;stroke-dasharray:none;stroke-opacity:1"
       transform="matrix(3.7773333,0,0,-3.7818182,0,208)" />
    <path
       id="path42"
       d="M 28.75,46.574182 H 54.375"
       style="fill:none;stroke:#008000;stroke-width:0.13;stroke-linecap:round;stroke-linejoin:round;stroke-miterlimit:10;stroke-dasharray:none;stroke-opacity:1"
       transform="matrix(3.7773333,0,0,-3.7818182,0,208)" />
    <path
       id="path43"
       d="m 50.75,30.212527 h 3.625"
       style="fill:none;stroke:#008000;stroke-width:0.13;stroke-linecap:round;stroke-linejoin:round;stroke-miterlimit:10;stroke-dasharray:none;stroke-opacity:1"
       transform="matrix(3.7773333,0,0,-3.7818182,0,208)" />
    <path
       id="path44"
       d="m 79.373459,-58.830997 c -1.553481,-5.172131 -2.934354,-10.40173 -4.142617,-15.631329 -1.553482,-5.057195 -2.5316,-8.965027 -2.99189,-11.723497 h -0.690437 c -0.632899,2.75847 -1.495945,6.666302 -2.531599,11.723497 -1.380873,5.229599 -2.761745,10.516666 -4.142618,15.861201 L 47.843538,-0.21351381 H 28.971614 L 1.8144554,-104.11588 H 19.305507 l 13.348434,55.399272 c 1.380872,5.689344 2.646672,11.378688 3.912472,17.010564 1.035654,5.689344 1.898699,10.344262 2.531599,14.022221 h 0.690436 c 0.287682,-2.12632 0.805509,-4.827322 1.611018,-8.045536 0.575364,-3.218215 1.380873,-6.666303 2.301454,-10.344262 0.920582,-3.333151 1.668555,-6.493898 2.301455,-9.424772 l 17.03076,-58.617487 h 18.641779 l 16.340324,58.617487 c 1.208263,4.482513 2.416522,9.194899 3.682322,14.252094 1.20827,5.229599 2.12885,9.76958 2.76175,13.562476 h 0.46029 c 0.46029,-3.333151 1.2658,-7.873132 2.5316,-13.562476 1.20826,-5.631876 2.58914,-11.493624 4.14262,-17.470309 l 13.57858,-55.399272 h 17.03076 L 115.046,-0.21351381 H 95.483638 Z m 0,0"
       style="fill:#008000;fill-opacity:1;fill-rule:nonzero;stroke:none"
       aria-label="w"
       transform="matrix(0.06789186,0,0,0.06797247,99.951032,193.48717)" />
    <path
       id="path45"
       d="M 97.858745,-103.9764 V 0.0408963 H 84.05002 L 81.748566,-13.751453 h -0.575364 c -3.452181,5.4594718 -7.911248,9.4822402 -13.233361,12.0683057 -5.753635,2.29872481 -11.794953,3.4480872 -17.83627,3.4480872 -11.938793,0 -20.713087,-2.873406 -26.466722,-8.6202181 C 17.451691,-12.889431 14.431032,-22.659011 14.431032,-36.16402 v -67.81238 h 17.260906 v 66.663018 c 0,16.953095 7.048204,25.285973 21.288451,25.285973 10.356544,0 17.548588,-3.160747 21.863814,-9.769581 4.171386,-6.465163 6.328999,-15.803733 6.328999,-28.159379 V -103.9764 Z m 0,0"
       style="fill:#008000;fill-opacity:1;fill-rule:nonzero;stroke:none"
       aria-label="u"
       transform="matrix(0.02715674,0,0,0.02718899,109.73701,193.48717)" />
    <path
       id="path46"
       d="M 9.4446414,3.2125273 H 46.805359"
       style="fill:none;stroke:#008000;stroke-width:0.13;stroke-linecap:round;stroke-linejoin:round;stroke-miterlimit:10;stroke-dasharray:none;stroke-opacity:1"
       transform="matrix(3.7773333,0,0,-3.7818182,0,208)" />
    <path
       id="path47"
       d="m 445.94448,2448.1351 118.04167,-19.6789 v 39.3578 z"
       style="fill:#008000;fill-opacity:1;fill-rule:evenodd;stroke:none"
       transform="scale(0.08)" />
    <path
       id="path48"
       d="M 9.4446414,3.2125273 11.944641,3.6288119 V 2.7962426 Z"
       style="fill:#008000;fill-opacity:1;fill-rule:evenodd;stroke:#008000;stroke-width:0.13;stroke-linecap:round;stroke-linejoin:round;stroke-miterlimit:10;stroke-dasharray:none;stroke-opacity:1"
       transform="matrix(3.7773333,0,0,-3.7818182,0,208)" />
    <path
       id="path49"
       d="m 2209.993,2448.1351 -118.0417,19.6789 v -39.3578 z"
       style="fill:#008000;fill-opacity:1;fill-rule:evenodd;stroke:none"
       transform="scale(0.08)" />
    <path
       id="path50"
       d="m 46.805359,3.2125273 -2.5,-0.4162847 v 0.8325693 z"
       style="fill:#008000;fill-opacity:1;fill-rule:evenodd;stroke:#008000;stroke-width:0.13;stroke-linecap:round;stroke-linejoin:round;stroke-miterlimit:10;stroke-dasharray:none;stroke-opacity:1"
       transform="matrix(3.7773333,0,0,-3.7818182,0,208)" />
    <path
       id="path51"
       d="M 9.4446414,29.587527 V 1.9625273"
       style="fill:none;stroke:#008000;stroke-width:0.13;stroke-linecap:round;stroke-linejoin:round;stroke-miterlimit:10;stroke-dasharray:none;stroke-opacity:1"
       transform="matrix(3.7773333,0,0,-3.7818182,0,208)" />
    <path
       id="path52"
       d="M 46.805359,29.587527 V 1.9625273"
       style="fill:none;stroke:#008000;stroke-width:0.13;stroke-linecap:round;stroke-linejoin:round;stroke-miterlimit:10;stroke-dasharray:none;stroke-opacity:1"
       transform="matrix(3.7773333,0,0,-3.7818182,0,208)" />
  </g>
</svg>
