<?xml version="1.0" encoding="UTF-8" standalone="no"?>
<!-- Generator: Adobe Adobe Illustrator 24.2.0, SVG Export Plug-In . SVG Version: 6.00 Build 0)  -->

<svg
   version="1.1"
   x="0px"
   y="0px"
   width="252.49939"
   height="252.49924"
   viewBox="0 0 252.49939 252.49924"
   xml:space="preserve"
   id="svg275"
   sodipodi:docname="pyroll-bird-head.svg"
   inkscape:version="1.2.1 (9c6d41e410, 2022-07-14)"
   inkscape:export-filename="pyroll-bird-head.png"
   inkscape:export-xdpi="300"
   inkscape:export-ydpi="300"
   xmlns:inkscape="http://www.inkscape.org/namespaces/inkscape"
   xmlns:sodipodi="http://sodipodi.sourceforge.net/DTD/sodipodi-0.dtd"
   xmlns="http://www.w3.org/2000/svg"
   xmlns:svg="http://www.w3.org/2000/svg"><defs
   id="defs279"><rect
   x="258.78879"
   y="437.39072"
   width="103.55372"
   height="80.393494"
   id="rect4194" />
	

						
						
						
						
						
						
						
						
						
						
						
						
						
							
						
						
						
							
						
						
						
						
						
						
						
						
						
						
						
						
						
						
						
						
						
						
						
						
						
						
						
						
						
						
						
						
						
						
						
						
						
						
						
						
						
						
						
						
						
						
						
						
						
						
						
						
						
						
						
						
						
						
						
						
						
						
						
						
						
						
						
						
						
						
						
						
						
						
						
						
						
						
						
						
						
						
						
						
						
						
						
						
						
						
						
						
						
						
						
						
						
						
						
						
						
						
						
						
						
						
						
						
						
						
						
						
						
						
					
		
	</defs><sodipodi:namedview
   id="namedview277"
   pagecolor="#7f7f7f"
   bordercolor="#666666"
   borderopacity="1.0"
   inkscape:showpageshadow="2"
   inkscape:pageopacity="0"
   inkscape:pagecheckerboard="true"
   inkscape:deskcolor="#d1d1d1"
   showgrid="false"
   inkscape:zoom="2.7461826"
   inkscape:cx="-73.738724"
   inkscape:cy="162.7714"
   inkscape:window-width="3840"
   inkscape:window-height="2091"
   inkscape:window-x="0"
   inkscape:window-y="0"
   inkscape:window-maximized="1"
   inkscape:current-layer="svg275" />
<style
   type="text/css"
   id="style2">
	.st0{fill:#303030;}
	.st1{fill:#FFDD00;}
	.st2{fill:#FFFFFF;stroke:#FFDD00;stroke-miterlimit:10;}
	.st3{fill:#CFBA00;}
	.st4{fill:#FFE600;}
	.st5{fill:#4F4F4E;}
	.st6{fill:#D4691E;}
	.st7{fill:#D4851E;}
	.st8{fill:#BD7100;}
	.st9{fill:#FFFFFF;}
	.st10{stroke:#000000;stroke-miterlimit:10;}
	.st11{fill:#303030;stroke:#FFFFFF;stroke-width:2;stroke-miterlimit:10;}
	.st12{fill:none;}
	.st13{fill:url(#SVGID_1_);stroke:#404040;stroke-miterlimit:10;}
	.st14{fill:url(#SVGID_2_);stroke:#404040;stroke-miterlimit:10;}
	.st15{fill:url(#SVGID_3_);stroke:#404040;stroke-miterlimit:10;}
	.st16{fill:url(#SVGID_4_);stroke:#404040;stroke-miterlimit:10;}
	.st17{fill:url(#SVGID_5_);stroke:#404040;stroke-miterlimit:10;}
	.st18{fill:url(#SVGID_6_);stroke:#404040;stroke-miterlimit:10;}
	.st19{fill:url(#SVGID_7_);stroke:#404040;stroke-miterlimit:10;}
	.st20{fill:url(#SVGID_8_);stroke:#404040;stroke-miterlimit:10;}
	.st21{fill:url(#SVGID_9_);stroke:#404040;stroke-miterlimit:10;}
	.st22{fill:url(#SVGID_10_);stroke:#404040;stroke-miterlimit:10;}
	.st23{fill:url(#SVGID_11_);stroke:#404040;stroke-miterlimit:10;}
	.st24{fill:url(#SVGID_12_);stroke:#404040;stroke-miterlimit:10;}
	.st25{fill:url(#SVGID_13_);stroke:#404040;stroke-miterlimit:10;}
	.st26{fill:url(#SVGID_14_);stroke:#404040;stroke-miterlimit:10;}
	.st27{fill:url(#SVGID_15_);stroke:#404040;stroke-miterlimit:10;}
	.st28{fill:url(#SVGID_16_);stroke:#404040;stroke-miterlimit:10;}
	.st29{fill:url(#SVGID_17_);stroke:#404040;stroke-miterlimit:10;}
	.st30{fill:url(#SVGID_18_);stroke:#404040;stroke-miterlimit:10;}
	.st31{fill:url(#SVGID_19_);stroke:#404040;stroke-miterlimit:10;}
	.st32{fill:url(#SVGID_20_);stroke:#404040;stroke-miterlimit:10;}
	.st33{fill:url(#SVGID_21_);stroke:#404040;stroke-miterlimit:10;}
	.st34{fill:url(#SVGID_22_);stroke:#404040;stroke-miterlimit:10;}
	.st35{fill:url(#SVGID_23_);stroke:#404040;stroke-miterlimit:10;}
	.st36{fill:url(#SVGID_24_);stroke:#404040;stroke-miterlimit:10;}
	.st37{fill:url(#SVGID_25_);stroke:#404040;stroke-miterlimit:10;}
	.st38{fill:url(#SVGID_26_);stroke:#404040;stroke-miterlimit:10;}
	.st39{fill:url(#SVGID_27_);stroke:#404040;stroke-miterlimit:10;}
	.st40{fill:url(#SVGID_28_);stroke:#404040;stroke-miterlimit:10;}
	.st41{fill:url(#SVGID_29_);stroke:#404040;stroke-miterlimit:10;}
	.st42{fill:url(#SVGID_30_);stroke:#404040;stroke-miterlimit:10;}
	.st43{fill:url(#SVGID_31_);stroke:#404040;stroke-miterlimit:10;}
	.st44{fill:url(#SVGID_32_);stroke:#404040;stroke-miterlimit:10;}
	.st45{fill:url(#SVGID_33_);stroke:#404040;stroke-miterlimit:10;}
	.st46{fill:url(#SVGID_34_);stroke:#404040;stroke-miterlimit:10;}
	.st47{fill:url(#SVGID_35_);stroke:#404040;stroke-miterlimit:10;}
	.st48{fill:url(#SVGID_36_);stroke:#404040;stroke-miterlimit:10;}
	.st49{fill:url(#SVGID_37_);stroke:#404040;stroke-miterlimit:10;}
	.st50{fill:url(#SVGID_38_);stroke:#404040;stroke-miterlimit:10;}
	.st51{fill:url(#SVGID_39_);stroke:#404040;stroke-miterlimit:10;}
	.st52{fill:url(#SVGID_40_);stroke:#404040;stroke-miterlimit:10;}
	.st53{fill:url(#SVGID_41_);stroke:#404040;stroke-miterlimit:10;}
	.st54{fill:url(#SVGID_42_);stroke:#404040;stroke-miterlimit:10;}
	.st55{fill:url(#SVGID_43_);stroke:#404040;stroke-miterlimit:10;}
	.st56{fill:url(#SVGID_44_);stroke:#404040;stroke-miterlimit:10;}
	.st57{fill:url(#SVGID_45_);stroke:#404040;stroke-miterlimit:10;}
	.st58{fill:url(#SVGID_46_);stroke:#404040;stroke-miterlimit:10;}
	.st59{fill:url(#SVGID_47_);stroke:#404040;stroke-miterlimit:10;}
	.st60{fill:url(#SVGID_48_);stroke:#404040;stroke-miterlimit:10;}
	.st61{fill:url(#SVGID_49_);stroke:#404040;stroke-miterlimit:10;}
	.st62{fill:url(#SVGID_50_);stroke:#404040;stroke-miterlimit:10;}
	.st63{fill:url(#SVGID_51_);stroke:#404040;stroke-miterlimit:10;}
	.st64{fill:url(#SVGID_52_);stroke:#404040;stroke-miterlimit:10;}
	.st65{fill:url(#SVGID_53_);stroke:#404040;stroke-miterlimit:10;}
	.st66{fill:url(#SVGID_54_);stroke:#404040;stroke-miterlimit:10;}
	.st67{fill:url(#SVGID_55_);stroke:#404040;stroke-miterlimit:10;}
	.st68{fill:url(#SVGID_56_);stroke:#404040;stroke-miterlimit:10;}
	.st69{fill:url(#SVGID_57_);stroke:#404040;stroke-miterlimit:10;}
	.st70{fill:url(#SVGID_58_);stroke:#404040;stroke-miterlimit:10;}
	.st71{fill:url(#SVGID_59_);stroke:#404040;stroke-miterlimit:10;}
	.st72{fill:url(#SVGID_60_);stroke:#404040;stroke-miterlimit:10;}
	.st73{fill:url(#SVGID_61_);stroke:#404040;stroke-miterlimit:10;}
	.st74{fill:url(#SVGID_62_);stroke:#404040;stroke-miterlimit:10;}
	.st75{fill:#4D4D4D;}
	.st76{fill:#4C4C4C;}
	.st77{fill:#4A4A4A;}
	.st78{fill:#494949;}
	.st79{fill:#484848;}
	.st80{fill:#474747;}
	.st81{fill:#454545;}
	.st82{fill:#444444;}
	.st83{fill:#434343;}
	.st84{fill:#424242;}
	.st85{fill:#404040;}
	.st86{fill:#3F3F3F;}
	.st87{fill:#3E3E3E;}
	.st88{fill:#3D3D3D;}
	.st89{fill:#3B3B3B;}
	.st90{fill:#3A3A3A;}
	.st91{fill:#393939;}
	.st92{fill:#383838;}
	.st93{fill:#363636;}
	.st94{fill:#353535;}
	.st95{fill:#343434;}
	.st96{fill:#323232;}
	.st97{fill:#313131;}
	.st98{fill:#2F2F2F;}
	.st99{fill:#2D2D2D;}
	.st100{fill:#2C2C2C;}
	.st101{fill:#2B2B2B;}
	.st102{fill:#2A2A2A;}
	.st103{fill:#282828;}
	.st104{fill:#272727;}
	.st105{fill:#262626;}
	.st106{fill:#252525;}
	.st107{fill:#232323;}
	.st108{fill:#222222;}
	.st109{fill:#212121;}
	.st110{fill:#202020;}
	.st111{fill:#1E1E1E;}
	.st112{fill:#1D1D1D;}
	.st113{fill:#1C1C1C;}
	.st114{fill:#1B1B1B;}
	.st115{fill:#191919;}
	.st116{fill:#181818;}
	.st117{fill:#171717;}
	.st118{fill:#151515;}
	.st119{fill:#141414;}
	.st120{fill:#131313;}
	.st121{fill:#121212;}
	.st122{fill:#101010;}
	.st123{fill:#0F0F0F;}
	.st124{fill:#0E0E0E;}
	.st125{fill:#0D0D0D;}
	.st126{fill:#0B0B0B;}
	.st127{fill:#0A0A0A;}
	.st128{fill:#090909;}
	.st129{fill:#080808;}
	.st130{fill:#060606;}
	.st131{fill:#050505;}
	.st132{fill:#040404;}
	.st133{fill:#030303;}
	.st134{fill:#010101;}
	.st135{fill:#D4D4D4;}
	.st136{fill:#FFFFFF;stroke:#D4D4D4;stroke-miterlimit:10;}
	.st137{fill:#DEDEDE;}
	.st138{fill:#FFFFFF;stroke:#DEDEDE;stroke-miterlimit:10;}
	.st139{fill:#8F8F8F;}
	.st140{fill:#A1A1A1;}
	.st141{fill:#FFFFFF;stroke:#FFDD00;stroke-width:0.6124;stroke-miterlimit:10;}
	.st142{fill:#FFFFFF;stroke:#FFDD00;stroke-width:0.3896;stroke-miterlimit:10;}
	.st143{stroke:#000000;stroke-width:3.5702;stroke-miterlimit:10;}
</style>









<g
   id="layer9"
   inkscape:label="background"
   transform="translate(-74.28522,2.4984618)"><path
     id="path490"
     style="fill:#ffffff;fill-opacity:1;stroke:#ffffff;stroke-width:5;stroke-linecap:butt;stroke-linejoin:round;stroke-dasharray:none;stroke-opacity:1"
     d="m 288.83197,42.783214 c -11.47664,0.06287 -22.72858,2.661811 -31.10547,8.441407 -26.49994,18.283524 -28.92852,49.520729 -33.95899,75.689449 -3.32114,17.27677 -2.83216,35.02466 -4.26562,52.58985 -29.75569,6.67984 -50.23238,46.29867 -62.33008,92.34179 v 18.43555 h 186.73633 c 0.3729,-30.16934 -12.15267,-59.77787 -33.90234,-89.49805 -4.32584,-5.9111 -6.60435,-13.58093 -6.90821,-20.85937 9.17042,-3.77394 17.91613,-8.29172 24.53321,-15.29883 1.62338,-1.71908 3.23138,-3.59961 4.82226,-5.5332 0.009,0.0789 0.0147,0.13262 0.0234,0.21289 21.84194,1.6093 44.54098,8.48352 62.5918,16.9707 -7.91605,-8.15567 -16.91313,-19.45928 -32.1211,-26.60742 15.13595,6.15479 27.58716,16.10181 41.16016,28.13672 0.25,0.22 0.64055,-0.0291 0.56055,-0.36914 -6.31897,-25.7158 -35.77187,-47.76291 -52.36329,-57.10547 3.7e-4,-0.002 0.002,-0.006 0.002,-0.008 -0.04,-0.02 -0.0791,-0.0503 -0.11914,-0.0703 l -0.004,0.008 c 1.58625,-7.35646 2.01236,-14.96485 0.73242,-22.583988 -3.1799,-18.92906 -14.41872,-40.016248 -31.63086,-48.117187 -9.27487,-4.365242 -20.97647,-6.838259 -32.45312,-6.775391 z"
     transform="translate(-80.38659,-42.780492)" /></g><g
   inkscape:groupmode="layer"
   id="layer1"
   inkscape:label="body"
   transform="translate(-129.98522,-37.97881)"><path
     id="path2697"
     style="fill:#ffdd00;fill-opacity:1;stroke:none;stroke-width:0;stroke-linecap:butt;stroke-linejoin:miter;stroke-dasharray:none;stroke-opacity:1"
     d="m 264.14538,40.478041 c -11.47666,0.06287 -22.72858,2.661805 -31.10547,8.441406 -26.49997,18.283543 -28.92851,49.522654 -33.95898,75.691403 -4.15449,21.61183 -2.29149,43.96572 -5.77149,65.76953 -4.35653,27.29574 -12.13386,62.00499 -20.875,97.59766 h 146.78711 c 0.37315,-30.16901 -12.15265,-59.77784 -33.90234,-89.49805 -4.32584,-5.9111 -6.6063,-13.58092 -6.91016,-20.85937 9.17043,-3.77394 17.91807,-8.29366 24.53516,-15.30078 14.98098,-15.86404 29.58001,-41.38121 25.28515,-66.947268 -3.1799,-18.929079 -14.4187,-40.018193 -31.63086,-48.11914 -9.27487,-4.365247 -20.97647,-6.838259 -32.45312,-6.775391 z" /><path
     id="path2699"
     style="fill:#ffffff;fill-opacity:1;stroke:none;stroke-width:0;stroke-linecap:butt;stroke-linejoin:miter;stroke-dasharray:none;stroke-opacity:1"
     d="m 293.47936,213.74953 c -35.94548,25.89691 -56.99873,50.49447 -67.92578,74.22851 h 91.35938 c -0.025,-21.71108 -6.7535,-46.2266 -23.4336,-74.22851 z" /></g><g
   inkscape:groupmode="layer"
   id="layer2"
   inkscape:label="peak"
   transform="translate(-129.98522,-37.97881)"><path
     id="path227"
     class="st6"
     d="m 327.5,117.94922 c -5.97999,10.05999 -12.95029,16.78817 -25.83008,22.65039 35.02154,0.1358 54.77439,14.52841 77.75,34.90044 0.25,0.22 0.64055,-0.0291 0.56055,-0.36914 -6.31898,-25.71584 -35.77183,-47.76289 -52.36328,-57.10547 3.7e-4,-0.002 0.002,-0.004 0.002,-0.006 -0.04,-0.02 -0.0791,-0.0503 -0.11914,-0.0703 z"
     sodipodi:nodetypes="cccccccc" /><path
     id="path231"
     class="st7"
     d="m 301.66992,140.59966 c 5.06572,6.84214 5.07681,6.83696 6.11914,16.40039 21.84198,1.6093 44.54119,8.48326 62.59204,16.97046 -12.81473,-13.20265 -28.43858,-34.66454 -68.71118,-33.37085 z"
     sodipodi:nodetypes="cccc" /><path
     class="st0"
     d="m 331.32,127.24 c 2.13,-1.23 4.77,-0.34 5.9,1.98 l 0.35,0.71 -0.76,0.44 c -2.07,1.19 -4.64,0.33 -5.74,-1.92 l -0.4,-0.83 z"
     id="path261" /></g><g
   inkscape:groupmode="layer"
   id="layer3"
   inkscape:label="eye"
   transform="translate(-129.98522,-37.97881)"><path
     class="st0"
     d="M 261.49,115.46 244.33,98.78 264.88,84.71 c 11.43,-9.77 27.98,-7.62 36.97,4.82 l 15.84,16.37 c 1.42,1.46 1.04,4.02 -0.73,4.92 l -18.5,9.46 c -11.43,9.77 -27.98,7.61 -36.97,-4.82 z"
     id="path239"
     sodipodi:nodetypes="cccccccc" /><path
     class="st8"
     d="m 277.01,87.27 c 7.83,-2.76 16.24,1.92 18.77,10.44 2.53,8.52 -1.76,17.66 -9.59,20.42 -7.83,2.76 -16.24,-1.92 -18.77,-10.44 -2.53,-8.52 1.76,-17.66 9.59,-20.42 z"
     id="path241"
     sodipodi:nodetypes="sssss" /><path
     d="m 278.27,91.48 c 5.7,-2 11.81,1.39 13.65,7.59 1.84,6.2 -1.28,12.85 -6.98,14.85 -5.7,2 -11.81,-1.39 -13.65,-7.59 -1.84,-6.2 1.28,-12.85 6.98,-14.85 z"
     id="path243"
     sodipodi:nodetypes="sssss" /><ellipse
     class="st9"
     cx="277.95999"
     cy="98.120003"
     rx="3.8699999"
     ry="4.21"
     id="ellipse245" /></g><g
   inkscape:groupmode="layer"
   id="layer4"
   inkscape:label="wing"
   style="display:inline"
   transform="translate(-129.98522,-37.97881)"><path
     id="path3581"
     style="fill:#1a1a1a;fill-opacity:1;stroke:none;stroke-width:0;stroke-linecap:butt;stroke-linejoin:miter;stroke-dasharray:none;stroke-opacity:1"
     d="m 210.51647,178.1421 c -33.81003,-0.25419 -61.28427,49.10116 -77.27148,109.83594 h 130.42187 c 15.95517,-42.72061 11.19555,-81.79941 -35.59961,-105.32812 -6.01143,-3.02257 -11.87014,-4.46511 -17.55078,-4.50782 z" /><path
     id="path3739"
     style="fill:#303030;fill-opacity:1;stroke:none;stroke-width:0;stroke-linecap:butt;stroke-linejoin:miter;stroke-dasharray:none;stroke-opacity:1"
     d="m 207.30553,177.78663 c -33.9246,1.49331 -59.75376,50.78527 -74.69726,110.19141 h 124.63086 c 21.6242,-41.48793 21.18539,-80.00837 -29.17188,-105.32812 -7.21371,-3.62708 -14.14101,-5.15472 -20.76172,-4.86329 z" /><path
     id="path3741"
     style="fill:#1a1a1a;fill-opacity:1;stroke:none;stroke-width:0;stroke-linecap:butt;stroke-linejoin:miter;stroke-dasharray:none;stroke-opacity:1"
     d="m 207.39343,177.59913 c -35.50838,0.5474 -60.39731,51.27612 -74.71094,110.37891 H 248.411 c 27.84265,-40.90881 32.85155,-79.24247 -20.34375,-105.32812 -7.24951,-3.55499 -14.14125,-5.15149 -20.67382,-5.05079 z" /><path
     id="path3743"
     style="fill:#303030;fill-opacity:1;stroke:none;stroke-width:0;stroke-linecap:butt;stroke-linejoin:miter;stroke-dasharray:none;stroke-opacity:1"
     d="m 207.73718,177.4839 c -36.6406,-0.53378 -61.25959,49.66281 -75.25196,106.74023 v 3.75391 h 104.56446 c 35.67061,-40.14625 48.39659,-77.80008 -8.98243,-105.32812 -7.1486,-3.4296 -13.92305,-5.07268 -20.33007,-5.16602 z" /><path
     id="path4255"
     style="fill:#1a1a1a;fill-opacity:1;stroke:none;stroke-width:0;stroke-linecap:butt;stroke-linejoin:miter;stroke-dasharray:none;stroke-opacity:1"
     d="m 204.85436,176.2007 c -35.22455,-0.88596 -58.95466,42.23784 -72.36914,93.27734 v 18.5 h 90.40625 c 45.19257,-37.97928 68.81126,-72.67912 5.17578,-105.32812 -8.23015,-4.22259 -15.96392,-6.2669 -23.21289,-6.44922 z" /></g></svg>
