<?xml version="1.0" encoding="UTF-8" standalone="no"?>
<!-- Created with Inkscape (http://www.inkscape.org/) -->

<svg
   version="1.1"
   id="svg1"
   width="693.67413"
   height="605.27765"
   viewBox="0 0 693.67413 605.27765"
   xmlns="http://www.w3.org/2000/svg"
   xmlns:svg="http://www.w3.org/2000/svg">
  <defs
     id="defs1" />
  <g
     id="g1">
    <path
       id="path1"
       d="m 29.602,71.074 h 85.039 L 29.602,14.383 Z"
       style="fill:none;stroke:#000000;stroke-width:1.41732;stroke-linecap:butt;stroke-linejoin:miter;stroke-miterlimit:4;stroke-dasharray:none;stroke-opacity:1"
       transform="scale(1.3333333)" />
    <path
       id="path2"
       d="m 29.602,141.941 h 85.039 V 312.019 H 29.602 Z"
       style="fill:none;stroke:#000000;stroke-width:1.41732;stroke-linecap:butt;stroke-linejoin:miter;stroke-miterlimit:4;stroke-dasharray:none;stroke-opacity:1"
       transform="scale(1.3333333)" />
    <path
       id="path3"
       d="m 29.602,382.883 h 85.039 l -85.039,56.695 z"
       style="fill:none;stroke:#000000;stroke-width:1.41732;stroke-linecap:butt;stroke-linejoin:miter;stroke-miterlimit:4;stroke-dasharray:none;stroke-opacity:1"
       transform="scale(1.3333333)" />
    <path
       id="path4"
       d="M 72.121,71.074 V 99.422"
       style="fill:none;stroke:#000000;stroke-width:0.75;stroke-linecap:butt;stroke-linejoin:miter;stroke-miterlimit:4;stroke-dasharray:none;stroke-opacity:1"
       transform="scale(1.3333333)" />
    <path
       id="path5"
       d="m 79.094,-68.793 -9.016,-3.312 9.016,-3.317 c -1.442,1.957 -1.434,4.637 0,6.629 z"
       style="fill:#000000;fill-opacity:1;fill-rule:evenodd;stroke:#000000;stroke-width:0.515625;stroke-linecap:butt;stroke-linejoin:round;stroke-miterlimit:4;stroke-dasharray:none;stroke-opacity:1"
       transform="matrix(0,1.3333333,-1.3333333,0,0,0)" />
    <path
       id="path6"
       d="M 72.121,141.941 V 113.594"
       style="fill:none;stroke:#000000;stroke-width:0.75;stroke-linecap:butt;stroke-linejoin:miter;stroke-miterlimit:4;stroke-dasharray:none;stroke-opacity:1"
       transform="scale(1.3333333)" />
    <path
       id="path7"
       d="m -133.922,75.449 -9.016,-3.316 9.016,-3.313 c -1.441,1.957 -1.433,4.633 0,6.629 z"
       style="fill:#000000;fill-opacity:1;fill-rule:evenodd;stroke:#000000;stroke-width:0.515625;stroke-linecap:butt;stroke-linejoin:round;stroke-miterlimit:4;stroke-dasharray:none;stroke-opacity:1"
       transform="matrix(0,-1.3333333,1.3333333,0,0,0)" />
    <path
       id="path8"
       d="m 72.121,312.02 v 28.347"
       style="fill:none;stroke:#000000;stroke-width:0.75;stroke-linecap:butt;stroke-linejoin:miter;stroke-miterlimit:4;stroke-dasharray:none;stroke-opacity:1"
       transform="scale(1.3333333)" />
    <path
       id="path9"
       d="m 320.035,-68.793 -9.012,-3.312 9.012,-3.317 c -1.437,1.957 -1.43,4.637 0,6.629 z"
       style="fill:#000000;fill-opacity:1;fill-rule:evenodd;stroke:#000000;stroke-width:0.515625;stroke-linecap:butt;stroke-linejoin:round;stroke-miterlimit:4;stroke-dasharray:none;stroke-opacity:1"
       transform="matrix(0,1.3333333,-1.3333333,0,0,0)" />
    <path
       id="path10"
       d="M 72.121,382.883 V 354.539"
       style="fill:none;stroke:#000000;stroke-width:0.75;stroke-linecap:butt;stroke-linejoin:miter;stroke-miterlimit:4;stroke-dasharray:none;stroke-opacity:1"
       transform="scale(1.3333333)" />
    <path
       id="path11"
       d="m -374.867,75.449 -9.012,-3.316 9.012,-3.313 c -1.438,1.957 -1.43,4.633 0,6.629 z"
       style="fill:#000000;fill-opacity:1;fill-rule:evenodd;stroke:#000000;stroke-width:0.515625;stroke-linecap:butt;stroke-linejoin:round;stroke-miterlimit:4;stroke-dasharray:none;stroke-opacity:1"
       transform="matrix(0,-1.3333333,1.3333333,0,0,0)" />
    <path
       id="path12"
       d="M 284.719,85.246 V 368.711 L 369.758,312.02 V 141.941 Z"
       style="fill:none;stroke:#000000;stroke-width:1.41732;stroke-linecap:butt;stroke-linejoin:miter;stroke-miterlimit:4;stroke-dasharray:none;stroke-opacity:1"
       transform="scale(1.3333333)" />
    <path
       id="path13"
       d="M 72.121,42.727 100.465,0.207"
       style="fill:none;stroke:#000000;stroke-width:0.75;stroke-linecap:butt;stroke-linejoin:miter;stroke-miterlimit:4;stroke-dasharray:none;stroke-opacity:1"
       transform="scale(1.3333333)" />
    <path
       id="path14"
       d="m 10.377,72.418 -7.5,-2.758 7.499,-2.757 c -1.198,1.626 -1.191,3.857 0.001,5.515 z"
       style="fill:#000000;fill-opacity:1;fill-rule:evenodd;stroke:#000000;stroke-width:0.429026;stroke-linecap:butt;stroke-linejoin:round;stroke-miterlimit:4;stroke-dasharray:none;stroke-opacity:1"
       transform="matrix(0.88888933,-1.3333333,1.3333333,0.88888933,0,0)" />
    <path
       id="path15"
       d="M 100.465,42.727 57.945,14.383"
       style="fill:none;stroke:#000000;stroke-width:0.75;stroke-linecap:butt;stroke-linejoin:miter;stroke-miterlimit:4;stroke-dasharray:none;stroke-opacity:1"
       transform="scale(1.3333333)" />
    <path
       id="path16"
       d="m -82.603,19.557 -7.499,-2.759 7.498,-2.756 c -1.197,1.626 -1.19,3.856 0.001,5.515 z"
       style="fill:#000000;fill-opacity:1;fill-rule:evenodd;stroke:#000000;stroke-width:0.429026;stroke-linecap:butt;stroke-linejoin:round;stroke-miterlimit:4;stroke-dasharray:none;stroke-opacity:1"
       transform="matrix(-1.3333333,-0.88888933,0.88888933,-1.3333333,0,0)" />
    <path
       id="path17"
       d="m 72.121,411.23 28.344,42.52"
       style="fill:none;stroke:#000000;stroke-width:0.75;stroke-linecap:butt;stroke-linejoin:miter;stroke-miterlimit:4;stroke-dasharray:none;stroke-opacity:1"
       transform="scale(1.3333333)" />
    <path
       id="path18"
       d="m 324.654,142.639 -7.499,-2.757 7.499,-2.758 c -1.198,1.627 -1.19,3.854 0,5.515 z"
       style="fill:#000000;fill-opacity:1;fill-rule:evenodd;stroke:#000000;stroke-width:0.429026;stroke-linecap:butt;stroke-linejoin:round;stroke-miterlimit:4;stroke-dasharray:none;stroke-opacity:1"
       transform="matrix(0.88888933,1.3333333,-1.3333333,0.88888933,0,0)" />
    <path
       id="path19"
       d="m 57.945,439.578 42.52,-28.348"
       style="fill:none;stroke:#000000;stroke-width:0.75;stroke-linecap:butt;stroke-linejoin:miter;stroke-miterlimit:4;stroke-dasharray:none;stroke-opacity:1"
       transform="scale(1.3333333)" />
    <path
       id="path20"
       d="m 126.917,-328.299 -7.501,-2.758 7.502,-2.757 c -1.2,1.63 -1.193,3.857 -0.001,5.515 z"
       style="fill:#000000;fill-opacity:1;fill-rule:evenodd;stroke:#000000;stroke-width:0.429026;stroke-linecap:butt;stroke-linejoin:round;stroke-miterlimit:4;stroke-dasharray:none;stroke-opacity:1"
       transform="matrix(-1.3333333,0.88888933,-0.88888933,-1.3333333,0,0)" />
    <path
       id="path21"
       d="M 29.602,226.98 H 1.254"
       style="fill:none;stroke:#000000;stroke-width:0.75;stroke-linecap:butt;stroke-linejoin:miter;stroke-miterlimit:4;stroke-dasharray:none;stroke-opacity:1"
       transform="scale(1.3333333)" />
    <path
       id="path22"
       d="m 9.273,230.309 -9.015,-3.317 9.015,-3.312 c -1.441,1.957 -1.433,4.632 0,6.629 z"
       style="fill:#000000;fill-opacity:1;fill-rule:evenodd;stroke:#000000;stroke-width:0.515625;stroke-linecap:butt;stroke-linejoin:round;stroke-miterlimit:4;stroke-dasharray:none;stroke-opacity:1"
       transform="scale(1.3333333)" />
    <path
       id="path23"
       d="m 114.641,226.98 h 28.343"
       style="fill:none;stroke:#000000;stroke-width:0.75;stroke-linecap:butt;stroke-linejoin:miter;stroke-miterlimit:4;stroke-dasharray:none;stroke-opacity:1"
       transform="scale(1.3333333)" />
    <path
       id="path24"
       d="m -134.969,-223.652 -9.011,-3.313 9.011,-3.316 c -1.441,1.957 -1.429,4.633 0,6.629 z"
       style="fill:#000000;fill-opacity:1;fill-rule:evenodd;stroke:#000000;stroke-width:0.515625;stroke-linecap:butt;stroke-linejoin:round;stroke-miterlimit:4;stroke-dasharray:none;stroke-opacity:1"
       transform="scale(-1.3333333)" />
    <path
       id="path25"
       d="m 327.238,113.594 28.348,-42.52"
       style="fill:none;stroke:#000000;stroke-width:0.75;stroke-linecap:butt;stroke-linejoin:miter;stroke-miterlimit:4;stroke-dasharray:none;stroke-opacity:1"
       transform="scale(1.3333333)" />
    <path
       id="path26"
       d="m 79.061,281.746 -7.499,-2.759 7.501,-2.758 c -1.198,1.631 -1.191,3.856 -0.002,5.517 z"
       style="fill:#000000;fill-opacity:1;fill-rule:evenodd;stroke:#000000;stroke-width:0.429026;stroke-linecap:butt;stroke-linejoin:round;stroke-miterlimit:4;stroke-dasharray:none;stroke-opacity:1"
       transform="matrix(0.88888933,-1.3333333,1.3333333,0.88888933,0,0)" />
    <path
       id="path27"
       d="m 327.238,340.367 28.348,42.52"
       style="fill:none;stroke:#000000;stroke-width:0.75;stroke-linecap:butt;stroke-linejoin:miter;stroke-miterlimit:4;stroke-dasharray:none;stroke-opacity:1"
       transform="scale(1.3333333)" />
    <path
       id="path28"
       d="m 393.343,-66.69 -7.501,-2.758 7.501,-2.757 c -1.199,1.63 -1.192,3.858 0,5.515 z"
       style="fill:#000000;fill-opacity:1;fill-rule:evenodd;stroke:#000000;stroke-width:0.429026;stroke-linecap:butt;stroke-linejoin:round;stroke-miterlimit:4;stroke-dasharray:none;stroke-opacity:1"
       transform="matrix(0.88888933,1.3333333,-1.3333333,0.88888933,0,0)" />
    <path
       id="path29"
       d="M 284.719,226.98 H 256.371"
       style="fill:none;stroke:#000000;stroke-width:0.75;stroke-linecap:butt;stroke-linejoin:miter;stroke-miterlimit:4;stroke-dasharray:none;stroke-opacity:1"
       transform="scale(1.3333333)" />
    <path
       id="path30"
       d="m 264.391,230.309 -9.016,-3.317 9.016,-3.312 c -1.442,1.957 -1.434,4.632 0,6.629 z"
       style="fill:#000000;fill-opacity:1;fill-rule:evenodd;stroke:#000000;stroke-width:0.515625;stroke-linecap:butt;stroke-linejoin:round;stroke-miterlimit:4;stroke-dasharray:none;stroke-opacity:1"
       transform="scale(1.3333333)" />
    <path
       id="path31"
       d="m 369.758,226.98 h 28.347"
       style="fill:none;stroke:#000000;stroke-width:0.75;stroke-linecap:butt;stroke-linejoin:miter;stroke-miterlimit:4;stroke-dasharray:none;stroke-opacity:1"
       transform="scale(1.3333333)" />
    <path
       id="path32"
       d="m -390.086,-223.652 -9.016,-3.313 9.016,-3.316 c -1.441,1.957 -1.434,4.633 0,6.629 z"
       style="fill:#000000;fill-opacity:1;fill-rule:evenodd;stroke:#000000;stroke-width:0.515625;stroke-linecap:butt;stroke-linejoin:round;stroke-miterlimit:4;stroke-dasharray:none;stroke-opacity:1"
       transform="scale(-1.3333333)" />
    <path
       id="path33"
       d="m 313.062,85.246 42.524,28.348"
       style="fill:none;stroke:#000000;stroke-width:0.75;stroke-linecap:butt;stroke-linejoin:miter;stroke-miterlimit:4;stroke-dasharray:none;stroke-opacity:1"
       transform="scale(1.3333333)" />
    <path
       id="path34"
       d="m -291.93,88.241 -7.502,-2.756 7.501,-2.759 c -1.196,1.629 -1.191,3.857 10e-4,5.515 z"
       style="fill:#000000;fill-opacity:1;fill-rule:evenodd;stroke:#000000;stroke-width:0.429026;stroke-linecap:butt;stroke-linejoin:round;stroke-miterlimit:4;stroke-dasharray:none;stroke-opacity:1"
       transform="matrix(-1.3333333,-0.88888933,0.88888933,-1.3333333,0,0)" />
    <path
       id="path35"
       d="m 313.062,368.711 42.524,-28.344"
       style="fill:none;stroke:#000000;stroke-width:0.75;stroke-linecap:butt;stroke-linejoin:miter;stroke-miterlimit:4;stroke-dasharray:none;stroke-opacity:1"
       transform="scale(1.3333333)" />
    <path
       id="path36"
       d="m -82.411,-396.983 -7.501,-2.759 7.502,-2.756 c -1.198,1.627 -1.191,3.854 -0.001,5.515 z"
       style="fill:#000000;fill-opacity:1;fill-rule:evenodd;stroke:#000000;stroke-width:0.429026;stroke-linecap:butt;stroke-linejoin:round;stroke-miterlimit:4;stroke-dasharray:none;stroke-opacity:1"
       transform="matrix(-1.3333333,0.88888933,-0.88888933,-1.3333333,0,0)" />
    <text
       id="text36"
       xml:space="preserve"
       transform="matrix(1.3333333,0,0,1.3333333,104.54393,122.73177)"><tspan
         id="tspan36"
         style="font-variant:normal;font-weight:normal;font-size:20px;font-family:'DejaVu Sans';writing-mode:lr-tb;fill:#000000;fill-opacity:1;fill-rule:nonzero;stroke:none"
         x="0"
         y="0">σ</tspan></text>
    <path
       id="path37"
       d="M 4.1848289,0.65722669 C 3.8567039,1.5068361 3.5315086,2.0634767 3.2121727,2.3212892 2.8986961,2.5791017 2.4797508,2.7080079 1.9582664,2.7080079 H 1.0324852 v -0.984375 h 0.6796875 c 0.3193359,0 0.5683594,-0.079101 0.75,-0.234375 0.1787109,-0.149414 0.375,-0.50390621 0.5859375,-1.06640621 L 3.2590477,-0.11621081 0.38795394,-7.1005858 H 1.6301414 l 2.2148438,5.5546875 2.2265625,-5.5546875 h 1.2304687 z m 0,0"
       style="fill:#000000;fill-opacity:1;fill-rule:nonzero;stroke:none"
       aria-label="y"
       transform="matrix(1.3333333,0,0,1.3333333,121.47101,128.0651)" />
    <path
       id="path38"
       d="M 3.6198535,-1.6418522 V 4.158929 H 1.815166 V -10.94654 h 1.8046875 v 1.6640628 c 0.3808594,-0.647461 0.8583984,-1.1279298 1.4296875,-1.4414058 0.5771484,-0.319336 1.2685547,-0.480469 2.0742188,-0.480469 1.3271484,0 2.4052734,0.527344 3.2343752,1.582031 0.826172,1.0546875 1.242187,2.4433594 1.242187,4.1601563 0,1.7197265 -0.416015,3.1054687 -1.242187,4.1601562 -0.8291018,1.0546875 -1.9072268,1.58203125 -3.2343752,1.58203125 -0.8056641,0 -1.4970704,-0.15820312 -2.0742188,-0.46875 C 4.4782519,-0.50806319 4.0007129,-0.99146162 3.6198535,-1.6418522 Z M 9.737041,-5.4621647 c 0,-1.3183594 -0.2753906,-2.3554688 -0.8203125,-3.1054688 -0.5390625,-0.7558594 -1.2861328,-1.1367187 -2.2382812,-1.1367187 -0.9550782,0 -1.7050782,0.3808593 -2.25,1.1367187 -0.5390625,0.75 -0.8085938,1.7871094 -0.8085938,3.1054688 0,1.321289 0.2695313,2.3613281 0.8085938,3.1171875 0.5449218,0.75 1.2949218,1.125 2.25,1.125 0.9521484,0 1.6992187,-0.375 2.2382812,-1.125 0.5449219,-0.7558594 0.8203125,-1.7958985 0.8203125,-3.1171875 z m 0,0"
       style="fill:#000000;fill-opacity:1;fill-rule:nonzero;stroke:none"
       aria-label="p"
       transform="matrix(1.3333333,0,0,1.3333333,126.76728,26.767261)" />
    <path
       id="path39"
       d="m 1.2780571,-9.4680241 h 1.7226563 l 4.2070312,7.921875 v -7.921875 H 8.4499321 V 7.25875e-4 H 6.7155571 L 2.5202446,-7.9211491 V 7.25875e-4 H 1.2780571 Z m 0,0"
       style="fill:#000000;fill-opacity:1;fill-rule:nonzero;stroke:none"
       aria-label="N"
       transform="matrix(1.3333333,0,0,1.3333333,143.69436,32.100595)" />
    <text
       id="text39"
       xml:space="preserve"
       transform="matrix(1.3333333,0,0,1.3333333,88.381481,23.231769)"><tspan
         id="tspan39"
         style="font-variant:normal;font-weight:normal;font-size:20px;font-family:'DejaVu Sans';writing-mode:lr-tb;fill:#000000;fill-opacity:1;fill-rule:nonzero;stroke:none"
         x="0"
         y="0">τ</tspan></text>
    <path
       id="path40"
       d="M 3.6214098,-1.6413218 V 4.1594595 H 1.8167223 V -10.946009 h 1.8046875 v 1.6640622 c 0.3808594,-0.6474609 0.8583985,-1.1279292 1.4296875,-1.4414062 0.5771485,-0.319336 1.2685547,-0.480469 2.0742188,-0.480469 1.3271484,0 2.4052734,0.527344 3.2343749,1.5820315 0.826172,1.0546875 1.242188,2.4433593 1.242188,4.1601562 0,1.7197266 -0.416016,3.1054688 -1.242188,4.1601563 -0.8291015,1.05468745 -1.9072265,1.5820312 -3.2343749,1.5820312 -0.8056641,0 -1.4970703,-0.15820312 -2.0742188,-0.46875 -0.571289,-0.31933594 -1.0488281,-0.80273437 -1.4296875,-1.453125 z m 6.1171875,-3.8203125 c 0,-1.3183594 -0.2753906,-2.3554687 -0.8203125,-3.1054687 -0.5390625,-0.7558594 -1.2861328,-1.1367188 -2.2382812,-1.1367188 -0.9550782,0 -1.7050782,0.3808594 -2.25,1.1367188 -0.5390625,0.75 -0.8085938,1.7871093 -0.8085938,3.1054687 0,1.3212891 0.2695313,2.3613281 0.8085938,3.1171875 0.5449218,0.75 1.2949218,1.125 2.25,1.125 0.9521484,0 1.6992187,-0.375 2.2382812,-1.125 0.5449219,-0.7558594 0.8203125,-1.7958984 0.8203125,-3.1171875 z m 0,0"
       style="fill:#000000;fill-opacity:1;fill-rule:nonzero;stroke:none"
       aria-label="p"
       transform="matrix(1.3333333,0,0,1.3333333,468.46442,120.2939)" />
    <path
       id="path41"
       d="m 1.2766775,-9.4674963 h 1.7226563 l 4.2070312,7.921875 v -7.921875 H 8.4485525 V 0.00125369 H 6.7141775 L 2.518865,-7.9206213 V 0.00125369 H 1.2766775 Z m 0,0"
       style="fill:#000000;fill-opacity:1;fill-rule:nonzero;stroke:none"
       aria-label="N"
       transform="matrix(1.3333333,0,0,1.3333333,485.39151,125.62723)" />
    <path
       id="path42"
       d="M 3.6210778,-1.6408606 V 4.1599207 H 1.8163903 V -10.945548 h 1.8046875 v 1.6640624 c 0.3808594,-0.6474609 0.8583985,-1.1279294 1.4296875,-1.4414064 0.5771485,-0.319336 1.2685547,-0.480469 2.0742188,-0.480469 1.3271484,0 2.4052734,0.527344 3.2343749,1.5820317 0.826172,1.0546875 1.242188,2.4433594 1.242188,4.1601562 0,1.7197266 -0.416016,3.1054688 -1.242188,4.1601563 -0.8291015,1.05468749 -1.9072265,1.58203124 -3.2343749,1.58203124 -0.8056641,0 -1.4970703,-0.15820313 -2.0742188,-0.46875 C 4.4794763,-0.5070715 4.0019372,-0.99046994 3.6210778,-1.6408606 Z m 6.1171875,-3.8203125 c 0,-1.3183593 -0.2753906,-2.3554687 -0.8203125,-3.1054687 C 8.3788903,-9.3225012 7.63182,-9.7033606 6.6796716,-9.7033606 c -0.9550782,0 -1.7050782,0.3808594 -2.25,1.1367188 -0.5390625,0.75 -0.8085938,1.7871094 -0.8085938,3.1054687 0,1.3212891 0.2695313,2.3613282 0.8085938,3.1171875 0.5449218,0.75 1.2949218,1.125 2.25,1.125 0.9521484,0 1.6992187,-0.375 2.2382812,-1.125 0.5449219,-0.7558593 0.8203125,-1.7958984 0.8203125,-3.1171875 z m 0,0"
       style="fill:#000000;fill-opacity:1;fill-rule:nonzero;stroke:none"
       aria-label="p"
       transform="matrix(1.3333333,0,0,1.3333333,466.94924,491.01985)" />
    <path
       id="path43"
       d="M 1.2763518,-9.4699621 H 2.999008 l 4.2070313,7.921875 v -7.921875 h 1.2421875 v 9.46874997 H 6.7138518 L 2.5185393,-7.9230871 v 7.92187497 H 1.2763518 Z m 0,0"
       style="fill:#000000;fill-opacity:1;fill-rule:nonzero;stroke:none"
       aria-label="N"
       transform="matrix(1.3333333,0,0,1.3333333,483.87632,496.35318)" />
    <path
       id="path44"
       d="M 3.6209503,-1.6400532 V 4.1607281 H 1.8162628 V -10.944741 h 1.8046875 v 1.6640628 c 0.3808593,-0.6474609 0.8583984,-1.1279298 1.4296875,-1.4414058 0.5771484,-0.319336 1.2685546,-0.480469 2.0742187,-0.480469 1.3271484,0 2.4052734,0.527344 3.2343755,1.5820311 0.826171,1.0546875 1.242187,2.4433593 1.242187,4.1601562 0,1.7197266 -0.416016,3.1054688 -1.242187,4.1601563 -0.8291021,1.05468746 -1.9072271,1.58203121 -3.2343755,1.58203121 -0.8056641,0 -1.4970703,-0.15820312 -2.0742187,-0.46875 C 4.4793487,-0.50626412 4.0018096,-0.98966256 3.6209503,-1.6400532 Z m 6.1171875,-3.8203125 c 0,-1.3183594 -0.2753907,-2.3554687 -0.8203125,-3.1054687 -0.5390625,-0.7558594 -1.2861329,-1.1367188 -2.2382813,-1.1367188 -0.9550781,0 -1.7050781,0.3808594 -2.25,1.1367188 -0.5390625,0.75 -0.8085937,1.7871093 -0.8085937,3.1054687 0,1.3212891 0.2695312,2.3613281 0.8085937,3.1171875 0.5449219,0.75 1.2949219,1.125 2.25,1.125 0.9521484,0 1.6992188,-0.375 2.2382813,-1.125 0.5449218,-0.7558594 0.8203125,-1.7958984 0.8203125,-3.1171875 z m 0,0"
       style="fill:#000000;fill-opacity:1;fill-rule:nonzero;stroke:none"
       aria-label="p"
       transform="matrix(1.3333333,0,0,1.3333333,127.03144,584.96408)" />
    <path
       id="path45"
       d="m 1.2762242,-9.4691547 h 1.7226562 l 4.2070313,7.921875 v -7.921875 H 8.4480992 V -4.0475e-4 H 6.7137242 L 2.5184117,-7.9222797 V -4.0475e-4 H 1.2762242 Z m 0,0"
       style="fill:#000000;fill-opacity:1;fill-rule:nonzero;stroke:none"
       aria-label="N"
       transform="matrix(1.3333333,0,0,1.3333333,143.95852,590.29741)" />
    <text
       id="text45"
       xml:space="preserve"
       transform="matrix(1.3333333,0,0,1.3333333,429.28199,116.20508)"><tspan
         id="tspan45"
         style="font-variant:normal;font-weight:normal;font-size:20px;font-family:'DejaVu Sans';writing-mode:lr-tb;fill:#000000;fill-opacity:1;fill-rule:nonzero;stroke:none"
         x="0"
         y="0">τ</tspan><tspan
         id="tspan46"
         style="font-variant:normal;font-weight:normal;font-size:20px;font-family:'DejaVu Sans';writing-mode:lr-tb;fill:#000000;fill-opacity:1;fill-rule:nonzero;stroke:none"
         x="-254.93829"
         y="358.73047">τ</tspan><tspan
         id="tspan47"
         style="font-variant:normal;font-weight:normal;font-size:20px;font-family:'DejaVu Sans';writing-mode:lr-tb;fill:#000000;fill-opacity:1;fill-rule:nonzero;stroke:none"
         x="-0.75763994"
         y="287.89352">τ</tspan></text>
    <path
       id="path47"
       d="M 242.199,85.246 V 368.711"
       style="fill:none;stroke:#000000;stroke-width:0.75;stroke-linecap:butt;stroke-linejoin:miter;stroke-miterlimit:4;stroke-dasharray:none;stroke-opacity:1"
       transform="scale(1.3333333)" />
    <path
       id="path48"
       d="m 85.246,-238.809 v -6.781"
       style="fill:none;stroke:#000000;stroke-width:0.8;stroke-linecap:butt;stroke-linejoin:miter;stroke-miterlimit:4;stroke-dasharray:none;stroke-opacity:1"
       transform="matrix(0,1.3333333,-1.3333333,0,0,0)" />
    <path
       id="path49"
       d="m 368.711,-238.809 v -6.781"
       style="fill:none;stroke:#000000;stroke-width:0.8;stroke-linecap:butt;stroke-linejoin:miter;stroke-miterlimit:4;stroke-dasharray:none;stroke-opacity:1"
       transform="matrix(0,1.3333333,-1.3333333,0,0,0)" />
    <path
       id="path50"
       d="M 454.949,141.941 V 312.02"
       style="fill:none;stroke:#000000;stroke-width:0.75;stroke-linecap:butt;stroke-linejoin:miter;stroke-miterlimit:4;stroke-dasharray:none;stroke-opacity:1"
       transform="scale(1.3333333)" />
    <path
       id="path51"
       d="m 141.941,-451.559 v -6.781"
       style="fill:none;stroke:#000000;stroke-width:0.8;stroke-linecap:butt;stroke-linejoin:miter;stroke-miterlimit:4;stroke-dasharray:none;stroke-opacity:1"
       transform="matrix(0,1.3333333,-1.3333333,0,0,0)" />
    <path
       id="path52"
       d="m 312.02,-451.559 v -6.781"
       style="fill:none;stroke:#000000;stroke-width:0.8;stroke-linecap:butt;stroke-linejoin:miter;stroke-miterlimit:4;stroke-dasharray:none;stroke-opacity:1"
       transform="matrix(0,1.3333333,-1.3333333,0,0,0)" />
    <path
       id="path53"
       d="m 10.981678,-6.5986615 v 6.59765625 H 9.1769903 V -6.5400677 c 0,-1.0371094 -0.2050782,-1.8164063 -0.609375,-2.3320313 -0.3984375,-0.515625 -1.0019532,-0.7734375 -1.8046875,-0.7734375 -0.9697266,0 -1.734375,0.3134766 -2.296875,0.9375 -0.5625,0.6181641 -0.84375,1.4589844 -0.84375,2.5195313 v 6.18749995 H 1.8176153 V -15.200224 h 1.8046875 v 5.9648438 c 0.4277343,-0.6621094 0.9316406,-1.1542968 1.5117187,-1.4765628 0.5859375,-0.328125 1.2597656,-0.492187 2.0273438,-0.492187 1.2568359,0 2.2060546,0.392578 2.8476567,1.171875 0.64746,0.7734373 0.972656,1.9189451 0.972656,3.4335935 z m 0,0"
       style="fill:#000000;fill-opacity:1;fill-rule:nonzero;stroke:none"
       aria-label="h"
       transform="matrix(1.3333333,0,0,1.3333333,298.99839,306.57947)" />
    <path
       id="path54"
       d="M 10.979753,-6.5981434 V -4.8717971e-4 H 9.1750652 V -6.5395497 c 0,-1.0371094 -0.2050781,-1.8164062 -0.609375,-2.3320312 -0.3984375,-0.515625 -1.0019531,-0.7734375 -1.8046875,-0.7734375 -0.9697266,0 -1.734375,0.3134765 -2.296875,0.9375 -0.5625,0.618164 -0.84375,1.4589843 -0.84375,2.5195312 V -4.8717971e-4 H 1.8156902 V -15.199706 h 1.8046875 v 5.9648438 c 0.4277344,-0.6621094 0.9316406,-1.1542968 1.5117188,-1.4765628 0.5859375,-0.328125 1.2597656,-0.492187 2.0273437,-0.492187 1.2568359,0 2.2060547,0.392578 2.8476558,1.171875 0.647461,0.7734373 0.972657,1.9189451 0.972657,3.4335936 z M 21.860612,-12.53955 v 5.4375003 h 5.4375 v 1.6640625 h -5.4375 V -4.8717971e-4 H 20.219987 V -5.4379872 h -5.4375 v -1.6640625 h 5.4375 V -12.53955 Z m 16.620117,3.2578128 v -5.9179688 h 1.804688 V -4.8717971e-4 H 38.480729 V -1.6411122 c -0.375,0.65039065 -0.852539,1.13378908 -1.429687,1.45312502 -0.580078,0.31054688 -1.271485,0.46875 -2.074219,0.46875 -1.321289,0 -2.399414,-0.52734375 -3.234375,-1.58203122 -0.829102,-1.0546875 -1.242187,-2.4404297 -1.242187,-4.1601563 0,-1.7167969 0.413085,-3.1054687 1.242187,-4.1601562 0.834961,-1.0546871 1.913086,-1.5820311 3.234375,-1.5820311 0.802734,0 1.494141,0.161133 2.074219,0.480469 0.577148,0.313476 1.054687,0.7939449 1.429687,1.4414058 z m -6.117187,3.8203125 c 0,1.3212891 0.269531,2.3613281 0.808594,3.1171875 0.544921,0.75 1.291992,1.125 2.238281,1.125 0.952148,0 1.702148,-0.375 2.25,-1.125 0.544922,-0.7558594 0.820312,-1.7958984 0.820312,-3.1171875 0,-1.3183594 -0.27539,-2.3554687 -0.820312,-3.1054687 -0.547852,-0.7558594 -1.297852,-1.1367188 -2.25,-1.1367188 -0.946289,0 -1.69336,0.3808594 -2.238281,1.1367188 -0.539063,0.75 -0.808594,1.7871093 -0.808594,3.1054687 z M 53.061784,-6.5981434 V -4.8717971e-4 H 51.257096 V -6.5395497 c 0,-1.0371094 -0.205078,-1.8164062 -0.609375,-2.3320312 -0.398437,-0.515625 -1.001953,-0.7734375 -1.804687,-0.7734375 -0.969727,0 -1.734375,0.3134765 -2.296875,0.9375 -0.5625,0.618164 -0.84375,1.4589843 -0.84375,2.5195312 V -4.8717971e-4 H 43.897721 V -15.199706 h 1.804688 v 5.9648438 c 0.427734,-0.6621094 0.931641,-1.1542968 1.511719,-1.4765628 0.585937,-0.328125 1.259765,-0.492187 2.027343,-0.492187 1.256836,0 2.206055,0.392578 2.847657,1.171875 0.647461,0.7734373 0.972656,1.9189451 0.972656,3.4335936 z m 0,0"
       style="fill:#000000;fill-opacity:1;fill-rule:nonzero;stroke:none"
       aria-label="h+dh"
       transform="matrix(1.3333333,0,0,1.3333333,622.8408,308.45377)" />
    <path
       id="path55"
       d="m 284.719,411.23 h 85.039"
       style="fill:none;stroke:#000000;stroke-width:0.75;stroke-linecap:butt;stroke-linejoin:miter;stroke-miterlimit:4;stroke-dasharray:none;stroke-opacity:1"
       transform="scale(1.3333333)" />
    <path
       id="path56"
       d="M 284.719,414.621 V 407.84"
       style="fill:none;stroke:#000000;stroke-width:0.8;stroke-linecap:butt;stroke-linejoin:miter;stroke-miterlimit:4;stroke-dasharray:none;stroke-opacity:1"
       transform="scale(1.3333333)" />
    <path
       id="path57"
       d="M 369.758,414.621 V 407.84"
       style="fill:none;stroke:#000000;stroke-width:0.8;stroke-linecap:butt;stroke-linejoin:miter;stroke-miterlimit:4;stroke-dasharray:none;stroke-opacity:1"
       transform="scale(1.3333333)" />
    <path
       id="path58"
       d="M 9.0808754,-9.2826733 V -15.200642 H 10.885563 V -0.00142331 H 9.0808754 V -1.6420483 c -0.375,0.65039061 -0.852539,1.13378905 -1.4296875,1.45312499 -0.5800781,0.31054687 -1.2714843,0.46875 -2.0742187,0.46875 -1.3212891,0 -2.3994141,-0.52734375 -3.234375,-1.58203129 -0.8291016,-1.0546875 -1.2421875,-2.4404296 -1.2421875,-4.1601562 0,-1.7167969 0.4130859,-3.1054688 1.2421875,-4.1601563 0.8349609,-1.0546879 1.9130859,-1.5820309 3.234375,-1.5820309 0.8027344,0 1.4941406,0.161133 2.0742187,0.480468 0.5771485,0.313477 1.0546875,0.7939458 1.4296875,1.4414067 z m -6.1171875,3.8203125 c 0,1.3212891 0.2695313,2.3613281 0.8085938,3.1171875 0.5449219,0.75 1.2919922,1.125 2.2382812,1.125 0.9521485,0 1.7021485,-0.375 2.25,-1.125 0.5449219,-0.7558594 0.8203125,-1.7958984 0.8203125,-3.1171875 0,-1.3183594 -0.2753906,-2.3554688 -0.8203125,-3.1054688 -0.5478515,-0.7558593 -1.2978515,-1.1367187 -2.25,-1.1367187 -0.946289,0 -1.6933593,0.3808594 -2.2382812,1.1367187 -0.5390625,0.75 -0.8085938,1.7871094 -0.8085938,3.1054688 z m 20.6982421,-5.4843752 -3.960937,5.3320314 4.160156,5.61328129 h -2.121094 l -3.175781,-4.30078129 -3.1875,4.30078129 H 13.25568 l 4.253906,-5.71874999 -3.890625,-5.2265627 h 2.121094 l 2.894531,3.9023439 2.90625,-3.9023439 z m 0,0"
       style="fill:#000000;fill-opacity:1;fill-rule:nonzero;stroke:none"
       aria-label="dx"
       transform="matrix(1.3333333,0,0,1.3333333,423.7867,572.6933)" />
    <path
       id="path59"
       d="M 78.027,46.781 C 70.023,48.852 61.473,59.906 67.043,71.023"
       style="fill:none;stroke:#000000;stroke-width:0.75;stroke-linecap:butt;stroke-linejoin:miter;stroke-miterlimit:4;stroke-dasharray:none;stroke-opacity:1"
       transform="scale(1.3333333)" />
    <text
       id="text59"
       xml:space="preserve"
       transform="matrix(1.3333333,0,0,1.3333333,96.210148,87.881495)"><tspan
         id="tspan59"
         style="font-variant:normal;font-weight:normal;font-size:20px;font-family:'DejaVu Sans';writing-mode:lr-tb;fill:#000000;fill-opacity:1;fill-rule:nonzero;stroke:none"
         x="0"
         y="0">α</tspan><tspan
         id="tspan60"
         style="font-variant:normal;font-weight:normal;font-size:20px;font-family:'DejaVu Sans';writing-mode:lr-tb;fill:#000000;fill-opacity:1;fill-rule:nonzero;stroke:none"
         x="5.1680198"
         y="59.695396">σ</tspan></text>
    <path
       id="path60"
       d="M 4.1831496,0.65617131 C 3.8550246,1.5057807 3.5298293,2.0624213 3.2104933,2.3202338 2.8970168,2.5780463 2.4780714,2.7069526 1.9565871,2.7069526 H 1.0308058 v -0.984375 h 0.6796875 c 0.319336,0 0.5683594,-0.079102 0.75,-0.234375 0.178711,-0.1494141 0.375,-0.50390629 0.5859375,-1.06640629 L 3.2573683,-0.11726619 0.38627456,-7.1016412 H 1.6284621 l 2.2148437,5.5546875 2.2265625,-5.5546875 h 1.2304688 z m 0,0"
       style="fill:#000000;fill-opacity:1;fill-rule:nonzero;stroke:none"
       aria-label="y"
       transform="matrix(1.3333333,0,0,1.3333333,120.02794,172.8087)" />
    <text
       id="text60"
       xml:space="preserve"
       transform="matrix(1.3333333,0,0,1.3333333,103.10088,490.72417)"><tspan
         id="tspan61"
         style="font-variant:normal;font-weight:normal;font-size:20px;font-family:'DejaVu Sans';writing-mode:lr-tb;fill:#000000;fill-opacity:1;fill-rule:nonzero;stroke:none"
         x="0"
         y="0">σ</tspan></text>
    <path
       id="path61"
       d="M 4.1831276,0.65707131 C 3.8550026,1.5066807 3.5298073,2.0633213 3.2104713,2.3211338 2.8969948,2.5789463 2.4780494,2.7078526 1.9565651,2.7078526 H 1.0307838 v -0.984375 h 0.6796875 c 0.319336,0 0.5683594,-0.079102 0.75,-0.234375 0.178711,-0.1494141 0.375,-0.50390629 0.5859375,-1.06640629 L 3.2573463,-0.11636619 0.38625256,-7.1007412 H 1.6284401 l 2.2148437,5.5546875 2.2265625,-5.5546875 h 1.2304688 z m 0,0"
       style="fill:#000000;fill-opacity:1;fill-rule:nonzero;stroke:none"
       aria-label="y"
       transform="matrix(1.3333333,0,0,1.3333333,120.02797,496.0575)" />
    <text
       id="text61"
       xml:space="preserve"
       transform="matrix(1.3333333,0,0,1.3333333,102.09069,442.23686)"><tspan
         id="tspan62"
         style="font-variant:normal;font-weight:normal;font-size:20px;font-family:'DejaVu Sans';writing-mode:lr-tb;fill:#000000;fill-opacity:1;fill-rule:nonzero;stroke:none"
         x="0"
         y="0">σ</tspan></text>
    <path
       id="path62"
       d="M 4.1849142,0.65634138 C 3.8567892,1.5059508 3.5315939,2.0625914 3.2122579,2.3204039 2.8987814,2.5782164 2.4798361,2.7071226 1.9583517,2.7071226 H 1.0325704 v -0.984375 h 0.6796875 c 0.319336,0 0.5683594,-0.079101 0.75,-0.234375 0.178711,-0.149414 0.375,-0.50390622 0.5859375,-1.06640622 L 3.2591329,-0.11709612 0.38803919,-7.1014711 H 1.6302267 l 2.2148437,5.5546875 2.2265625,-5.5546875 h 1.2304688 z m 0,0"
       style="fill:#000000;fill-opacity:1;fill-rule:nonzero;stroke:none"
       aria-label="y"
       transform="matrix(1.3333333,0,0,1.3333333,119.01777,447.57019)" />
    <text
       id="text62"
       xml:space="preserve"
       transform="matrix(1.3333333,0,0,1.3333333,-0.944824,283.6429)"><tspan
         id="tspan63"
         style="font-variant:normal;font-weight:normal;font-size:20px;font-family:'DejaVu Sans';writing-mode:lr-tb;fill:#000000;fill-opacity:1;fill-rule:nonzero;stroke:none"
         x="0"
         y="0">σ</tspan></text>
    <path
       id="path63"
       d="M 7.1353763,-7.1013126 4.5572513,-3.6442814 7.2642826,2.49875e-4 H 5.8931888 L 3.8189701,-2.7888126 1.7447513,2.49875e-4 H 0.37365756 L 3.1392826,-3.7145939 0.60803256,-7.1013126 H 1.9791263 l 1.8867188,2.53125 1.8867187,-2.53125 z m 0,0"
       style="fill:#000000;fill-opacity:1;fill-rule:nonzero;stroke:none"
       aria-label="x"
       transform="matrix(1.3333333,0,0,1.3333333,15.982259,288.97623)" />
    <text
       id="text63"
       xml:space="preserve"
       transform="matrix(1.3333333,0,0,1.3333333,158.65923,287.68356)"><tspan
         id="tspan64"
         style="font-variant:normal;font-weight:normal;font-size:20px;font-family:'DejaVu Sans';writing-mode:lr-tb;fill:#000000;fill-opacity:1;fill-rule:nonzero;stroke:none"
         x="0"
         y="0">σ</tspan></text>
    <path
       id="path64"
       d="m 7.1364349,-7.1025117 -2.578125,3.4570312 2.7070312,3.64453125 H 5.8942474 L 3.8200286,-2.7900117 1.7458099,-9.4925e-4 H 0.37471612 L 3.1403411,-3.715793 0.60909112,-7.1025117 H 1.9801849 l 1.8867187,2.53125 1.8867188,-2.53125 z m 0,0"
       style="fill:#000000;fill-opacity:1;fill-rule:nonzero;stroke:none"
       aria-label="x"
       transform="matrix(1.3333333,0,0,1.3333333,175.58632,293.01689)" />
    <path
       id="path65"
       d="m 9.1989352,-12.539035 v 5.4374998 h 5.4374998 v 1.6640625 H 9.1989352 V 2.73125e-5 H 7.5583102 V -5.4374727 h -5.4375 v -1.6640625 h 5.4375 V -12.539035 Z M 25.821982,-9.2812227 V -15.199191 H 27.62667 V 2.73125e-5 H 25.821982 V -1.6405977 c -0.375,0.65039064 -0.852539,1.13378908 -1.429687,1.45312501 -0.580079,0.31054688 -1.271485,0.46875 -2.074219,0.46875 -1.321289,0 -2.399414,-0.52734375 -3.234375,-1.58203121 -0.829102,-1.0546875 -1.242188,-2.4404297 -1.242188,-4.1601563 0,-1.7167969 0.413086,-3.1054687 1.242188,-4.1601562 0.834961,-1.0546876 1.913086,-1.5820316 3.234375,-1.5820316 0.802734,0 1.49414,0.161133 2.074219,0.480469 0.577148,0.313477 1.054687,0.7939454 1.429687,1.4414063 z m -6.117187,3.8203125 c 0,1.3212891 0.269531,2.3613281 0.808593,3.1171875 0.544922,0.75 1.291993,1.125 2.238282,1.125 0.952148,0 1.702148,-0.375 2.25,-1.125 0.544921,-0.7558594 0.820312,-1.7958984 0.820312,-3.1171875 0,-1.3183594 -0.275391,-2.3554687 -0.820312,-3.1054687 -0.547852,-0.7558594 -1.297852,-1.1367188 -2.25,-1.1367188 -0.946289,0 -1.69336,0.3808594 -2.238282,1.1367188 -0.539062,0.75 -0.808593,1.7871093 -0.808593,3.1054687 z m 0,0"
       style="fill:#000000;fill-opacity:1;fill-rule:nonzero;stroke:none"
       aria-label="+d"
       transform="matrix(1.3333333,0,0,1.3333333,185.84413,287.68356)" />
    <text
       id="text65"
       xml:space="preserve"
       transform="matrix(1.3333333,0,0,1.3333333,225.07079,287.68356)"><tspan
         id="tspan65"
         style="font-variant:normal;font-weight:normal;font-size:20px;font-family:'DejaVu Sans';writing-mode:lr-tb;fill:#000000;fill-opacity:1;fill-rule:nonzero;stroke:none"
         x="0"
         y="0">σ</tspan></text>
    <path
       id="path66"
       d="m 7.1374153,-7.1025117 -2.578125,3.4570312 2.7070313,3.64453125 H 5.8952278 L 3.8210091,-2.7900117 1.7467903,-9.4925e-4 H 0.37569656 L 3.1413216,-3.715793 0.61007156,-7.1025117 H 1.9811653 l 1.8867188,2.53125 1.8867187,-2.53125 z m 0,0"
       style="fill:#000000;fill-opacity:1;fill-rule:nonzero;stroke:none"
       aria-label="x"
       transform="matrix(1.3333333,0,0,1.3333333,242.04204,293.01689)" />
    <text
       id="text66"
       xml:space="preserve"
       transform="matrix(1.3333333,0,0,1.3333333,336.47171,286.4558)"><tspan
         id="tspan66"
         style="font-variant:normal;font-weight:normal;font-size:20px;font-family:'DejaVu Sans';writing-mode:lr-tb;fill:#000000;fill-opacity:1;fill-rule:nonzero;stroke:none"
         x="0"
         y="0">σ</tspan></text>
    <path
       id="path67"
       d="M 7.1364489,-7.1016156 4.5583239,-3.6445844 7.2653551,-5.3125e-5 H 5.8942614 L 3.8200426,-2.7891156 1.7458239,-5.3125e-5 H 0.37473012 L 3.1403551,-3.7148969 0.60910512,-7.1016156 H 1.9801989 l 1.8867187,2.53125 1.8867188,-2.53125 z m 0,0"
       style="fill:#000000;fill-opacity:1;fill-rule:nonzero;stroke:none"
       aria-label="x"
       transform="matrix(1.3333333,0,0,1.3333333,353.3988,291.78913)" />
    <text
       id="text67"
       xml:space="preserve"
       transform="matrix(1.3333333,0,0,1.3333333,498.20451,286.30453)"><tspan
         id="tspan67"
         style="font-variant:normal;font-weight:normal;font-size:20px;font-family:'DejaVu Sans';writing-mode:lr-tb;fill:#000000;fill-opacity:1;fill-rule:nonzero;stroke:none"
         x="0"
         y="0">σ</tspan></text>
    <path
       id="path68"
       d="m 7.1376351,-7.1024194 -2.578125,3.4570312 2.7070313,3.6445312625 H 5.8954476 L 3.8212289,-2.7899194 1.7470101,-8.569375e-4 H 0.37591638 L 3.1415414,-3.7157007 0.61029138,-7.1024194 H 1.9813851 l 1.8867188,2.53125 1.8867187,-2.53125 z m 0,0"
       style="fill:#000000;fill-opacity:1;fill-rule:nonzero;stroke:none"
       aria-label="x"
       transform="matrix(1.3333333,0,0,1.3333333,515.13159,291.63786)" />
    <path
       id="path69"
       d="m 9.2001365,-12.538943 v 5.4375001 h 5.4374995 v 1.6640625 H 9.2001365 V 1.19625e-4 H 7.5595115 V -5.4373804 h -5.4375 v -1.6640625 h 5.4375 v -5.4375001 z m 16.6230465,3.2578126 v -5.9179686 h 1.804688 V 1.19625e-4 H 25.823183 V -1.6405054 c -0.375,0.65039065 -0.852539,1.13378909 -1.429687,1.45312502 -0.580078,0.31054688 -1.271485,0.46875 -2.074219,0.46875 -1.321289,0 -2.399414,-0.52734375 -3.234375,-1.58203122 -0.829101,-1.0546875 -1.242187,-2.4404297 -1.242187,-4.1601563 0,-1.7167969 0.413086,-3.1054687 1.242187,-4.1601562 0.834961,-1.0546879 1.913086,-1.5820309 3.234375,-1.5820309 0.802734,0 1.494141,0.161132 2.074219,0.480468 0.577148,0.313477 1.054687,0.7939457 1.429687,1.4414066 z m -6.117187,3.8203125 c 0,1.3212891 0.269531,2.3613281 0.808594,3.1171875 0.544921,0.75 1.291992,1.125 2.238281,1.125 0.952148,0 1.702148,-0.375 2.25,-1.125 0.544922,-0.7558594 0.820312,-1.7958984 0.820312,-3.1171875 0,-1.3183594 -0.27539,-2.3554687 -0.820312,-3.1054687 -0.547852,-0.7558594 -1.297852,-1.1367188 -2.25,-1.1367188 -0.946289,0 -1.69336,0.3808594 -2.238281,1.1367188 -0.539063,0.75 -0.808594,1.7871093 -0.808594,3.1054687 z m 0,0"
       style="fill:#000000;fill-opacity:1;fill-rule:nonzero;stroke:none"
       aria-label="+d"
       transform="matrix(1.3333333,0,0,1.3333333,525.3894,286.30453)" />
    <text
       id="text69"
       xml:space="preserve"
       transform="matrix(1.3333333,0,0,1.3333333,564.61607,286.30453)"><tspan
         id="tspan69"
         style="font-variant:normal;font-weight:normal;font-size:20px;font-family:'DejaVu Sans';writing-mode:lr-tb;fill:#000000;fill-opacity:1;fill-rule:nonzero;stroke:none"
         x="0"
         y="0">σ</tspan></text>
    <path
       id="path70"
       d="m 7.1356859,-7.1024194 -2.578125,3.4570312 2.7070312,3.6445312625 H 5.8934984 L 3.8192796,-2.7899194 1.7450609,-8.569375e-4 H 0.37396712 L 3.1395921,-3.7157007 0.60834212,-7.1024194 H 1.9794359 l 1.8867187,2.53125 1.8867188,-2.53125 z m 0,0"
       style="fill:#000000;fill-opacity:1;fill-rule:nonzero;stroke:none"
       aria-label="x"
       transform="matrix(1.3333333,0,0,1.3333333,581.58731,291.63786)" />
  </g>
</svg>
