<?xml version="1.0" encoding="utf-8" standalone="no"?>
<!DOCTYPE svg PUBLIC "-//W3C//DTD SVG 1.1//EN"
  "http://www.w3.org/Graphics/SVG/1.1/DTD/svg11.dtd">
<svg xmlns:xlink="http://www.w3.org/1999/xlink" width="759.6pt" height="731.88pt" viewBox="0 0 759.6 731.88" xmlns="http://www.w3.org/2000/svg" version="1.1">
 <metadata>
  <rdf:RDF xmlns:dc="http://purl.org/dc/elements/1.1/" xmlns:cc="http://creativecommons.org/ns#" xmlns:rdf="http://www.w3.org/1999/02/22-rdf-syntax-ns#">
   <cc:Work>
    <dc:type rdf:resource="http://purl.org/dc/dcmitype/StillImage"/>
    <dc:date>2023-10-10T11:30:13.855017</dc:date>
    <dc:format>image/svg+xml</dc:format>
    <dc:creator>
     <cc:Agent>
      <dc:title>Matplotlib v3.8.0, https://matplotlib.org/</dc:title>
     </cc:Agent>
    </dc:creator>
   </cc:Work>
  </rdf:RDF>
 </metadata>
 <defs>
  <style type="text/css">*{stroke-linejoin: round; stroke-linecap: butt}</style>
 </defs>
 <g id="figure_1">
  <g id="patch_1">
   <path d="M -0 731.88 
L 759.6 731.88 
L 759.6 0 
L -0 0 
L -0 731.88 
z
" style="fill: none"/>
  </g>
  <g id="axes_1">
   <g id="line2d_1">
    <path d="M 325.8 72.54 
L 325.8 36.54 
L 433.8 36.54 
L 433.8 108.54 
L 325.8 108.54 
L 325.8 72.54 
" clip-path="url(#pf3d8457439)" style="fill: none; stroke: #000000; stroke-width: 2; stroke-linecap: round"/>
   </g>
   <g id="line2d_2">
    <path d="M 379.8 117.54 
L 379.8 130.14 
L 379.8 151.74 
" clip-path="url(#pf3d8457439)" style="fill: none; stroke: #000000; stroke-width: 2; stroke-linecap: round"/>
   </g>
   <g id="patch_2">
    <path d="M 377.1 117.54 
L 379.8 108.54 
L 382.5 117.54 
z
" clip-path="url(#pf3d8457439)"/>
   </g>
   <g id="line2d_3">
    <path d="M 289.8 187.74 
L 289.8 151.74 
L 469.8 151.74 
L 469.8 223.74 
L 289.8 223.74 
L 289.8 187.74 
" clip-path="url(#pf3d8457439)" style="fill: none; stroke: #000000; stroke-width: 2; stroke-linecap: round"/>
   </g>
   <g id="line2d_4">
    <path d="M 55.8 277.74 
L 55.8 241.74 
L 163.8 241.74 
L 163.8 313.74 
L 55.8 313.74 
L 55.8 277.74 
" clip-path="url(#pf3d8457439)" style="fill: none; stroke: #000000; stroke-width: 2; stroke-linecap: round"/>
   </g>
   <g id="line2d_5">
    <path d="M 372.6 232.74 
L 372.6 277.74 
L 163.8 277.74 
" clip-path="url(#pf3d8457439)" style="fill: none; stroke: #000000; stroke-width: 2; stroke-linecap: round"/>
   </g>
   <g id="patch_3">
    <path d="M 369.9 232.74 
L 372.6 223.74 
L 375.3 232.74 
z
" clip-path="url(#pf3d8457439)"/>
   </g>
   <g id="line2d_6">
    <path d="M 109.8 322.74 
L 109.8 367.74 
L 109.8 421.74 
" clip-path="url(#pf3d8457439)" style="fill: none; stroke: #000000; stroke-width: 2; stroke-linecap: round"/>
   </g>
   <g id="patch_4">
    <path d="M 107.1 322.74 
L 109.8 313.74 
L 112.5 322.74 
z
" clip-path="url(#pf3d8457439)"/>
   </g>
   <g id="line2d_7">
    <path d="M 37.8 457.74 
L 37.8 421.74 
L 181.8 421.74 
L 181.8 493.74 
L 37.8 493.74 
L 37.8 457.74 
" clip-path="url(#pf3d8457439)" style="fill: none; stroke: #000000; stroke-width: 2; stroke-linecap: round"/>
   </g>
   <g id="line2d_8">
    <path d="M 595.8 277.74 
L 595.8 241.74 
L 703.8 241.74 
L 703.8 313.74 
L 595.8 313.74 
L 595.8 277.74 
" clip-path="url(#pf3d8457439)" style="fill: none; stroke: #000000; stroke-width: 2; stroke-linecap: round"/>
   </g>
   <g id="line2d_9">
    <path d="M 387 232.74 
L 387 277.74 
L 595.8 277.74 
" clip-path="url(#pf3d8457439)" style="fill: none; stroke: #000000; stroke-width: 2; stroke-linecap: round"/>
   </g>
   <g id="patch_5">
    <path d="M 384.3 232.74 
L 387 223.74 
L 389.7 232.74 
z
" clip-path="url(#pf3d8457439)"/>
   </g>
   <g id="line2d_10">
    <path d="M 649.8 322.74 
L 649.8 356.94 
L 649.8 400.14 
" clip-path="url(#pf3d8457439)" style="fill: none; stroke: #000000; stroke-width: 2; stroke-linecap: round"/>
   </g>
   <g id="patch_6">
    <path d="M 647.1 322.74 
L 649.8 313.74 
L 652.5 322.74 
z
" clip-path="url(#pf3d8457439)"/>
   </g>
   <g id="line2d_11">
    <path d="M 649.8 400.14 
L 568.8 400.14 
L 487.8 400.14 
" clip-path="url(#pf3d8457439)" style="fill: none; stroke: #000000; stroke-width: 2; stroke-linecap: round"/>
   </g>
   <g id="line2d_12">
    <path d="M 379.8 400.14 
L 379.8 364.14 
L 487.8 364.14 
L 487.8 436.14 
L 379.8 436.14 
L 379.8 400.14 
" clip-path="url(#pf3d8457439)" style="fill: none; stroke: #000000; stroke-width: 2; stroke-linecap: round"/>
   </g>
   <g id="line2d_13">
    <path d="M 649.8 400.14 
L 649.8 443.34 
L 649.8 486.54 
" clip-path="url(#pf3d8457439)" style="fill: none; stroke: #000000; stroke-width: 2; stroke-linecap: round"/>
   </g>
   <g id="line2d_14">
    <path d="M 649.8 486.54 
L 568.8 486.54 
L 487.8 486.54 
" clip-path="url(#pf3d8457439)" style="fill: none; stroke: #000000; stroke-width: 2; stroke-linecap: round"/>
   </g>
   <g id="line2d_15">
    <path d="M 343.8 486.54 
L 343.8 450.54 
L 487.8 450.54 
L 487.8 522.54 
L 343.8 522.54 
L 343.8 486.54 
" clip-path="url(#pf3d8457439)" style="fill: none; stroke: #000000; stroke-width: 2; stroke-linecap: round"/>
   </g>
   <g id="line2d_16">
    <path d="M 649.8 486.54 
L 649.8 529.74 
L 649.8 572.94 
" clip-path="url(#pf3d8457439)" style="fill: none; stroke: #000000; stroke-width: 2; stroke-linecap: round"/>
   </g>
   <g id="line2d_17">
    <path d="M 649.8 572.94 
L 568.8 572.94 
L 487.8 572.94 
" clip-path="url(#pf3d8457439)" style="fill: none; stroke: #000000; stroke-width: 2; stroke-linecap: round"/>
   </g>
   <g id="line2d_18">
    <path d="M 307.8 572.94 
L 307.8 536.94 
L 487.8 536.94 
L 487.8 608.94 
L 307.8 608.94 
L 307.8 572.94 
" clip-path="url(#pf3d8457439)" style="fill: none; stroke: #000000; stroke-width: 2; stroke-linecap: round"/>
   </g>
   <g id="line2d_19">
    <path d="M 649.8 572.94 
L 649.8 616.14 
L 649.8 659.34 
" clip-path="url(#pf3d8457439)" style="fill: none; stroke: #000000; stroke-width: 2; stroke-linecap: round"/>
   </g>
   <g id="line2d_20">
    <path d="M 649.8 659.34 
L 568.8 659.34 
L 487.8 659.34 
" clip-path="url(#pf3d8457439)" style="fill: none; stroke: #000000; stroke-width: 2; stroke-linecap: round"/>
   </g>
   <g id="line2d_21">
    <path d="M 379.8 659.34 
L 379.8 623.34 
L 487.8 623.34 
L 487.8 695.34 
L 379.8 695.34 
L 379.8 659.34 
" clip-path="url(#pf3d8457439)" style="fill: none; stroke: #000000; stroke-width: 2; stroke-linecap: round"/>
   </g>
   <g id="line2d_22">
    <path d="M 55.8 72.54 
L 55.8 36.54 
L 163.8 36.54 
L 163.8 108.54 
L 55.8 108.54 
L 55.8 72.54 
" clip-path="url(#pf3d8457439)" style="fill: none; stroke: #000000; stroke-width: 2; stroke-linecap: round"/>
   </g>
   <g id="line2d_23">
    <path d="M 163.8 72.54 
L 244.8 72.54 
L 316.8 72.54 
" clip-path="url(#pf3d8457439)" style="fill: none; stroke: #000000; stroke-width: 2; stroke-linecap: round"/>
   </g>
   <g id="patch_7">
    <path d="M 316.8 69.84 
L 325.8 72.54 
L 316.8 75.24 
z
" clip-path="url(#pf3d8457439)"/>
   </g>
   <g id="line2d_24">
    <path d="M 109.8 241.74 
L 109.8 175.14 
L 109.8 108.54 
" clip-path="url(#pf3d8457439)" style="fill: none; stroke: #000000; stroke-width: 2; stroke-linecap: round"/>
   </g>
   <g id="patch_8">
    <path d="M 109.8 111.24 
C 110.516048 111.24 111.202866 110.955511 111.709188 110.449188 
C 112.215511 109.942866 112.5 109.256048 112.5 108.54 
C 112.5 107.823952 112.215511 107.137134 111.709188 106.630812 
C 111.202866 106.124489 110.516048 105.84 109.8 105.84 
C 109.083952 105.84 108.397134 106.124489 107.890812 106.630812 
C 107.384489 107.137134 107.1 107.823952 107.1 108.54 
C 107.1 109.256048 107.384489 109.942866 107.890812 110.449188 
C 108.397134 110.955511 109.083952 111.24 109.8 111.24 
z
" clip-path="url(#pf3d8457439)" style="stroke: #000000; stroke-width: 2; stroke-linejoin: miter"/>
   </g>
   <g id="line2d_25">
    <path d="M 577.8 72.54 
L 577.8 36.54 
L 721.8 36.54 
L 721.8 108.54 
L 577.8 108.54 
L 577.8 72.54 
" clip-path="url(#pf3d8457439)" style="fill: none; stroke: #000000; stroke-width: 2; stroke-linecap: round"/>
   </g>
   <g id="line2d_26">
    <path d="M 577.8 72.54 
L 505.8 72.54 
L 442.8 72.54 
" clip-path="url(#pf3d8457439)" style="fill: none; stroke: #000000; stroke-width: 2; stroke-linecap: round"/>
   </g>
   <g id="patch_9">
    <path d="M 442.8 75.24 
L 433.8 72.54 
L 442.8 69.84 
z
" clip-path="url(#pf3d8457439)"/>
   </g>
   <g id="line2d_27">
    <path d="M 469.8 187.74 
L 649.8 187.74 
L 649.8 108.54 
" clip-path="url(#pf3d8457439)" style="fill: none; stroke: #000000; stroke-width: 2; stroke-linecap: round"/>
   </g>
   <g id="patch_10">
    <path d="M 649.8 111.24 
C 650.516048 111.24 651.202866 110.955511 651.709188 110.449188 
C 652.215511 109.942866 652.5 109.256048 652.5 108.54 
C 652.5 107.823952 652.215511 107.137134 651.709188 106.630812 
C 651.202866 106.124489 650.516048 105.84 649.8 105.84 
C 649.083952 105.84 648.397134 106.124489 647.890812 106.630812 
C 647.384489 107.137134 647.1 107.823952 647.1 108.54 
C 647.1 109.256048 647.384489 109.942866 647.890812 110.449188 
C 648.397134 110.955511 649.083952 111.24 649.8 111.24 
z
" clip-path="url(#pf3d8457439)" style="stroke: #000000; stroke-width: 2; stroke-linejoin: miter"/>
   </g>
   <g id="text_1">
    <!-- Unit -->
    <g transform="translate(367.07832 75.989219) scale(0.125 -0.125)">
     <defs>
      <path id="DejaVuSans-55" d="M 556 4666 
L 1191 4666 
L 1191 1831 
Q 1191 1081 1462 751 
Q 1734 422 2344 422 
Q 2950 422 3222 751 
Q 3494 1081 3494 1831 
L 3494 4666 
L 4128 4666 
L 4128 1753 
Q 4128 841 3676 375 
Q 3225 -91 2344 -91 
Q 1459 -91 1007 375 
Q 556 841 556 1753 
L 556 4666 
z
" transform="scale(0.015625)"/>
      <path id="DejaVuSans-6e" d="M 3513 2113 
L 3513 0 
L 2938 0 
L 2938 2094 
Q 2938 2591 2744 2837 
Q 2550 3084 2163 3084 
Q 1697 3084 1428 2787 
Q 1159 2491 1159 1978 
L 1159 0 
L 581 0 
L 581 3500 
L 1159 3500 
L 1159 2956 
Q 1366 3272 1645 3428 
Q 1925 3584 2291 3584 
Q 2894 3584 3203 3211 
Q 3513 2838 3513 2113 
z
" transform="scale(0.015625)"/>
      <path id="DejaVuSans-69" d="M 603 3500 
L 1178 3500 
L 1178 0 
L 603 0 
L 603 3500 
z
M 603 4863 
L 1178 4863 
L 1178 4134 
L 603 4134 
L 603 4863 
z
" transform="scale(0.015625)"/>
      <path id="DejaVuSans-74" d="M 1172 4494 
L 1172 3500 
L 2356 3500 
L 2356 3053 
L 1172 3053 
L 1172 1153 
Q 1172 725 1289 603 
Q 1406 481 1766 481 
L 2356 481 
L 2356 0 
L 1766 0 
Q 1100 0 847 248 
Q 594 497 594 1153 
L 594 3053 
L 172 3053 
L 172 3500 
L 594 3500 
L 594 4494 
L 1172 4494 
z
" transform="scale(0.015625)"/>
     </defs>
     <use xlink:href="#DejaVuSans-55"/>
     <use xlink:href="#DejaVuSans-6e" x="73.193359"/>
     <use xlink:href="#DejaVuSans-69" x="136.572266"/>
     <use xlink:href="#DejaVuSans-74" x="164.355469"/>
    </g>
   </g>
   <g id="text_2">
    <!-- +disk elements -->
    <g transform="translate(383.4 133.589219) scale(0.125 -0.125)">
     <defs>
      <path id="DejaVuSans-2b" d="M 2944 4013 
L 2944 2272 
L 4684 2272 
L 4684 1741 
L 2944 1741 
L 2944 0 
L 2419 0 
L 2419 1741 
L 678 1741 
L 678 2272 
L 2419 2272 
L 2419 4013 
L 2944 4013 
z
" transform="scale(0.015625)"/>
      <path id="DejaVuSans-64" d="M 2906 2969 
L 2906 4863 
L 3481 4863 
L 3481 0 
L 2906 0 
L 2906 525 
Q 2725 213 2448 61 
Q 2172 -91 1784 -91 
Q 1150 -91 751 415 
Q 353 922 353 1747 
Q 353 2572 751 3078 
Q 1150 3584 1784 3584 
Q 2172 3584 2448 3432 
Q 2725 3281 2906 2969 
z
M 947 1747 
Q 947 1113 1208 752 
Q 1469 391 1925 391 
Q 2381 391 2643 752 
Q 2906 1113 2906 1747 
Q 2906 2381 2643 2742 
Q 2381 3103 1925 3103 
Q 1469 3103 1208 2742 
Q 947 2381 947 1747 
z
" transform="scale(0.015625)"/>
      <path id="DejaVuSans-73" d="M 2834 3397 
L 2834 2853 
Q 2591 2978 2328 3040 
Q 2066 3103 1784 3103 
Q 1356 3103 1142 2972 
Q 928 2841 928 2578 
Q 928 2378 1081 2264 
Q 1234 2150 1697 2047 
L 1894 2003 
Q 2506 1872 2764 1633 
Q 3022 1394 3022 966 
Q 3022 478 2636 193 
Q 2250 -91 1575 -91 
Q 1294 -91 989 -36 
Q 684 19 347 128 
L 347 722 
Q 666 556 975 473 
Q 1284 391 1588 391 
Q 1994 391 2212 530 
Q 2431 669 2431 922 
Q 2431 1156 2273 1281 
Q 2116 1406 1581 1522 
L 1381 1569 
Q 847 1681 609 1914 
Q 372 2147 372 2553 
Q 372 3047 722 3315 
Q 1072 3584 1716 3584 
Q 2034 3584 2315 3537 
Q 2597 3491 2834 3397 
z
" transform="scale(0.015625)"/>
      <path id="DejaVuSans-6b" d="M 581 4863 
L 1159 4863 
L 1159 1991 
L 2875 3500 
L 3609 3500 
L 1753 1863 
L 3688 0 
L 2938 0 
L 1159 1709 
L 1159 0 
L 581 0 
L 581 4863 
z
" transform="scale(0.015625)"/>
      <path id="DejaVuSans-20" transform="scale(0.015625)"/>
      <path id="DejaVuSans-65" d="M 3597 1894 
L 3597 1613 
L 953 1613 
Q 991 1019 1311 708 
Q 1631 397 2203 397 
Q 2534 397 2845 478 
Q 3156 559 3463 722 
L 3463 178 
Q 3153 47 2828 -22 
Q 2503 -91 2169 -91 
Q 1331 -91 842 396 
Q 353 884 353 1716 
Q 353 2575 817 3079 
Q 1281 3584 2069 3584 
Q 2775 3584 3186 3129 
Q 3597 2675 3597 1894 
z
M 3022 2063 
Q 3016 2534 2758 2815 
Q 2500 3097 2075 3097 
Q 1594 3097 1305 2825 
Q 1016 2553 972 2059 
L 3022 2063 
z
" transform="scale(0.015625)"/>
      <path id="DejaVuSans-6c" d="M 603 4863 
L 1178 4863 
L 1178 0 
L 603 0 
L 603 4863 
z
" transform="scale(0.015625)"/>
      <path id="DejaVuSans-6d" d="M 3328 2828 
Q 3544 3216 3844 3400 
Q 4144 3584 4550 3584 
Q 5097 3584 5394 3201 
Q 5691 2819 5691 2113 
L 5691 0 
L 5113 0 
L 5113 2094 
Q 5113 2597 4934 2840 
Q 4756 3084 4391 3084 
Q 3944 3084 3684 2787 
Q 3425 2491 3425 1978 
L 3425 0 
L 2847 0 
L 2847 2094 
Q 2847 2600 2669 2842 
Q 2491 3084 2119 3084 
Q 1678 3084 1418 2786 
Q 1159 2488 1159 1978 
L 1159 0 
L 581 0 
L 581 3500 
L 1159 3500 
L 1159 2956 
Q 1356 3278 1631 3431 
Q 1906 3584 2284 3584 
Q 2666 3584 2933 3390 
Q 3200 3197 3328 2828 
z
" transform="scale(0.015625)"/>
     </defs>
     <use xlink:href="#DejaVuSans-2b"/>
     <use xlink:href="#DejaVuSans-64" x="83.789062"/>
     <use xlink:href="#DejaVuSans-69" x="147.265625"/>
     <use xlink:href="#DejaVuSans-73" x="175.048828"/>
     <use xlink:href="#DejaVuSans-6b" x="227.148438"/>
     <use xlink:href="#DejaVuSans-20" x="285.058594"/>
     <use xlink:href="#DejaVuSans-65" x="316.845703"/>
     <use xlink:href="#DejaVuSans-6c" x="378.369141"/>
     <use xlink:href="#DejaVuSans-65" x="406.152344"/>
     <use xlink:href="#DejaVuSans-6d" x="467.675781"/>
     <use xlink:href="#DejaVuSans-65" x="565.087891"/>
     <use xlink:href="#DejaVuSans-6e" x="626.611328"/>
     <use xlink:href="#DejaVuSans-74" x="689.990234"/>
     <use xlink:href="#DejaVuSans-73" x="729.199219"/>
    </g>
   </g>
   <g id="text_3">
    <!-- DiskElementUnit -->
    <g transform="translate(327.778516 191.189219) scale(0.125 -0.125)">
     <defs>
      <path id="DejaVuSans-44" d="M 1259 4147 
L 1259 519 
L 2022 519 
Q 2988 519 3436 956 
Q 3884 1394 3884 2338 
Q 3884 3275 3436 3711 
Q 2988 4147 2022 4147 
L 1259 4147 
z
M 628 4666 
L 1925 4666 
Q 3281 4666 3915 4102 
Q 4550 3538 4550 2338 
Q 4550 1131 3912 565 
Q 3275 0 1925 0 
L 628 0 
L 628 4666 
z
" transform="scale(0.015625)"/>
      <path id="DejaVuSans-45" d="M 628 4666 
L 3578 4666 
L 3578 4134 
L 1259 4134 
L 1259 2753 
L 3481 2753 
L 3481 2222 
L 1259 2222 
L 1259 531 
L 3634 531 
L 3634 0 
L 628 0 
L 628 4666 
z
" transform="scale(0.015625)"/>
     </defs>
     <use xlink:href="#DejaVuSans-44"/>
     <use xlink:href="#DejaVuSans-69" x="77.001953"/>
     <use xlink:href="#DejaVuSans-73" x="104.785156"/>
     <use xlink:href="#DejaVuSans-6b" x="156.884766"/>
     <use xlink:href="#DejaVuSans-45" x="214.794922"/>
     <use xlink:href="#DejaVuSans-6c" x="277.978516"/>
     <use xlink:href="#DejaVuSans-65" x="305.761719"/>
     <use xlink:href="#DejaVuSans-6d" x="367.285156"/>
     <use xlink:href="#DejaVuSans-65" x="464.697266"/>
     <use xlink:href="#DejaVuSans-6e" x="526.220703"/>
     <use xlink:href="#DejaVuSans-74" x="589.599609"/>
     <use xlink:href="#DejaVuSans-55" x="628.808594"/>
     <use xlink:href="#DejaVuSans-6e" x="702.001953"/>
     <use xlink:href="#DejaVuSans-69" x="765.380859"/>
     <use xlink:href="#DejaVuSans-74" x="793.164062"/>
    </g>
   </g>
   <g id="text_4">
    <!-- RollPass -->
    <g transform="translate(84.6125 281.189219) scale(0.125 -0.125)">
     <defs>
      <path id="DejaVuSans-52" d="M 2841 2188 
Q 3044 2119 3236 1894 
Q 3428 1669 3622 1275 
L 4263 0 
L 3584 0 
L 2988 1197 
Q 2756 1666 2539 1819 
Q 2322 1972 1947 1972 
L 1259 1972 
L 1259 0 
L 628 0 
L 628 4666 
L 2053 4666 
Q 2853 4666 3247 4331 
Q 3641 3997 3641 3322 
Q 3641 2881 3436 2590 
Q 3231 2300 2841 2188 
z
M 1259 4147 
L 1259 2491 
L 2053 2491 
Q 2509 2491 2742 2702 
Q 2975 2913 2975 3322 
Q 2975 3731 2742 3939 
Q 2509 4147 2053 4147 
L 1259 4147 
z
" transform="scale(0.015625)"/>
      <path id="DejaVuSans-6f" d="M 1959 3097 
Q 1497 3097 1228 2736 
Q 959 2375 959 1747 
Q 959 1119 1226 758 
Q 1494 397 1959 397 
Q 2419 397 2687 759 
Q 2956 1122 2956 1747 
Q 2956 2369 2687 2733 
Q 2419 3097 1959 3097 
z
M 1959 3584 
Q 2709 3584 3137 3096 
Q 3566 2609 3566 1747 
Q 3566 888 3137 398 
Q 2709 -91 1959 -91 
Q 1206 -91 779 398 
Q 353 888 353 1747 
Q 353 2609 779 3096 
Q 1206 3584 1959 3584 
z
" transform="scale(0.015625)"/>
      <path id="DejaVuSans-50" d="M 1259 4147 
L 1259 2394 
L 2053 2394 
Q 2494 2394 2734 2622 
Q 2975 2850 2975 3272 
Q 2975 3691 2734 3919 
Q 2494 4147 2053 4147 
L 1259 4147 
z
M 628 4666 
L 2053 4666 
Q 2838 4666 3239 4311 
Q 3641 3956 3641 3272 
Q 3641 2581 3239 2228 
Q 2838 1875 2053 1875 
L 1259 1875 
L 1259 0 
L 628 0 
L 628 4666 
z
" transform="scale(0.015625)"/>
      <path id="DejaVuSans-61" d="M 2194 1759 
Q 1497 1759 1228 1600 
Q 959 1441 959 1056 
Q 959 750 1161 570 
Q 1363 391 1709 391 
Q 2188 391 2477 730 
Q 2766 1069 2766 1631 
L 2766 1759 
L 2194 1759 
z
M 3341 1997 
L 3341 0 
L 2766 0 
L 2766 531 
Q 2569 213 2275 61 
Q 1981 -91 1556 -91 
Q 1019 -91 701 211 
Q 384 513 384 1019 
Q 384 1609 779 1909 
Q 1175 2209 1959 2209 
L 2766 2209 
L 2766 2266 
Q 2766 2663 2505 2880 
Q 2244 3097 1772 3097 
Q 1472 3097 1187 3025 
Q 903 2953 641 2809 
L 641 3341 
Q 956 3463 1253 3523 
Q 1550 3584 1831 3584 
Q 2591 3584 2966 3190 
Q 3341 2797 3341 1997 
z
" transform="scale(0.015625)"/>
     </defs>
     <use xlink:href="#DejaVuSans-52"/>
     <use xlink:href="#DejaVuSans-6f" x="64.982422"/>
     <use xlink:href="#DejaVuSans-6c" x="126.164062"/>
     <use xlink:href="#DejaVuSans-6c" x="153.947266"/>
     <use xlink:href="#DejaVuSans-50" x="181.730469"/>
     <use xlink:href="#DejaVuSans-61" x="237.533203"/>
     <use xlink:href="#DejaVuSans-73" x="298.8125"/>
     <use xlink:href="#DejaVuSans-73" x="350.912109"/>
    </g>
   </g>
   <g id="text_5">
    <!-- +deformation, roll contact -->
    <g transform="translate(185.701953 290.838047) scale(0.125 -0.125)">
     <defs>
      <path id="DejaVuSans-66" d="M 2375 4863 
L 2375 4384 
L 1825 4384 
Q 1516 4384 1395 4259 
Q 1275 4134 1275 3809 
L 1275 3500 
L 2222 3500 
L 2222 3053 
L 1275 3053 
L 1275 0 
L 697 0 
L 697 3053 
L 147 3053 
L 147 3500 
L 697 3500 
L 697 3744 
Q 697 4328 969 4595 
Q 1241 4863 1831 4863 
L 2375 4863 
z
" transform="scale(0.015625)"/>
      <path id="DejaVuSans-72" d="M 2631 2963 
Q 2534 3019 2420 3045 
Q 2306 3072 2169 3072 
Q 1681 3072 1420 2755 
Q 1159 2438 1159 1844 
L 1159 0 
L 581 0 
L 581 3500 
L 1159 3500 
L 1159 2956 
Q 1341 3275 1631 3429 
Q 1922 3584 2338 3584 
Q 2397 3584 2469 3576 
Q 2541 3569 2628 3553 
L 2631 2963 
z
" transform="scale(0.015625)"/>
      <path id="DejaVuSans-2c" d="M 750 794 
L 1409 794 
L 1409 256 
L 897 -744 
L 494 -744 
L 750 256 
L 750 794 
z
" transform="scale(0.015625)"/>
      <path id="DejaVuSans-63" d="M 3122 3366 
L 3122 2828 
Q 2878 2963 2633 3030 
Q 2388 3097 2138 3097 
Q 1578 3097 1268 2742 
Q 959 2388 959 1747 
Q 959 1106 1268 751 
Q 1578 397 2138 397 
Q 2388 397 2633 464 
Q 2878 531 3122 666 
L 3122 134 
Q 2881 22 2623 -34 
Q 2366 -91 2075 -91 
Q 1284 -91 818 406 
Q 353 903 353 1747 
Q 353 2603 823 3093 
Q 1294 3584 2113 3584 
Q 2378 3584 2631 3529 
Q 2884 3475 3122 3366 
z
" transform="scale(0.015625)"/>
     </defs>
     <use xlink:href="#DejaVuSans-2b"/>
     <use xlink:href="#DejaVuSans-64" x="83.789062"/>
     <use xlink:href="#DejaVuSans-65" x="147.265625"/>
     <use xlink:href="#DejaVuSans-66" x="208.789062"/>
     <use xlink:href="#DejaVuSans-6f" x="243.994141"/>
     <use xlink:href="#DejaVuSans-72" x="305.175781"/>
     <use xlink:href="#DejaVuSans-6d" x="344.539062"/>
     <use xlink:href="#DejaVuSans-61" x="441.951172"/>
     <use xlink:href="#DejaVuSans-74" x="503.230469"/>
     <use xlink:href="#DejaVuSans-69" x="542.439453"/>
     <use xlink:href="#DejaVuSans-6f" x="570.222656"/>
     <use xlink:href="#DejaVuSans-6e" x="631.404297"/>
     <use xlink:href="#DejaVuSans-2c" x="694.783203"/>
     <use xlink:href="#DejaVuSans-20" x="726.570312"/>
     <use xlink:href="#DejaVuSans-72" x="758.357422"/>
     <use xlink:href="#DejaVuSans-6f" x="797.220703"/>
     <use xlink:href="#DejaVuSans-6c" x="858.402344"/>
     <use xlink:href="#DejaVuSans-6c" x="886.185547"/>
     <use xlink:href="#DejaVuSans-20" x="913.96875"/>
     <use xlink:href="#DejaVuSans-63" x="945.755859"/>
     <use xlink:href="#DejaVuSans-6f" x="1000.736328"/>
     <use xlink:href="#DejaVuSans-6e" x="1061.917969"/>
     <use xlink:href="#DejaVuSans-74" x="1125.296875"/>
     <use xlink:href="#DejaVuSans-61" x="1164.505859"/>
     <use xlink:href="#DejaVuSans-63" x="1225.785156"/>
     <use xlink:href="#DejaVuSans-74" x="1280.765625"/>
    </g>
   </g>
   <g id="text_6">
    <!-- +third roll -->
    <g transform="translate(113.4 371.189219) scale(0.125 -0.125)">
     <defs>
      <path id="DejaVuSans-68" d="M 3513 2113 
L 3513 0 
L 2938 0 
L 2938 2094 
Q 2938 2591 2744 2837 
Q 2550 3084 2163 3084 
Q 1697 3084 1428 2787 
Q 1159 2491 1159 1978 
L 1159 0 
L 581 0 
L 581 4863 
L 1159 4863 
L 1159 2956 
Q 1366 3272 1645 3428 
Q 1925 3584 2291 3584 
Q 2894 3584 3203 3211 
Q 3513 2838 3513 2113 
z
" transform="scale(0.015625)"/>
     </defs>
     <use xlink:href="#DejaVuSans-2b"/>
     <use xlink:href="#DejaVuSans-74" x="83.789062"/>
     <use xlink:href="#DejaVuSans-68" x="122.998047"/>
     <use xlink:href="#DejaVuSans-69" x="186.376953"/>
     <use xlink:href="#DejaVuSans-72" x="214.160156"/>
     <use xlink:href="#DejaVuSans-64" x="253.523438"/>
     <use xlink:href="#DejaVuSans-20" x="317"/>
     <use xlink:href="#DejaVuSans-72" x="348.787109"/>
     <use xlink:href="#DejaVuSans-6f" x="387.650391"/>
     <use xlink:href="#DejaVuSans-6c" x="448.832031"/>
     <use xlink:href="#DejaVuSans-6c" x="476.615234"/>
    </g>
   </g>
   <g id="text_7">
    <!-- ThreeRollPass -->
    <g transform="translate(66.714062 461.189219) scale(0.125 -0.125)">
     <defs>
      <path id="DejaVuSans-54" d="M -19 4666 
L 3928 4666 
L 3928 4134 
L 2272 4134 
L 2272 0 
L 1638 0 
L 1638 4134 
L -19 4134 
L -19 4666 
z
" transform="scale(0.015625)"/>
     </defs>
     <use xlink:href="#DejaVuSans-54"/>
     <use xlink:href="#DejaVuSans-68" x="61.083984"/>
     <use xlink:href="#DejaVuSans-72" x="124.462891"/>
     <use xlink:href="#DejaVuSans-65" x="163.326172"/>
     <use xlink:href="#DejaVuSans-65" x="224.849609"/>
     <use xlink:href="#DejaVuSans-52" x="286.373047"/>
     <use xlink:href="#DejaVuSans-6f" x="351.355469"/>
     <use xlink:href="#DejaVuSans-6c" x="412.537109"/>
     <use xlink:href="#DejaVuSans-6c" x="440.320312"/>
     <use xlink:href="#DejaVuSans-50" x="468.103516"/>
     <use xlink:href="#DejaVuSans-61" x="523.90625"/>
     <use xlink:href="#DejaVuSans-73" x="585.185547"/>
     <use xlink:href="#DejaVuSans-73" x="637.285156"/>
    </g>
   </g>
   <g id="text_8">
    <!-- Transport -->
    <g transform="translate(620.476758 281.189219) scale(0.125 -0.125)">
     <defs>
      <path id="DejaVuSans-70" d="M 1159 525 
L 1159 -1331 
L 581 -1331 
L 581 3500 
L 1159 3500 
L 1159 2969 
Q 1341 3281 1617 3432 
Q 1894 3584 2278 3584 
Q 2916 3584 3314 3078 
Q 3713 2572 3713 1747 
Q 3713 922 3314 415 
Q 2916 -91 2278 -91 
Q 1894 -91 1617 61 
Q 1341 213 1159 525 
z
M 3116 1747 
Q 3116 2381 2855 2742 
Q 2594 3103 2138 3103 
Q 1681 3103 1420 2742 
Q 1159 2381 1159 1747 
Q 1159 1113 1420 752 
Q 1681 391 2138 391 
Q 2594 391 2855 752 
Q 3116 1113 3116 1747 
z
" transform="scale(0.015625)"/>
     </defs>
     <use xlink:href="#DejaVuSans-54"/>
     <use xlink:href="#DejaVuSans-72" x="46.333984"/>
     <use xlink:href="#DejaVuSans-61" x="87.447266"/>
     <use xlink:href="#DejaVuSans-6e" x="148.726562"/>
     <use xlink:href="#DejaVuSans-73" x="212.105469"/>
     <use xlink:href="#DejaVuSans-70" x="264.205078"/>
     <use xlink:href="#DejaVuSans-6f" x="327.681641"/>
     <use xlink:href="#DejaVuSans-72" x="388.863281"/>
     <use xlink:href="#DejaVuSans-74" x="429.976562"/>
    </g>
   </g>
   <g id="text_9">
    <!-- +atmosphere contact -->
    <g transform="translate(423.290625 290.838047) scale(0.125 -0.125)">
     <use xlink:href="#DejaVuSans-2b"/>
     <use xlink:href="#DejaVuSans-61" x="83.789062"/>
     <use xlink:href="#DejaVuSans-74" x="145.068359"/>
     <use xlink:href="#DejaVuSans-6d" x="184.277344"/>
     <use xlink:href="#DejaVuSans-6f" x="281.689453"/>
     <use xlink:href="#DejaVuSans-73" x="342.871094"/>
     <use xlink:href="#DejaVuSans-70" x="394.970703"/>
     <use xlink:href="#DejaVuSans-68" x="458.447266"/>
     <use xlink:href="#DejaVuSans-65" x="521.826172"/>
     <use xlink:href="#DejaVuSans-72" x="583.349609"/>
     <use xlink:href="#DejaVuSans-65" x="622.212891"/>
     <use xlink:href="#DejaVuSans-20" x="683.736328"/>
     <use xlink:href="#DejaVuSans-63" x="715.523438"/>
     <use xlink:href="#DejaVuSans-6f" x="770.503906"/>
     <use xlink:href="#DejaVuSans-6e" x="831.685547"/>
     <use xlink:href="#DejaVuSans-74" x="895.064453"/>
     <use xlink:href="#DejaVuSans-61" x="934.273438"/>
     <use xlink:href="#DejaVuSans-63" x="995.552734"/>
     <use xlink:href="#DejaVuSans-74" x="1050.533203"/>
    </g>
   </g>
   <g id="text_10">
    <!-- +wall -->
    <g transform="translate(551.148633 413.238047) scale(0.125 -0.125)">
     <defs>
      <path id="DejaVuSans-77" d="M 269 3500 
L 844 3500 
L 1563 769 
L 2278 3500 
L 2956 3500 
L 3675 769 
L 4391 3500 
L 4966 3500 
L 4050 0 
L 3372 0 
L 2619 2869 
L 1863 0 
L 1184 0 
L 269 3500 
z
" transform="scale(0.015625)"/>
     </defs>
     <use xlink:href="#DejaVuSans-2b"/>
     <use xlink:href="#DejaVuSans-77" x="83.789062"/>
     <use xlink:href="#DejaVuSans-61" x="165.576172"/>
     <use xlink:href="#DejaVuSans-6c" x="226.855469"/>
     <use xlink:href="#DejaVuSans-6c" x="254.638672"/>
    </g>
   </g>
   <g id="text_11">
    <!-- Furnace -->
    <g transform="translate(409.054883 403.589219) scale(0.125 -0.125)">
     <defs>
      <path id="DejaVuSans-46" d="M 628 4666 
L 3309 4666 
L 3309 4134 
L 1259 4134 
L 1259 2759 
L 3109 2759 
L 3109 2228 
L 1259 2228 
L 1259 0 
L 628 0 
L 628 4666 
z
" transform="scale(0.015625)"/>
      <path id="DejaVuSans-75" d="M 544 1381 
L 544 3500 
L 1119 3500 
L 1119 1403 
Q 1119 906 1312 657 
Q 1506 409 1894 409 
Q 2359 409 2629 706 
Q 2900 1003 2900 1516 
L 2900 3500 
L 3475 3500 
L 3475 0 
L 2900 0 
L 2900 538 
Q 2691 219 2414 64 
Q 2138 -91 1772 -91 
Q 1169 -91 856 284 
Q 544 659 544 1381 
z
M 1991 3584 
L 1991 3584 
z
" transform="scale(0.015625)"/>
     </defs>
     <use xlink:href="#DejaVuSans-46"/>
     <use xlink:href="#DejaVuSans-75" x="52.019531"/>
     <use xlink:href="#DejaVuSans-72" x="115.398438"/>
     <use xlink:href="#DejaVuSans-6e" x="154.761719"/>
     <use xlink:href="#DejaVuSans-61" x="218.140625"/>
     <use xlink:href="#DejaVuSans-63" x="279.419922"/>
     <use xlink:href="#DejaVuSans-65" x="334.400391"/>
    </g>
   </g>
   <g id="text_12">
    <!-- +cooling water, -->
    <g transform="translate(519.29707 499.638047) scale(0.125 -0.125)">
     <defs>
      <path id="DejaVuSans-67" d="M 2906 1791 
Q 2906 2416 2648 2759 
Q 2391 3103 1925 3103 
Q 1463 3103 1205 2759 
Q 947 2416 947 1791 
Q 947 1169 1205 825 
Q 1463 481 1925 481 
Q 2391 481 2648 825 
Q 2906 1169 2906 1791 
z
M 3481 434 
Q 3481 -459 3084 -895 
Q 2688 -1331 1869 -1331 
Q 1566 -1331 1297 -1286 
Q 1028 -1241 775 -1147 
L 775 -588 
Q 1028 -725 1275 -790 
Q 1522 -856 1778 -856 
Q 2344 -856 2625 -561 
Q 2906 -266 2906 331 
L 2906 616 
Q 2728 306 2450 153 
Q 2172 0 1784 0 
Q 1141 0 747 490 
Q 353 981 353 1791 
Q 353 2603 747 3093 
Q 1141 3584 1784 3584 
Q 2172 3584 2450 3431 
Q 2728 3278 2906 2969 
L 2906 3500 
L 3481 3500 
L 3481 434 
z
" transform="scale(0.015625)"/>
     </defs>
     <use xlink:href="#DejaVuSans-2b"/>
     <use xlink:href="#DejaVuSans-63" x="83.789062"/>
     <use xlink:href="#DejaVuSans-6f" x="138.769531"/>
     <use xlink:href="#DejaVuSans-6f" x="199.951172"/>
     <use xlink:href="#DejaVuSans-6c" x="261.132812"/>
     <use xlink:href="#DejaVuSans-69" x="288.916016"/>
     <use xlink:href="#DejaVuSans-6e" x="316.699219"/>
     <use xlink:href="#DejaVuSans-67" x="380.078125"/>
     <use xlink:href="#DejaVuSans-20" x="443.554688"/>
     <use xlink:href="#DejaVuSans-77" x="475.341797"/>
     <use xlink:href="#DejaVuSans-61" x="557.128906"/>
     <use xlink:href="#DejaVuSans-74" x="618.408203"/>
     <use xlink:href="#DejaVuSans-65" x="657.617188"/>
     <use xlink:href="#DejaVuSans-72" x="719.140625"/>
     <use xlink:href="#DejaVuSans-2c" x="760.253906"/>
    </g>
    <!-- air stream -->
    <g transform="translate(536.779492 513.635313) scale(0.125 -0.125)">
     <use xlink:href="#DejaVuSans-61"/>
     <use xlink:href="#DejaVuSans-69" x="61.279297"/>
     <use xlink:href="#DejaVuSans-72" x="89.0625"/>
     <use xlink:href="#DejaVuSans-20" x="130.175781"/>
     <use xlink:href="#DejaVuSans-73" x="161.962891"/>
     <use xlink:href="#DejaVuSans-74" x="214.0625"/>
     <use xlink:href="#DejaVuSans-72" x="253.271484"/>
     <use xlink:href="#DejaVuSans-65" x="292.134766"/>
     <use xlink:href="#DejaVuSans-61" x="353.658203"/>
     <use xlink:href="#DejaVuSans-6d" x="414.9375"/>
    </g>
   </g>
   <g id="text_13">
    <!-- CoolingRange -->
    <g transform="translate(372.579297 489.989219) scale(0.125 -0.125)">
     <defs>
      <path id="DejaVuSans-43" d="M 4122 4306 
L 4122 3641 
Q 3803 3938 3442 4084 
Q 3081 4231 2675 4231 
Q 1875 4231 1450 3742 
Q 1025 3253 1025 2328 
Q 1025 1406 1450 917 
Q 1875 428 2675 428 
Q 3081 428 3442 575 
Q 3803 722 4122 1019 
L 4122 359 
Q 3791 134 3420 21 
Q 3050 -91 2638 -91 
Q 1578 -91 968 557 
Q 359 1206 359 2328 
Q 359 3453 968 4101 
Q 1578 4750 2638 4750 
Q 3056 4750 3426 4639 
Q 3797 4528 4122 4306 
z
" transform="scale(0.015625)"/>
     </defs>
     <use xlink:href="#DejaVuSans-43"/>
     <use xlink:href="#DejaVuSans-6f" x="69.824219"/>
     <use xlink:href="#DejaVuSans-6f" x="131.005859"/>
     <use xlink:href="#DejaVuSans-6c" x="192.1875"/>
     <use xlink:href="#DejaVuSans-69" x="219.970703"/>
     <use xlink:href="#DejaVuSans-6e" x="247.753906"/>
     <use xlink:href="#DejaVuSans-67" x="311.132812"/>
     <use xlink:href="#DejaVuSans-52" x="374.609375"/>
     <use xlink:href="#DejaVuSans-61" x="441.841797"/>
     <use xlink:href="#DejaVuSans-6e" x="503.121094"/>
     <use xlink:href="#DejaVuSans-67" x="566.5"/>
     <use xlink:href="#DejaVuSans-65" x="629.976562"/>
    </g>
   </g>
   <g id="text_14">
    <!-- +induction -->
    <g transform="translate(534.528516 586.038047) scale(0.125 -0.125)">
     <use xlink:href="#DejaVuSans-2b"/>
     <use xlink:href="#DejaVuSans-69" x="83.789062"/>
     <use xlink:href="#DejaVuSans-6e" x="111.572266"/>
     <use xlink:href="#DejaVuSans-64" x="174.951172"/>
     <use xlink:href="#DejaVuSans-75" x="238.427734"/>
     <use xlink:href="#DejaVuSans-63" x="301.806641"/>
     <use xlink:href="#DejaVuSans-74" x="356.787109"/>
     <use xlink:href="#DejaVuSans-69" x="395.996094"/>
     <use xlink:href="#DejaVuSans-6f" x="423.779297"/>
     <use xlink:href="#DejaVuSans-6e" x="484.960938"/>
    </g>
   </g>
   <g id="text_15">
    <!-- InductionHeater -->
    <g transform="translate(347.417187 576.389219) scale(0.125 -0.125)">
     <defs>
      <path id="DejaVuSans-49" d="M 628 4666 
L 1259 4666 
L 1259 0 
L 628 0 
L 628 4666 
z
" transform="scale(0.015625)"/>
      <path id="DejaVuSans-48" d="M 628 4666 
L 1259 4666 
L 1259 2753 
L 3553 2753 
L 3553 4666 
L 4184 4666 
L 4184 0 
L 3553 0 
L 3553 2222 
L 1259 2222 
L 1259 0 
L 628 0 
L 628 4666 
z
" transform="scale(0.015625)"/>
     </defs>
     <use xlink:href="#DejaVuSans-49"/>
     <use xlink:href="#DejaVuSans-6e" x="29.492188"/>
     <use xlink:href="#DejaVuSans-64" x="92.871094"/>
     <use xlink:href="#DejaVuSans-75" x="156.347656"/>
     <use xlink:href="#DejaVuSans-63" x="219.726562"/>
     <use xlink:href="#DejaVuSans-74" x="274.707031"/>
     <use xlink:href="#DejaVuSans-69" x="313.916016"/>
     <use xlink:href="#DejaVuSans-6f" x="341.699219"/>
     <use xlink:href="#DejaVuSans-6e" x="402.880859"/>
     <use xlink:href="#DejaVuSans-48" x="466.259766"/>
     <use xlink:href="#DejaVuSans-65" x="541.455078"/>
     <use xlink:href="#DejaVuSans-61" x="602.978516"/>
     <use xlink:href="#DejaVuSans-74" x="664.257812"/>
     <use xlink:href="#DejaVuSans-65" x="703.466797"/>
     <use xlink:href="#DejaVuSans-72" x="764.990234"/>
    </g>
   </g>
   <g id="text_16">
    <!-- +pressure water -->
    <g transform="translate(516.780469 672.438047) scale(0.125 -0.125)">
     <use xlink:href="#DejaVuSans-2b"/>
     <use xlink:href="#DejaVuSans-70" x="83.789062"/>
     <use xlink:href="#DejaVuSans-72" x="147.265625"/>
     <use xlink:href="#DejaVuSans-65" x="186.128906"/>
     <use xlink:href="#DejaVuSans-73" x="247.652344"/>
     <use xlink:href="#DejaVuSans-73" x="299.751953"/>
     <use xlink:href="#DejaVuSans-75" x="351.851562"/>
     <use xlink:href="#DejaVuSans-72" x="415.230469"/>
     <use xlink:href="#DejaVuSans-65" x="454.09375"/>
     <use xlink:href="#DejaVuSans-20" x="515.617188"/>
     <use xlink:href="#DejaVuSans-77" x="547.404297"/>
     <use xlink:href="#DejaVuSans-61" x="629.191406"/>
     <use xlink:href="#DejaVuSans-74" x="690.470703"/>
     <use xlink:href="#DejaVuSans-65" x="729.679688"/>
     <use xlink:href="#DejaVuSans-72" x="791.203125"/>
    </g>
   </g>
   <g id="text_17">
    <!-- Descaler -->
    <g transform="translate(406.467969 662.789219) scale(0.125 -0.125)">
     <use xlink:href="#DejaVuSans-44"/>
     <use xlink:href="#DejaVuSans-65" x="77.001953"/>
     <use xlink:href="#DejaVuSans-73" x="138.525391"/>
     <use xlink:href="#DejaVuSans-63" x="190.625"/>
     <use xlink:href="#DejaVuSans-61" x="245.605469"/>
     <use xlink:href="#DejaVuSans-6c" x="306.884766"/>
     <use xlink:href="#DejaVuSans-65" x="334.667969"/>
     <use xlink:href="#DejaVuSans-72" x="396.191406"/>
    </g>
   </g>
   <g id="text_18">
    <!-- Rotator -->
    <g transform="translate(86.790234 75.989219) scale(0.125 -0.125)">
     <use xlink:href="#DejaVuSans-52"/>
     <use xlink:href="#DejaVuSans-6f" x="64.982422"/>
     <use xlink:href="#DejaVuSans-74" x="126.164062"/>
     <use xlink:href="#DejaVuSans-61" x="165.373047"/>
     <use xlink:href="#DejaVuSans-74" x="226.652344"/>
     <use xlink:href="#DejaVuSans-6f" x="265.861328"/>
     <use xlink:href="#DejaVuSans-72" x="327.042969"/>
    </g>
   </g>
   <g id="text_19">
    <!-- +rotation -->
    <g transform="translate(215.057812 66.340391) scale(0.125 -0.125)">
     <use xlink:href="#DejaVuSans-2b"/>
     <use xlink:href="#DejaVuSans-72" x="83.789062"/>
     <use xlink:href="#DejaVuSans-6f" x="122.652344"/>
     <use xlink:href="#DejaVuSans-74" x="183.833984"/>
     <use xlink:href="#DejaVuSans-61" x="223.042969"/>
     <use xlink:href="#DejaVuSans-74" x="284.322266"/>
     <use xlink:href="#DejaVuSans-69" x="323.53125"/>
     <use xlink:href="#DejaVuSans-6f" x="351.314453"/>
     <use xlink:href="#DejaVuSans-6e" x="412.496094"/>
    </g>
   </g>
   <g id="text_20">
    <!-- uses -->
    <g transform="translate(72.163281 178.589219) scale(0.125 -0.125)">
     <use xlink:href="#DejaVuSans-75"/>
     <use xlink:href="#DejaVuSans-73" x="63.378906"/>
     <use xlink:href="#DejaVuSans-65" x="115.478516"/>
     <use xlink:href="#DejaVuSans-73" x="177.001953"/>
    </g>
   </g>
   <g id="text_21">
    <!-- DiskElement -->
    <g transform="translate(610.500195 75.989219) scale(0.125 -0.125)">
     <use xlink:href="#DejaVuSans-44"/>
     <use xlink:href="#DejaVuSans-69" x="77.001953"/>
     <use xlink:href="#DejaVuSans-73" x="104.785156"/>
     <use xlink:href="#DejaVuSans-6b" x="156.884766"/>
     <use xlink:href="#DejaVuSans-45" x="214.794922"/>
     <use xlink:href="#DejaVuSans-6c" x="277.978516"/>
     <use xlink:href="#DejaVuSans-65" x="305.761719"/>
     <use xlink:href="#DejaVuSans-6d" x="367.285156"/>
     <use xlink:href="#DejaVuSans-65" x="464.697266"/>
     <use xlink:href="#DejaVuSans-6e" x="526.220703"/>
     <use xlink:href="#DejaVuSans-74" x="589.599609"/>
    </g>
   </g>
   <g id="text_22">
    <!-- uses -->
    <g transform="translate(653.4 151.589219) scale(0.125 -0.125)">
     <use xlink:href="#DejaVuSans-75"/>
     <use xlink:href="#DejaVuSans-73" x="63.378906"/>
     <use xlink:href="#DejaVuSans-65" x="115.478516"/>
     <use xlink:href="#DejaVuSans-73" x="177.001953"/>
    </g>
   </g>
  </g>
 </g>
 <defs>
  <clipPath id="pf3d8457439">
   <rect x="3.6" y="3.6" width="752.4" height="724.68"/>
  </clipPath>
 </defs>
</svg>
