<?xml version="1.0" encoding="UTF-8" standalone="no"?>
<!-- Created with Inkscape (http://www.inkscape.org/) -->

<svg
   version="1.1"
   id="svg2"
   width="226.66667"
   height="208"
   viewBox="0 0 226.66667 208"
   sodipodi:docname="upset_oval.pdf"
   xmlns:inkscape="http://www.inkscape.org/namespaces/inkscape"
   xmlns:sodipodi="http://sodipodi.sourceforge.net/DTD/sodipodi-0.dtd"
   xmlns="http://www.w3.org/2000/svg"
   xmlns:svg="http://www.w3.org/2000/svg">
  <defs
     id="defs6" />
  <sodipodi:namedview
     id="namedview4"
     pagecolor="#ffffff"
     bordercolor="#000000"
     borderopacity="0.25"
     inkscape:showpageshadow="2"
     inkscape:pageopacity="0.0"
     inkscape:pagecheckerboard="0"
     inkscape:deskcolor="#d1d1d1" />
  <g
     id="g8"
     inkscape:groupmode="layer"
     inkscape:label="upset_oval"
     transform="matrix(1.3333333,0,0,-1.3333333,0,208)">
    <g
       id="g10"
       transform="matrix(0.06,0,0,-0.06,0,156)">
      <g
         id="g12">
        <g
           id="g14" />
      </g>
      <g
         id="g16">
        <g
           id="g18" />
        <g
           id="g20"
           transform="matrix(47.216667,0,0,-47.272727,0,2600)">
          <path
             d="m 5.625,28.212527 h 1.05 m 0.3835,0 h 0.013 m 0.3835,0 h 1.56 m 0.3835,0 h 0.013 m 0.3835,0 h 1.56 m 0.3835,0 h 0.013 m 0.3835,0 h 1.56 m 0.3835,0 h 0.013 m 0.3835,0 h 1.56 m 0.3835,0 h 0.013 m 0.3835,0 h 1.56 m 0.3835,0 h 0.013 m 0.3835,0 h 1.56 m 0.3835,0 h 0.013 m 0.3835,0 h 1.56 m 0.3835,0 h 0.013 m 0.3835,0 h 1.56 m 0.3835,0 h 0.013 m 0.3835,0 h 1.56 m 0.3835,0 h 0.013 m 0.3835,0 h 1.56 m 0.3835,0 h 0.013 m 0.3835,0 h 1.56 m 0.3835,0 h 0.013 m 0.3835,0 h 1.56 m 0.3835,0 h 0.013 m 0.3835,0 h 1.56 m 0.3835,0 h 0.013 m 0.3835,0 h 1.56 m 0.3835,0 h 0.013 m 0.3835,0 h 1.56 m 0.3835,0 h 0.013 m 0.3835,0 h 1.56 m 0.3835,0 h 0.013 m 0.3835,0 h 1.56 m 0.3835,0 h 0.013 m 0.3835,0 h 1.56 m 0.3835,0 h 0.013 m 0.3835,0 h 1.05"
             style="fill:none;stroke:#000000;stroke-width:0.13;stroke-linecap:round;stroke-linejoin:round;stroke-miterlimit:10;stroke-dasharray:none;stroke-opacity:1"
             id="path22" />
          <path
             d="m 28.125,7.7125273 v 1.39 m 0,0.3835 v 0.013 m 0,0.3835 v 1.5599997 m 0,0.3835 v 0.013 m 0,0.3835 v 1.56 m 0,0.3835 v 0.013 m 0,0.3835 v 1.56 m 0,0.3835 v 0.013 m 0,0.3835 v 1.56 m 0,0.3835 v 0.013 m 0,0.3835 v 1.56 m 0,0.3835 v 0.013 m 0,0.3835 v 1.56 m 0,0.3835 v 0.013 m 0,0.3835 v 1.56 m 0,0.3835 v 0.013 m 0,0.3835 v 1.56 m 0,0.3835 v 0.013 m 0,0.3835 v 1.56 m 0,0.3835 v 0.013 m 0,0.3835 v 1.56 m 0,0.3835 v 0.013 m 0,0.3835 v 1.56 m 0,0.3835 v 0.013 m 0,0.3835 v 1.56 m 0,0.3835 v 0.013 m 0,0.3835 v 1.56 m 0,0.3835 v 0.013 m 0,0.3835 v 1.56 m 0,0.3835 v 0.013 m 0,0.3835 v 1.56 m 0,0.3835 v 0.013 m 0,0.3835 v 1.56 m 0,0.3835 v 0.013 m 0,0.3835 v 1.39"
             style="fill:none;stroke:#000000;stroke-width:0.13;stroke-linecap:round;stroke-linejoin:round;stroke-miterlimit:10;stroke-dasharray:none;stroke-opacity:1"
             id="path24" />
          <path
             d="m 25.677312,44.723885 -0.08053,-0.114061 -0.08013,-0.114342 -0.07973,-0.114621 -0.07933,-0.114898 -0.07893,-0.115175 -0.07853,-0.115449 -0.07813,-0.115723 -0.07772,-0.115994 -0.07732,-0.116266 -0.07691,-0.116534 -0.0765,-0.116803 -0.07609,-0.117068 -0.07569,-0.117334 -0.07527,-0.117597 -0.07487,-0.117859 -0.07445,-0.11812 -0.07404,-0.118379 -0.07363,-0.118636 -0.07321,-0.118893 -0.0728,-0.119148 -0.07238,-0.119401 -0.07196,-0.119653 -0.07154,-0.119903 -0.07113,-0.120153 -0.07071,-0.1204 -0.07029,-0.120646 -0.06986,-0.120891 -0.06944,-0.121134 -0.06902,-0.121375 -0.06859,-0.121616 -0.06817,-0.121854 -0.06774,-0.122092 -0.06732,-0.122327 -0.06689,-0.122562 -0.06646,-0.122794 -0.06603,-0.123026 -0.0656,-0.123255 -0.06517,-0.123483 -0.06474,-0.123711 -0.06431,-0.123935 -0.06387,-0.124159 -0.06344,-0.124382 -0.06301,-0.124602 -0.06257,-0.124821 -0.06213,-0.125039 -0.0617,-0.125255 -0.06126,-0.12547 -0.06082,-0.125683 -0.06038,-0.125894 -0.05994,-0.126104 -0.0595,-0.126313 -0.05906,-0.12652 -0.05862,-0.126725 -0.05818,-0.126929 -0.05773,-0.127131 -0.05729,-0.127332 -0.05684,-0.127531 -0.0564,-0.127729 -0.05595,-0.127925 -0.05551,-0.128119 -0.05506,-0.128313 -0.05461,-0.128504 -0.05416,-0.128693 -0.05371,-0.128882 -0.05326,-0.129069 -0.05281,-0.129254 -0.05236,-0.129437 -0.05191,-0.12962 -0.05145,-0.129799 -0.051,-0.129979 -0.05055,-0.130156 -0.05009,-0.130331 -0.04964,-0.130506 -0.04918,-0.130678 -0.04872,-0.130848 -0.04827,-0.131018 -0.04781,-0.131186 -0.04735,-0.131352 -0.04689,-0.131517 -0.04643,-0.131679 -0.04597,-0.13184 -0.04551,-0.132001 -0.04505,-0.132158 -0.04459,-0.132315 -0.04413,-0.132469 -0.04367,-0.132623 -0.0432,-0.132775 -0.04274,-0.132924 -0.04227,-0.133073 -0.04181,-0.133219 -0.04134,-0.133365 -0.04088,-0.133508 -0.04041,-0.13365 -0.03995,-0.13379 -0.03948,-0.13393 -0.03901,-0.134065 -0.03854,-0.134202 -0.03807,-0.134335 -0.0096,-0.03398"
             style="fill:none;stroke:#000000;stroke-width:0.25;stroke-linecap:round;stroke-linejoin:round;stroke-miterlimit:10;stroke-dasharray:none;stroke-opacity:1"
             id="path26" />
          <path
             d="m 30.572688,44.723885 0.08053,-0.114061 0.08013,-0.114342 0.07973,-0.114621 0.07933,-0.114898 0.07893,-0.115175 0.07853,-0.115449 0.07813,-0.115723 0.07772,-0.115994 0.07732,-0.116266 0.07691,-0.116534 0.0765,-0.116803 0.07609,-0.117068 0.07569,-0.117334 0.07528,-0.117597 0.07487,-0.117859 0.07445,-0.11812 0.07404,-0.118379 0.07363,-0.118636 0.07321,-0.118893 0.0728,-0.119148 0.07238,-0.119401 0.07196,-0.119653 0.07154,-0.119903 0.07113,-0.120153 0.07071,-0.1204 0.07028,-0.120646 0.06986,-0.120891 0.06944,-0.121134 0.06902,-0.121375 0.06859,-0.121616 0.06817,-0.121854 0.06774,-0.122092 0.06732,-0.122327 0.06689,-0.122562 0.06646,-0.122794 0.06603,-0.123026 0.0656,-0.123255 0.06517,-0.123483 0.06474,-0.123711 0.06431,-0.123935 0.06387,-0.124159 0.06344,-0.124382 0.06301,-0.124602 0.06257,-0.124821 0.06213,-0.125039 0.0617,-0.125255 0.06126,-0.12547 0.06082,-0.125683 0.06038,-0.125894 0.05994,-0.126104 0.0595,-0.126313 0.05906,-0.12652 0.05862,-0.126725 0.05818,-0.126929 0.05773,-0.127131 0.05729,-0.127332 0.05684,-0.127531 0.0564,-0.127729 0.05595,-0.127925 0.05551,-0.128119 0.05506,-0.128313 0.05461,-0.128504 0.05416,-0.128693 0.05371,-0.128882 0.05326,-0.129069 0.05281,-0.129254 0.05236,-0.129437 0.05191,-0.12962 0.05145,-0.129799 0.051,-0.129979 0.05055,-0.130156 0.05009,-0.130331 0.04964,-0.130506 0.04918,-0.130678 0.04873,-0.130848 0.04827,-0.131018 0.04781,-0.131186 0.04735,-0.131352 0.04689,-0.131517 0.04643,-0.131679 0.04597,-0.13184 0.04551,-0.132001 0.04505,-0.132158 0.04459,-0.132315 0.04413,-0.132469 0.04367,-0.132623 0.0432,-0.132775 0.04274,-0.132924 0.04227,-0.133073 0.04181,-0.133219 0.04134,-0.133365 0.04088,-0.133508 0.04041,-0.13365 0.03994,-0.13379 0.03948,-0.13393 0.03901,-0.134065 0.03854,-0.134202 0.03807,-0.134335 0.0096,-0.03398"
             style="fill:none;stroke:#000000;stroke-width:0.25;stroke-linecap:round;stroke-linejoin:round;stroke-miterlimit:10;stroke-dasharray:none;stroke-opacity:1"
             id="path28" />
          <path
             d="m 30.572688,11.701169 0.08053,0.114062 0.08013,0.114341 0.07973,0.114621 0.07933,0.114898 0.07893,0.115175 0.07853,0.115449 0.07813,0.115723 0.07772,0.115995 0.07732,0.116265 0.07691,0.116535 0.0765,0.116802 0.07609,0.117069 0.07569,0.117333 0.07528,0.117598 0.07487,0.117859 0.07445,0.118119 0.07404,0.118379 0.07363,0.118637 0.07321,0.118893 0.0728,0.119147 0.07238,0.119401 0.07196,0.119653 0.07154,0.119904 0.07113,0.120152 0.07071,0.1204 0.07028,0.120646 0.06986,0.120891 0.06944,0.121134 0.06902,0.121376 0.06859,0.121615 0.06817,0.121855 0.06774,0.122091 0.06732,0.122328 0.06689,0.122561 0.06646,0.122794 0.06603,0.123026 0.0656,0.123255 0.06517,0.123484 0.06474,0.12371 0.06431,0.123935 0.06387,0.12416 0.06344,0.124381 0.06301,0.124602 0.06257,0.124821 0.06213,0.125039 0.0617,0.125255 0.06126,0.12547 0.06082,0.125683 0.06038,0.125894 0.05994,0.126105 0.0595,0.126312 0.05906,0.12652 0.05862,0.126725 0.05818,0.126929 0.05773,0.127131 0.05729,0.127332 0.05684,0.127532 0.0564,0.127728 0.05595,0.127925 0.05551,0.12812 0.05506,0.128312 0.05461,0.128504 0.05416,0.128694 0.05371,0.128882 0.05326,0.129068 0.05281,0.129254 0.05236,0.129438 0.05191,0.129619 0.05145,0.1298 0.051,0.129978 0.05055,0.130156 0.05009,0.130331 0.04964,0.130506 0.04918,0.130678 0.04873,0.130849 0.04827,0.131018 0.04781,0.131186 0.04735,0.131352 0.04689,0.131516 0.04643,0.131679 0.04597,0.131841 0.04551,0.132 0.04505,0.132158 0.04459,0.132315 0.04413,0.13247 0.04367,0.132622 0.0432,0.132775 0.04274,0.132924 0.04227,0.133073 0.04181,0.13322 0.04134,0.133364 0.04088,0.133509 0.04041,0.13365 0.03994,0.13379 0.03948,0.133929 0.03901,0.134066 0.03854,0.134201 0.03807,0.134335 0.0096,0.03398"
             style="fill:none;stroke:#000000;stroke-width:0.25;stroke-linecap:round;stroke-linejoin:round;stroke-miterlimit:10;stroke-dasharray:none;stroke-opacity:1"
             id="path30" />
          <path
             d="m 25.677312,11.701169 -0.08053,0.114062 -0.08013,0.114341 -0.07973,0.114621 -0.07933,0.114898 -0.07893,0.115175 -0.07853,0.115449 -0.07813,0.115723 -0.07772,0.115995 -0.07732,0.116265 -0.07691,0.116535 -0.0765,0.116802 -0.07609,0.117069 -0.07569,0.117333 -0.07527,0.117598 -0.07487,0.117859 -0.07445,0.118119 -0.07404,0.118379 -0.07363,0.118637 -0.07321,0.118893 -0.0728,0.119147 -0.07238,0.119401 -0.07196,0.119653 -0.07154,0.119904 -0.07113,0.120152 -0.07071,0.1204 -0.07029,0.120646 -0.06986,0.120891 -0.06944,0.121134 -0.06902,0.121376 -0.06859,0.121615 -0.06817,0.121855 -0.06774,0.122091 -0.06732,0.122328 -0.06689,0.122561 -0.06646,0.122794 -0.06603,0.123026 -0.0656,0.123255 -0.06517,0.123484 -0.06474,0.12371 -0.06431,0.123935 -0.06387,0.12416 -0.06344,0.124381 -0.06301,0.124602 -0.06257,0.124821 -0.06213,0.125039 -0.0617,0.125255 -0.06126,0.12547 -0.06082,0.125683 -0.06038,0.125894 -0.05994,0.126105 -0.0595,0.126312 -0.05906,0.12652 -0.05862,0.126725 -0.05818,0.126929 -0.05773,0.127131 -0.05729,0.127332 -0.05684,0.127532 -0.0564,0.127728 -0.05595,0.127925 -0.05551,0.12812 -0.05506,0.128312 -0.05461,0.128504 -0.05416,0.128694 -0.05371,0.128882 -0.05326,0.129068 -0.05281,0.129254 -0.05236,0.129438 -0.05191,0.129619 -0.05145,0.1298 -0.051,0.129978 -0.05055,0.130156 -0.05009,0.130331 -0.04964,0.130506 -0.04918,0.130678 -0.04872,0.130849 -0.04827,0.131018 -0.04781,0.131186 -0.04735,0.131352 -0.04689,0.131516 -0.04643,0.131679 -0.04597,0.131841 -0.04551,0.132 -0.04505,0.132158 -0.04459,0.132315 -0.04413,0.13247 -0.04367,0.132622 -0.0432,0.132775 -0.04274,0.132924 -0.04227,0.133073 -0.04181,0.13322 -0.04134,0.133364 -0.04088,0.133509 -0.04041,0.13365 -0.03995,0.13379 -0.03948,0.133929 -0.03901,0.134066 -0.03854,0.134201 -0.03807,0.134335 -0.0096,0.03398"
             style="fill:none;stroke:#000000;stroke-width:0.25;stroke-linecap:round;stroke-linejoin:round;stroke-miterlimit:10;stroke-dasharray:none;stroke-opacity:1"
             id="path32" />
          <path
             d="m 15.125,30.212527 h 1.787008"
             style="fill:none;stroke:#000000;stroke-width:0.25;stroke-linecap:round;stroke-linejoin:round;stroke-miterlimit:10;stroke-dasharray:none;stroke-opacity:1"
             id="path34" />
          <path
             d="M 41.125,30.212527 H 39.337992"
             style="fill:none;stroke:#000000;stroke-width:0.25;stroke-linecap:round;stroke-linejoin:round;stroke-miterlimit:10;stroke-dasharray:none;stroke-opacity:1"
             id="path36" />
          <path
             d="M 41.125,26.212527 H 39.337992"
             style="fill:none;stroke:#000000;stroke-width:0.25;stroke-linecap:round;stroke-linejoin:round;stroke-miterlimit:10;stroke-dasharray:none;stroke-opacity:1"
             id="path38" />
          <path
             d="m 15.125,26.212527 h 1.787008"
             style="fill:none;stroke:#000000;stroke-width:0.25;stroke-linecap:round;stroke-linejoin:round;stroke-miterlimit:10;stroke-dasharray:none;stroke-opacity:1"
             id="path40" />
          <path
             d="m 16.912008,30.212527 0.0778,10e-4 0.07775,0.003 0.07764,0.005 0.07748,0.0071 0.07728,0.0091 0.07701,0.01106 0.0767,0.01305 0.07634,0.01504 0.07592,0.01701 0.07545,0.01898 0.07494,0.02093 0.07437,0.02286 0.07375,0.02478 0.07308,0.02669 0.07237,0.02857 0.0716,0.03044 0.07079,0.03229 0.06993,0.03411 0.06902,0.03591 0.06806,0.03769 0.06706,0.03945 0.06602,0.04117 0.06493,0.04287 0.0638,0.04454 0.06262,0.04618 0.0614,0.04779 0.06014,0.04936 0.05884,0.05091 0.0575,0.05241 0.05612,0.05389 0.0547,0.05532 0.05325,0.05673 0.05176,0.05809 0.05024,0.05941 0.04868,0.06069 0.04709,0.06193 0.04547,0.06313 0.04382,0.06429 0.04214,0.06541 0.04042,0.06648 0.03869,0.0675 0.03692,0.06848 0.03514,0.06942 0.03332,0.07031 0.03149,0.07115 0.02963,0.07194 0.02776,0.07268 0.02586,0.07338 0.02395,0.07403 0.02202,0.07462 3.84e-4,0.0014"
             style="fill:none;stroke:#000000;stroke-width:0.25;stroke-linecap:round;stroke-linejoin:round;stroke-miterlimit:10;stroke-dasharray:none;stroke-opacity:1"
             id="path42" />
          <path
             d="m 39.337992,30.212527 -0.0778,10e-4 -0.07775,0.003 -0.07764,0.005 -0.07748,0.0071 -0.07728,0.0091 -0.07701,0.01106 -0.0767,0.01305 -0.07634,0.01504 -0.07592,0.01701 -0.07545,0.01898 -0.07494,0.02093 -0.07437,0.02286 -0.07375,0.02478 -0.07308,0.02669 -0.07237,0.02857 -0.0716,0.03044 -0.07079,0.03229 -0.06993,0.03411 -0.06902,0.03591 -0.06806,0.03769 -0.06706,0.03945 -0.06602,0.04117 -0.06493,0.04287 -0.06379,0.04454 -0.06262,0.04618 -0.0614,0.04779 -0.06014,0.04936 -0.05884,0.05091 -0.0575,0.05241 -0.05612,0.05389 -0.0547,0.05532 -0.05325,0.05673 -0.05176,0.05809 -0.05024,0.05941 -0.04868,0.06069 -0.04709,0.06193 -0.04547,0.06313 -0.04382,0.06429 -0.04214,0.06541 -0.04042,0.06648 -0.03869,0.0675 -0.03692,0.06848 -0.03513,0.06942 -0.03332,0.07031 -0.03149,0.07115 -0.02963,0.07194 -0.02776,0.07268 -0.02586,0.07338 -0.02395,0.07403 -0.02202,0.07462 -3.84e-4,0.0014"
             style="fill:none;stroke:#000000;stroke-width:0.25;stroke-linecap:round;stroke-linejoin:round;stroke-miterlimit:10;stroke-dasharray:none;stroke-opacity:1"
             id="path44" />
          <path
             d="m 39.337992,26.212527 -0.0778,-0.001 -0.07775,-0.003 -0.07764,-0.005 -0.07748,-0.0071 -0.07728,-0.0091 -0.07701,-0.01106 -0.0767,-0.01306 -0.07634,-0.01504 -0.07592,-0.01701 -0.07545,-0.01898 -0.07494,-0.02093 -0.07437,-0.02286 -0.07375,-0.02478 -0.07308,-0.02669 -0.07237,-0.02858 -0.0716,-0.03044 -0.07079,-0.03229 -0.06993,-0.03411 -0.06902,-0.03591 -0.06806,-0.03769 -0.06706,-0.03945 -0.06602,-0.04117 -0.06493,-0.04287 -0.06379,-0.04454 -0.06262,-0.04618 -0.0614,-0.04779 -0.06014,-0.04936 -0.05884,-0.05091 -0.0575,-0.05241 -0.05612,-0.05389 -0.0547,-0.05532 -0.05325,-0.05673 -0.05176,-0.05809 -0.05024,-0.05941 -0.04868,-0.06069 -0.04709,-0.06193 -0.04547,-0.06313 -0.04382,-0.06429 -0.04214,-0.06541 -0.04042,-0.06648 -0.03869,-0.0675 -0.03692,-0.06848 -0.03513,-0.06942 -0.03332,-0.07031 -0.03149,-0.07115 -0.02963,-0.07194 -0.02776,-0.07268 -0.02586,-0.07338 -0.02395,-0.07403 -0.02202,-0.07462 -3.84e-4,-0.0014"
             style="fill:none;stroke:#000000;stroke-width:0.25;stroke-linecap:round;stroke-linejoin:round;stroke-miterlimit:10;stroke-dasharray:none;stroke-opacity:1"
             id="path46" />
          <path
             d="m 16.912008,26.212527 0.0778,-0.001 0.07775,-0.003 0.07764,-0.005 0.07748,-0.0071 0.07728,-0.0091 0.07701,-0.01106 0.0767,-0.01306 0.07634,-0.01504 0.07592,-0.01701 0.07545,-0.01898 0.07494,-0.02093 0.07437,-0.02286 0.07375,-0.02478 0.07308,-0.02669 0.07237,-0.02858 0.0716,-0.03044 0.07079,-0.03229 0.06993,-0.03411 0.06902,-0.03591 0.06806,-0.03769 0.06706,-0.03945 0.06602,-0.04117 0.06493,-0.04287 0.0638,-0.04454 0.06262,-0.04618 0.0614,-0.04779 0.06014,-0.04936 0.05884,-0.05091 0.0575,-0.05241 0.05612,-0.05389 0.0547,-0.05532 0.05325,-0.05673 0.05176,-0.05809 0.05024,-0.05941 0.04868,-0.06069 0.04709,-0.06193 0.04547,-0.06313 0.04382,-0.06429 0.04214,-0.06541 0.04042,-0.06648 0.03869,-0.0675 0.03692,-0.06848 0.03514,-0.06942 0.03332,-0.07031 0.03149,-0.07115 0.02963,-0.07194 0.02776,-0.07268 0.02586,-0.07338 0.02395,-0.07403 0.02202,-0.07462 3.84e-4,-0.0014"
             style="fill:none;stroke:#000000;stroke-width:0.25;stroke-linecap:round;stroke-linejoin:round;stroke-miterlimit:10;stroke-dasharray:none;stroke-opacity:1"
             id="path48" />
          <path
             d="m 19.186106,30.212527 0.254497,0.907021 m 0.10536,0.375499 0.254497,0.907021"
             style="fill:none;stroke:#000000;stroke-width:0.13;stroke-linecap:round;stroke-linejoin:round;stroke-miterlimit:10;stroke-dasharray:none;stroke-opacity:1"
             id="path50" />
          <path
             d="m 37.063894,30.212527 -0.254497,0.907021 m -0.10536,0.375499 -0.254497,0.907021"
             style="fill:none;stroke:#000000;stroke-width:0.13;stroke-linecap:round;stroke-linejoin:round;stroke-miterlimit:10;stroke-dasharray:none;stroke-opacity:1"
             id="path52" />
          <path
             d="m 19.186106,26.212527 0.254497,-0.907021 m 0.10536,-0.375498 0.254497,-0.907021"
             style="fill:none;stroke:#000000;stroke-width:0.13;stroke-linecap:round;stroke-linejoin:round;stroke-miterlimit:10;stroke-dasharray:none;stroke-opacity:1"
             id="path54" />
          <path
             d="M 37.063894,26.212527 36.809397,25.305506 M 36.704037,24.930008 36.44954,24.022987"
             style="fill:none;stroke:#000000;stroke-width:0.13;stroke-linecap:round;stroke-linejoin:round;stroke-miterlimit:10;stroke-dasharray:none;stroke-opacity:1"
             id="path56" />
          <path
             d="m 16.912008,30.212527 h 0.942049 m 0.39,0 h 0.942049"
             style="fill:none;stroke:#000000;stroke-width:0.13;stroke-linecap:round;stroke-linejoin:round;stroke-miterlimit:10;stroke-dasharray:none;stroke-opacity:1"
             id="path58" />
          <path
             d="m 39.337992,30.212527 h -0.942049 m -0.39,0 h -0.942049"
             style="fill:none;stroke:#000000;stroke-width:0.13;stroke-linecap:round;stroke-linejoin:round;stroke-miterlimit:10;stroke-dasharray:none;stroke-opacity:1"
             id="path60" />
          <path
             d="m 39.337992,26.212527 h -0.942049 m -0.39,0 h -0.942049"
             style="fill:none;stroke:#000000;stroke-width:0.13;stroke-linecap:round;stroke-linejoin:round;stroke-miterlimit:10;stroke-dasharray:none;stroke-opacity:1"
             id="path62" />
          <path
             d="m 16.912008,26.212527 h 0.942049 m 0.39,0 h 0.942049"
             style="fill:none;stroke:#000000;stroke-width:0.13;stroke-linecap:round;stroke-linejoin:round;stroke-miterlimit:10;stroke-dasharray:none;stroke-opacity:1"
             id="path64" />
          <path
             d="m 25.677312,44.723885 0.0458,0.06289 0.04742,0.06168 0.04901,0.06043 0.05055,0.05914 0.05207,0.05781 0.05355,0.05644 0.055,0.05503 0.05641,0.05359 0.05778,0.05211 0.05911,0.05059 0.0604,0.04904 0.06165,0.04746 0.06286,0.04584 0.06403,0.0442 0.06516,0.04252 0.06624,0.04082 0.06727,0.03909 0.06827,0.03733 0.06921,0.03555 0.07011,0.03374 0.07096,0.03191 0.07176,0.03006 0.07252,0.02819 0.07323,0.0263 0.07388,0.02439 0.07449,0.02247 0.07505,0.02053 0.07555,0.01857 0.07601,0.01661 0.07642,0.01463 0.07677,0.01264 0.07707,0.01065 0.07732,0.0086 0.07752,0.0066 0.07767,0.0046 0.07776,0.0026 0.0778,5.94e-4 0.07779,-0.0014 0.07773,-0.0034 0.07761,-0.0055 0.07744,-0.0075 0.07723,-0.0095 0.07695,-0.01147 0.07663,-0.01346 0.07625,-0.01545 0.07583,-0.01742 0.07535,-0.01938 0.07482,-0.02133 0.07425,-0.02326 0.07362,-0.02518 0.07294,-0.02708 0.07221,-0.02896 0.07144,-0.03082 0.07062,-0.03267 0.06974,-0.03448 0.06883,-0.03628 0.06786,-0.03805 0.06685,-0.0398 0.0658,-0.04152 0.0647,-0.04322 0.06356,-0.04488 0.06237,-0.04651 0.06114,-0.04811 0.05988,-0.04968 0.05857,-0.05122 0.05722,-0.05272 0.05583,-0.05419 0.05441,-0.05562 0.05295,-0.05701 0.05145,-0.05836 0.04992,-0.05968 0.04836,-0.06095 0.04676,-0.06218 0.02677,-0.03717"
             style="fill:none;stroke:#000000;stroke-width:0.25;stroke-linecap:round;stroke-linejoin:round;stroke-miterlimit:10;stroke-dasharray:none;stroke-opacity:1"
             id="path66" />
          <path
             d="m 25.677312,11.701169 0.0458,-0.06289 0.04742,-0.06168 0.04901,-0.06043 0.05055,-0.05914 0.05207,-0.05781 0.05355,-0.05644 0.055,-0.05503 0.05641,-0.05359 0.05778,-0.05211 0.05911,-0.05059 0.0604,-0.04904 0.06165,-0.04746 0.06286,-0.04584 0.06403,-0.0442 0.06516,-0.04252 0.06624,-0.04082 0.06727,-0.03909 0.06827,-0.03733 0.06921,-0.03555 0.07011,-0.03374 0.07096,-0.03191 0.07176,-0.03006 0.07252,-0.02819 0.07323,-0.0263 0.07388,-0.02439 0.07449,-0.02247 0.07505,-0.02053 0.07555,-0.01857 0.07601,-0.01661 0.07642,-0.01463 0.07677,-0.01265 0.07707,-0.01065 0.07732,-0.0086 0.07752,-0.0066 0.07767,-0.0046 0.07776,-0.0026 0.0778,-5.94e-4 0.07779,0.0014 0.07773,0.0034 0.07761,0.0055 0.07744,0.0075 0.07723,0.0095 0.07695,0.01147 0.07663,0.01346 0.07625,0.01544 0.07583,0.01742 0.07535,0.01938 0.07482,0.02133 0.07425,0.02326 0.07362,0.02518 0.07294,0.02708 0.07221,0.02896 0.07144,0.03082 0.07062,0.03266 0.06974,0.03449 0.06883,0.03628 0.06786,0.03805 0.06685,0.0398 0.0658,0.04152 0.0647,0.04322 0.06356,0.04488 0.06237,0.04651 0.06114,0.04811 0.05988,0.04968 0.05857,0.05122 0.05722,0.05272 0.05583,0.05419 0.05441,0.05562 0.05295,0.05701 0.05145,0.05836 0.04992,0.05968 0.04836,0.06095 0.04676,0.06218 0.02677,0.03717"
             style="fill:none;stroke:#000000;stroke-width:0.25;stroke-linecap:round;stroke-linejoin:round;stroke-miterlimit:10;stroke-dasharray:none;stroke-opacity:1"
             id="path68" />
        </g>
        <g
           id="g70"
           transform="matrix(0,-0.84965585,0.84864824,0,1905.2985,844.27627)">
          <g
             id="g72">
            <text
               xml:space="preserve"
               transform="translate(0,208)"
               style="font-variant:normal;font-weight:normal;font-size:194px;font-family:'Noto Sans';-inkscape-font-specification:NotoSans-DisplayRegular;writing-mode:lr-tb;fill:#008000;fill-opacity:1;fill-rule:nonzero;stroke:none"
               id="text76"><tspan
                 x="0"
                 y="0"
                 id="tspan74">d</tspan></text>
          </g>
        </g>
        <g
           id="g78"
           transform="matrix(47.216667,0,0,-47.272727,0,2600)">
          <path
             d="M 44.65816,45.989289 V 30.212527"
             style="fill:none;stroke:#008000;stroke-width:0.13;stroke-linecap:round;stroke-linejoin:round;stroke-miterlimit:10;stroke-dasharray:none;stroke-opacity:1"
             id="path80" />
        </g>
        <g
           id="g82">
          <path
             d="m 2108.6095,425.96086 19.6555,118.18182 h -39.3111 z"
             style="fill:#008000;fill-opacity:1;fill-rule:evenodd;stroke:none"
             id="path84" />
        </g>
        <g
           id="g86"
           transform="matrix(47.216667,0,0,-47.272727,0,2600)">
          <path
             d="m 44.65816,45.989289 0.416285,-2.5 h -0.83257 z"
             style="fill:#008000;fill-opacity:1;fill-rule:evenodd;stroke:#008000;stroke-width:0.13;stroke-linecap:round;stroke-linejoin:round;stroke-miterlimit:10;stroke-dasharray:none;stroke-opacity:1"
             id="path88" />
        </g>
        <g
           id="g90">
          <path
             d="m 2108.6095,1171.7714 -19.6556,-118.1818 h 39.3111 z"
             style="fill:#008000;fill-opacity:1;fill-rule:evenodd;stroke:none"
             id="path92" />
        </g>
        <g
           id="g94"
           transform="matrix(47.216667,0,0,-47.272727,0,2600)">
          <path
             d="m 44.65816,30.212527 -0.416285,2.5 h 0.83257 z"
             style="fill:#008000;fill-opacity:1;fill-rule:evenodd;stroke:#008000;stroke-width:0.13;stroke-linecap:round;stroke-linejoin:round;stroke-miterlimit:10;stroke-dasharray:none;stroke-opacity:1"
             id="path96" />
          <path
             d="M 28.75,45.989289 H 45.90816"
             style="fill:none;stroke:#008000;stroke-width:0.13;stroke-linecap:round;stroke-linejoin:round;stroke-miterlimit:10;stroke-dasharray:none;stroke-opacity:1"
             id="path98" />
          <path
             d="m 41.75,30.212527 h 4.15816"
             style="fill:none;stroke:#008000;stroke-width:0.13;stroke-linecap:round;stroke-linejoin:round;stroke-miterlimit:10;stroke-dasharray:none;stroke-opacity:1"
             id="path100" />
        </g>
        <g
           id="g102"
           transform="matrix(0.84864824,0,0,0.84965585,1249.3879,2241.8612)">
          <g
             id="g104">
            <text
               xml:space="preserve"
               transform="translate(0,208)"
               style="font-variant:normal;font-weight:normal;font-size:194px;font-family:'Noto Sans';-inkscape-font-specification:NotoSans-DisplayRegular;writing-mode:lr-tb;fill:#008000;fill-opacity:1;fill-rule:nonzero;stroke:none"
               id="text108"><tspan
                 x="0"
                 y="0"
                 id="tspan106">w</tspan></text>
          </g>
        </g>
        <g
           id="g110"
           transform="matrix(47.216667,0,0,-47.272727,0,2600)" />
        <g
           id="g112"
           transform="matrix(0.3394593,0,0,0.33986234,1371.7126,2347.8983)">
          <g
             id="g114">
            <text
               xml:space="preserve"
               transform="translate(0,208)"
               style="font-variant:normal;font-weight:normal;font-size:194px;font-family:'Noto Sans';-inkscape-font-specification:NotoSans-DisplayRegular;writing-mode:lr-tb;fill:#008000;fill-opacity:1;fill-rule:nonzero;stroke:none"
               id="text118"><tspan
                 x="0"
                 y="0"
                 id="tspan116">u</tspan></text>
          </g>
        </g>
        <g
           id="g120"
           transform="matrix(47.216667,0,0,-47.272727,0,2600)">
          <path
             d="M 19.186106,3.2125273 H 37.063894"
             style="fill:none;stroke:#008000;stroke-width:0.13;stroke-linecap:round;stroke-linejoin:round;stroke-miterlimit:10;stroke-dasharray:none;stroke-opacity:1"
             id="path122" />
        </g>
        <g
           id="g124">
          <path
             d="m 905.90396,2448.1351 118.04164,-19.6789 v 39.3578 z"
             style="fill:#008000;fill-opacity:1;fill-rule:evenodd;stroke:none"
             id="path126" />
        </g>
        <g
           id="g128"
           transform="matrix(47.216667,0,0,-47.272727,0,2600)">
          <path
             d="m 19.186106,3.2125273 2.5,0.4162846 V 2.7962426 Z"
             style="fill:#008000;fill-opacity:1;fill-rule:evenodd;stroke:#008000;stroke-width:0.13;stroke-linecap:round;stroke-linejoin:round;stroke-miterlimit:10;stroke-dasharray:none;stroke-opacity:1"
             id="path130" />
        </g>
        <g
           id="g132">
          <path
             d="m 1750.0335,2448.1351 -118.0416,19.6789 v -39.3578 z"
             style="fill:#008000;fill-opacity:1;fill-rule:evenodd;stroke:none"
             id="path134" />
        </g>
        <g
           id="g136"
           transform="matrix(47.216667,0,0,-47.272727,0,2600)">
          <path
             d="m 37.063894,3.2125273 -2.5,-0.4162847 v 0.8325693 z"
             style="fill:#008000;fill-opacity:1;fill-rule:evenodd;stroke:#008000;stroke-width:0.13;stroke-linecap:round;stroke-linejoin:round;stroke-miterlimit:10;stroke-dasharray:none;stroke-opacity:1"
             id="path138" />
          <path
             d="M 19.186106,25.587527 V 1.9625273"
             style="fill:none;stroke:#008000;stroke-width:0.13;stroke-linecap:round;stroke-linejoin:round;stroke-miterlimit:10;stroke-dasharray:none;stroke-opacity:1"
             id="path140" />
          <path
             d="M 37.063894,25.587527 V 1.9625273"
             style="fill:none;stroke:#008000;stroke-width:0.13;stroke-linecap:round;stroke-linejoin:round;stroke-miterlimit:10;stroke-dasharray:none;stroke-opacity:1"
             id="path142" />
        </g>
        <g
           id="g144"
           transform="matrix(0.62029246,0.57986044,-0.57917278,0.62102893,1167.3352,1092.5082)">
          <g
             id="g146">
            <text
               xml:space="preserve"
               transform="translate(0,208)"
               style="font-variant:normal;font-weight:normal;font-size:194px;font-family:'Noto Sans';-inkscape-font-specification:NotoSans-DisplayRegular;writing-mode:lr-tb;fill:#008000;fill-opacity:1;fill-rule:nonzero;stroke:none"
               id="text150"><tspan
                 x="0"
                 y="0"
                 id="tspan148">r</tspan></text>
          </g>
        </g>
        <g
           id="g152"
           transform="matrix(47.216667,0,0,-47.272727,0,2600)" />
        <g
           id="g154"
           transform="matrix(0.24811698,0.23194417,-0.23166911,0.24841157,1142.0998,1213.9914)">
          <g
             id="g156">
            <text
               xml:space="preserve"
               transform="translate(0,208)"
               style="font-variant:normal;font-weight:normal;font-size:194px;font-family:'Noto Sans';-inkscape-font-specification:NotoSans-DisplayRegular;writing-mode:lr-tb;fill:#008000;fill-opacity:1;fill-rule:nonzero;stroke:none"
               id="text160"><tspan
                 x="0"
                 y="0"
                 id="tspan158">1</tspan></text>
          </g>
        </g>
        <g
           id="g162"
           transform="matrix(47.216667,0,0,-47.272727,0,2600)">
          <path
             d="m 16.912008,33.212527 7.187253,-6.710804"
             style="fill:none;stroke:#008000;stroke-width:0.13;stroke-linecap:round;stroke-linejoin:round;stroke-miterlimit:10;stroke-dasharray:none;stroke-opacity:1"
             id="path164" />
        </g>
        <g
           id="g166">
          <path
             d="m 902.06322,1126.7392 99.69308,66.2713 -26.82852,28.7673 z"
             style="fill:#008000;fill-opacity:1;fill-rule:evenodd;stroke:none"
             id="path168" />
        </g>
        <g
           id="g170"
           transform="matrix(47.216667,0,0,-47.272727,0,2600)">
          <path
             d="m 19.104763,31.165132 2.111395,-1.401893 -0.568199,-0.60854 z"
             style="fill:#008000;fill-opacity:1;fill-rule:evenodd;stroke:#008000;stroke-width:0.13;stroke-linecap:round;stroke-linejoin:round;stroke-miterlimit:10;stroke-dasharray:none;stroke-opacity:1"
             id="path172" />
        </g>
        <g
           id="g174"
           transform="matrix(0.44744375,0.721965,-0.72110882,0.447975,1280.7566,100.36958)">
          <g
             id="g176">
            <text
               xml:space="preserve"
               transform="translate(0,208)"
               style="font-variant:normal;font-weight:normal;font-size:194px;font-family:'Noto Sans';-inkscape-font-specification:NotoSans-DisplayRegular;writing-mode:lr-tb;fill:#008000;fill-opacity:1;fill-rule:nonzero;stroke:none"
               id="text180"><tspan
                 x="0"
                 y="0"
                 id="tspan178">r</tspan></text>
          </g>
        </g>
        <g
           id="g182"
           transform="matrix(47.216667,0,0,-47.272727,0,2600)" />
        <g
           id="g184"
           transform="matrix(0.1789775,0.288786,-0.28844353,0.17919,1224.6981,211.03339)">
          <g
             id="g186">
            <text
               xml:space="preserve"
               transform="translate(0,208)"
               style="font-variant:normal;font-weight:normal;font-size:194px;font-family:'Noto Sans';-inkscape-font-specification:NotoSans-DisplayRegular;writing-mode:lr-tb;fill:#008000;fill-opacity:1;fill-rule:nonzero;stroke:none"
               id="text190"><tspan
                 x="0"
                 y="0"
                 id="tspan188">3</tspan></text>
          </g>
        </g>
        <g
           id="g192"
           transform="matrix(47.216667,0,0,-47.272727,0,2600)">
          <path
             d="m 28.125,42.989289 -5.294047,8.531987"
             style="fill:none;stroke:#008000;stroke-width:0.13;stroke-linecap:round;stroke-linejoin:round;stroke-miterlimit:10;stroke-dasharray:none;stroke-opacity:1"
             id="path194" />
        </g>
        <g
           id="g196">
          <path
             d="m 1253.2848,447.27406 -78.9383,-90.04525 33.4033,-20.75113 z"
             style="fill:#008000;fill-opacity:1;fill-rule:evenodd;stroke:none"
             id="path198" />
        </g>
        <g
           id="g200"
           transform="matrix(47.216667,0,0,-47.272727,0,2600)">
          <path
             d="m 26.543271,45.538433 -1.67183,1.904804 0.707446,0.438966 z"
             style="fill:#008000;fill-opacity:1;fill-rule:evenodd;stroke:#008000;stroke-width:0.13;stroke-linecap:round;stroke-linejoin:round;stroke-miterlimit:10;stroke-dasharray:none;stroke-opacity:1"
             id="path202" />
        </g>
        <g
           id="g204"
           transform="matrix(0.768889,0.35961103,-0.35918457,0.7698019,1388.7762,703.81122)">
          <g
             id="g206">
            <text
               xml:space="preserve"
               transform="translate(0,208)"
               style="font-variant:normal;font-weight:normal;font-size:194px;font-family:'Noto Sans';-inkscape-font-specification:NotoSans-DisplayRegular;writing-mode:lr-tb;fill:#008000;fill-opacity:1;fill-rule:nonzero;stroke:none"
               id="text210"><tspan
                 x="0"
                 y="0"
                 id="tspan208">r</tspan></text>
          </g>
        </g>
        <g
           id="g212"
           transform="matrix(47.216667,0,0,-47.272727,0,2600)" />
        <g
           id="g214"
           transform="matrix(0.3075556,0.14384441,-0.14367383,0.30792076,1402.2654,827.15674)">
          <g
             id="g216">
            <text
               xml:space="preserve"
               transform="translate(0,208)"
               style="font-variant:normal;font-weight:normal;font-size:194px;font-family:'Noto Sans';-inkscape-font-specification:NotoSans-DisplayRegular;writing-mode:lr-tb;fill:#008000;fill-opacity:1;fill-rule:nonzero;stroke:none"
               id="text220"><tspan
                 x="0"
                 y="0"
                 id="tspan218">2</tspan></text>
          </g>
        </g>
        <g
           id="g222"
           transform="matrix(47.216667,0,0,-47.272727,0,2600)">
          <path
             d="M 35.087993,32.644428 22.149152,38.688775"
             style="fill:none;stroke:#008000;stroke-width:0.13;stroke-linecap:round;stroke-linejoin:round;stroke-miterlimit:10;stroke-dasharray:none;stroke-opacity:1"
             id="path224" />
        </g>
        <g
           id="g226">
          <path
             d="m 1045.8092,771.07609 115.2667,32.19023 -16.6382,35.65883 z"
             style="fill:#008000;fill-opacity:1;fill-rule:evenodd;stroke:none"
             id="path228" />
        </g>
        <g
           id="g230"
           transform="matrix(47.216667,0,0,-47.272727,0,2600)">
          <path
             d="m 22.149152,38.688775 2.44123,-0.680947 -0.352379,-0.754322 z"
             style="fill:#008000;fill-opacity:1;fill-rule:evenodd;stroke:#008000;stroke-width:0.13;stroke-linecap:round;stroke-linejoin:round;stroke-miterlimit:10;stroke-dasharray:none;stroke-opacity:1"
             id="path232" />
        </g>
      </g>
    </g>
  </g>
</svg>
