<?xml version="1.0" encoding="UTF-8" standalone="no"?>
<!-- Created with Inkscape (http://www.inkscape.org/) -->

<svg
   version="1.1"
   id="svg1"
   width="226.66667"
   height="208"
   viewBox="0 0 226.66667 208"
   sodipodi:docname="upset_oval.pdf"
   xmlns:inkscape="http://www.inkscape.org/namespaces/inkscape"
   xmlns:sodipodi="http://sodipodi.sourceforge.net/DTD/sodipodi-0.dtd"
   xmlns="http://www.w3.org/2000/svg"
   xmlns:svg="http://www.w3.org/2000/svg">
  <defs
     id="defs1" />
  <sodipodi:namedview
     id="namedview1"
     pagecolor="#ffffff"
     bordercolor="#000000"
     borderopacity="0.25"
     inkscape:showpageshadow="2"
     inkscape:pageopacity="0.0"
     inkscape:pagecheckerboard="0"
     inkscape:deskcolor="#d1d1d1">
    <inkscape:page
       x="0"
       y="0"
       inkscape:label="1"
       id="page1"
       width="226.66667"
       height="208"
       margin="0"
       bleed="0" />
  </sodipodi:namedview>
  <g
     id="g1"
     inkscape:groupmode="layer"
     inkscape:label="1">
    <path
       id="path1"
       d="m 5.625,28.212527 h 1.05 m 0.3835,0 h 0.013 m 0.3835,0 h 1.56 m 0.3835,0 h 0.013 m 0.3835,0 h 1.56 m 0.3835,0 h 0.013 m 0.3835,0 h 1.56 m 0.3835,0 h 0.013 m 0.3835,0 h 1.56 m 0.3835,0 h 0.013 m 0.3835,0 h 1.56 m 0.3835,0 h 0.013 m 0.3835,0 h 1.56 m 0.3835,0 h 0.013 m 0.3835,0 h 1.56 m 0.3835,0 h 0.013 m 0.3835,0 h 1.56 m 0.3835,0 h 0.013 m 0.3835,0 h 1.56 m 0.3835,0 h 0.013 m 0.3835,0 h 1.56 m 0.3835,0 h 0.013 m 0.3835,0 h 1.56 m 0.3835,0 h 0.013 m 0.3835,0 h 1.56 m 0.3835,0 h 0.013 m 0.3835,0 h 1.56 m 0.3835,0 h 0.013 m 0.3835,0 h 1.56 m 0.3835,0 h 0.013 m 0.3835,0 h 1.56 m 0.3835,0 h 0.013 m 0.3835,0 h 1.56 m 0.3835,0 h 0.013 m 0.3835,0 h 1.56 m 0.3835,0 h 0.013 m 0.3835,0 h 1.56 m 0.3835,0 h 0.013 m 0.3835,0 h 1.05"
       style="fill:none;stroke:#000000;stroke-width:0.13;stroke-linecap:round;stroke-linejoin:round;stroke-miterlimit:10;stroke-dasharray:none;stroke-opacity:1"
       transform="matrix(3.7773333,0,0,-3.7818182,0,208)" />
    <path
       id="path2"
       d="m 28.125,7.7125273 v 1.39 m 0,0.3835 v 0.013 m 0,0.3835 v 1.5599997 m 0,0.3835 v 0.013 m 0,0.3835 v 1.56 m 0,0.3835 v 0.013 m 0,0.3835 v 1.56 m 0,0.3835 v 0.013 m 0,0.3835 v 1.56 m 0,0.3835 v 0.013 m 0,0.3835 v 1.56 m 0,0.3835 v 0.013 m 0,0.3835 v 1.56 m 0,0.3835 v 0.013 m 0,0.3835 v 1.56 m 0,0.3835 v 0.013 m 0,0.3835 v 1.56 m 0,0.3835 v 0.013 m 0,0.3835 v 1.56 m 0,0.3835 v 0.013 m 0,0.3835 v 1.56 m 0,0.3835 v 0.013 m 0,0.3835 v 1.56 m 0,0.3835 v 0.013 m 0,0.3835 v 1.56 m 0,0.3835 v 0.013 m 0,0.3835 v 1.56 m 0,0.3835 v 0.013 m 0,0.3835 v 1.56 m 0,0.3835 v 0.013 m 0,0.3835 v 1.56 m 0,0.3835 v 0.013 m 0,0.3835 v 1.56 m 0,0.3835 v 0.013 m 0,0.3835 v 1.39"
       style="fill:none;stroke:#000000;stroke-width:0.13;stroke-linecap:round;stroke-linejoin:round;stroke-miterlimit:10;stroke-dasharray:none;stroke-opacity:1"
       transform="matrix(3.7773333,0,0,-3.7818182,0,208)" />
    <path
       id="path3"
       d="m 25.677312,44.723885 -0.08053,-0.114061 -0.08013,-0.114342 -0.07973,-0.114621 -0.07933,-0.114898 -0.07893,-0.115175 -0.07853,-0.115449 -0.07813,-0.115723 -0.07772,-0.115994 -0.07732,-0.116266 -0.07691,-0.116534 -0.0765,-0.116803 -0.07609,-0.117068 -0.07569,-0.117334 -0.07527,-0.117597 -0.07487,-0.117859 -0.07445,-0.11812 -0.07404,-0.118379 -0.07363,-0.118636 -0.07321,-0.118893 -0.0728,-0.119148 -0.07238,-0.119401 -0.07196,-0.119653 -0.07154,-0.119903 -0.07113,-0.120153 -0.07071,-0.1204 -0.07029,-0.120646 -0.06986,-0.120891 -0.06944,-0.121134 -0.06902,-0.121375 -0.06859,-0.121616 -0.06817,-0.121854 -0.06774,-0.122092 -0.06732,-0.122327 -0.06689,-0.122562 -0.06646,-0.122794 -0.06603,-0.123026 -0.0656,-0.123255 -0.06517,-0.123483 -0.06474,-0.123711 -0.06431,-0.123935 -0.06387,-0.124159 -0.06344,-0.124382 -0.06301,-0.124602 -0.06257,-0.124821 -0.06213,-0.125039 -0.0617,-0.125255 -0.06126,-0.12547 -0.06082,-0.125683 -0.06038,-0.125894 -0.05994,-0.126104 -0.0595,-0.126313 -0.05906,-0.12652 -0.05862,-0.126725 -0.05818,-0.126929 -0.05773,-0.127131 -0.05729,-0.127332 -0.05684,-0.127531 -0.0564,-0.127729 -0.05595,-0.127925 -0.05551,-0.128119 -0.05506,-0.128313 -0.05461,-0.128504 -0.05416,-0.128693 -0.05371,-0.128882 -0.05326,-0.129069 -0.05281,-0.129254 -0.05236,-0.129437 -0.05191,-0.12962 -0.05145,-0.129799 -0.051,-0.129979 -0.05055,-0.130156 -0.05009,-0.130331 -0.04964,-0.130506 -0.04918,-0.130678 -0.04872,-0.130848 -0.04827,-0.131018 -0.04781,-0.131186 -0.04735,-0.131352 -0.04689,-0.131517 -0.04643,-0.131679 -0.04597,-0.13184 -0.04551,-0.132001 -0.04505,-0.132158 -0.04459,-0.132315 -0.04413,-0.132469 -0.04367,-0.132623 -0.0432,-0.132775 -0.04274,-0.132924 -0.04227,-0.133073 -0.04181,-0.133219 -0.04134,-0.133365 -0.04088,-0.133508 -0.04041,-0.13365 -0.03995,-0.13379 -0.03948,-0.13393 -0.03901,-0.134065 -0.03854,-0.134202 -0.03807,-0.134335 -0.0096,-0.03398"
       style="fill:none;stroke:#000000;stroke-width:0.25;stroke-linecap:round;stroke-linejoin:round;stroke-miterlimit:10;stroke-dasharray:none;stroke-opacity:1"
       transform="matrix(3.7773333,0,0,-3.7818182,0,208)" />
    <path
       id="path4"
       d="m 30.572688,44.723885 0.08053,-0.114061 0.08013,-0.114342 0.07973,-0.114621 0.07933,-0.114898 0.07893,-0.115175 0.07853,-0.115449 0.07813,-0.115723 0.07772,-0.115994 0.07732,-0.116266 0.07691,-0.116534 0.0765,-0.116803 0.07609,-0.117068 0.07569,-0.117334 0.07528,-0.117597 0.07487,-0.117859 0.07445,-0.11812 0.07404,-0.118379 0.07363,-0.118636 0.07321,-0.118893 0.0728,-0.119148 0.07238,-0.119401 0.07196,-0.119653 0.07154,-0.119903 0.07113,-0.120153 0.07071,-0.1204 0.07028,-0.120646 0.06986,-0.120891 0.06944,-0.121134 0.06902,-0.121375 0.06859,-0.121616 0.06817,-0.121854 0.06774,-0.122092 0.06732,-0.122327 0.06689,-0.122562 0.06646,-0.122794 0.06603,-0.123026 0.0656,-0.123255 0.06517,-0.123483 0.06474,-0.123711 0.06431,-0.123935 0.06387,-0.124159 0.06344,-0.124382 0.06301,-0.124602 0.06257,-0.124821 0.06213,-0.125039 0.0617,-0.125255 0.06126,-0.12547 0.06082,-0.125683 0.06038,-0.125894 0.05994,-0.126104 0.0595,-0.126313 0.05906,-0.12652 0.05862,-0.126725 0.05818,-0.126929 0.05773,-0.127131 0.05729,-0.127332 0.05684,-0.127531 0.0564,-0.127729 0.05595,-0.127925 0.05551,-0.128119 0.05506,-0.128313 0.05461,-0.128504 0.05416,-0.128693 0.05371,-0.128882 0.05326,-0.129069 0.05281,-0.129254 0.05236,-0.129437 0.05191,-0.12962 0.05145,-0.129799 0.051,-0.129979 0.05055,-0.130156 0.05009,-0.130331 0.04964,-0.130506 0.04918,-0.130678 0.04873,-0.130848 0.04827,-0.131018 0.04781,-0.131186 0.04735,-0.131352 0.04689,-0.131517 0.04643,-0.131679 0.04597,-0.13184 0.04551,-0.132001 0.04505,-0.132158 0.04459,-0.132315 0.04413,-0.132469 0.04367,-0.132623 0.0432,-0.132775 0.04274,-0.132924 0.04227,-0.133073 0.04181,-0.133219 0.04134,-0.133365 0.04088,-0.133508 0.04041,-0.13365 0.03994,-0.13379 0.03948,-0.13393 0.03901,-0.134065 0.03854,-0.134202 0.03807,-0.134335 0.0096,-0.03398"
       style="fill:none;stroke:#000000;stroke-width:0.25;stroke-linecap:round;stroke-linejoin:round;stroke-miterlimit:10;stroke-dasharray:none;stroke-opacity:1"
       transform="matrix(3.7773333,0,0,-3.7818182,0,208)" />
    <path
       id="path5"
       d="m 30.572688,11.701169 0.08053,0.114062 0.08013,0.114341 0.07973,0.114621 0.07933,0.114898 0.07893,0.115175 0.07853,0.115449 0.07813,0.115723 0.07772,0.115995 0.07732,0.116265 0.07691,0.116535 0.0765,0.116802 0.07609,0.117069 0.07569,0.117333 0.07528,0.117598 0.07487,0.117859 0.07445,0.118119 0.07404,0.118379 0.07363,0.118637 0.07321,0.118893 0.0728,0.119147 0.07238,0.119401 0.07196,0.119653 0.07154,0.119904 0.07113,0.120152 0.07071,0.1204 0.07028,0.120646 0.06986,0.120891 0.06944,0.121134 0.06902,0.121376 0.06859,0.121615 0.06817,0.121855 0.06774,0.122091 0.06732,0.122328 0.06689,0.122561 0.06646,0.122794 0.06603,0.123026 0.0656,0.123255 0.06517,0.123484 0.06474,0.12371 0.06431,0.123935 0.06387,0.12416 0.06344,0.124381 0.06301,0.124602 0.06257,0.124821 0.06213,0.125039 0.0617,0.125255 0.06126,0.12547 0.06082,0.125683 0.06038,0.125894 0.05994,0.126105 0.0595,0.126312 0.05906,0.12652 0.05862,0.126725 0.05818,0.126929 0.05773,0.127131 0.05729,0.127332 0.05684,0.127532 0.0564,0.127728 0.05595,0.127925 0.05551,0.12812 0.05506,0.128312 0.05461,0.128504 0.05416,0.128694 0.05371,0.128882 0.05326,0.129068 0.05281,0.129254 0.05236,0.129438 0.05191,0.129619 0.05145,0.1298 0.051,0.129978 0.05055,0.130156 0.05009,0.130331 0.04964,0.130506 0.04918,0.130678 0.04873,0.130849 0.04827,0.131018 0.04781,0.131186 0.04735,0.131352 0.04689,0.131516 0.04643,0.131679 0.04597,0.131841 0.04551,0.132 0.04505,0.132158 0.04459,0.132315 0.04413,0.13247 0.04367,0.132622 0.0432,0.132775 0.04274,0.132924 0.04227,0.133073 0.04181,0.13322 0.04134,0.133364 0.04088,0.133509 0.04041,0.13365 0.03994,0.13379 0.03948,0.133929 0.03901,0.134066 0.03854,0.134201 0.03807,0.134335 0.0096,0.03398"
       style="fill:none;stroke:#000000;stroke-width:0.25;stroke-linecap:round;stroke-linejoin:round;stroke-miterlimit:10;stroke-dasharray:none;stroke-opacity:1"
       transform="matrix(3.7773333,0,0,-3.7818182,0,208)" />
    <path
       id="path6"
       d="m 25.677312,11.701169 -0.08053,0.114062 -0.08013,0.114341 -0.07973,0.114621 -0.07933,0.114898 -0.07893,0.115175 -0.07853,0.115449 -0.07813,0.115723 -0.07772,0.115995 -0.07732,0.116265 -0.07691,0.116535 -0.0765,0.116802 -0.07609,0.117069 -0.07569,0.117333 -0.07527,0.117598 -0.07487,0.117859 -0.07445,0.118119 -0.07404,0.118379 -0.07363,0.118637 -0.07321,0.118893 -0.0728,0.119147 -0.07238,0.119401 -0.07196,0.119653 -0.07154,0.119904 -0.07113,0.120152 -0.07071,0.1204 -0.07029,0.120646 -0.06986,0.120891 -0.06944,0.121134 -0.06902,0.121376 -0.06859,0.121615 -0.06817,0.121855 -0.06774,0.122091 -0.06732,0.122328 -0.06689,0.122561 -0.06646,0.122794 -0.06603,0.123026 -0.0656,0.123255 -0.06517,0.123484 -0.06474,0.12371 -0.06431,0.123935 -0.06387,0.12416 -0.06344,0.124381 -0.06301,0.124602 -0.06257,0.124821 -0.06213,0.125039 -0.0617,0.125255 -0.06126,0.12547 -0.06082,0.125683 -0.06038,0.125894 -0.05994,0.126105 -0.0595,0.126312 -0.05906,0.12652 -0.05862,0.126725 -0.05818,0.126929 -0.05773,0.127131 -0.05729,0.127332 -0.05684,0.127532 -0.0564,0.127728 -0.05595,0.127925 -0.05551,0.12812 -0.05506,0.128312 -0.05461,0.128504 -0.05416,0.128694 -0.05371,0.128882 -0.05326,0.129068 -0.05281,0.129254 -0.05236,0.129438 -0.05191,0.129619 -0.05145,0.1298 -0.051,0.129978 -0.05055,0.130156 -0.05009,0.130331 -0.04964,0.130506 -0.04918,0.130678 -0.04872,0.130849 -0.04827,0.131018 -0.04781,0.131186 -0.04735,0.131352 -0.04689,0.131516 -0.04643,0.131679 -0.04597,0.131841 -0.04551,0.132 -0.04505,0.132158 -0.04459,0.132315 -0.04413,0.13247 -0.04367,0.132622 -0.0432,0.132775 -0.04274,0.132924 -0.04227,0.133073 -0.04181,0.13322 -0.04134,0.133364 -0.04088,0.133509 -0.04041,0.13365 -0.03995,0.13379 -0.03948,0.133929 -0.03901,0.134066 -0.03854,0.134201 -0.03807,0.134335 -0.0096,0.03398"
       style="fill:none;stroke:#000000;stroke-width:0.25;stroke-linecap:round;stroke-linejoin:round;stroke-miterlimit:10;stroke-dasharray:none;stroke-opacity:1"
       transform="matrix(3.7773333,0,0,-3.7818182,0,208)" />
    <path
       id="path7"
       d="m 15.125,30.212527 h 1.787008"
       style="fill:none;stroke:#000000;stroke-width:0.25;stroke-linecap:round;stroke-linejoin:round;stroke-miterlimit:10;stroke-dasharray:none;stroke-opacity:1"
       transform="matrix(3.7773333,0,0,-3.7818182,0,208)" />
    <path
       id="path8"
       d="M 41.125,30.212527 H 39.337992"
       style="fill:none;stroke:#000000;stroke-width:0.25;stroke-linecap:round;stroke-linejoin:round;stroke-miterlimit:10;stroke-dasharray:none;stroke-opacity:1"
       transform="matrix(3.7773333,0,0,-3.7818182,0,208)" />
    <path
       id="path9"
       d="M 41.125,26.212527 H 39.337992"
       style="fill:none;stroke:#000000;stroke-width:0.25;stroke-linecap:round;stroke-linejoin:round;stroke-miterlimit:10;stroke-dasharray:none;stroke-opacity:1"
       transform="matrix(3.7773333,0,0,-3.7818182,0,208)" />
    <path
       id="path10"
       d="m 15.125,26.212527 h 1.787008"
       style="fill:none;stroke:#000000;stroke-width:0.25;stroke-linecap:round;stroke-linejoin:round;stroke-miterlimit:10;stroke-dasharray:none;stroke-opacity:1"
       transform="matrix(3.7773333,0,0,-3.7818182,0,208)" />
    <path
       id="path11"
       d="m 16.912008,30.212527 0.0778,10e-4 0.07775,0.003 0.07764,0.005 0.07748,0.0071 0.07728,0.0091 0.07701,0.01106 0.0767,0.01305 0.07634,0.01504 0.07592,0.01701 0.07545,0.01898 0.07494,0.02093 0.07437,0.02286 0.07375,0.02478 0.07308,0.02669 0.07237,0.02857 0.0716,0.03044 0.07079,0.03229 0.06993,0.03411 0.06902,0.03591 0.06806,0.03769 0.06706,0.03945 0.06602,0.04117 0.06493,0.04287 0.0638,0.04454 0.06262,0.04618 0.0614,0.04779 0.06014,0.04936 0.05884,0.05091 0.0575,0.05241 0.05612,0.05389 0.0547,0.05532 0.05325,0.05673 0.05176,0.05809 0.05024,0.05941 0.04868,0.06069 0.04709,0.06193 0.04547,0.06313 0.04382,0.06429 0.04214,0.06541 0.04042,0.06648 0.03869,0.0675 0.03692,0.06848 0.03514,0.06942 0.03332,0.07031 0.03149,0.07115 0.02963,0.07194 0.02776,0.07268 0.02586,0.07338 0.02395,0.07403 0.02202,0.07462 3.84e-4,0.0014"
       style="fill:none;stroke:#000000;stroke-width:0.25;stroke-linecap:round;stroke-linejoin:round;stroke-miterlimit:10;stroke-dasharray:none;stroke-opacity:1"
       transform="matrix(3.7773333,0,0,-3.7818182,0,208)" />
    <path
       id="path12"
       d="m 39.337992,30.212527 -0.0778,10e-4 -0.07775,0.003 -0.07764,0.005 -0.07748,0.0071 -0.07728,0.0091 -0.07701,0.01106 -0.0767,0.01305 -0.07634,0.01504 -0.07592,0.01701 -0.07545,0.01898 -0.07494,0.02093 -0.07437,0.02286 -0.07375,0.02478 -0.07308,0.02669 -0.07237,0.02857 -0.0716,0.03044 -0.07079,0.03229 -0.06993,0.03411 -0.06902,0.03591 -0.06806,0.03769 -0.06706,0.03945 -0.06602,0.04117 -0.06493,0.04287 -0.06379,0.04454 -0.06262,0.04618 -0.0614,0.04779 -0.06014,0.04936 -0.05884,0.05091 -0.0575,0.05241 -0.05612,0.05389 -0.0547,0.05532 -0.05325,0.05673 -0.05176,0.05809 -0.05024,0.05941 -0.04868,0.06069 -0.04709,0.06193 -0.04547,0.06313 -0.04382,0.06429 -0.04214,0.06541 -0.04042,0.06648 -0.03869,0.0675 -0.03692,0.06848 -0.03513,0.06942 -0.03332,0.07031 -0.03149,0.07115 -0.02963,0.07194 -0.02776,0.07268 -0.02586,0.07338 -0.02395,0.07403 -0.02202,0.07462 -3.84e-4,0.0014"
       style="fill:none;stroke:#000000;stroke-width:0.25;stroke-linecap:round;stroke-linejoin:round;stroke-miterlimit:10;stroke-dasharray:none;stroke-opacity:1"
       transform="matrix(3.7773333,0,0,-3.7818182,0,208)" />
    <path
       id="path13"
       d="m 39.337992,26.212527 -0.0778,-0.001 -0.07775,-0.003 -0.07764,-0.005 -0.07748,-0.0071 -0.07728,-0.0091 -0.07701,-0.01106 -0.0767,-0.01306 -0.07634,-0.01504 -0.07592,-0.01701 -0.07545,-0.01898 -0.07494,-0.02093 -0.07437,-0.02286 -0.07375,-0.02478 -0.07308,-0.02669 -0.07237,-0.02858 -0.0716,-0.03044 -0.07079,-0.03229 -0.06993,-0.03411 -0.06902,-0.03591 -0.06806,-0.03769 -0.06706,-0.03945 -0.06602,-0.04117 -0.06493,-0.04287 -0.06379,-0.04454 -0.06262,-0.04618 -0.0614,-0.04779 -0.06014,-0.04936 -0.05884,-0.05091 -0.0575,-0.05241 -0.05612,-0.05389 -0.0547,-0.05532 -0.05325,-0.05673 -0.05176,-0.05809 -0.05024,-0.05941 -0.04868,-0.06069 -0.04709,-0.06193 -0.04547,-0.06313 -0.04382,-0.06429 -0.04214,-0.06541 -0.04042,-0.06648 -0.03869,-0.0675 -0.03692,-0.06848 -0.03513,-0.06942 -0.03332,-0.07031 -0.03149,-0.07115 -0.02963,-0.07194 -0.02776,-0.07268 -0.02586,-0.07338 -0.02395,-0.07403 -0.02202,-0.07462 -3.84e-4,-0.0014"
       style="fill:none;stroke:#000000;stroke-width:0.25;stroke-linecap:round;stroke-linejoin:round;stroke-miterlimit:10;stroke-dasharray:none;stroke-opacity:1"
       transform="matrix(3.7773333,0,0,-3.7818182,0,208)" />
    <path
       id="path14"
       d="m 16.912008,26.212527 0.0778,-0.001 0.07775,-0.003 0.07764,-0.005 0.07748,-0.0071 0.07728,-0.0091 0.07701,-0.01106 0.0767,-0.01306 0.07634,-0.01504 0.07592,-0.01701 0.07545,-0.01898 0.07494,-0.02093 0.07437,-0.02286 0.07375,-0.02478 0.07308,-0.02669 0.07237,-0.02858 0.0716,-0.03044 0.07079,-0.03229 0.06993,-0.03411 0.06902,-0.03591 0.06806,-0.03769 0.06706,-0.03945 0.06602,-0.04117 0.06493,-0.04287 0.0638,-0.04454 0.06262,-0.04618 0.0614,-0.04779 0.06014,-0.04936 0.05884,-0.05091 0.0575,-0.05241 0.05612,-0.05389 0.0547,-0.05532 0.05325,-0.05673 0.05176,-0.05809 0.05024,-0.05941 0.04868,-0.06069 0.04709,-0.06193 0.04547,-0.06313 0.04382,-0.06429 0.04214,-0.06541 0.04042,-0.06648 0.03869,-0.0675 0.03692,-0.06848 0.03514,-0.06942 0.03332,-0.07031 0.03149,-0.07115 0.02963,-0.07194 0.02776,-0.07268 0.02586,-0.07338 0.02395,-0.07403 0.02202,-0.07462 3.84e-4,-0.0014"
       style="fill:none;stroke:#000000;stroke-width:0.25;stroke-linecap:round;stroke-linejoin:round;stroke-miterlimit:10;stroke-dasharray:none;stroke-opacity:1"
       transform="matrix(3.7773333,0,0,-3.7818182,0,208)" />
    <path
       id="path15"
       d="m 19.186106,30.212527 0.254497,0.907021 m 0.10536,0.375499 0.254497,0.907021"
       style="fill:none;stroke:#000000;stroke-width:0.13;stroke-linecap:round;stroke-linejoin:round;stroke-miterlimit:10;stroke-dasharray:none;stroke-opacity:1"
       transform="matrix(3.7773333,0,0,-3.7818182,0,208)" />
    <path
       id="path16"
       d="m 37.063894,30.212527 -0.254497,0.907021 m -0.10536,0.375499 -0.254497,0.907021"
       style="fill:none;stroke:#000000;stroke-width:0.13;stroke-linecap:round;stroke-linejoin:round;stroke-miterlimit:10;stroke-dasharray:none;stroke-opacity:1"
       transform="matrix(3.7773333,0,0,-3.7818182,0,208)" />
    <path
       id="path17"
       d="m 19.186106,26.212527 0.254497,-0.907021 m 0.10536,-0.375498 0.254497,-0.907021"
       style="fill:none;stroke:#000000;stroke-width:0.13;stroke-linecap:round;stroke-linejoin:round;stroke-miterlimit:10;stroke-dasharray:none;stroke-opacity:1"
       transform="matrix(3.7773333,0,0,-3.7818182,0,208)" />
    <path
       id="path18"
       d="M 37.063894,26.212527 36.809397,25.305506 M 36.704037,24.930008 36.44954,24.022987"
       style="fill:none;stroke:#000000;stroke-width:0.13;stroke-linecap:round;stroke-linejoin:round;stroke-miterlimit:10;stroke-dasharray:none;stroke-opacity:1"
       transform="matrix(3.7773333,0,0,-3.7818182,0,208)" />
    <path
       id="path19"
       d="m 16.912008,30.212527 h 0.942049 m 0.39,0 h 0.942049"
       style="fill:none;stroke:#000000;stroke-width:0.13;stroke-linecap:round;stroke-linejoin:round;stroke-miterlimit:10;stroke-dasharray:none;stroke-opacity:1"
       transform="matrix(3.7773333,0,0,-3.7818182,0,208)" />
    <path
       id="path20"
       d="m 39.337992,30.212527 h -0.942049 m -0.39,0 h -0.942049"
       style="fill:none;stroke:#000000;stroke-width:0.13;stroke-linecap:round;stroke-linejoin:round;stroke-miterlimit:10;stroke-dasharray:none;stroke-opacity:1"
       transform="matrix(3.7773333,0,0,-3.7818182,0,208)" />
    <path
       id="path21"
       d="m 39.337992,26.212527 h -0.942049 m -0.39,0 h -0.942049"
       style="fill:none;stroke:#000000;stroke-width:0.13;stroke-linecap:round;stroke-linejoin:round;stroke-miterlimit:10;stroke-dasharray:none;stroke-opacity:1"
       transform="matrix(3.7773333,0,0,-3.7818182,0,208)" />
    <path
       id="path22"
       d="m 16.912008,26.212527 h 0.942049 m 0.39,0 h 0.942049"
       style="fill:none;stroke:#000000;stroke-width:0.13;stroke-linecap:round;stroke-linejoin:round;stroke-miterlimit:10;stroke-dasharray:none;stroke-opacity:1"
       transform="matrix(3.7773333,0,0,-3.7818182,0,208)" />
    <path
       id="path23"
       d="m 25.677312,44.723885 0.0458,0.06289 0.04742,0.06168 0.04901,0.06043 0.05055,0.05914 0.05207,0.05781 0.05355,0.05644 0.055,0.05503 0.05641,0.05359 0.05778,0.05211 0.05911,0.05059 0.0604,0.04904 0.06165,0.04746 0.06286,0.04584 0.06403,0.0442 0.06516,0.04252 0.06624,0.04082 0.06727,0.03909 0.06827,0.03733 0.06921,0.03555 0.07011,0.03374 0.07096,0.03191 0.07176,0.03006 0.07252,0.02819 0.07323,0.0263 0.07388,0.02439 0.07449,0.02247 0.07505,0.02053 0.07555,0.01857 0.07601,0.01661 0.07642,0.01463 0.07677,0.01264 0.07707,0.01065 0.07732,0.0086 0.07752,0.0066 0.07767,0.0046 0.07776,0.0026 0.0778,5.94e-4 0.07779,-0.0014 0.07773,-0.0034 0.07761,-0.0055 0.07744,-0.0075 0.07723,-0.0095 0.07695,-0.01147 0.07663,-0.01346 0.07625,-0.01545 0.07583,-0.01742 0.07535,-0.01938 0.07482,-0.02133 0.07425,-0.02326 0.07362,-0.02518 0.07294,-0.02708 0.07221,-0.02896 0.07144,-0.03082 0.07062,-0.03267 0.06974,-0.03448 0.06883,-0.03628 0.06786,-0.03805 0.06685,-0.0398 0.0658,-0.04152 0.0647,-0.04322 0.06356,-0.04488 0.06237,-0.04651 0.06114,-0.04811 0.05988,-0.04968 0.05857,-0.05122 0.05722,-0.05272 0.05583,-0.05419 0.05441,-0.05562 0.05295,-0.05701 0.05145,-0.05836 0.04992,-0.05968 0.04836,-0.06095 0.04676,-0.06218 0.02677,-0.03717"
       style="fill:none;stroke:#000000;stroke-width:0.25;stroke-linecap:round;stroke-linejoin:round;stroke-miterlimit:10;stroke-dasharray:none;stroke-opacity:1"
       transform="matrix(3.7773333,0,0,-3.7818182,0,208)" />
    <path
       id="path24"
       d="m 25.677312,11.701169 0.0458,-0.06289 0.04742,-0.06168 0.04901,-0.06043 0.05055,-0.05914 0.05207,-0.05781 0.05355,-0.05644 0.055,-0.05503 0.05641,-0.05359 0.05778,-0.05211 0.05911,-0.05059 0.0604,-0.04904 0.06165,-0.04746 0.06286,-0.04584 0.06403,-0.0442 0.06516,-0.04252 0.06624,-0.04082 0.06727,-0.03909 0.06827,-0.03733 0.06921,-0.03555 0.07011,-0.03374 0.07096,-0.03191 0.07176,-0.03006 0.07252,-0.02819 0.07323,-0.0263 0.07388,-0.02439 0.07449,-0.02247 0.07505,-0.02053 0.07555,-0.01857 0.07601,-0.01661 0.07642,-0.01463 0.07677,-0.01265 0.07707,-0.01065 0.07732,-0.0086 0.07752,-0.0066 0.07767,-0.0046 0.07776,-0.0026 0.0778,-5.94e-4 0.07779,0.0014 0.07773,0.0034 0.07761,0.0055 0.07744,0.0075 0.07723,0.0095 0.07695,0.01147 0.07663,0.01346 0.07625,0.01544 0.07583,0.01742 0.07535,0.01938 0.07482,0.02133 0.07425,0.02326 0.07362,0.02518 0.07294,0.02708 0.07221,0.02896 0.07144,0.03082 0.07062,0.03266 0.06974,0.03449 0.06883,0.03628 0.06786,0.03805 0.06685,0.0398 0.0658,0.04152 0.0647,0.04322 0.06356,0.04488 0.06237,0.04651 0.06114,0.04811 0.05988,0.04968 0.05857,0.05122 0.05722,0.05272 0.05583,0.05419 0.05441,0.05562 0.05295,0.05701 0.05145,0.05836 0.04992,0.05968 0.04836,0.06095 0.04676,0.06218 0.02677,0.03717"
       style="fill:none;stroke:#000000;stroke-width:0.25;stroke-linecap:round;stroke-linejoin:round;stroke-miterlimit:10;stroke-dasharray:none;stroke-opacity:1"
       transform="matrix(3.7773333,0,0,-3.7818182,0,208)" />
    <path
       id="path25"
       d="M 49.869576,1.8630486 C 37.743803,1.9781213 28.089158,-2.3946415 20.905643,-11.485385 13.549724,-20.345984 9.8717641,-33.80949 9.8717641,-51.760832 c 0,-17.778734 3.6779599,-31.299777 11.0338789,-40.505593 7.35592,-9.033205 17.068032,-13.578575 29.193806,-13.578575 7.470855,0 13.677413,1.49594 18.619671,4.37276 4.712386,3.106961 8.56275,6.674215 11.493624,10.816833 h 1.149363 c -0.344809,-1.495945 -0.574682,-3.970009 -0.689618,-7.364653 -0.344809,-3.22204 -0.459745,-5.81117 -0.459745,-7.82494 v -41.42618 H 96.993435 V 0.02188534 H 83.430959 L 80.902362,-14.016985 H 80.212744 C 77.28187,-9.5291493 73.374038,-5.7892863 68.489247,-2.7398596 63.719393,0.48217617 57.512836,1.9781213 49.869576,1.8630486 Z m 2.988343,-14.0388706 c 10.114389,0 17.240436,-2.99189 21.378141,-8.975671 3.9653,-6.098853 5.976684,-15.247133 5.976684,-27.387304 v -2.99189 c 0,-12.888143 -1.953916,-22.841932 -5.746812,-29.918904 -4.022768,-6.731753 -11.206284,-10.183934 -21.608013,-10.356543 -8.620219,0.172609 -15.056648,3.854935 -19.309289,11.04698 -4.137705,7.364653 -6.206557,17.145833 -6.206557,29.228467 0,12.600461 2.068852,22.266569 6.206557,28.998322 4.252641,6.904362 10.68907,10.356543 19.309289,10.356543 z m 0,0"
       style="fill:#008000;fill-opacity:1;fill-rule:nonzero;stroke:none"
       aria-label="d"
       transform="matrix(0,-0.06797247,0.06789186,0,166.54539,67.542102)" />
    <path
       id="path26"
       d="M 44.65816,45.989289 V 30.212527"
       style="fill:none;stroke:#008000;stroke-width:0.13;stroke-linecap:round;stroke-linejoin:round;stroke-miterlimit:10;stroke-dasharray:none;stroke-opacity:1"
       transform="matrix(3.7773333,0,0,-3.7818182,0,208)" />
    <path
       id="path27"
       d="m 2108.6095,425.96086 19.6555,118.18182 h -39.3111 z"
       style="fill:#008000;fill-opacity:1;fill-rule:evenodd;stroke:none"
       transform="scale(0.08)" />
    <path
       id="path28"
       d="m 44.65816,45.989289 0.416285,-2.5 h -0.83257 z"
       style="fill:#008000;fill-opacity:1;fill-rule:evenodd;stroke:#008000;stroke-width:0.13;stroke-linecap:round;stroke-linejoin:round;stroke-miterlimit:10;stroke-dasharray:none;stroke-opacity:1"
       transform="matrix(3.7773333,0,0,-3.7818182,0,208)" />
    <path
       id="path29"
       d="m 2108.6095,1171.7714 -19.6556,-118.1818 h 39.3111 z"
       style="fill:#008000;fill-opacity:1;fill-rule:evenodd;stroke:none"
       transform="scale(0.08)" />
    <path
       id="path30"
       d="m 44.65816,30.212527 -0.416285,2.5 h 0.83257 z"
       style="fill:#008000;fill-opacity:1;fill-rule:evenodd;stroke:#008000;stroke-width:0.13;stroke-linecap:round;stroke-linejoin:round;stroke-miterlimit:10;stroke-dasharray:none;stroke-opacity:1"
       transform="matrix(3.7773333,0,0,-3.7818182,0,208)" />
    <path
       id="path31"
       d="M 28.75,45.989289 H 45.90816"
       style="fill:none;stroke:#008000;stroke-width:0.13;stroke-linecap:round;stroke-linejoin:round;stroke-miterlimit:10;stroke-dasharray:none;stroke-opacity:1"
       transform="matrix(3.7773333,0,0,-3.7818182,0,208)" />
    <path
       id="path32"
       d="m 41.75,30.212527 h 4.15816"
       style="fill:none;stroke:#008000;stroke-width:0.13;stroke-linecap:round;stroke-linejoin:round;stroke-miterlimit:10;stroke-dasharray:none;stroke-opacity:1"
       transform="matrix(3.7773333,0,0,-3.7818182,0,208)" />
    <path
       id="path33"
       d="m 79.373459,-58.830997 c -1.553481,-5.172131 -2.934354,-10.40173 -4.142617,-15.631329 -1.553482,-5.057195 -2.5316,-8.965027 -2.99189,-11.723497 h -0.690437 c -0.632899,2.75847 -1.495945,6.666302 -2.531599,11.723497 -1.380873,5.229599 -2.761745,10.516666 -4.142618,15.861201 L 47.843538,-0.21351381 H 28.971614 L 1.8144554,-104.11588 H 19.305507 l 13.348434,55.399272 c 1.380872,5.689344 2.646672,11.378688 3.912472,17.010564 1.035654,5.689344 1.898699,10.344262 2.531599,14.022221 h 0.690436 c 0.287682,-2.12632 0.805509,-4.827322 1.611018,-8.045536 0.575364,-3.218215 1.380873,-6.666303 2.301454,-10.344262 0.920582,-3.333151 1.668555,-6.493898 2.301455,-9.424772 l 17.03076,-58.617487 h 18.641779 l 16.340324,58.617487 c 1.208263,4.482513 2.416522,9.194899 3.682322,14.252094 1.20827,5.229599 2.12885,9.76958 2.76175,13.562476 h 0.46029 c 0.46029,-3.333151 1.2658,-7.873132 2.5316,-13.562476 1.20826,-5.631876 2.58914,-11.493624 4.14262,-17.470309 l 13.57858,-55.399272 h 17.03076 L 115.046,-0.21351381 H 95.483638 Z m 0,0"
       style="fill:#008000;fill-opacity:1;fill-rule:nonzero;stroke:none"
       aria-label="w"
       transform="matrix(0.06789186,0,0,0.06797247,99.951032,193.48717)" />
    <path
       id="path34"
       d="M 97.858745,-103.9764 V 0.0408963 H 84.05002 L 81.748566,-13.751453 h -0.575364 c -3.452181,5.4594718 -7.911248,9.4822402 -13.233361,12.0683057 -5.753635,2.29872481 -11.794953,3.4480872 -17.83627,3.4480872 -11.938793,0 -20.713087,-2.873406 -26.466722,-8.6202181 C 17.451691,-12.889431 14.431032,-22.659011 14.431032,-36.16402 v -67.81238 h 17.260906 v 66.663018 c 0,16.953095 7.048204,25.285973 21.288451,25.285973 10.356544,0 17.548588,-3.160747 21.863814,-9.769581 4.171386,-6.465163 6.328999,-15.803733 6.328999,-28.159379 V -103.9764 Z m 0,0"
       style="fill:#008000;fill-opacity:1;fill-rule:nonzero;stroke:none"
       aria-label="u"
       transform="matrix(0.02715674,0,0,0.02718899,109.73701,193.48717)" />
    <path
       id="path35"
       d="M 19.186106,3.2125273 H 37.063894"
       style="fill:none;stroke:#008000;stroke-width:0.13;stroke-linecap:round;stroke-linejoin:round;stroke-miterlimit:10;stroke-dasharray:none;stroke-opacity:1"
       transform="matrix(3.7773333,0,0,-3.7818182,0,208)" />
    <path
       id="path36"
       d="m 905.90396,2448.1351 118.04164,-19.6789 v 39.3578 z"
       style="fill:#008000;fill-opacity:1;fill-rule:evenodd;stroke:none"
       transform="scale(0.08)" />
    <path
       id="path37"
       d="m 19.186106,3.2125273 2.5,0.4162846 V 2.7962426 Z"
       style="fill:#008000;fill-opacity:1;fill-rule:evenodd;stroke:#008000;stroke-width:0.13;stroke-linecap:round;stroke-linejoin:round;stroke-miterlimit:10;stroke-dasharray:none;stroke-opacity:1"
       transform="matrix(3.7773333,0,0,-3.7818182,0,208)" />
    <path
       id="path38"
       d="m 1750.0335,2448.1351 -118.0416,19.6789 v -39.3578 z"
       style="fill:#008000;fill-opacity:1;fill-rule:evenodd;stroke:none"
       transform="scale(0.08)" />
    <path
       id="path39"
       d="m 37.063894,3.2125273 -2.5,-0.4162847 v 0.8325693 z"
       style="fill:#008000;fill-opacity:1;fill-rule:evenodd;stroke:#008000;stroke-width:0.13;stroke-linecap:round;stroke-linejoin:round;stroke-miterlimit:10;stroke-dasharray:none;stroke-opacity:1"
       transform="matrix(3.7773333,0,0,-3.7818182,0,208)" />
    <path
       id="path40"
       d="M 19.186106,25.587527 V 1.9625273"
       style="fill:none;stroke:#008000;stroke-width:0.13;stroke-linecap:round;stroke-linejoin:round;stroke-miterlimit:10;stroke-dasharray:none;stroke-opacity:1"
       transform="matrix(3.7773333,0,0,-3.7818182,0,208)" />
    <path
       id="path41"
       d="M 37.063894,25.587527 V 1.9625273"
       style="fill:none;stroke:#008000;stroke-width:0.13;stroke-linecap:round;stroke-linejoin:round;stroke-miterlimit:10;stroke-dasharray:none;stroke-opacity:1"
       transform="matrix(3.7773333,0,0,-3.7818182,0,208)" />
    <path
       id="path42"
       d="m 61.792863,-105.81892 c 1.745981,0.0995 3.576071,0.12047 5.526656,0.18618 2.185904,0.31774 4.007491,0.58252 5.503981,0.83635 l -1.687711,15.728253 c -1.622653,-0.13603 -3.402186,-0.440077 -5.335764,-0.993414 -1.866476,-0.144244 -3.573237,-0.201741 -5.201559,-0.175229 -4.88213,-0.0017 -9.568621,1.386352 -13.981034,4.24827 -4.210644,2.909398 -7.726666,6.899961 -10.508846,12.013694 -2.594583,5.567569 -3.911452,11.829112 -3.908551,18.745365 L 32.223239,0.10057215 15.463716,0.02418174 15.347437,-103.96616 l 13.508549,-0.0331 2.2683,18.953449 0.650195,0.0219 c 3.040175,-5.511874 7.035801,-10.421996 12.068153,-14.727627 5.225618,-4.014332 11.195954,-6.050782 17.950229,-6.067352 z m 0,0"
       style="fill:#008000;fill-opacity:1;fill-rule:nonzero;stroke:none"
       aria-label="r"
       transform="matrix(0.0496234,0.04638883,-0.04633382,0.04968231,83.749383,97.73458)" />
    <path
       id="path43"
       d="M 65.487711,0.2321671 48.812296,0.07724361 48.934238,-96.74482 c -0.109915,-5.59765 -0.262345,-9.97624 -0.359242,-13.03075 0.617797,-3.13214 0.94853,-6.78249 0.789014,-10.9579 -2.018841,2.47469 -3.617137,4.55672 -5.103212,6.33741 -1.471903,1.37433 -3.357264,2.93814 -5.859268,4.6846 l -13.849598,12.145256 -8.935565,-12.099166 35.57615,-28.50031 14.237184,0.0728 z m 0,0"
       style="fill:#008000;fill-opacity:1;fill-rule:nonzero;stroke:none"
       aria-label="1"
       transform="matrix(0.01984936,0.01855553,-0.01853353,0.01987293,87.513008,101.25288)" />
    <path
       id="path44"
       d="m 16.912008,33.212527 7.187253,-6.710804"
       style="fill:none;stroke:#008000;stroke-width:0.13;stroke-linecap:round;stroke-linejoin:round;stroke-miterlimit:10;stroke-dasharray:none;stroke-opacity:1"
       transform="matrix(3.7773333,0,0,-3.7818182,0,208)" />
    <path
       id="path45"
       d="m 902.06322,1126.7392 99.69308,66.2713 -26.82852,28.7673 z"
       style="fill:#008000;fill-opacity:1;fill-rule:evenodd;stroke:none"
       transform="scale(0.08)" />
    <path
       id="path46"
       d="m 19.104763,31.165132 2.111395,-1.401893 -0.568199,-0.60854 z"
       style="fill:#008000;fill-opacity:1;fill-rule:evenodd;stroke:#008000;stroke-width:0.13;stroke-linecap:round;stroke-linejoin:round;stroke-miterlimit:10;stroke-dasharray:none;stroke-opacity:1"
       transform="matrix(3.7773333,0,0,-3.7818182,0,208)" />
    <path
       id="path47"
       d="m 61.62798,-105.84659 c 1.80382,0.0359 3.833303,0.14403 6.069951,0.24532 1.901483,0.0965 3.572122,0.45595 5.072586,0.9807 l -1.542114,15.564996 c -1.889644,-0.224537 -3.669785,-0.516554 -5.389255,-0.906349 -1.889644,-0.224537 -3.553626,-0.376765 -5.119945,-0.468393 -5.008971,0.0067 -9.636184,1.469187 -13.832808,4.417636 -4.324623,2.93674 -7.896806,6.949777 -10.716547,12.039113 -2.617759,5.417802 -3.935564,11.574506 -3.874247,18.451522 L 32.226786,-0.04044482 15.384215,0.07199905 15.29683,-103.98872 l 13.844587,-0.0767 1.831677,19.283512 0.633337,-0.148719 c 3.3606,-5.634 7.55799,-10.545638 12.610669,-14.655725 4.778185,-4.212698 10.598089,-6.289338 17.41088,-6.260218 z m 0,0"
       style="fill:#008000;fill-opacity:1;fill-rule:nonzero;stroke:none"
       aria-label="r"
       transform="matrix(0.0357955,0.0577572,-0.05768871,0.035838,90.46128,15.483871)" />
    <path
       id="path48"
       d="m 90.03967,-105.94813 c 0.05537,9.175551 -2.42332,16.440174 -7.436062,21.793867 -5.07194,5.994087 -11.658746,9.524676 -19.5921,10.865489 l -0.118398,1.280786 c 10.484049,1.088285 18.293408,4.579695 23.305999,10.398481 4.890513,5.743036 7.485532,13.278079 7.738817,22.407155 C 93.60482,-27.220781 89.70183,-17.115739 82.136478,-9.2831718 74.129051,-1.5556279 61.525189,2.1348861 44.202814,1.7126208 37.272009,1.982695 30.872077,1.3972033 25.003018,-0.04385438 19.1506,-0.96674264 13.43322,-2.6522477 7.9267167,-5.2225933 L 7.5791868,-21.012122 c 5.5065032,2.570345 11.5901202,4.483098 18.0529312,5.784732 6.113216,1.592555 12.31523,2.224522 18.408125,1.942373 11.090761,0.110495 19.40331,-1.841436 24.845168,-6.25174 4.861064,-5.109246 7.47847,-11.77995 7.805979,-20.210084 -0.266244,-8.29071 -3.543815,-14.72574 -9.558954,-19.473786 -6.453534,-3.496536 -15.522558,-5.230339 -27.131234,-5.323635 l -11.638275,0.226901 0.02239,-14.205746 11.638275,-0.226901 c 10.846604,-0.041 19.142513,-2.511104 24.963566,-7.532526 5.593536,-4.654752 8.227583,-10.807286 8.175897,-18.626306 -0.262564,-6.93417 -2.256466,-11.89557 -6.074188,-15.28013 -4.748113,-3.79258 -10.831729,-5.70533 -18.052932,-5.78473 -6.703288,-0.0966 -12.367067,1.12894 -17.113414,3.60087 -4.990504,2.32042 -10.010608,4.96105 -14.908633,7.67742 l -8.5010389,-11.36898 c 4.7426659,-3.82846 10.4157219,-7.2489 17.2170869,-10.30779 6.940083,-2.46498 16.077584,-3.56647 27.168346,-3.45597 11.364518,-0.0582 20.315145,2.95638 26.776041,9.16599 6.751293,6.55908 10.125024,14.74659 10.36535,24.71403 z m 0,0"
       style="fill:#008000;fill-opacity:1;fill-rule:nonzero;stroke:none"
       aria-label="3"
       transform="matrix(0.0143182,0.02310288,-0.02307548,0.0143352,93.176146,19.864393)" />
    <path
       id="path49"
       d="m 28.125,42.989289 -5.294047,8.531987"
       style="fill:none;stroke:#008000;stroke-width:0.13;stroke-linecap:round;stroke-linejoin:round;stroke-miterlimit:10;stroke-dasharray:none;stroke-opacity:1"
       transform="matrix(3.7773333,0,0,-3.7818182,0,208)" />
    <path
       id="path50"
       d="m 1253.2848,447.27406 -78.9383,-90.04525 33.4033,-20.75113 z"
       style="fill:#008000;fill-opacity:1;fill-rule:evenodd;stroke:none"
       transform="scale(0.08)" />
    <path
       id="path51"
       d="m 26.543271,45.538433 -1.67183,1.904804 0.707446,0.438966 z"
       style="fill:#008000;fill-opacity:1;fill-rule:evenodd;stroke:#008000;stroke-width:0.13;stroke-linecap:round;stroke-linejoin:round;stroke-miterlimit:10;stroke-dasharray:none;stroke-opacity:1"
       transform="matrix(3.7773333,0,0,-3.7818182,0,208)" />
    <path
       id="path52"
       d="m 61.742498,-105.99127 c 1.622903,-0.0604 3.447356,0.0387 5.449036,0.24539 2.307487,0.31752 4.204909,0.57287 5.740912,0.8702 l -1.766331,15.794494 c -1.688907,-0.352762 -3.506394,-0.708888 -5.323881,-1.065013 -1.953034,-0.102517 -3.753164,-0.149603 -5.449036,-0.245393 -4.893033,0.129166 -9.435153,1.553282 -13.706294,4.373118 -4.21553,2.666998 -7.697887,6.767522 -10.523523,12.273855 -2.613637,5.280441 -3.938042,11.417497 -3.89328,18.310398 L 32.211171,-0.09619617 15.433101,-0.12361649 15.36985,-104.1184 l 13.483618,0.0441 2.056148,19.08319 0.722838,-0.08396 c 3.08628,-5.628093 7.260244,-10.559134 12.441956,-14.692354 4.893262,-3.935036 10.766409,-6.044366 17.668088,-6.223856 z m 0,0"
       style="fill:#008000;fill-opacity:1;fill-rule:nonzero;stroke:none"
       aria-label="r"
       transform="matrix(0.06151112,0.02876888,-0.02873477,0.06158415,105.12527,69.114401)" />
    <path
       id="path53"
       d="M 95.17976,-0.04067653 8.7177922,-0.24504442 8.8576797,-14.89917 42.534184,-51.562789 c 6.281729,-6.264541 11.781524,-12.163804 16.438579,-17.827956 4.196574,-5.290466 7.689436,-10.727916 10.217944,-16.190591 1.807382,-4.967229 2.867659,-10.85404 3.302448,-17.400094 -0.181993,-7.52652 -2.153811,-13.10691 -5.976261,-16.87134 -4.074387,-3.96389 -9.426016,-5.90395 -16.054889,-5.82019 -6.307421,0.0922 -11.99806,1.1648 -16.81998,3.41735 -4.68289,1.87045 -9.591739,4.95648 -14.665739,9.38824 L 9.2465177,-124.1795 c 5.4649663,-4.6144 11.3642923,-8.63885 17.8283003,-12.13421 7.089497,-2.83612 15.751424,-4.34534 25.855459,-4.46678 10.425487,-0.11303 19.156642,2.94405 25.99363,9.42316 7.201833,7.26012 10.815452,16.35503 10.840859,27.28475 -0.208973,7.709156 -1.686339,14.74225 -4.171454,20.977523 -2.346085,5.853178 -6.117006,12.054817 -11.05212,18.483158 -5.18705,6.228886 -11.156034,12.82305 -18.037273,19.843371 l -26.517207,28.879109 -0.278059,0.764189 65.367765,-0.09024 z m 0,0"
       style="fill:#008000;fill-opacity:1;fill-rule:nonzero;stroke:none"
       aria-label="2"
       transform="matrix(0.02460445,0.01150755,-0.01149391,0.02463366,109.7905,71.296341)" />
    <path
       id="path54"
       d="M 35.087993,32.644428 22.149152,38.688775"
       style="fill:none;stroke:#008000;stroke-width:0.13;stroke-linecap:round;stroke-linejoin:round;stroke-miterlimit:10;stroke-dasharray:none;stroke-opacity:1"
       transform="matrix(3.7773333,0,0,-3.7818182,0,208)" />
    <path
       id="path55"
       d="m 1045.8092,771.07609 115.2667,32.19023 -16.6382,35.65883 z"
       style="fill:#008000;fill-opacity:1;fill-rule:evenodd;stroke:none"
       transform="scale(0.08)" />
    <path
       id="path56"
       d="m 22.149152,38.688775 2.44123,-0.680947 -0.352379,-0.754322 z"
       style="fill:#008000;fill-opacity:1;fill-rule:evenodd;stroke:#008000;stroke-width:0.13;stroke-linecap:round;stroke-linejoin:round;stroke-miterlimit:10;stroke-dasharray:none;stroke-opacity:1"
       transform="matrix(3.7773333,0,0,-3.7818182,0,208)" />
  </g>
</svg>
