<?xml version="1.0" standalone="no"?>
<!DOCTYPE svg PUBLIC "-//W3C//DTD SVG 20010904//EN"
 "http://www.w3.org/TR/2001/REC-SVG-20010904/DTD/svg10.dtd">
<svg version="1.0" xmlns="http://www.w3.org/2000/svg"
 width="640.000000pt" height="480.000000pt" viewBox="0 0 640.000000 480.000000"
 preserveAspectRatio="xMidYMid meet">

<g transform="translate(0.000000,480.000000) scale(0.100000,-0.100000)"
fill="#000000" stroke="none">
<path d="M4948 4143 c47 -5 46 -2 28 -96 -11 -58 -11 -70 0 -74 19 -7 21
-1059 2 -1065 -9 -3 -9 -21 -1 -74 5 -38 8 -74 6 -80 -2 -5 -18 -15 -36 -20
-30 -9 -35 -7 -77 31 l-45 40 42 -45 43 -46 -27 -27 -27 -27 -51 48 -50 47 48
-51 47 -50 -23 -22 c-13 -12 -27 -22 -32 -22 -5 0 -27 17 -50 38 l-40 37 40
-43 39 -42 -56 -57 c-47 -47 -59 -54 -71 -44 -11 8 -13 24 -10 51 4 26 2 40
-6 40 -16 0 -14 115 2 129 8 6 16 9 18 7 2 -2 15 11 29 28 l25 31 -42 -33 -43
-34 0 471 c0 345 3 471 11 471 12 0 10 20 -7 127 l-6 42 128 4 c102 2 92 3
-46 3 -96 0 -158 -1 -136 -3 l39 -4 -7 -53 c-3 -28 -9 -66 -12 -84 -5 -25 -3
-32 10 -32 15 0 16 -43 16 -477 l0 -477 -27 -30 c-16 -17 -19 -24 -8 -16 11 8
22 18 25 22 3 4 7 -15 8 -42 2 -40 -1 -50 -14 -50 -13 0 -15 -7 -11 -29 22
-108 21 -127 -11 -162 l-31 -34 -43 40 -43 40 40 -43 39 -42 -22 -22 -22 -23
-37 37 -37 37 30 62 c44 94 83 151 96 143 7 -4 8 -3 4 5 -4 6 -4 17 1 24 4 7
-4 -1 -19 -18 -60 -65 -190 -356 -149 -331 4 3 16 -3 25 -12 15 -17 14 -20
-13 -46 l-28 -27 -6 22 c-3 13 -3 42 0 66 4 29 2 43 -6 43 -8 0 -11 141 -11
530 0 389 3 530 11 530 12 0 10 20 -7 127 l-6 42 128 4 c96 2 83 3 -51 3 -99
0 -160 -1 -136 -3 l44 -4 -6 -42 c-3 -23 -9 -61 -13 -84 -5 -36 -4 -43 10 -43
15 0 16 -47 16 -530 0 -483 -1 -530 -16 -530 -14 0 -15 -7 -10 -42 22 -137 25
-123 -40 -189 -100 -101 -105 -103 -289 -109 l-160 -6 150 -4 c172 -6 199 0
257 57 l39 38 -11 -30 c-7 -16 -15 -50 -19 -75 -6 -42 -9 -45 -41 -51 l-35 -6
36 -2 36 -1 7 -57 c4 -31 12 -64 19 -72 7 -9 -7 1 -31 22 -24 21 -54 42 -68
47 -34 13 -334 13 -334 0 0 -6 62 -10 166 -10 l167 0 98 -97 c69 -67 99 -104
99 -120 0 -13 4 -23 10 -23 5 0 7 -6 4 -13 -2 -7 0 -24 6 -38 9 -21 9 -20 4
11 l-6 35 64 -60 63 -60 -69 72 c-39 40 -67 75 -64 79 4 3 124 -111 268 -253
144 -142 276 -266 293 -276 17 -9 43 -17 56 -17 14 0 41 -14 61 -32 l35 -33
-29 32 c-16 18 -28 34 -25 35 58 36 66 37 95 9 l29 -26 -28 31 -27 30 30 29
c30 28 30 28 52 9 l23 -19 -19 23 c-19 22 -19 22 4 47 l24 25 25 -22 c22 -20
23 -20 8 -2 -22 27 -22 33 5 61 l22 23 25 -22 26 -23 -23 26 -22 25 23 22 c29
27 35 27 66 0 l26 -23 -24 28 -24 27 23 25 24 25 25 -22 26 -23 -23 26 -22 25
25 24 25 23 28 -24 27 -24 -24 28 -25 28 27 26 c26 27 26 27 49 7 l23 -19 -19
23 c-20 23 -20 23 7 49 22 22 28 24 41 13 9 -7 16 -22 16 -34 0 -17 2 -18 10
-6 5 8 10 24 10 35 0 14 -3 16 -9 7 -6 -10 -10 -10 -21 3 -11 14 -10 20 12 42
l26 25 -4 -28 c-3 -24 -2 -23 7 6 11 38 144 181 191 206 20 10 67 14 182 14
92 0 157 4 161 10 9 14 -295 13 -332 -1 -15 -5 -43 -25 -62 -42 -23 -22 -32
-26 -27 -14 6 17 10 37 22 94 3 16 13 23 37 26 l32 4 -32 1 c-27 2 -34 7 -38
30 -4 15 -10 44 -14 64 l-9 37 38 -30 c50 -41 79 -45 250 -39 l145 6 -152 2
c-83 1 -164 7 -180 13 -15 5 -59 40 -96 77 l-68 67 33 6 c31 6 31 6 -10 8 -48
1 -46 -13 -23 114 7 38 6 50 -5 54 -21 8 -21 1058 0 1066 11 4 11 16 0 74 -7
37 -13 73 -14 80 0 9 35 13 128 16 98 2 88 3 -48 3 -96 0 -158 -1 -136 -3 l39
-4 -7 -60 c-3 -33 -9 -71 -12 -84 -5 -19 -2 -25 10 -25 14 0 16 -50 16 -529 0
-468 -2 -530 -15 -535 -12 -4 -15 -15 -10 -43 4 -28 3 -33 -4 -18 -6 13 -10
15 -10 5 -1 -8 -32 16 -73 55 l-73 70 78 -80 c42 -44 77 -87 77 -95 0 -13 2
-13 10 0 8 13 10 12 10 -2 0 -10 -4 -18 -9 -18 -5 0 -62 52 -127 116 -97 94
-114 114 -92 111 15 -2 33 0 40 4 9 6 7 9 -8 9 -43 0 -64 48 -47 108 6 23 8
22 57 -25 l51 -48 -55 60 c-30 33 -58 61 -62 63 -5 2 -8 24 -8 50 l0 45 28
-24 27 -24 -27 31 -28 30 0 482 c0 353 3 482 11 482 12 0 10 20 -7 127 l-6 42
128 4 c102 2 92 3 -46 3 -96 0 -158 -1 -136 -3 l39 -4 -7 -53 c-3 -28 -9 -66
-12 -84 -5 -25 -3 -32 10 -32 15 0 16 -43 16 -477 l0 -477 -32 30 -33 29 33
-35 c26 -29 32 -44 32 -79 0 -25 -4 -40 -10 -36 -6 3 -7 -1 -4 -9 4 -9 1 -16
-6 -16 -8 0 -10 -12 -5 -42 l7 -43 -33 30 c-30 26 -29 25 4 -11 22 -23 37 -49
35 -58 -2 -11 -48 29 -144 124 -77 77 -138 141 -135 141 3 1 -10 4 -29 8 -38
6 -46 24 -35 68 l6 26 37 -34 37 -34 -37 40 c-21 23 -38 44 -38 48 0 4 17 8
38 9 36 1 36 1 5 5 -25 3 -33 9 -33 24 0 10 -7 19 -15 19 -13 0 -15 65 -15
526 0 457 2 528 15 538 13 10 13 21 1 88 l-13 77 131 4 c100 2 88 3 -49 3 -99
0 -161 -1 -137 -3z m38 -1470 c-6 -14 -11 -12 -34 8 l-27 24 22 -26 23 -25
-28 -27 -28 -27 -25 26 -24 26 40 34 c47 39 79 47 83 21 2 -10 1 -26 -2 -34z
m44 43 c0 -2 -7 -9 -15 -16 -12 -10 -15 -10 -15 4 0 9 7 16 15 16 8 0 15 -2
15 -4z m171 -143 l148 -146 -35 -36 -34 -36 -37 38 -37 37 34 37 35 38 -37
-34 c-33 -30 -39 -33 -55 -20 -17 13 -17 13 -4 -4 13 -16 12 -21 -12 -44 -23
-24 -28 -25 -44 -12 -16 13 -17 13 -4 -4 12 -15 11 -21 -10 -43 -12 -13 -29
-22 -36 -20 -7 3 -10 0 -7 -7 2 -7 -7 -24 -20 -36 -21 -20 -28 -22 -41 -11
-13 11 -15 8 -15 -18 0 -33 -22 -58 -41 -46 -8 5 -9 3 -4 -5 9 -16 -34 -63
-53 -56 -7 3 -10 0 -6 -6 3 -6 -4 -21 -17 -35 -18 -20 -25 -22 -38 -11 -14 10
-14 10 -4 -4 11 -13 9 -20 -11 -38 -14 -13 -29 -20 -35 -17 -6 4 -9 1 -6 -6 3
-8 -6 -25 -19 -37 -22 -21 -28 -22 -43 -10 -16 13 -17 12 -4 -4 12 -15 11 -21
-10 -43 -12 -13 -28 -23 -34 -20 -7 2 -18 0 -26 -5 -11 -7 -10 -9 5 -9 18 0
17 -3 -9 -30 -15 -16 -33 -27 -38 -23 -6 3 -7 2 -4 -4 8 -13 -39 -57 -52 -49
-6 4 -9 1 -6 -6 7 -17 -40 -62 -54 -54 -6 4 -9 1 -6 -6 7 -19 -40 -62 -56 -53
-8 5 -10 4 -5 -4 4 -6 2 -20 -6 -29 -12 -15 -11 -16 5 -3 16 13 22 11 54 -22
33 -32 35 -38 22 -54 -13 -17 -13 -17 4 -4 15 12 21 11 45 -10 l27 -24 -24 28
-25 28 27 26 26 27 28 -25 28 -24 -24 28 -25 28 27 26 c26 27 26 27 49 7 l23
-19 -19 23 c-19 22 -19 22 4 47 l24 25 25 -22 26 -23 -22 26 -23 25 30 29 30
29 27 -25 28 -24 -24 28 -25 28 27 26 c26 27 26 27 49 7 l23 -19 -20 25 c-11
14 -21 27 -22 28 -1 2 -15 -11 -32 -30 l-30 -33 -38 38 -38 37 35 1 c34 1 34
2 6 8 l-28 6 21 19 c20 18 22 18 41 1 11 -10 17 -22 13 -28 -3 -5 -1 -7 5 -3
6 3 13 2 16 -2 3 -5 15 -8 28 -6 13 1 41 3 62 3 39 1 39 1 21 21 -18 20 -18
21 5 45 l24 25 25 -22 26 -23 -23 26 -22 25 23 22 c28 26 37 28 37 5 0 -9 3
-13 7 -10 3 4 13 1 22 -5 12 -10 12 -8 -1 8 -23 27 -23 47 2 69 19 17 21 17
43 -1 l22 -19 -19 23 -20 23 57 56 56 57 23 -20 23 -19 -19 23 c-20 23 -20 23
7 49 26 27 26 27 49 7 l23 -19 -19 23 c-20 23 -20 23 7 49 26 27 26 27 49 7
l23 -19 -19 23 -20 23 36 36 37 36 141 -139 c115 -114 140 -143 135 -161 -3
-12 -1 -25 5 -28 6 -3 10 4 10 16 l0 22 26 -24 c36 -33 74 -116 74 -163 0 -29
-3 -37 -15 -33 -8 4 -17 2 -20 -3 -4 -6 3 -10 14 -10 16 0 21 -6 21 -28 0 -49
-30 -118 -66 -153 l-35 -34 6 60 c3 33 8 72 10 87 2 15 -1 28 -8 31 -9 3 -11
-12 -9 -57 l3 -61 -26 29 c-14 15 -28 26 -30 24 -3 -2 8 -16 23 -31 39 -38 33
-82 -19 -133 l-39 -38 -45 44 c-25 24 -45 41 -45 37 0 -3 19 -24 43 -46 l42
-40 -28 -28 -28 -28 -45 48 c-25 26 -49 47 -52 47 -3 0 16 -23 43 -50 l49 -50
-27 -28 -28 -27 -40 43 c-22 23 -43 42 -46 42 -4 0 13 -20 37 -45 l44 -45 -52
-52 -52 -52 -45 44 c-25 24 -45 41 -45 37 0 -3 19 -24 43 -46 l42 -40 -28 -28
-28 -28 -45 48 c-25 26 -49 47 -52 47 -3 0 16 -23 43 -50 l49 -50 -27 -28 -28
-27 -40 43 c-22 23 -43 42 -46 42 -4 0 13 -20 37 -45 l44 -45 -24 -25 -24 -25
-50 47 -51 48 43 -45 c23 -25 42 -50 41 -55 -2 -17 -84 -83 -112 -90 -27 -7
-27 -7 -27 44 0 28 3 51 7 51 4 0 23 -15 43 -32 23 -22 20 -16 -10 15 -48 51
-52 54 -49 35 1 -7 1 -33 0 -58 l-1 -45 -25 28 c-14 15 -29 27 -32 27 -4 0 8
-16 27 -35 36 -38 24 -48 -21 -17 -47 30 -579 554 -579 569 0 8 -4 12 -9 9
-23 -15 -88 97 -98 169 -4 35 -3 45 8 45 11 0 11 2 -1 10 -12 8 -8 17 28 52
l42 43 -1 -70 c-1 -64 -4 -73 -33 -105 l-31 -35 33 29 32 30 2 -45 1 -44 6 48
6 48 35 -35 34 -36 -28 -28 c-19 -18 -30 -23 -33 -14 -8 22 -18 13 -18 -18 0
-16 3 -30 8 -30 4 0 7 5 7 11 0 6 7 9 14 6 9 -4 13 -1 10 6 -6 18 41 61 57 52
8 -6 10 -4 4 4 -9 15 43 73 58 64 6 -3 7 -1 4 4 -9 15 29 46 61 51 35 4 42 12
12 12 l-23 0 23 25 c19 20 26 23 39 12 14 -10 14 -10 4 4 -11 13 -8 20 15 42
23 22 31 25 42 14 12 -10 12 -9 2 4 -9 13 -7 21 16 42 16 15 32 24 37 20 4 -5
5 -3 2 3 -6 10 44 68 54 62 2 -2 3 -1 1 1 -1 3 10 17 25 33 22 23 29 26 42 15
14 -10 14 -10 4 4 -11 13 -8 20 15 42 16 15 32 24 37 20 4 -5 5 -3 2 3 -3 6
13 30 37 53 38 37 45 41 49 25 3 -13 5 -9 6 10 1 25 3 27 19 15 14 -11 15 -11
5 1 -11 11 -8 19 14 42 22 23 29 26 42 15 14 -10 14 -10 4 4 -11 13 -8 20 15
42 16 15 30 26 33 25 2 -2 3 -1 1 1 -1 3 14 23 35 45 l38 41 -40 -37 -39 -38
-38 37 -38 37 37 41 38 40 -41 -38 -40 -37 -22 23 c-28 30 -28 64 0 94 12 13
24 23 26 23 3 0 72 -66 153 -147z m-209 54 c1 -14 5 -24 8 -22 4 2 32 -22 63
-53 l57 -58 -60 -59 -60 -59 -1 29 c0 22 -2 25 -7 12 -7 -16 -10 -15 -35 11
l-27 28 30 29 30 29 1 -25 c0 -13 3 -18 6 -11 4 10 14 6 37 -15 l31 -28 -32
35 c-39 43 -40 46 -10 79 21 25 21 25 0 8 -21 -19 -22 -18 -26 10 -3 22 -4 20
-6 -11 l-1 -39 -27 23 -28 24 22 -24 23 -24 -27 -28 -27 -28 -25 22 -26 22 22
-24 23 -24 -52 -53 -52 -53 -31 28 -30 27 28 -31 27 -30 -28 -27 -28 -27 -24
23 -24 22 22 -26 22 -25 -28 -27 -28 -27 -24 23 -24 22 22 -26 22 -25 -28 -27
-28 -27 -24 23 -24 22 22 -26 22 -25 -28 -27 -28 -27 -24 23 -24 22 22 -26 22
-25 -28 -27 -28 -27 -22 20 -22 20 20 -22 20 -22 -27 -28 -27 -28 -30 27 -31
28 27 -30 28 -31 -22 -22 -22 -22 -31 28 -30 27 27 -31 c30 -32 24 -54 -14
-54 -15 0 -18 9 -18 52 l0 53 322 322 c177 177 323 321 325 319 2 -1 4 -14 5
-29z m-104 -10 l21 -23 -204 -204 -205 -205 -25 26 -25 25 30 29 30 29 27 -25
28 -24 -24 28 -25 27 22 22 22 22 27 -25 28 -24 -24 28 -25 28 27 26 26 27 28
-25 28 -24 -24 27 c-14 16 -22 30 -20 32 3 3 26 6 52 7 l47 3 -22 23 -22 23
57 57 57 57 27 -25 28 -24 -24 28 -24 27 23 25 c29 31 31 31 58 2z m-242 -155
c-18 -16 -19 -16 -12 1 3 10 6 24 6 30 0 8 4 7 12 -1 10 -9 8 -16 -6 -30z m54
-17 c11 -13 8 -15 -20 -15 -28 0 -31 2 -20 15 7 8 16 15 20 15 4 0 13 -7 20
-15z m700 0 c10 -12 10 -15 -4 -15 -9 0 -16 7 -16 15 0 8 2 15 4 15 2 0 9 -7
16 -15z m-410 -69 c0 -14 -441 -456 -454 -456 -6 0 -26 15 -46 33 l-35 32 34
-37 c35 -38 35 -38 10 -39 l-24 -1 23 -6 c22 -7 20 -9 -28 -57 l-51 -50 -40
42 c-39 42 -48 63 -28 63 5 0 7 -6 3 -12 -6 -10 -4 -10 7 0 21 19 70 14 98
-10 22 -20 23 -20 8 -2 -9 11 -15 24 -12 27 3 4 2 5 -2 2 -3 -3 -15 2 -25 12
-11 9 -18 11 -18 5 0 -7 -6 -12 -12 -12 -7 0 108 121 257 270 l269 270 33 -32
c18 -18 33 -37 33 -42z m250 9 l34 -35 -27 -27 -27 -28 -37 37 -37 37 24 26
c13 14 26 25 30 25 3 0 21 -16 40 -35z m-775 -105 l-29 -30 -22 21 c-21 20
-22 22 -7 66 l16 45 35 -36 36 -36 -29 -30z m715 45 l34 -35 -27 -27 -27 -28
-37 37 -37 37 24 26 c13 14 26 25 30 25 3 0 21 -16 40 -35z m-60 -60 l34 -35
-57 -57 c-56 -56 -57 -56 -77 -38 -16 15 -20 29 -19 66 2 27 6 46 9 44 4 -2
20 9 35 25 16 17 32 30 35 30 3 0 21 -16 40 -35z m-652 -111 l-26 -27 -29 27
-28 27 30 24 30 25 25 -25 25 -25 -27 -26z m522 34 c0 -16 -3 -19 -11 -11 -6
6 -8 16 -5 22 11 17 16 13 16 -11z m9 -43 c29 -30 32 -37 20 -51 -12 -15 -14
-14 -20 7 -6 21 -7 20 -8 -8 -1 -18 -5 -33 -9 -33 -4 0 -23 16 -42 35 l-34 35
24 25 c13 14 26 25 29 25 3 0 21 -16 40 -35z m-604 15 c3 -5 -3 -10 -15 -10
-12 0 -18 5 -15 10 3 6 10 10 15 10 5 0 12 -4 15 -10z m31 -31 c7 -13 -75
-101 -88 -93 -4 3 -8 -1 -8 -8 0 -8 -18 -32 -40 -53 -33 -32 -40 -35 -40 -20
2 54 66 170 98 178 33 9 71 7 78 -4z m514 -44 l34 -35 -52 -53 -52 -52 -37 38
-37 37 49 50 c27 27 52 50 55 50 3 0 21 -16 40 -35z m-110 -110 c28 -29 31
-37 20 -50 -19 -23 -63 -18 -90 10 l-23 25 23 25 c13 14 26 25 30 25 3 0 21
-16 40 -35z m50 -55 c0 -5 -7 -10 -16 -10 -8 0 -12 5 -9 10 3 6 10 10 16 10 5
0 9 -4 9 -10z m-170 -65 l34 -35 -57 -58 -57 -57 -37 38 -37 37 54 55 c30 30
57 55 60 55 3 0 21 -16 40 -35z m-120 -120 l34 -35 -27 -27 -27 -28 -37 37
-37 37 24 26 c13 14 26 25 30 25 3 0 21 -16 40 -35z m-60 -60 l34 -35 -27 -27
-27 -28 -37 37 -37 37 24 26 c13 14 26 25 30 25 3 0 21 -16 40 -35z"/>
<path d="M5415 2200 c44 -44 82 -80 85 -80 2 0 -31 36 -75 80 -44 44 -82 80
-85 80 -2 0 31 -36 75 -80z"/>
<path d="M5355 2140 c44 -44 82 -80 85 -80 2 0 -31 36 -75 80 -44 44 -82 80
-85 80 -2 0 31 -36 75 -80z"/>
<path d="M5230 2161 c0 -4 35 -40 77 -81 43 -41 62 -58 43 -37 -57 63 -120
125 -120 118z"/>
<path d="M5590 2034 c36 -40 67 -72 71 -73 6 -1 0 101 -7 108 -2 2 -4 -15 -4
-40 l0 -43 -62 59 -63 60 65 -71z"/>
<path d="M5176 1968 l74 -73 61 3 c76 5 69 16 -10 15 l-59 -1 -63 64 c-35 35
-66 64 -70 64 -4 0 26 -33 67 -72z"/>
<path d="M5519 1978 c29 -31 50 -61 47 -67 -4 -6 0 -11 11 -11 11 0 25 -6 32
-12 11 -11 12 -10 6 1 -6 11 -1 13 24 9 26 -4 31 -1 31 16 0 15 -3 17 -12 8
-27 -27 -62 -13 -128 51 -64 61 -64 61 -11 5z"/>
<path d="M5083 1954 c27 -30 35 -43 25 -47 -8 -3 -6 -6 7 -6 10 -1 37 -18 60
-38 l40 -38 -34 38 -35 37 34 0 c42 0 36 7 -10 11 -24 2 -49 15 -80 43 l-45
41 38 -41z"/>
<path d="M5429 1947 c26 -28 31 -32 31 -19 0 4 -13 16 -28 26 l-27 19 24 -26z"/>
<path d="M4988 1940 c-2 -16 -12 -27 -28 -31 l-25 -7 27 -1 c21 -1 28 -7 31
-28 l4 -28 2 28 c0 15 4 27 8 27 4 0 39 -30 78 -67 l70 -68 -65 68 c-37 39
-58 67 -50 68 8 0 3 5 -13 11 -15 5 -25 13 -23 17 3 4 1 13 -4 21 -6 10 -9 7
-12 -10z"/>
<path d="M5420 1910 c-11 -7 -6 -10 20 -10 26 0 44 -10 79 -42 25 -24 37 -32
26 -18 -11 14 -29 31 -39 39 -19 14 -19 15 0 22 17 7 16 8 -6 9 -14 1 -34 3
-45 5 -11 2 -27 0 -35 -5z"/>
<path d="M4968 1839 c17 -20 22 -38 22 -84 l0 -59 -62 59 -63 60 65 -71 c36
-38 74 -76 85 -83 20 -14 20 -14 0 8 -13 16 -18 34 -16 59 4 57 18 62 57 20
19 -21 34 -34 34 -30 0 4 -33 39 -72 77 -40 39 -62 58 -50 44z"/>
<path d="M5351 1802 c30 -31 65 -66 79 -76 14 -10 -9 16 -50 58 -87 89 -108
102 -29 18z"/>
<path d="M5230 1807 c0 -1 35 -36 78 -77 l77 -75 -75 78 c-69 71 -80 82 -80
74z"/>
<path d="M4885 1670 c44 -44 82 -80 85 -80 2 0 -31 36 -75 80 -44 44 -82 80
-85 80 -2 0 31 -36 75 -80z"/>
<path d="M5245 1672 c38 -40 71 -72 73 -72 6 0 -16 25 -58 68 -73 72 -84 75
-15 4z"/>
<path d="M5141 1664 c46 -50 112 -114 118 -114 3 0 -26 32 -64 70 -67 68 -104
97 -54 44z"/>
<path d="M4835 1612 c38 -40 71 -72 73 -72 8 0 -63 75 -103 109 -22 19 -9 2
30 -37z"/>
<path d="M4992 1596 c-1 -33 1 -56 5 -52 4 3 39 -24 77 -61 l71 -68 -72 75
c-64 67 -72 80 -76 120 -3 40 -4 39 -5 -14z"/>
<path d="M4735 1588 c87 -87 118 -110 45 -35 -41 42 -77 77 -81 77 -3 0 13
-19 36 -42z"/>
<path d="M5125 1560 c38 -38 72 -70 74 -70 3 0 -26 32 -64 70 -38 39 -72 70
-74 70 -3 0 26 -31 64 -70z"/>
<path d="M4631 1568 c3 -2 40 -37 84 -78 l80 -75 -75 78 c-41 42 -79 77 -84
77 -5 0 -7 -1 -5 -2z"/>
<path d="M5330 1468 c24 -27 45 -48 47 -48 8 0 0 9 -44 50 l-48 45 45 -47z"/>
<path d="M4655 1430 c38 -38 72 -70 74 -70 3 0 -26 32 -64 70 -38 39 -72 70
-74 70 -3 0 26 -31 64 -70z"/>
<path d="M4963 1474 c15 -17 28 -43 28 -60 2 -25 2 -26 6 -5 5 23 5 23 46 -15
23 -22 35 -30 27 -19 -8 11 -27 30 -42 43 -19 16 -28 34 -29 55 -1 18 -3 24
-6 15 -6 -22 -11 -22 -37 -1 -12 10 -9 4 7 -13z"/>
<path d="M4901 1423 c13 -14 39 -40 57 -56 28 -26 32 -36 34 -86 l2 -56 3 48
c4 44 6 47 21 36 9 -7 -17 22 -58 64 -71 74 -110 107 -59 50z"/>
<path d="M4820 1397 c0 -1 35 -36 78 -77 l77 -75 -75 78 c-69 71 -80 82 -80
74z"/>
<path d="M4760 1337 c0 -1 35 -36 78 -77 l77 -75 -75 78 c-69 71 -80 82 -80
74z"/>
<path d="M4850 2305 c19 -19 36 -35 39 -35 3 0 -10 16 -29 35 -19 19 -36 35
-39 35 -3 0 10 -16 29 -35z"/>
<path d="M4790 2245 c19 -19 36 -35 39 -35 3 0 -10 16 -29 35 -19 19 -36 35
-39 35 -3 0 10 -16 29 -35z"/>
<path d="M4730 2185 c19 -19 36 -35 39 -35 3 0 -10 16 -29 35 -19 19 -36 35
-39 35 -3 0 10 -16 29 -35z"/>
<path d="M4670 2125 c19 -19 36 -35 39 -35 3 0 -10 16 -29 35 -19 19 -36 35
-39 35 -3 0 10 -16 29 -35z"/>
<path d="M4610 2065 c19 -19 36 -35 39 -35 3 0 -10 16 -29 35 -19 19 -36 35
-39 35 -3 0 10 -16 29 -35z"/>
<path d="M4550 2005 c19 -19 36 -35 39 -35 3 0 -10 16 -29 35 -19 19 -36 35
-39 35 -3 0 10 -16 29 -35z"/>
<path d="M4341 2084 c1 -24 3 -30 6 -16 4 20 7 21 21 10 12 -9 11 -5 -3 12
-11 14 -21 27 -22 29 -2 2 -2 -13 -2 -35z"/>
<path d="M4880 2035 c19 -19 36 -35 39 -35 3 0 -10 16 -29 35 -19 19 -36 35
-39 35 -3 0 10 -16 29 -35z"/>
<path d="M4640 1795 c19 -19 36 -35 39 -35 3 0 -10 16 -29 35 -19 19 -36 35
-39 35 -3 0 10 -16 29 -35z"/>
<path d="M1140 3599 l-45 -6 39 -1 39 -2 -7 -51 c-4 -29 -10 -65 -13 -80 -4
-22 -2 -29 11 -29 15 0 16 -42 16 -460 0 -418 -1 -460 -16 -460 -13 0 -15 -7
-11 -29 3 -15 9 -51 13 -80 l7 -51 -132 0 -131 0 0 -154 0 -154 -36 -27 c-28
-21 -50 -29 -101 -33 l-66 -5 7 44 c17 109 19 129 7 129 -8 0 -11 141 -11 530
0 389 3 530 11 530 12 0 10 20 -7 127 l-6 42 128 4 c96 2 83 3 -51 3 -99 0
-160 -1 -136 -3 l44 -4 -6 -42 c-3 -23 -9 -61 -13 -84 -5 -36 -4 -43 10 -43
15 0 16 -47 16 -526 0 -470 -2 -528 -16 -538 -14 -10 -14 -20 -5 -71 19 -104
36 -95 -174 -95 l-184 0 5 28 c2 15 9 50 14 77 7 39 6 52 -5 61 -9 7 -15 37
-18 90 l-3 79 -2 -81 c-1 -59 -6 -83 -16 -87 -11 -4 -12 -16 -5 -54 22 -125
25 -111 -23 -116 l-43 -4 43 -1 42 -2 0 -59 0 -60 -42 -4 -43 -4 43 -1 c48 -2
46 11 23 -115 -6 -36 -5 -49 5 -55 9 -5 14 -34 17 -87 l3 -80 2 83 c2 66 5 82
17 82 12 0 15 7 10 33 -3 17 -9 54 -14 82 -5 27 -8 51 -7 53 2 1 119 -1 261
-4 l258 -7 33 -29 33 -30 3 -150 3 -150 149 1 149 2 196 -195 c276 -274 251
-274 535 0 l201 194 143 0 142 0 0 -365 0 -364 -27 5 c-146 26 -143 26 -143
-13 0 -28 -2 -28 127 -7 l42 6 4 -43 c2 -24 4 208 5 517 l2 561 23 20 c42 39
62 43 221 43 92 0 157 4 161 10 9 14 -295 13 -332 -1 -15 -6 -38 -20 -50 -31
l-23 -21 0 56 0 56 38 4 37 4 -37 1 -38 2 0 55 0 55 39 -26 c39 -25 43 -26
202 -25 90 1 165 4 168 6 2 3 -64 5 -147 5 -161 0 -191 6 -234 48 l-28 26 0
148 0 148 -152 0 -152 0 -191 189 c-158 157 -197 191 -231 200 -72 19 -96 3
-308 -201 -107 -104 -200 -188 -206 -188 -8 0 -11 10 -7 29 16 78 19 131 8
131 -8 0 -11 125 -11 460 0 335 3 460 11 460 11 0 8 53 -8 131 l-5 28 128 3
129 3 -130 5 c-71 3 -150 2 -175 -1z m539 -964 c2 6 2 30 1 53 -2 42 0 43 22
37 29 -10 66 -35 97 -69 l25 -27 -70 -70 -69 -70 -6 53 -6 53 -1 -60 c-2 -59
-3 -60 -64 -122 l-62 -63 -151 0 -150 0 170 170 c94 95 188 179 210 190 l40
20 6 -52 c3 -29 7 -48 8 -43z m266 -124 l106 -104 -27 -28 c-26 -27 -33 -29
-103 -29 l-75 0 64 68 65 67 -70 -67 -71 -68 -64 0 -65 0 100 103 100 102
-105 -102 c-58 -57 -109 -103 -113 -103 -4 0 -8 19 -9 43 l-1 42 -4 -42 -4
-43 -57 0 -56 0 54 55 c29 30 58 51 64 48 6 -3 7 -2 3 2 -8 9 142 167 155 163
3 -2 54 -50 113 -107z m145 -136 l23 -25 -53 0 -53 0 23 25 c13 14 26 25 30
25 4 0 17 -11 30 -25z m-1000 -80 l34 -35 -37 -37 -37 -38 -60 60 c-33 33 -60
65 -60 72 0 9 18 13 63 13 59 0 65 -2 97 -35z m72 3 l-32 -33 -32 33 -33 32
65 0 65 0 -33 -32z m236 -11 l42 -43 -36 -34 -35 -35 -38 40 c-21 22 -56 56
-77 75 -22 19 -5 0 36 -43 l75 -77 -35 -35 -35 -35 -75 75 -74 75 39 40 c38
39 41 40 105 40 64 0 67 -1 108 -43z m112 35 c0 -4 -15 -22 -33 -40 l-33 -32
-39 40 -39 40 72 0 c40 0 72 -4 72 -8z m290 0 c0 -3 -14 -21 -32 -39 l-32 -33
-36 35 -36 35 -34 -35 -34 -35 -33 32 c-18 18 -33 35 -33 39 0 4 61 8 135 8
74 0 135 -3 135 -7z m300 -1 c0 -4 -15 -21 -33 -39 l-33 -32 -34 35 -34 35
-38 -37 -38 -37 -35 34 c-19 19 -35 37 -35 41 0 5 63 8 140 8 77 0 140 -4 140
-8z m163 -120 c70 -71 127 -135 127 -142 0 -8 -61 47 -135 121 -74 74 -135
138 -135 142 0 20 24 -1 143 -121z m157 119 c-8 -5 -9 -10 -1 -14 7 -5 10 -48
10 -122 l-1 -115 -107 102 c-58 56 -119 115 -136 131 l-30 29 139 -2 c76 0
133 -4 126 -9z m-862 -43 l32 -33 -35 -34 -35 -34 -37 35 -38 34 34 -37 35
-38 -34 -35 -34 -35 -35 35 -36 35 70 70 c38 38 72 70 75 70 3 0 20 -15 38
-33z m150 -55 l-23 -24 -6 39 c-6 37 -6 37 -8 -11 l-1 -50 -37 35 -38 34 33
-36 32 -35 -35 -34 -35 -34 -32 32 -33 32 69 69 69 69 33 -31 34 -30 -22 -25z
m142 53 l34 -35 -34 -35 -34 -35 -41 37 -40 38 38 -40 37 -41 -33 -32 -33 -32
-32 33 c-18 18 -32 37 -32 42 0 10 121 135 130 135 3 0 21 -16 40 -35z m145
-64 l-35 -36 -32 33 -32 32 34 35 34 35 33 -32 33 -32 -35 -35z m254 -36 c97
-98 137 -132 146 -125 9 7 16 6 25 -5 9 -10 9 -15 1 -15 -6 0 -11 5 -11 11 0
5 -5 7 -11 4 -7 -5 -5 -15 5 -31 19 -28 22 -104 4 -105 -10 0 -10 -2 0 -6 6
-2 12 -12 12 -21 0 -10 -83 65 -192 173 l-193 190 185 -190 c102 -104 188
-191 193 -193 12 -6 8 -34 -11 -75 l-17 -38 -75 76 -74 75 59 1 c42 1 52 3 35
8 -14 4 -41 4 -62 1 -36 -7 -38 -6 -169 126 l-134 134 70 70 c38 38 72 70 75
70 3 0 65 -61 139 -135z m-1262 -52 l-57 -56 0 114 0 114 57 -58 58 -57 -58
-57z m231 44 l72 -73 -38 -37 -38 -37 -74 75 -74 75 34 35 c19 19 37 35 40 35
3 0 38 -33 78 -73z m707 33 l29 -30 -34 -35 -34 -35 -35 32 -36 33 32 -35 33
-34 -32 -33 -32 -33 -33 32 -33 32 67 68 c37 37 70 68 73 68 4 0 19 -14 35
-30z m-251 -52 c-4 -6 -3 -8 3 -5 5 3 37 -22 71 -56 l62 -63 -35 -34 -35 -34
-32 32 -32 32 34 37 c35 38 35 38 3 9 l-33 -30 -2 45 -1 44 -6 -48 -6 -48 -34
35 -35 36 34 35 c30 31 60 40 44 13z m-536 -61 l72 -73 -54 -53 c-53 -52 -56
-54 -100 -49 -26 3 -49 2 -52 -3 -3 -5 16 -9 43 -9 l47 0 -49 -50 -49 -50 -33
32 c-35 33 -44 68 -18 68 8 0 15 4 15 10 0 5 -7 7 -15 4 -12 -5 -15 2 -15 29
0 20 5 39 10 42 7 4 6 13 -1 26 -5 11 -8 25 -5 32 2 7 5 3 6 -8 1 -16 4 -15
18 11 18 32 91 114 101 114 4 0 39 -33 79 -73z m270 40 l32 -33 -35 -34 -35
-34 -37 35 -38 34 35 -38 34 -37 -37 -37 -37 -37 -37 34 -38 35 34 -37 c30
-32 32 -39 20 -54 -10 -12 -25 -15 -61 -12 -26 3 -48 1 -48 -3 0 -5 19 -9 42
-9 l43 0 -87 -87 -88 -87 -35 34 -35 34 182 183 c101 101 185 183 188 183 4 0
20 -15 38 -33z m147 3 l29 -30 -34 -35 -34 -35 -35 32 -36 33 33 -36 32 -35
-35 -34 -35 -34 -32 32 -33 32 70 70 c38 38 72 70 75 70 4 0 19 -14 35 -30z
m620 -180 l210 -210 -35 -35 -35 -35 -115 115 -115 115 60 1 c41 0 54 3 40 8
-11 5 -38 5 -60 1 -40 -7 -40 -7 -140 89 -150 145 -113 105 118 -126 l207
-209 -33 -32 -33 -32 -149 150 -150 150 49 0 c27 0 46 3 43 7 -4 3 -28 5 -54
4 -45 -1 -50 2 -108 56 -33 32 36 -39 153 -157 l212 -216 -35 -34 -35 -34
-185 184 -185 185 47 6 c53 6 40 12 -22 9 -30 -1 -46 4 -60 20 -19 21 -19 21
85 125 58 58 107 105 110 105 3 0 99 -95 215 -210z m-545 105 l34 -35 -34 -35
-34 -35 -41 37 -40 38 38 -41 c36 -39 37 -41 19 -57 -26 -24 -84 -22 -107 3
-18 20 -18 22 50 90 38 39 72 70 75 70 3 0 21 -16 40 -35z m-720 -90 l0 -55
-32 -2 -33 -1 33 -4 c31 -4 32 -5 32 -54 l0 -50 -32 23 c-32 22 -39 23 -295
26 l-263 3 0 60 0 60 254 -1 c212 -1 260 1 285 14 16 9 33 20 36 26 12 19 15
10 15 -45z m495 15 c28 -29 28 -30 10 -50 -21 -24 -72 -27 -101 -6 -18 14 -18
16 15 50 19 20 38 36 41 36 3 0 19 -13 35 -30z m300 0 c28 -29 28 -30 10 -50
-25 -27 -35 -25 -36 8 l-2 27 -4 -27 c-5 -32 -27 -36 -57 -10 -20 16 -20 16
-6 -3 8 -11 23 -27 33 -35 17 -14 16 -17 -18 -50 l-35 -34 -32 31 c-27 27 -29
34 -18 47 7 9 19 16 28 16 8 0 12 3 8 7 -6 6 82 103 94 103 4 0 19 -13 35 -30z
m-226 -76 l35 -35 -37 -37 -37 -37 -37 37 c-31 31 -35 39 -24 52 8 9 20 16 29
16 8 0 12 3 9 7 -7 6 11 33 22 33 3 0 21 -16 40 -36z m476 -174 c261 -261 262
-247 -9 -248 l-184 0 -41 35 c-37 32 -41 39 -43 86 -1 44 -2 46 -5 15 -2 -21
-7 -38 -11 -38 -4 0 -38 32 -77 70 l-69 70 37 37 37 37 152 -151 c84 -84 154
-151 155 -149 2 1 -46 51 -105 110 -105 104 -109 109 -111 154 -2 59 -11 69
-11 11 l0 -44 -37 38 -38 37 35 35 35 34 190 -189 c104 -104 191 -188 192
-186 2 1 -81 85 -182 187 -102 101 -184 190 -183 198 2 9 14 18 28 22 14 4 19
7 11 8 -11 1 -11 4 -1 16 7 8 15 15 19 15 3 0 100 -94 216 -210z m-630 169
l29 -30 -107 -107 -107 -107 -32 33 -33 32 105 105 c58 58 107 105 110 105 3
-1 18 -14 35 -31z m47 -11 c-9 -9 -15 -9 -24 0 -9 9 -7 12 12 12 19 0 21 -3
12 -12z m160 0 c-9 -9 -15 -9 -24 0 -9 9 -7 12 12 12 19 0 21 -3 12 -12z m138
2 c0 -5 -2 -10 -4 -10 -3 0 -8 5 -11 10 -3 6 -1 10 4 10 6 0 11 -4 11 -10z
m-270 -65 l34 -35 -107 -108 -107 -107 -37 38 -38 37 105 105 c58 58 107 105
110 105 4 0 21 -16 40 -35z m155 5 l29 -30 -37 -38 -37 -37 -32 33 -32 32 34
35 c19 19 37 35 40 35 3 0 19 -14 35 -30z m-510 -130 l-18 -20 -24 21 c-30 29
-38 56 -21 77 12 15 11 16 -4 4 -14 -11 -18 -10 -28 5 -10 16 -11 15 -6 -6 3
-15 1 -20 -5 -14 -5 5 -6 24 -3 42 l7 33 60 -61 c60 -59 61 -60 42 -81z m430
50 l29 -31 -107 -107 -107 -107 -32 33 -33 32 105 105 c58 58 107 105 110 105
4 0 19 -14 35 -30z m-318 -225 c35 -32 40 -45 21 -45 -18 0 -248 232 -248 249
0 8 44 -28 98 -79 53 -52 111 -108 129 -125z m1262 128 l2 -88 -48 45 -48 45
48 -50 c39 -42 47 -57 47 -88 0 -34 -2 -37 -27 -37 -19 0 -44 16 -83 53 l-55
52 50 -52 49 -53 -71 0 c-52 0 -74 4 -84 16 -11 14 2 31 102 130 63 62 115
114 115 114 1 0 2 -39 3 -87z m-1314 27 c28 -30 28 -30 9 -52 l-19 -23 23 19
23 20 36 -37 37 -36 -20 -23 -19 -23 23 19 c22 19 22 19 48 -5 44 -41 47 -55
12 -57 -26 -2 -44 11 -129 95 -93 91 -98 98 -82 115 21 24 24 23 58 -12z m519
-80 c85 -86 105 -111 92 -116 -9 -3 -23 -1 -31 6 -8 7 -15 8 -15 3 0 -14 -201
-14 -218 -1 -9 8 -16 8 -24 0 -15 -15 -115 -16 -124 -1 -6 10 191 219 206 219
3 0 54 -49 114 -110z m-484 -112 c0 -5 -28 -8 -62 -8 -60 0 -64 2 -105 42 -43
42 -43 43 -43 112 l0 71 105 -105 c58 -58 105 -108 105 -112z m-150 0 c0 -4
-13 -8 -30 -8 -28 0 -30 3 -30 37 l0 37 30 -29 c17 -16 30 -32 30 -37z m1205
2 c3 -5 -3 -10 -15 -10 -12 0 -18 5 -15 10 3 6 10 10 15 10 5 0 12 -4 15 -10z
m-523 -63 l1 -42 4 43 4 42 216 0 217 -1 -115 -115 c-162 -164 -261 -252 -292
-259 -26 -7 -26 -6 -25 39 0 26 -2 50 -6 53 -3 4 -6 -17 -6 -45 0 -55 -7 -61
-46 -39 -33 18 -374 354 -367 360 3 4 97 6 209 7 l204 0 2 -43z"/>
<path d="M408 1903 c18 -2 45 -2 60 0 15 2 0 4 -33 4 -33 0 -45 -2 -27 -4z"/>
<path d="M558 1903 c18 -2 45 -2 60 0 15 2 0 4 -33 4 -33 0 -45 -2 -27 -4z"/>
<path d="M718 1903 c18 -2 45 -2 60 0 15 2 0 4 -33 4 -33 0 -45 -2 -27 -4z"/>
<path d="M1673 1285 c0 -33 2 -45 4 -27 2 18 2 45 0 60 -2 15 -4 0 -4 -33z"/>
<path d="M4912 3555 l-23 -12 22 -6 c24 -7 52 9 43 24 -7 11 -13 10 -42 -6z"/>
<path d="M4912 3500 c0 -14 2 -19 5 -12 2 6 2 18 0 25 -3 6 -5 1 -5 -13z"/>
<path d="M4931 3494 c0 -11 3 -14 6 -6 3 7 2 16 -1 19 -3 4 -6 -2 -5 -13z"/>
<path d="M4923 3453 c9 -2 23 -2 30 0 6 3 -1 5 -18 5 -16 0 -22 -2 -12 -5z"/>
<path d="M4799 3393 c-12 -16 -12 -17 1 -6 9 7 43 14 75 16 l60 3 -61 2 c-48
2 -65 -2 -75 -15z"/>
<path d="M4950 3350 l0 -30 -79 0 c-68 0 -80 3 -84 18 -3 13 -4 12 -3 -3 1
-18 9 -20 89 -23 l87 -3 0 36 c0 19 -2 35 -5 35 -3 0 -5 -13 -5 -30z"/>
<path d="M4511 3234 c0 -11 3 -14 6 -6 3 7 2 16 -1 19 -3 4 -6 -2 -5 -13z"/>
<path d="M4535 3240 c3 -5 8 -10 11 -10 2 0 4 5 4 10 0 6 -5 10 -11 10 -5 0
-7 -4 -4 -10z"/>
<path d="M4541 3184 c0 -11 3 -14 6 -6 3 7 2 16 -1 19 -3 4 -6 -2 -5 -13z"/>
<path d="M4561 3184 c0 -11 3 -14 6 -6 3 7 2 16 -1 19 -3 4 -6 -2 -5 -13z"/>
<path d="M5312 3180 c0 -14 2 -19 5 -12 2 6 2 18 0 25 -3 6 -5 1 -5 -13z"/>
<path d="M5281 3174 c0 -11 3 -14 6 -6 3 7 2 16 -1 19 -3 4 -6 -2 -5 -13z"/>
<path d="M4543 3143 c9 -2 23 -2 30 0 6 3 -1 5 -18 5 -16 0 -22 -2 -12 -5z"/>
<path d="M5293 3143 c9 -2 23 -2 30 0 6 3 -1 5 -18 5 -16 0 -22 -2 -12 -5z"/>
<path d="M4427 3082 c-10 -10 -17 -33 -17 -50 l0 -32 90 0 90 0 -1 28 c-2 23
-2 24 -6 5 -4 -22 -9 -23 -84 -23 l-79 0 0 28 c0 15 5 33 12 40 16 16 120 15
138 0 12 -11 12 -10 1 5 -19 25 -121 24 -144 -1z"/>
<path d="M5172 3078 c-7 -7 -12 -29 -12 -50 l0 -39 88 3 c79 3 87 5 88 23 1
15 0 16 -3 3 -4 -15 -16 -18 -84 -18 l-80 0 3 38 3 37 63 3 c41 2 70 -2 80
-10 15 -12 16 -11 3 5 -10 13 -28 17 -75 17 -35 0 -67 -5 -74 -12z"/>
<path d="M1075 3069 c4 -5 14 -9 23 -9 15 0 15 -2 2 -10 -11 -7 -11 -10 -2
-10 7 0 10 -4 7 -10 -3 -5 3 -10 14 -10 12 0 21 5 21 10 0 6 -6 10 -12 10 -9
0 -8 4 2 10 8 5 13 10 10 10 -3 0 -20 4 -38 9 -20 6 -30 6 -27 0z"/>
<path d="M5544 3022 c5 -8 76 -4 76 4 0 2 -18 4 -41 4 -22 0 -38 -4 -35 -8z"/>
<path d="M5582 2970 c0 -14 2 -19 5 -12 2 6 2 18 0 25 -3 6 -5 1 -5 -13z"/>
<path d="M4234 2969 c-3 -6 -1 -16 5 -22 9 -9 11 -8 6 6 -9 21 -1 22 30 1 24
-16 25 -15 25 7 0 19 -2 21 -10 9 -7 -12 -12 -12 -22 -2 -15 15 -25 15 -34 1z"/>
<path d="M982 2948 c-7 -7 -12 -29 -12 -50 l0 -38 85 0 c47 0 85 3 85 8 0 4
-36 6 -81 4 l-80 -4 3 39 3 38 70 6 70 5 -65 2 c-40 1 -71 -3 -78 -10z"/>
<path d="M5565 2930 c17 -4 25 -8 19 -9 -5 0 -19 -8 -30 -16 -18 -13 -16 -14
26 -13 40 0 41 1 15 7 -29 7 -29 7 -7 15 35 12 26 26 -15 25 -38 -1 -38 -1 -8
-9z"/>
<path d="M4252 2910 c0 -14 2 -19 5 -12 2 6 2 18 0 25 -3 6 -5 1 -5 -13z"/>
<path d="M4281 2904 c0 -11 3 -14 6 -6 3 7 2 16 -1 19 -3 4 -6 -2 -5 -13z"/>
<path d="M4263 2873 c9 -2 23 -2 30 0 6 3 -1 5 -18 5 -16 0 -22 -2 -12 -5z"/>
<path d="M5572 2860 c0 -14 2 -19 5 -12 2 6 2 18 0 25 -3 6 -5 1 -5 -13z"/>
<path d="M5592 2860 c0 -14 2 -19 5 -12 2 6 2 18 0 25 -3 6 -5 1 -5 -13z"/>
<path d="M1673 2825 c0 -27 2 -38 4 -22 2 15 2 37 0 50 -2 12 -4 0 -4 -28z"/>
<path d="M4923 2863 c9 -2 23 -2 30 0 6 3 -1 5 -18 5 -16 0 -22 -2 -12 -5z"/>
<path d="M4878 2853 c7 -3 16 -2 19 1 4 3 -2 6 -13 5 -11 0 -14 -3 -6 -6z"/>
<path d="M5100 2858 c3 -2 16 -12 29 -23 14 -11 21 -14 16 -6 -6 10 -2 12 16
7 17 -5 19 -4 9 2 -14 9 -81 28 -70 20z"/>
<path d="M5573 2823 c9 -2 25 -2 35 0 9 3 1 5 -18 5 -19 0 -27 -2 -17 -5z"/>
<path d="M4142 2808 c-7 -7 -12 -29 -12 -50 l0 -38 85 0 85 0 0 38 c0 21 -5
43 -12 50 -16 16 -130 16 -146 0z m146 -40 l3 -38 -75 0 -76 0 0 33 c0 19 3
37 7 41 4 4 37 6 73 4 l65 -3 3 -37z"/>
<path d="M4748 2804 c-29 -15 -35 -28 -18 -39 6 -3 7 1 4 9 -3 9 -2 16 3 16 5
0 18 7 29 15 24 18 17 18 -18 -1z"/>
<path d="M5210 2816 c0 -2 7 -7 16 -10 8 -3 12 -2 9 4 -6 10 -25 14 -25 6z"/>
<path d="M5170 2807 c0 -1 35 -36 78 -77 l77 -75 -75 78 c-69 71 -80 82 -80
74z"/>
<path d="M5250 2797 c0 -3 12 -12 26 -22 15 -9 23 -12 20 -6 -7 11 -46 35 -46
28z"/>
<path d="M5452 2758 c-7 -7 -12 -29 -12 -50 l0 -39 88 3 87 3 1 30 c1 28 1 28
-3 3 -4 -28 -5 -28 -84 -28 l-80 0 3 38 3 37 77 0 c42 0 74 3 71 8 -7 12 -138
8 -151 -5z"/>
<path d="M5185 2670 c38 -38 72 -70 74 -70 3 0 -26 32 -64 70 -38 39 -72 70
-74 70 -3 0 26 -31 64 -70z"/>
<path d="M502 2718 c-7 -7 -12 -29 -12 -50 l0 -38 85 0 85 0 -1 28 c-2 23 -2
24 -6 5 -4 -21 -10 -23 -79 -23 l-75 0 3 38 3 37 63 3 c41 2 70 -2 80 -10 15
-12 16 -11 3 5 -10 13 -28 17 -75 17 -35 0 -67 -5 -74 -12z"/>
<path d="M5465 2583 c15 -24 30 -43 32 -43 7 0 -31 61 -46 73 -8 7 -2 -7 14
-30z"/>
<path d="M5520 2490 c11 -22 17 -40 14 -40 -4 0 0 -8 8 -17 9 -10 27 -49 41
-88 14 -38 26 -64 26 -58 2 29 -91 243 -104 243 -3 0 4 -18 15 -40z"/>
<path d="M4555 2470 c21 -22 41 -40 44 -40 3 0 -13 18 -34 40 -21 22 -41 40
-44 40 -3 0 13 -18 34 -40z"/>
<path d="M3177 2340 c-3 -8 -8 -40 -12 -70 -3 -30 -9 -65 -12 -77 -4 -17 -1
-23 11 -23 14 0 16 -28 16 -260 0 -233 -2 -260 -16 -260 -13 0 -15 -7 -10 -32
3 -18 9 -56 13 -85 l6 -53 -354 -3 -354 -2 405 -1 c223 0 385 1 361 3 -43 4
-43 5 -37 36 15 76 19 137 7 137 -16 0 -16 517 1 522 8 3 7 27 -4 94 -8 49
-17 82 -21 74z"/>
<path d="M4371 2244 c0 -11 3 -14 6 -6 3 7 2 16 -1 19 -3 4 -6 -2 -5 -13z"/>
<path d="M3094 2005 c-10 -24 4 -45 28 -44 l23 2 -22 4 c-13 2 -23 9 -23 14 0
5 10 9 23 10 21 1 21 1 -3 8 l-25 8 25 5 c24 5 24 5 2 7 -12 0 -25 -6 -28 -14z"/>
<path d="M3074 1942 c5 -8 66 -4 66 4 0 2 -16 4 -36 4 -19 0 -33 -4 -30 -8z"/>
<path d="M2578 1903 c18 -2 45 -2 60 0 15 2 0 4 -33 4 -33 0 -45 -2 -27 -4z"/>
<path d="M2738 1903 c18 -2 45 -2 60 0 15 2 0 4 -33 4 -33 0 -45 -2 -27 -4z"/>
<path d="M2893 1903 c15 -2 39 -2 55 0 15 2 2 4 -28 4 -30 0 -43 -2 -27 -4z"/>
<path d="M3728 1903 c18 -2 45 -2 60 0 15 2 0 4 -33 4 -33 0 -45 -2 -27 -4z"/>
<path d="M3878 1903 c18 -2 45 -2 60 0 15 2 0 4 -33 4 -33 0 -45 -2 -27 -4z"/>
<path d="M4038 1903 c18 -2 45 -2 60 0 15 2 0 4 -33 4 -33 0 -45 -2 -27 -4z"/>
<path d="M5898 1903 c18 -2 45 -2 60 0 15 2 0 4 -33 4 -33 0 -45 -2 -27 -4z"/>
<path d="M6058 1903 c18 -2 45 -2 60 0 15 2 0 4 -33 4 -33 0 -45 -2 -27 -4z"/>
<path d="M6213 1903 c15 -2 39 -2 55 0 15 2 2 4 -28 4 -30 0 -43 -2 -27 -4z"/>
<path d="M3036 1872 c-2 -4 14 -6 37 -4 68 5 76 10 20 11 -28 0 -54 -2 -57 -7z"/>
<path d="M3013 1803 c26 -2 67 -2 90 0 23 2 2 3 -48 3 -49 0 -68 -1 -42 -3z"/>
<path d="M167 1793 c-13 -12 -7 -50 9 -64 14 -11 19 -10 35 10 11 13 19 28 19
35 -1 6 -8 -2 -16 -17 -19 -36 -39 -30 -39 11 0 18 0 32 -1 32 0 0 -4 -3 -7
-7z"/>
<path d="M238 1793 c7 -3 16 -2 19 1 4 3 -2 6 -13 5 -11 0 -14 -3 -6 -6z"/>
<path d="M271 1768 c0 -9 -4 -25 -7 -35 -5 -17 -5 -17 6 0 6 10 9 25 7 35 -4
15 -5 15 -6 0z"/>
<path d="M4391 1505 c1 -19 18 -51 18 -35 0 8 -4 22 -9 30 -5 8 -9 11 -9 5z"/>
<path d="M5566 1425 c-10 -25 -22 -43 -27 -40 -5 4 -6 -2 -2 -12 5 -14 12 -6
31 35 13 30 22 55 19 58 -2 2 -12 -16 -21 -41z"/>
<path d="M4410 1445 c1 -6 7 -21 15 -35 14 -24 15 -24 12 -2 -3 22 -27 55 -27
37z"/>
<path d="M4595 1380 c38 -38 72 -70 74 -70 3 0 -26 32 -64 70 -38 39 -72 70
-74 70 -3 0 26 -31 64 -70z"/>
<path d="M4470 1387 c0 -1 35 -36 78 -77 l77 -75 -75 78 c-69 71 -80 82 -80
74z"/>
<path d="M4440 1376 c0 -11 30 -66 36 -66 2 0 -3 15 -12 33 -19 36 -24 44 -24
33z"/>
<path d="M5483 1313 c11 -12 16 -27 12 -32 -3 -6 -4 -11 -1 -11 3 0 11 10 17
23 6 12 8 19 4 14 -5 -4 -18 1 -29 10 -21 18 -21 18 -3 -4z"/>
<path d="M4490 1280 c6 -11 13 -20 16 -20 2 0 0 9 -6 20 -6 11 -13 20 -16 20
-2 0 0 -9 6 -20z"/>
<path d="M5425 1249 c32 -39 39 -40 55 -6 11 21 11 21 -4 3 -16 -19 -17 -19
-48 10 l-32 29 29 -36z"/>
<path d="M4765 1200 c38 -38 72 -70 74 -70 3 0 -26 32 -64 70 -38 39 -72 70
-74 70 -3 0 26 -31 64 -70z"/>
<path d="M4715 1150 c38 -38 72 -70 74 -70 3 0 -26 32 -64 70 -38 39 -72 70
-74 70 -3 0 26 -31 64 -70z"/>
<path d="M5375 1180 c17 -19 30 -35 30 -36 0 -1 11 13 24 30 l24 31 -23 -22
-24 -23 -31 28 -30 27 30 -35z"/>
<path d="M4610 1126 c30 -31 69 -67 85 -78 34 -24 35 -25 -65 67 -71 66 -72
67 -20 11z"/>
<path d="M5317 1120 c32 -34 33 -34 50 -15 17 18 17 18 0 5 -15 -11 -22 -9
-50 16 l-32 29 32 -35z"/>
<path d="M5254 1083 c16 -18 25 -36 21 -43 -12 -19 29 5 45 27 13 17 13 17 -5
1 -18 -17 -21 -17 -55 15 l-35 32 29 -32z"/>
<path d="M4933 1035 c31 -33 57 -66 57 -72 0 -6 -10 -14 -22 -16 -13 -2 -1 -5
25 -6 32 -1 46 3 42 10 -4 6 -13 8 -21 5 -8 -3 -13 -2 -13 2 1 4 0 23 -1 42
-2 27 -4 30 -7 11 -5 -22 -7 -21 -61 30 l-57 54 58 -60z"/>
<path d="M4858 1009 c23 -25 39 -48 36 -52 -4 -4 3 -7 16 -7 13 0 21 1 19 3
-2 1 -29 25 -59 52 l-55 50 43 -46z"/>
<path d="M5188 1029 c12 -14 19 -29 15 -33 -4 -4 1 -4 10 0 10 3 17 7 15 8 -2
0 -16 12 -33 26 l-30 25 23 -26z"/>
<path d="M1673 985 c0 -27 2 -38 4 -22 2 15 2 37 0 50 -2 12 -4 0 -4 -28z"/>
<path d="M4750 1015 c0 -7 61 -37 66 -33 2 3 -12 12 -31 21 -19 9 -35 15 -35
12z"/>
<path d="M5160 980 c-8 -5 -10 -10 -5 -10 6 0 17 5 25 10 8 5 11 10 5 10 -5 0
-17 -5 -25 -10z"/>
<path d="M4840 970 c8 -5 22 -9 30 -9 10 0 8 3 -5 9 -27 12 -43 12 -25 0z"/>
<path d="M5115 970 c-3 -5 1 -10 10 -10 9 0 13 5 10 10 -3 6 -8 10 -10 10 -2
0 -7 -4 -10 -10z"/>
<path d="M5068 953 c6 -2 18 -2 25 0 6 3 1 5 -13 5 -14 0 -19 -2 -12 -5z"/>
<path d="M1615 799 c-4 -6 -5 -12 -2 -15 2 -3 7 2 10 11 7 17 1 20 -8 4z"/>
<path d="M1665 799 c-4 -6 -5 -12 -2 -15 2 -3 7 2 10 11 7 17 1 20 -8 4z"/>
<path d="M1025 760 c-22 -5 -55 -10 -72 -11 -46 -4 -41 -15 10 -22 23 -3 61
-9 85 -13 42 -7 42 -6 42 25 0 33 -1 34 -65 21z"/>
</g>
</svg>
